**ABCDEFGHIJKLMNOPQRSTUVWXYZabcdefghijklmnopqrstuvwxyz**************************
**PARASOLID !"#$%&'()*+,-./:;<=>?@[\]^_`{|}~0123456789**************************
**PART1;
MC=AMD64;
MC_MODEL=Intel64 Family 6 Model 165 Stepping 5, GenuineIntel;
MC_ID=unknown;
OS=Windows_NT;
OS_RELEASE=unknown;
FRU=CAD Exchanger 3.9.0 (cadexchanger.com);
APPL=unknown;
SITE=unknown;
USER=unknown;
FORMAT=text;
GUISE=transmit;
KEY=22R_Resistor_CRGCQ0402F22R;
FILE=22R_Resistor_CRGCQ0402F22R.x_t;
DATE=Mon Aug 09 23:43:09 2021;
**PART2;
SCH=SCH_1200000_12006;
USFLD_SIZE=0;
**PART3;
**END_OF_HEADER*****************************************************************
T51 : TRANSMIT FILE created by modeller version 120000017 SCH_1200000_120060 74
 4 1 4 0 2 105 206 475 12 2 68 0 3 0 0 0 0 1000 1e-008 0 0 0 1 0 1 1 12 14 20 18
 9 19 17 70 3 0 2 0 0 4 1 20 0 4 4 1 T74 20 4 1 0 5 0 0 0 0 0 0 0 0 0 0 0 0 0 0
 0 0 0 0 0 81 1 5 7 6 13 0 0 42 0 8 80 1 6 0 7 8001 0 0 0 0 3 5 0 0 FFFFTFTFFFFF
FF2 79 15 7 SDL/TYSA_COLOUR83 3 8 1 1 1 19 9 1 0 2 11 0 10 V13 10 2 0 2 0 0 0 0
 9 13 19 11 3 0 2 0 9 12 S13 12 4 0 2 0 13 0 0 11 0 14 13 5 5 1e-008 40 0 15 12
 14 +0 0 40 0 10 50 14 6 0 13 41 0 0 +6.349999999996938e-008 -0.00024990348 1.27
8127999999998e-005 -1.224646799147353e-016 -1 -6.123233995736766e-017 1 -1.22464
6799147353e-016 0 15 15 8 0 16 13 0 17 16 0 15 24 36 17 21 19 0 29 -18 17 9 0 16
 0 22 18 ?2 29 18 10 0 17 23 0 0.0004800634999999995 -0.0002499034800000001 0.00
039278128 16 19 11 0 ?21 0 27 20 0 0 2 30 20 12 0 19 28 0 0 +0.00048006349999999
95 -0.0002499034800000001 3.278128000000006e-005 7.498798913309288e-033 6.123233
995736766e-017 -1 17 21 0 104 77 99 22 16 19 0 36 +18 22 13 0 21 17 25 23 ?2 29
 23 14 0 22 26 18 0.0004800634999999995 -0.0002499034800000001 3.278128000000006
e-005 17 24 0 15 30 16 25 29 27 0 0 -18 25 15 0 35 22 31 26 ?2 29 26 16 0 25 32
 23 -0.0004799364999999996 -0.00024990348 0.00039278128 16 27 17 0 ?29 19 33 28
 0 0 2 30 28 18 0 27 34 20 0 +0.0004800634999999995 -0.0002499034800000001 0.000
39278128 1 -1.224646799147353e-016 0 17 29 0 95 96 90 17 24 27 0 99 +17 30 0 15
 36 24 31 35 33 0 0 -18 31 19 0 81 25 46 32 ?2 29 32 20 0 31 47 26 -0.0004799364
999999996 -0.00024990348 3.278128000000006e-005 16 33 21 0 ?35 27 37 34 0 0 2 30
 34 22 0 33 38 28 0 +-0.0004799364999999996 -0.00024990348 3.278128000000006e-00
5 -7.498798913309288e-033 -6.123233995736766e-017 1 17 35 0 86 87 81 25 30 33 0
 90 +17 36 0 15 16 30 22 39 37 0 74 -16 37 23 0 ?39 33 48 38 0 0 2 30 38 24 0 37
 49 34 0 +0.0004800634999999995 -0.0002499034800000001 3.278128000000006e-005 -1
 1.224646799147353e-016 -3.529303946892921e-018 17 39 0 73 78 74 31 36 37 0 30 +
14 40 25 42 1e-008 69 13 44 12 41 -0 0 69 13 10 50 41 26 0 40 70 14 0 +6.3500000
00003062e-008 0.00025009652 1.278128000000002e-005 -1.224646799147353e-016 -1 -6
.123233995736766e-017 1 -1.224646799147353e-016 0 81 1 42 27 6 40 0 0 71 5 43 83
 3 43 1 1 1 15 44 28 0 45 40 0 17 45 0 44 53 65 46 50 48 0 58 +18 46 29 0 45 31
 51 47 ?2 29 47 30 0 46 52 32 0.0004800634999999996 0.0002500965199999999 3.2781
28000000009e-005 16 48 31 0 ?45 37 56 49 0 0 2 30 49 32 0 48 57 38 0 +0.00048006
34999999996 0.0002500965199999999 3.278128000000009e-005 7.498798913309288e-033
 6.123233995736766e-017 -1 17 50 0 104 99 77 51 45 48 0 0 -18 51 33 0 65 46 54 5
2 ?2 29 52 34 0 51 55 47 0.0004800634999999996 0.0002500965199999999 0.000392781
28 17 53 0 44 59 45 54 58 56 0 0 +18 54 35 0 64 51 60 55 ?2 29 55 36 0 54 61 52
 -0.0004799364999999995 0.00025009652 3.278128000000009e-005 16 56 37 0 ?53 48 6
2 57 0 0 2 30 57 38 0 56 63 49 0 +0.0004800634999999996 0.0002500965199999999 3.
278128000000009e-005 -1 1.224646799147353e-016 -3.529303946892921e-018 17 58 0 7
3 74 78 46 53 56 0 77 -17 59 0 44 65 53 60 64 62 0 87 +18 60 39 0 59 54 0 61 ?2
 29 61 40 0 60 0 55 -0.0004799364999999995 0.00025009652 0.00039278128 16 62 41
 0 ?59 56 66 63 0 0 2 30 63 42 0 62 67 57 0 +-0.0004799364999999995 0.0002500965
2 3.278128000000009e-005 -7.498798913309288e-033 -6.123233995736766e-017 1 17 64
 0 86 81 87 54 59 62 0 78 -17 65 0 44 45 59 51 68 66 0 96 +16 66 43 0 ?65 62 75
 67 0 0 2 30 67 44 0 66 76 63 0 +0.0004800634999999996 0.0002500965199999999 0.0
0039278128 1 -1.224646799147353e-016 -0 17 68 0 95 90 96 60 65 66 0 0 -14 69 45
 71 1e-008 82 40 73 12 70 +0 0 82 40 10 50 70 46 0 69 83 41 0 +0.000480063499999
9994 -0.001275183929438103 3.278128e-005 3.529303946892929e-018 6.12323399573676
6e-017 -1 -1 1.224646799147353e-016 -3.529303946892921e-018 81 1 71 47 6 69 0 0
 84 42 72 83 3 72 1 1 1 15 73 48 0 74 69 0 17 74 0 73 39 58 22 77 75 0 0 -16 75
 49 0 ?77 66 79 76 0 0 2 30 76 50 0 75 80 67 0 +0.0004800634999999994 -0.0012751
83929438103 3.278128e-005 1.224646799147353e-016 1 6.123233995736766e-017 17 77
 0 104 50 21 46 74 75 0 0 +17 78 0 73 58 39 54 81 79 0 53 +16 79 51 0 ?78 75 88
 80 0 0 2 30 80 52 0 79 89 76 0 +-0.0004799364999999997 -0.001275183929438103 3.
278128e-005 1.224646799147353e-016 1 6.123233995736766e-017 17 81 0 86 35 64 31
 78 79 0 39 -14 82 53 84 1e-008 91 69 86 12 83 +0 0 91 69 10 50 83 54 0 82 92 70
 0 +-0.0004799364999999997 -0.001275183929438103 3.278128e-005 -1 1.224646799147
353e-016 0 -1.224646799147353e-016 -1 -6.123233995736766e-017 81 1 84 55 6 82 0
 0 93 71 85 83 3 85 1 1 1 15 86 56 0 81 82 0 17 87 0 86 64 35 60 90 88 0 68 +16
 88 57 0 ?87 79 97 89 0 0 2 30 89 58 0 88 98 80 0 +-0.0004799364999999997 -0.001
275183929438103 0.0003927812799999999 1.224646799147353e-016 1 6.123233995736766
e-017 17 90 0 95 29 68 25 87 88 0 24 -14 91 59 93 1e-008 100 82 95 12 92 +0 0 10
0 82 10 50 92 60 0 91 101 83 0 +0.0004800634999999994 -0.001275183929438103 0.00
03927812799999999 -7.498798913309288e-033 -6.123233995736766e-017 1 1.2246467991
47353e-016 1 6.123233995736766e-017 81 1 93 61 6 91 0 0 102 84 94 83 3 94 1 1 1
 15 95 62 0 90 91 0 17 96 0 95 68 29 51 99 97 0 50 +16 97 63 0 ?96 88 0 98 0 0 2
 30 98 64 0 97 0 89 0 +0.0004800634999999994 -0.001275183929438103 0.00039278127
99999999 1.224646799147353e-016 1 6.123233995736766e-017 17 99 0 104 21 50 17 96
 97 0 0 -14 100 65 102 1e-008 0 91 104 12 101 +0 0 0 91 10 50 101 66 0 100 0 92
 0 +0.0004800634999999994 -0.001275183929438103 3.278128e-005 1 -1.2246467991473
53e-016 0 1.224646799147353e-016 1 6.123233995736766e-017 81 1 102 67 6 100 0 0
 0 93 103 83 3 103 1 1 1 15 104 68 0 99 100 0 12 105 68 0 106 0 0 0 0 1000 1e-00
8 0 0 0 1 0 1 1 113 115 121 119 110 120 118 70 106 0 105 0 0 4 1 20 0 107 107 1
 T74 20 107 1 0 108 0 0 0 0 0 0 0 0 0 0 0 0 0 0 0 0 0 0 0 81 1 108 7 6 114 0 0 1
43 0 109 83 3 109 0.250980406999588 0.250980406999588 0.250980406999588 19 110 1
 0 105 112 0 111 V13 111 2 0 105 0 0 0 0 110 114 19 112 3 0 105 0 110 113 S13 11
3 4 0 105 0 114 0 0 112 0 14 114 5 108 1e-008 141 0 116 113 115 +0 0 141 0 111 5
0 115 6 0 114 142 0 0 +0.0002500634999999996 -0.00024990348 -0.00031432550118654
69 1 3.112161890794664e-016 9.856383386231863e-017 -3.112161890794664e-016 1 6.1
23233995736766e-017 15 116 8 0 117 114 0 17 117 0 116 125 137 118 122 120 0 191
 -18 118 9 0 117 0 123 119 ?105 29 119 10 0 118 124 0 0.0002500634999999995 0.00
02500965199999999 0.0003927812799999999 16 120 11 0 ?122 0 128 121 0 0 105 30 12
1 12 0 120 129 0 0 +0.0002500634999999996 -0.0002499034800000001 0.0003927812799
999999 3.112161890794664e-016 -1 -6.123233995736766e-017 17 122 0 205 149 191 12
3 117 120 0 137 +18 123 13 0 122 118 126 124 ?105 29 124 14 0 123 127 119 0.0002
500634999999996 -0.0002499034800000001 0.0003927812799999999 17 125 0 116 131 11
7 126 130 128 0 192 +18 126 15 0 125 123 132 127 ?105 29 127 16 0 126 133 124 0.
0002500634999999994 0.0002500965199999999 0.0004127812800000001 16 128 17 0 ?125
 120 134 129 0 0 105 30 129 18 0 128 135 121 0 +0.0002500634999999995 0.00025009
652 -0.0003143255011865469 -9.856383386231861e-017 -6.123233995736765e-017 1 17
 130 0 187 188 192 118 125 128 0 0 -17 131 0 116 137 125 132 136 134 0 157 -18 1
32 19 0 140 126 150 133 ?105 29 133 20 0 132 151 127 0.0002500634999999996 -0.00
02499034800000001 0.0004127812800000001 16 134 21 0 ?136 128 138 135 0 0 105 30
 135 22 0 134 139 129 0 +0.0002500634999999996 -0.0002499034800000001 0.00041278
12800000001 -3.112161890794664e-016 1 6.123233995736766e-017 17 136 0 200 195 15
7 126 131 134 0 0 +17 137 0 116 117 131 123 140 138 0 146 -16 138 23 0 ?140 134
 147 139 0 0 105 30 139 24 0 138 148 135 0 +0.0002500634999999996 -0.00024990348
 -0.0003143255011865469 -9.856383386231861e-017 -6.123233995736765e-017 1 17 140
 0 145 152 146 132 137 138 0 131 +14 141 25 143 1e-008 162 114 145 113 142 +0 0
 162 114 111 50 142 26 0 141 163 115 0 +0.0002500634999999996 -0.00024990348 -0.
0003143255011865469 -1.224646799147353e-016 -1 -6.123233995736766e-017 1 -1.2246
46799147353e-016 0 81 1 143 27 6 141 0 0 164 108 144 83 3 144 0.250980406999588
 0.250980406999588 0.250980406999588 15 145 28 0 146 141 0 17 146 0 145 140 158
 123 149 147 0 0 -16 147 29 0 ?149 138 155 148 0 0 105 30 148 30 0 147 156 139 0
 +0.0002500634999999996 -0.0002499034800000001 0.0003927812799999999 -1 1.224646
799147353e-016 0 17 149 0 205 170 122 150 146 147 0 167 +18 150 31 0 158 132 153
 151 ?105 29 151 32 0 150 154 133 -0.0002499364999999997 -0.00024990348 0.000392
7812799999999 17 152 0 145 158 140 153 157 155 0 0 -18 153 33 0 161 150 171 154
 ?105 29 154 34 0 153 172 151 -0.0002499364999999997 -0.00024990348 0.0004127812
800000001 16 155 35 0 ?157 147 159 156 0 0 105 30 156 36 0 155 160 148 0 +0.0002
500634999999996 -0.0002499034800000001 0.0004127812800000001 1 -1.22464679914735
3e-016 -0 17 157 0 200 136 178 132 152 155 0 0 +17 158 0 145 146 152 150 161 159
 0 149 -16 159 37 0 ?161 155 168 160 0 0 105 30 160 38 0 159 169 156 0 +-0.00024
99364999999996 -0.00024990348 -0.0003143255011865469 -9.856383386231861e-017 -6.
123233995736765e-017 1 17 161 0 166 173 167 153 158 159 0 178 +14 162 39 164 1e-
008 183 141 166 113 163 +0 0 183 141 111 50 163 40 0 162 184 142 0 +-0.000249936
4999999996 -0.00024990348 -0.0003143255011865469 -1 1.224646799147353e-016 -9.85
638338623186e-017 -9.856383386231861e-017 -6.123233995736765e-017 1 81 1 164 41
 6 162 0 0 185 143 165 83 3 165 0.250980406999588 0.250980406999588 0.2509804069
99588 15 166 42 0 167 162 0 17 167 0 166 161 179 150 170 168 0 0 -16 168 43 0 ?1
70 159 176 169 0 0 105 30 169 44 0 168 177 160 0 +-0.0002499364999999997 -0.0002
4990348 0.0003927812799999999 1.224646799147353e-016 1 6.123233995736766e-017 17
 170 0 205 191 149 171 167 168 0 0 +18 171 45 0 179 153 174 172 ?105 29 172 46 0
 171 175 154 -0.0002499364999999996 0.00025009652 0.0003927812799999999 17 173 0
 166 179 161 174 178 176 0 0 -18 174 47 0 182 171 0 175 ?105 29 175 48 0 174 0 1
72 -0.0002499364999999996 0.00025009652 0.0004127812800000001 16 176 49 0 ?178 1
68 180 177 0 0 105 30 177 50 0 176 181 169 0 +-0.0002499364999999997 -0.00024990
348 0.0004127812800000001 -1.224646799147353e-016 -1 -6.123233995736766e-017 17
 178 0 200 157 195 153 173 176 0 152 +17 179 0 166 167 173 171 182 180 0 188 -16
 180 51 0 ?182 176 189 181 0 0 105 30 181 52 0 180 190 177 0 +-0.000249936499999
9996 0.00025009652 -0.0003143255011865469 -9.856383386231861e-017 -6.12323399573
6765e-017 1 17 182 0 187 192 188 174 179 180 0 195 +14 183 53 185 1e-008 196 162
 187 113 184 +0 0 196 162 111 50 184 54 0 183 197 163 0 +0.0002500634999999995 0
.00025009652 -0.0003143255011865469 1.224646799147353e-016 1 6.123233995736766e-
017 -1 1.224646799147353e-016 0 81 1 185 55 6 183 0 0 198 164 186 83 3 186 0.250
980406999588 0.250980406999588 0.250980406999588 15 187 56 0 188 183 0 17 188 0
 187 182 130 171 191 189 0 170 -16 189 57 0 ?191 180 193 190 0 0 105 30 190 58 0
 189 194 181 0 +0.0002500634999999995 0.0002500965199999999 0.000392781279999999
9 1 -1.224646799147353e-016 0 17 191 0 205 122 170 118 188 189 0 130 +17 192 0 1
87 130 182 126 195 193 0 136 -16 193 59 0 ?195 189 0 194 0 0 105 30 194 60 0 193
 0 190 0 +0.0002500634999999994 0.0002500965199999999 0.0004127812800000001 -1 1
.224646799147353e-016 0 17 195 0 200 178 136 174 192 193 0 173 +14 196 61 198 1e
-008 201 183 200 113 197 +0 0 201 183 111 50 197 62 0 196 202 184 0 +6.350000000
000001e-008 9.651999999997551e-008 0.0004127812800000001 -7.498798913309288e-033
 -6.123233995736766e-017 1 1.224646799147353e-016 1 6.123233995736766e-017 81 1
 198 63 6 196 0 0 203 185 199 83 3 199 0.250980406999588 0.250980406999588 0.250
980406999588 15 200 64 0 136 196 0 14 201 65 203 1e-008 0 196 205 113 202 -0 0 0
 196 111 50 202 66 0 201 0 197 0 +0.0004800634999999994 -0.001275183929438103 0.
0003927812799999999 -7.498798913309288e-033 -6.123233995736766e-017 1 1.22464679
9147353e-016 1 6.123233995736766e-017 81 1 203 67 6 201 0 0 0 198 204 83 3 204 0
.250980406999588 0.250980406999588 0.250980406999588 15 205 68 0 122 201 0 12 20
6 180 0 207 0 0 0 0 1000 1e-008 0 0 0 1 0 1 1 214 216 222 220 211 221 219 70 207
 0 206 0 0 4 1 20 0 208 208 1 T74 20 208 1 0 209 0 0 0 0 0 0 0 0 0 0 0 0 0 0 0 0
 0 0 0 81 1 209 7 6 215 0 0 244 0 210 83 3 210 0.7921568751335144 0.819607853889
4653 0.9333333373069763 19 211 1 0 206 213 0 212 V13 212 2 0 206 0 0 0 0 211 215
 19 213 3 0 206 0 211 214 S13 214 4 0 206 0 215 0 0 213 0 14 215 5 209 1e-008 24
2 0 217 214 216 -0 0 242 0 212 50 216 6 0 215 243 0 0 +0.0002500634999999997 0.0
0025009652 3.278128000000013e-005 1 -1.224646799147353e-016 0 1.224646799147353e
-016 1 6.123233995736766e-017 15 217 8 0 218 215 0 17 218 0 217 226 238 219 223
 221 0 252 +18 219 9 0 218 0 224 220 ?206 29 220 10 0 219 225 0 0.00025006349999
99996 -0.0002499034800000001 3.27812800000001e-005 16 221 11 0 ?218 0 229 222 0
 0 206 30 222 12 0 221 230 0 0 +0.0002500634999999996 -0.0002499034800000001 3.2
7812800000001e-005 -7.498798913309288e-033 -6.123233995736766e-017 1 17 223 0 44
2 424 252 224 218 221 0 238 -18 224 13 0 223 219 227 225 ?206 29 225 14 0 224 22
8 220 0.0002500634999999996 -0.0002499034800000001 1.278127999999998e-005 17 226
 0 217 232 218 227 231 229 0 259 -18 227 15 0 237 224 233 228 ?206 29 228 16 0 2
27 234 225 0.0002500634999999997 0.00025009652 3.278128000000013e-005 16 229 17
 0 ?231 221 235 230 0 0 206 30 230 18 0 229 236 222 0 +0.0002500634999999997 0.0
0025009652 3.278128000000013e-005 -1.224646799147353e-016 -1 -6.123233995736766e
-017 17 231 0 246 247 259 219 226 229 0 0 +17 232 0 217 238 226 233 237 235 0 24
1 -18 233 19 0 428 227 248 234 ?206 29 234 20 0 233 249 228 0.000250063499999999
7 0.00025009652 1.278128000000002e-005 16 235 21 0 ?237 229 239 236 0 0 206 30 2
36 22 0 235 240 230 0 +0.0002500634999999997 0.00025009652 3.278128000000013e-00
5 -7.498798913309288e-033 -6.123233995736766e-017 1 17 237 0 433 262 428 227 232
 235 0 226 +17 238 0 217 218 232 224 241 239 0 421 +16 239 23 0 ?238 235 250 240
 0 0 206 30 240 24 0 239 251 236 0 +0.0002500634999999997 0.00025009652 1.278128
000000002e-005 -1.224646799147353e-016 -1 -6.123233995736766e-017 17 241 0 420 4
25 421 233 238 239 0 0 -14 242 25 244 1e-008 263 215 246 214 243 -0 0 263 215 21
2 50 243 26 0 242 264 216 0 +0.0002500634999999997 0.00025009652 3.2781280000000
13e-005 -1.32579070005021e-016 6.123233995736767e-017 -1 -1 1.224646799147353e-0
16 1.32579070005021e-016 81 1 244 27 6 242 0 0 265 209 245 83 3 245 0.7921568751
335144 0.8196078538894653 0.9333333373069763 15 246 28 0 247 242 0 17 247 0 246
 253 231 248 252 250 0 258 +18 248 29 0 247 233 254 249 ?206 29 249 30 0 248 255
 234 0.0004800634999999995 -0.0002499034800000001 3.278128000000006e-005 16 250
 31 0 ?247 239 256 251 0 0 206 30 251 32 0 250 257 240 0 +0.0002500634999999996
 -0.0002499034800000001 3.27812800000001e-005 1 -1.224646799147353e-016 -1.32579
070005021e-016 17 252 0 442 223 273 219 247 250 0 231 -17 253 0 246 259 247 254
 258 256 0 262 -18 254 33 0 280 248 269 255 ?206 29 255 34 0 254 270 249 0.00048
00634999999996 0.0002500965199999999 3.278128000000009e-005 16 256 35 0 ?258 250
 260 257 0 0 206 30 257 36 0 256 261 251 0 +0.0004800634999999996 0.000250096519
9999999 3.278128000000009e-005 -1.224646799147353e-016 -1 -6.123233995736766e-01
7 17 258 0 267 268 280 248 253 256 0 273 +17 259 0 246 231 253 227 262 260 0 0 -
16 260 37 0 ?262 256 271 261 0 0 206 30 261 38 0 260 272 257 0 +0.00025006349999
99997 0.00025009652 3.278128000000013e-005 1 -1.224646799147353e-016 -1.32579070
005021e-016 17 262 0 433 283 237 254 259 260 0 0 +14 263 39 265 1e-008 284 242 2
67 214 264 -0 0 284 242 212 50 264 40 0 263 285 243 0 +0.0004800634999999996 0.0
002500965199999999 3.278128000000009e-005 1 -1.224646799147353e-016 0 1.22464679
9147353e-016 1 6.123233995736766e-017 81 1 265 41 6 263 0 0 286 244 266 83 3 266
 0.7921568751335144 0.8196078538894653 0.9333333373069763 15 267 42 0 268 263 0
 17 268 0 267 274 258 269 273 271 0 279 +18 269 43 0 312 254 275 270 ?206 29 270
 44 0 269 276 255 0.0004800634999999995 -0.0002499034800000001 0.00039278128 16
 271 45 0 ?268 260 277 272 0 0 206 30 272 46 0 271 278 261 0 +0.0004800634999999
995 -0.0002499034800000001 3.278128000000006e-005 -7.498798913309288e-033 -6.123
233995736766e-017 1 17 273 0 442 252 312 248 268 271 0 0 -17 274 0 267 280 268 2
75 279 277 0 0 -18 275 47 0 283 269 290 276 ?206 29 276 48 0 275 291 270 0.00048
00634999999996 0.0002500965199999999 0.00039278128 16 277 49 0 ?279 271 281 278
 0 0 206 30 278 50 0 277 282 272 0 +0.0004800634999999996 0.0002500965199999999
 0.00039278128 -1.224646799147353e-016 -1 -6.123233995736766e-017 17 279 0 288 3
07 303 269 274 277 0 0 +17 280 0 267 258 274 254 283 281 0 253 -16 281 51 0 ?283
 277 292 282 0 0 206 30 282 52 0 281 293 278 0 +0.0004800634999999996 0.00025009
65199999999 3.278128000000009e-005 -7.498798913309288e-033 -6.123233995736766e-0
17 1 17 283 0 433 306 262 275 280 281 0 303 +14 284 53 286 1e-008 329 263 288 21
4 285 -0 0 329 263 212 50 285 54 0 284 330 264 0 +0.0004800634999999996 0.000250
0965199999999 0.00039278128 -7.498798913309288e-033 -6.123233995736766e-017 1 1.
224646799147353e-016 1 6.123233995736766e-017 81 1 286 55 6 284 0 0 331 265 287
 83 3 287 0.7921568751335144 0.8196078538894653 0.9333333373069763 15 288 56 0 2
89 284 0 17 289 0 288 297 325 290 294 292 0 302 +18 290 57 0 289 275 295 291 ?20
6 29 291 58 0 290 296 276 0.0003500634999999994 0.0001667631866666666 0.00039278
128 16 292 59 0 ?289 281 300 293 0 0 206 30 293 60 0 292 301 282 0 +0.0002500634
999999994 0.0001667631866666666 0.0003927812799999999 1 -1.224646799147354e-016
 5.42101086242752e-016 17 294 0 474 345 469 295 289 292 0 325 -18 295 61 0 342 2
90 298 296 ?206 29 296 62 0 295 299 291 0.0002500634999999994 0.0001667631866666
666 0.0003927812799999999 17 297 0 288 303 289 298 302 300 0 306 +18 298 63 0 29
7 295 308 299 ?206 29 299 64 0 298 309 296 0.0003500634999999995 0.0002500965199
999999 0.00039278128 16 300 65 0 ?297 292 304 301 0 0 206 30 301 66 0 300 305 29
3 0 +0.0003500634999999995 0.0002500965199999999 0.00039278128 1.224646799147353
e-016 1 6.123233995736766e-017 17 302 0 465 466 437 290 297 300 0 469 -17 303 0
 288 279 297 275 306 304 0 274 -16 304 67 0 ?306 300 310 305 0 0 206 30 305 68 0
 304 311 301 0 +0.0004800634999999996 0.0002500965199999999 0.00039278128 -1 1.2
24646799147353e-016 0 17 306 0 433 434 283 298 303 304 0 437 +17 307 0 288 313 2
79 308 312 310 0 318 +18 308 69 0 307 298 314 309 ?206 29 309 70 0 308 315 299 0
.0003500634999999994 -0.0002499034800000001 0.00039278128 16 310 71 0 ?307 304 3
16 311 0 0 206 30 311 72 0 310 317 305 0 +0.0004800634999999995 -0.0002499034800
000001 0.00039278128 -1 1.224646799147353e-016 0 17 312 0 442 273 443 269 307 31
0 0 268 -17 313 0 288 319 307 314 318 316 0 455 +18 314 73 0 313 308 320 315 ?20
6 29 315 74 0 314 321 309 0.0003500634999999994 -0.0001665701466666666 0.0003927
8128 16 316 75 0 ?313 310 322 317 0 0 206 30 317 76 0 316 323 311 0 +0.000350063
4999999994 -0.00024990348 0.00039278128 1.224646799147353e-016 1 6.1232339957367
66e-017 17 318 0 460 446 455 308 313 316 0 443 -17 319 0 288 325 313 320 324 322
 0 328 +18 320 77 0 349 314 335 321 ?206 29 321 78 0 320 336 315 0.0002500634999
999993 -0.0001665701466666666 0.0003927812799999999 16 322 79 0 ?319 316 326 323
 0 0 206 30 323 80 0 322 327 317 0 +0.0002500634999999993 -0.0001665701466666666
 0.0003927812799999999 -1 -4.196364063280167e-016 -5.42101086242752e-016 17 324
 0 451 452 349 314 319 322 0 0 -17 325 0 288 289 319 295 328 326 0 0 -16 326 81
 0 ?328 322 337 327 0 0 206 30 327 82 0 326 338 323 0 +0.0002500634999999997 0.0
002500965199999999 0.00039278128 -1.224646799147353e-016 -1 -6.123233995736766e-
017 17 328 0 333 346 342 320 325 326 0 0 +14 329 83 331 1e-008 350 284 333 214 3
30 -0 0 350 284 212 50 330 84 0 329 351 285 0 +0.0002500634999999997 0.000250096
5199999999 0.0004127812800000001 1 -1.224646799147353e-016 0 1.224646799147353e-
016 1 6.123233995736766e-017 81 1 331 85 6 329 0 0 352 286 332 83 3 332 0.792156
8751335144 0.8196078538894653 0.9333333373069763 15 333 86 0 334 329 0 17 334 0
 333 342 346 335 339 337 0 0 -18 335 87 0 345 320 340 336 ?206 29 336 88 0 335 3
41 321 0.0002500634999999994 0.0001667631866666666 0.0004127812800000001 16 337
 89 0 ?339 326 343 338 0 0 206 30 338 90 0 337 344 327 0 +0.0002500634999999997
 0.0002500965199999999 0.0004127812800000001 -1.224646799147353e-016 -1 -6.12323
3995736766e-017 17 339 0 354 373 369 340 334 337 0 0 +18 340 91 0 346 335 356 34
1 ?206 29 341 92 0 340 357 336 0.0002500634999999993 -0.0001665701466666666 0.00
04127812800000001 17 342 0 333 328 334 295 345 343 0 294 -16 343 93 0 ?345 337 3
47 344 0 0 206 30 344 94 0 343 348 338 0 +0.0002500634999999994 0.00016676318666
66666 0.0003927812799999999 -9.856383386231861e-017 -6.123233995736765e-017 1 17
 345 0 474 372 294 335 342 343 0 369 +17 346 0 333 334 328 340 349 347 0 378 +16
 347 95 0 ?346 343 358 348 0 0 206 30 348 96 0 347 359 344 0 +0.0002500634999999
993 -0.0001665701466666666 0.0003927812799999999 -9.856383386231861e-017 -6.1232
33995736765e-017 1 17 349 0 451 324 378 320 346 347 0 319 -14 350 97 352 1e-008
 395 329 354 214 351 -0 0 395 329 212 50 351 98 0 350 396 330 0 +0.0005000634999
999997 0.0002500965199999999 0.0004127812800000001 7.498798913309288e-033 6.1232
33995736766e-017 -1 -1.224646799147353e-016 -1 -6.123233995736766e-017 81 1 352
 99 6 350 0 0 397 331 353 83 3 353 0.7921568751335144 0.8196078538894653 0.93333
33373069763 15 354 100 0 355 350 0 17 355 0 354 363 391 356 360 358 0 368 -18 35
6 101 0 434 340 361 357 ?206 29 357 102 0 356 362 341 0.0003500634999999995 0.00
02500965199999999 0.0004127812800000001 16 358 103 0 ?360 347 366 359 0 0 206 30
 359 104 0 358 367 348 0 +0.0005000634999999997 0.0002500965199999999 0.00041278
12800000001 1 -1.224646799147353e-016 -0 17 360 0 433 415 434 361 355 358 0 391
 +18 361 105 0 412 356 364 362 ?206 29 362 106 0 361 365 357 0.00050006349999999
97 0.0002500965199999999 0.0004127812800000001 17 363 0 354 369 355 364 368 366
 0 0 -18 364 107 0 372 361 374 365 ?206 29 365 108 0 364 375 362 0.0003500634999
999994 0.0001667631866666666 0.0004127812800000001 16 366 109 0 ?368 358 370 367
 0 0 206 30 367 110 0 366 371 359 0 +0.0003500634999999995 0.0002500965199999999
 0.0004127812800000001 1.224646799147353e-016 1 6.123233995736766e-017 17 368 0
 465 437 466 356 363 366 0 0 +17 369 0 354 339 363 335 372 370 0 334 -16 370 111
 0 ?372 366 376 371 0 0 206 30 371 112 0 370 377 367 0 +0.0002500634999999994 0.
0001667631866666666 0.0004127812800000001 1 -1.224646799147354e-016 5.4210108624
2752e-016 17 372 0 474 469 345 364 369 370 0 466 +17 373 0 354 379 339 374 378 3
76 0 0 -18 374 113 0 384 364 380 375 ?206 29 375 114 0 374 381 365 0.00035006349
99999994 -0.0001665701466666666 0.0004127812800000001 16 376 115 0 ?378 370 382
 377 0 0 206 30 377 116 0 376 383 371 0 +0.0002500634999999993 -0.00016657014666
66666 0.0004127812800000001 -1 -4.196364063280167e-016 -5.42101086242752e-016 17
 378 0 451 349 452 340 373 376 0 339 +17 379 0 354 385 373 380 384 382 0 446 -18
 380 117 0 379 374 386 381 ?206 29 381 118 0 380 387 375 0.0003500634999999994 -
0.00024990348 0.0004127812800000001 16 382 119 0 ?384 376 388 383 0 0 206 30 383
 120 0 382 389 377 0 +0.0003500634999999994 -0.00024990348 0.0004127812800000001
 1.224646799147353e-016 1 6.123233995736766e-017 17 384 0 460 455 446 374 379 38
2 0 452 +17 385 0 354 391 379 386 390 388 0 394 +18 386 121 0 405 380 401 387 ?2
06 29 387 122 0 386 402 381 0.0005000634999999996 -0.0002499034800000001 0.00041
27812800000001 16 388 123 0 ?385 382 392 389 0 0 206 30 389 124 0 388 393 383 0
 +0.0005000634999999996 -0.0002499034800000001 0.0004127812800000001 1 -1.224646
799147353e-016 -0 17 390 0 442 443 405 380 385 388 0 0 -17 391 0 354 355 385 361
 394 392 0 0 -16 392 125 0 ?394 388 403 393 0 0 206 30 393 126 0 392 404 389 0 +
0.0005000634999999997 0.0002500965199999999 0.0004127812800000001 -1.22464679914
7353e-016 -1 -6.123233995736766e-017 17 394 0 399 400 412 386 391 392 0 0 +14 39
5 127 397 1e-008 416 350 399 214 396 -0 0 416 350 212 50 396 128 0 395 417 351 0
 +0.0005000634999999997 0.0002500965199999999 1.278127999999995e-005 -1 1.224646
799147353e-016 0 -1.224646799147353e-016 -1 -6.123233995736766e-017 81 1 397 129
 6 395 0 0 418 352 398 83 3 398 0.7921568751335144 0.8196078538894653 0.93333333
73069763 15 399 130 0 400 395 0 17 400 0 399 406 394 401 405 403 0 411 +18 401 1
31 0 400 386 407 402 ?206 29 402 132 0 401 408 387 0.0005000634999999996 -0.0002
499034800000001 1.278127999999992e-005 16 403 133 0 ?400 392 409 404 0 0 206 30
 404 134 0 403 410 393 0 +0.0005000634999999996 -0.0002499034800000001 1.2781279
99999992e-005 7.498798913309288e-033 6.123233995736766e-017 -1 17 405 0 442 390
 424 386 400 403 0 385 -17 406 0 399 412 400 407 411 409 0 0 -18 407 135 0 425 4
01 0 408 ?206 29 408 136 0 407 0 402 0.0005000634999999997 0.0002500965199999999
 1.278127999999995e-005 16 409 137 0 ?411 403 413 410 0 0 206 30 410 138 0 409 4
14 404 0 +0.0005000634999999997 0.0002500965199999999 1.278127999999995e-005 -1.
224646799147353e-016 -1 -6.123233995736766e-017 17 411 0 420 421 425 401 406 409
 0 424 +17 412 0 399 394 406 361 415 413 0 360 -16 413 139 0 ?415 409 422 414 0
 0 206 30 414 140 0 413 423 410 0 +0.0005000634999999997 0.0002500965199999999 1
.278127999999995e-005 7.498798913309288e-033 6.123233995736766e-017 -1 17 415 0
 433 428 360 407 412 413 0 406 +14 416 141 418 1e-008 429 395 420 214 417 -0 0 4
29 395 212 50 417 142 0 416 430 396 0 +0.0002500634999999997 0.00025009652 1.278
128000000002e-005 2.449293598294704e-016 -6.123233995736769e-017 1 1 -1.22464679
9147353e-016 -2.449293598294704e-016 81 1 418 143 6 416 0 0 431 397 419 83 3 419
 0.7921568751335144 0.8196078538894653 0.9333333373069763 15 420 144 0 421 416 0
 17 421 0 420 241 411 224 424 422 0 0 +16 422 145 0 ?421 413 426 423 0 0 206 30
 423 146 0 422 427 414 0 +0.0002500634999999996 -0.0002499034800000001 1.2781279
99999998e-005 -1 1.224646799147353e-016 2.449293598294704e-016 17 424 0 442 405
 223 401 421 422 0 0 -17 425 0 420 411 241 407 428 426 0 415 -16 426 147 0 ?428
 422 435 427 0 0 206 30 427 148 0 426 436 423 0 +0.0002500634999999997 0.0002500
9652 1.278128000000002e-005 -1 1.224646799147353e-016 2.449293598294704e-016 17
 428 0 433 237 415 233 425 426 0 232 +14 429 149 431 1e-008 438 416 433 214 430
 -0 0 438 416 212 50 430 150 0 429 439 417 0 +6.350000000003062e-008 0.000250096
52 1.278128000000002e-005 -1.224646799147353e-016 -1 -6.123233995736766e-017 1 -
1.224646799147353e-016 0 81 1 431 151 6 429 0 0 440 418 432 83 3 432 0.792156875
1335144 0.8196078538894653 0.9333333373069763 15 433 152 0 306 429 0 17 434 0 43
3 360 306 356 437 435 0 355 +16 435 153 0 ?434 426 444 436 0 0 206 30 436 154 0
 435 445 427 0 +0.0003500634999999995 0.0002500965199999999 0.00039278128 -9.856
383386231861e-017 -6.123233995736765e-017 1 17 437 0 465 302 368 298 434 435 0 0
 -14 438 155 440 1e-008 447 429 442 214 439 +0 0 447 429 212 50 439 156 0 438 44
8 430 0 +6.349999999996938e-008 -0.00024990348 1.278127999999998e-005 -1.2246467
99147353e-016 -1 -6.123233995736766e-017 1 -1.224646799147353e-016 0 81 1 440 15
7 6 438 0 0 449 431 441 83 3 441 0.7921568751335144 0.8196078538894653 0.9333333
373069763 15 442 158 0 443 438 0 17 443 0 442 312 390 308 446 444 0 0 -16 444 15
9 0 ?446 435 453 445 0 0 206 30 445 160 0 444 454 436 0 +0.0003500634999999994 -
0.00024990348 0.00039278128 -9.856383386231861e-017 -6.123233995736765e-017 1 17
 446 0 460 384 318 380 443 444 0 390 +14 447 161 449 1e-008 456 438 451 214 448
 -0 0 456 438 212 50 448 162 0 447 457 439 0 +0.0002500634999999993 -0.000166570
1466666666 0.0003927812799999999 -4.196364063280167e-016 1 6.123233995736761e-01
7 -1 -4.196364063280167e-016 -3.319411800407448e-032 81 1 449 163 6 447 0 0 458
 440 450 83 3 450 0.7921568751335144 0.8196078538894653 0.9333333373069763 15 45
1 164 0 378 447 0 17 452 0 451 378 324 374 455 453 0 373 +16 453 165 0 ?452 444
 467 454 0 0 206 30 454 166 0 453 468 445 0 +0.0003500634999999994 -0.0001665701
466666666 0.00039278128 -9.856383386231861e-017 -6.123233995736765e-017 1 17 455
 0 460 318 384 314 452 453 0 324 -14 456 167 458 1e-008 461 447 460 214 457 -0 0
 461 447 212 50 457 168 0 456 462 448 0 +0.0003500634999999994 -0.00024990348 0.
00039278128 1 -1.224646799147353e-016 9.85638338623186e-017 9.856383386231861e-0
17 6.123233995736765e-017 -1 81 1 458 169 6 456 0 0 463 449 459 83 3 459 0.79215
68751335144 0.8196078538894653 0.9333333373069763 15 460 170 0 384 456 0 14 461
 171 463 1e-008 470 456 465 214 462 -0 0 470 456 212 50 462 172 0 461 471 457 0
 +0.0003500634999999995 0.0002500965199999999 0.00039278128 1 -1.224646799147353
e-016 9.85638338623186e-017 9.856383386231861e-017 6.123233995736765e-017 -1 81
 1 463 173 6 461 0 0 472 458 464 83 3 464 0.7921568751335144 0.8196078538894653
 0.9333333373069763 15 465 174 0 368 461 0 17 466 0 465 368 302 364 469 467 0 36
3 +16 467 175 0 ?466 453 0 468 0 0 206 30 468 176 0 467 0 454 0 +0.0003500634999
999994 0.0001667631866666666 0.00039278128 -9.856383386231861e-017 -6.1232339957
36765e-017 1 17 469 0 474 294 372 290 466 467 0 0 -14 470 177 472 1e-008 0 461 4
74 214 471 -0 0 0 461 212 50 471 178 0 470 0 462 0 +0.0002500634999999994 0.0001
667631866666666 0.0003927812799999999 -1.224646799147353e-016 -1 -6.123233995736
766e-017 1 -1.224646799147353e-016 0 81 1 472 179 6 470 0 0 0 463 473 83 3 473 0
.7921568751335144 0.8196078538894653 0.9333333373069763 15 474 180 0 372 470 0 1
2 475 180 0 476 0 0 0 0 1000 1e-008 0 0 0 1 0 1 1 483 485 491 489 480 490 488 70
 476 0 475 0 0 4 1 20 0 477 477 1 T74 20 477 1 0 478 0 0 0 0 0 0 0 0 0 0 0 0 0 0
 0 0 0 0 0 81 1 478 7 6 484 0 0 513 0 479 83 3 479 0.7921568751335144 0.81960785
38894653 0.9333333373069763 19 480 1 0 475 482 0 481 V13 481 2 0 475 0 0 0 0 480
 484 19 482 3 0 475 0 480 483 S13 483 4 0 475 0 484 0 0 482 0 14 484 5 478 1e-00
8 511 0 486 483 485 -0 0 511 0 481 50 485 6 0 484 512 0 0 +-0.000249936499999999
6 0.00025009652 3.278128000000013e-005 -1 1.224646799147353e-016 0 1.22464679914
7353e-016 1 6.123233995736766e-017 15 486 8 0 487 484 0 17 487 0 486 495 507 488
 492 490 0 693 -18 488 9 0 500 0 493 489 ?475 29 489 10 0 488 494 0 -0.000249936
4999999997 -0.00024990348 1.278127999999998e-005 16 490 11 0 ?492 0 498 491 0 0
 475 30 491 12 0 490 499 0 0 +-0.0002499364999999997 -0.00024990348 3.2781280000
0001e-005 -7.498798913309288e-033 -6.123233995736766e-017 1 17 492 0 711 519 693
 493 487 490 0 516 +18 493 13 0 492 488 496 494 ?475 29 494 14 0 493 497 489 -0.
0002499364999999997 -0.00024990348 3.27812800000001e-005 17 495 0 486 501 487 49
6 500 498 0 694 -18 496 15 0 495 493 502 497 ?475 29 497 16 0 496 503 494 -0.000
2499364999999996 0.00025009652 1.278128000000002e-005 16 498 17 0 ?500 490 504 4
99 0 0 475 30 499 18 0 498 505 491 0 +-0.0002499364999999996 0.00025009652 1.278
128000000002e-005 -1.224646799147353e-016 -1 -6.123233995736766e-017 17 500 0 68
9 690 694 488 495 498 0 487 +17 501 0 486 507 495 502 506 504 0 527 +18 502 19 0
 501 496 520 503 ?475 29 503 20 0 502 521 497 -0.0002499364999999996 0.000250096
52 3.278128000000013e-005 16 504 21 0 ?501 498 508 505 0 0 475 30 505 22 0 504 5
09 499 0 +-0.0002499364999999996 0.00025009652 3.278128000000013e-005 -7.4987989
13309288e-033 -6.123233995736766e-017 1 17 506 0 702 697 527 496 501 504 0 0 -17
 507 0 486 487 501 493 510 508 0 0 +16 508 23 0 ?507 504 517 509 0 0 475 30 509
 24 0 508 518 505 0 +-0.0002499364999999996 0.00025009652 3.278128000000013e-005
 -1.224646799147353e-016 -1 -6.123233995736766e-017 17 510 0 515 522 516 502 507
 508 0 0 -14 511 25 513 1e-008 532 484 515 483 512 -0 0 532 484 481 50 512 26 0
 511 533 485 0 +-0.0002499364999999996 0.00025009652 3.278128000000013e-005 1.32
579070005021e-016 6.123233995736765e-017 -1 1 -1.224646799147353e-016 1.32579070
005021e-016 81 1 513 27 6 511 0 0 534 478 514 83 3 514 0.7921568751335144 0.8196
078538894653 0.9333333373069763 15 515 28 0 516 511 0 17 516 0 515 510 528 493 5
19 517 0 507 -16 517 29 0 ?519 508 525 518 0 0 475 30 518 30 0 517 526 509 0 +-0
.0002499364999999997 -0.00024990348 3.27812800000001e-005 -1 1.224646799147353e-
016 -1.32579070005021e-016 17 519 0 711 540 492 520 516 517 0 528 +18 520 31 0 5
19 502 523 521 ?475 29 521 32 0 520 524 503 -0.0004799364999999996 -0.0002499034
8 3.278128000000006e-005 17 522 0 515 528 510 523 527 525 0 548 +18 523 33 0 531
 520 541 524 ?475 29 524 34 0 523 542 521 -0.0004799364999999995 0.00025009652 3
.278128000000009e-005 16 525 35 0 ?522 517 529 526 0 0 475 30 526 36 0 525 530 5
18 0 +-0.0002499364999999996 0.00025009652 3.278128000000013e-005 -1 1.224646799
147353e-016 -1.32579070005021e-016 17 527 0 702 506 548 502 522 525 0 510 -17 52
8 0 515 516 522 520 531 529 0 537 +16 529 37 0 ?528 525 538 530 0 0 475 30 530 3
8 0 529 539 526 0 +-0.0004799364999999995 0.00025009652 3.278128000000009e-005 -
1.224646799147353e-016 -1 -6.123233995736766e-017 17 531 0 536 543 537 523 528 5
29 0 522 -14 532 39 534 1e-008 553 511 536 483 533 -0 0 553 511 481 50 533 40 0
 532 554 512 0 +-0.0004799364999999995 0.00025009652 3.278128000000009e-005 -1 1
.224646799147353e-016 0 1.224646799147353e-016 1 6.123233995736766e-017 81 1 534
 41 6 532 0 0 555 513 535 83 3 535 0.7921568751335144 0.8196078538894653 0.93333
33373069763 15 536 42 0 537 532 0 17 537 0 536 531 549 520 540 538 0 0 -16 538 4
3 0 ?540 529 546 539 0 0 475 30 539 44 0 538 547 530 0 +-0.0004799364999999996 -
0.00024990348 3.278128000000006e-005 -7.498798913309288e-033 -6.123233995736766e
-017 1 17 540 0 711 575 519 541 537 538 0 572 +18 541 45 0 549 523 544 542 ?475
 29 542 46 0 541 545 524 -0.0004799364999999996 -0.00024990348 0.00039278128 17
 543 0 536 549 531 544 548 546 0 0 +18 544 47 0 552 541 559 545 ?475 29 545 48 0
 544 560 542 -0.0004799364999999995 0.00025009652 0.00039278128 16 546 49 0 ?543
 538 550 547 0 0 475 30 547 50 0 546 551 539 0 +-0.0004799364999999995 0.0002500
9652 3.278128000000009e-005 -7.498798913309288e-033 -6.123233995736766e-017 1 17
 548 0 702 527 581 523 543 546 0 0 -17 549 0 536 537 543 541 552 550 0 540 +16 5
50 51 0 ?549 546 561 551 0 0 475 30 551 52 0 550 562 547 0 +-0.00047993649999999
95 0.00025009652 0.00039278128 -1.224646799147353e-016 -1 -6.123233995736766e-01
7 17 552 0 557 576 572 544 549 550 0 581 -14 553 53 555 1e-008 598 532 557 483 5
54 -0 0 598 532 481 50 554 54 0 553 599 533 0 +-0.0004799364999999995 0.00025009
652 0.00039278128 -7.498798913309288e-033 -6.123233995736766e-017 1 1.2246467991
47353e-016 1 6.123233995736766e-017 81 1 555 55 6 553 0 0 600 534 556 83 3 556 0
.7921568751335144 0.8196078538894653 0.9333333373069763 15 557 56 0 558 553 0 17
 558 0 557 566 594 559 563 561 0 724 +18 559 57 0 558 544 564 560 ?475 29 560 58
 0 559 565 545 -0.0003499364999999998 -0.0001665701466666666 0.00039278127999999
98 16 561 59 0 ?558 550 569 562 0 0 475 30 562 60 0 561 570 551 0 +-0.0002499364
999999998 -0.0001665701466666666 0.0003927812799999999 -1 1.224646799147354e-016
 -5.42101086242752e-016 17 563 0 729 614 724 564 558 561 0 594 -18 564 61 0 611
 559 567 565 ?475 29 565 62 0 564 568 560 -0.0002499364999999998 -0.000166570146
6666666 0.0003927812799999999 17 566 0 557 572 558 567 571 569 0 0 +18 567 63 0
 715 564 577 568 ?475 29 568 64 0 567 578 565 -0.0003499364999999999 -0.00024990
348 0.0003927812799999998 16 569 65 0 ?566 561 573 570 0 0 475 30 570 66 0 569 5
74 562 0 +-0.0003499364999999999 -0.00024990348 0.0003927812799999998 -1.2246467
99147353e-016 -1 -6.123233995736766e-017 17 571 0 720 721 715 559 566 569 0 0 -1
7 572 0 557 552 566 541 575 573 0 0 -16 573 67 0 ?575 569 579 574 0 0 475 30 574
 68 0 573 580 570 0 +-0.0004799364999999996 -0.00024990348 0.00039278128 1 -1.22
4646799147353e-016 0 17 575 0 711 712 540 567 572 573 0 566 +17 576 0 557 582 55
2 577 581 579 0 587 +18 577 69 0 576 567 583 578 ?475 29 578 70 0 577 584 568 -0
.0003499364999999998 0.00025009652 0.00039278128 16 579 71 0 ?576 573 585 580 0
 0 475 30 580 72 0 579 586 574 0 +-0.0004799364999999995 0.00025009652 0.0003927
8128 1 -1.224646799147353e-016 0 17 581 0 702 548 703 544 576 579 0 543 -17 582
 0 557 588 576 583 587 585 0 593 +18 583 73 0 582 577 589 584 ?475 29 584 74 0 5
83 590 578 -0.0003499364999999998 0.0001667631866666665 0.0003927812799999998 16
 585 75 0 ?582 579 591 586 0 0 475 30 586 76 0 585 592 580 0 +-0.000349936499999
9998 0.0002500965199999999 0.0003927812799999998 -1.224646799147353e-016 -1 -6.1
23233995736766e-017 17 587 0 743 706 738 577 582 585 0 703 -17 588 0 557 594 582
 589 593 591 0 618 +18 589 77 0 588 583 604 590 ?475 29 590 78 0 589 605 584 -0.
0002499364999999997 0.0001667631866666665 0.0003927812799999999 16 591 79 0 ?588
 585 595 592 0 0 475 30 592 80 0 591 596 586 0 +-0.0002499364999999997 0.0001667
631866666665 0.0003927812799999999 1 4.196364063280167e-016 5.42101086242752e-01
6 17 593 0 734 735 618 583 588 591 0 738 -17 594 0 557 558 588 564 597 595 0 0 +
16 595 81 0 ?594 591 606 596 0 0 475 30 596 82 0 595 607 592 0 +-0.0002499364999
999996 0.00025009652 0.00039278128 -1.224646799147353e-016 -1 -6.123233995736766
e-017 17 597 0 602 615 611 589 594 595 0 0 -14 598 83 600 1e-008 619 553 602 483
 599 -0 0 619 553 481 50 599 84 0 598 620 554 0 +-0.0002499364999999996 0.000250
09652 0.0004127812800000001 -1 1.224646799147353e-016 0 1.224646799147353e-016 1
 6.123233995736766e-017 81 1 600 85 6 598 0 0 621 555 601 83 3 601 0.79215687513
35144 0.8196078538894653 0.9333333373069763 15 602 86 0 603 598 0 17 603 0 602 6
11 615 604 608 606 0 0 +18 604 87 0 614 589 609 605 ?475 29 605 88 0 604 610 590
 -0.0002499364999999998 -0.0001665701466666666 0.0004127812800000001 16 606 89 0
 ?603 595 612 607 0 0 475 30 607 90 0 606 613 596 0 +-0.0002499364999999996 0.00
025009652 0.0004127812800000001 -1.224646799147353e-016 -1 -6.123233995736766e-0
17 17 608 0 623 642 638 609 603 606 0 0 -18 609 91 0 647 604 625 610 ?475 29 610
 92 0 609 626 605 -0.0002499364999999997 0.0001667631866666665 0.000412781280000
0001 17 611 0 602 597 603 564 614 612 0 563 -16 612 93 0 ?614 606 616 613 0 0 47
5 30 613 94 0 612 617 607 0 +-0.0002499364999999998 -0.0001665701466666666 0.000
3927812799999999 -9.856383386231861e-017 -6.123233995736765e-017 1 17 614 0 729
 641 563 604 611 612 0 638 +17 615 0 602 603 597 609 618 616 0 608 +16 616 95 0
 ?615 612 627 617 0 0 475 30 617 96 0 616 628 613 0 +-0.0002499364999999997 0.00
01667631866666665 0.0003927812799999999 -9.856383386231861e-017 -6.1232339957367
65e-017 1 17 618 0 734 593 647 589 615 616 0 597 -14 619 97 621 1e-008 664 598 6
23 483 620 -0 0 664 598 481 50 620 98 0 619 665 599 0 +-0.0004999364999999996 0.
00025009652 0.0004127812800000001 7.498798913309288e-033 6.123233995736766e-017
 -1 -1.224646799147353e-016 -1 -6.123233995736766e-017 81 1 621 99 6 619 0 0 666
 600 622 83 3 622 0.7921568751335144 0.8196078538894653 0.9333333373069763 15 62
3 100 0 624 619 0 17 624 0 623 632 660 625 629 627 0 637 -18 625 101 0 712 609 6
30 626 ?475 29 626 102 0 625 631 610 -0.0003499364999999999 -0.00024990348 0.000
4127812800000001 16 627 103 0 ?629 616 635 628 0 0 475 30 628 104 0 627 636 617
 0 +-0.0004999364999999997 -0.00024990348 0.0004127812800000001 -1 1.22464679914
7353e-016 0 17 629 0 711 672 712 630 624 627 0 0 +18 630 105 0 669 625 633 631 ?
475 29 631 106 0 630 634 626 -0.0004999364999999997 -0.00024990348 0.00041278128
00000001 17 632 0 623 638 624 633 637 635 0 0 -18 633 107 0 641 630 643 634 ?475
 29 634 108 0 633 644 631 -0.0003499364999999998 -0.0001665701466666666 0.000412
7812799999999 16 635 109 0 ?637 627 639 636 0 0 475 30 636 110 0 635 640 628 0 +
-0.0003499364999999999 -0.00024990348 0.0004127812799999999 -1.224646799147353e-
016 -1 -6.123233995736766e-017 17 637 0 720 715 721 625 632 635 0 0 +17 638 0 62
3 608 632 604 641 639 0 603 -16 639 111 0 ?641 635 645 640 0 0 475 30 640 112 0
 639 646 636 0 +-0.0002499364999999998 -0.0001665701466666666 0.0004127812800000
001 -1 1.224646799147354e-016 -5.42101086242752e-016 17 641 0 729 724 614 633 63
8 639 0 721 +17 642 0 623 648 608 643 647 645 0 735 -18 643 113 0 653 633 649 64
4 ?475 29 644 114 0 643 650 634 -0.0003499364999999998 0.0001667631866666665 0.0
004127812799999999 16 645 115 0 ?647 639 651 646 0 0 475 30 646 116 0 645 652 64
0 0 +-0.0002499364999999997 0.0001667631866666665 0.0004127812800000001 1 4.1963
64063280167e-016 5.42101086242752e-016 17 647 0 734 618 735 609 642 645 0 615 +1
7 648 0 623 654 642 649 653 651 0 706 -18 649 117 0 659 643 655 650 ?475 29 650
 118 0 649 656 644 -0.0003499364999999998 0.0002500965199999999 0.00041278127999
99999 16 651 119 0 ?653 645 657 652 0 0 475 30 652 120 0 651 658 646 0 +-0.00034
99364999999998 0.0002500965199999999 0.0004127812799999999 -1.224646799147353e-0
16 -1 -6.123233995736766e-017 17 653 0 743 738 706 643 648 651 0 642 +17 654 0 6
23 660 648 655 659 657 0 663 +18 655 121 0 654 649 673 656 ?475 29 656 122 0 655
 674 650 -0.0004999364999999996 0.00025009652 0.0004127812800000001 16 657 123 0
 ?654 651 661 658 0 0 475 30 658 124 0 657 662 652 0 +-0.0004999364999999996 0.0
0025009652 0.0004127812800000001 -1 1.224646799147353e-016 0 17 659 0 702 703 68
0 649 654 657 0 648 -17 660 0 623 624 654 630 663 661 0 629 +16 661 125 0 ?660 6
57 670 662 0 0 475 30 662 126 0 661 671 658 0 +-0.0004999364999999996 0.00025009
652 0.0004127812800000001 -1.224646799147353e-016 -1 -6.123233995736766e-017 17
 663 0 668 675 669 655 660 661 0 680 -14 664 127 666 1e-008 685 619 668 483 665
 -0 0 685 619 481 50 665 128 0 664 686 620 0 +-0.0004999364999999996 0.000250096
52 1.278127999999995e-005 1 -1.224646799147353e-016 0 -1.224646799147353e-016 -1
 -6.123233995736766e-017 81 1 666 129 6 664 0 0 687 621 667 83 3 667 0.792156875
1335144 0.8196078538894653 0.9333333373069763 15 668 130 0 669 664 0 17 669 0 66
8 663 681 630 672 670 0 660 -16 670 131 0 ?672 661 678 671 0 0 475 30 671 132 0
 670 679 662 0 +-0.0004999364999999997 -0.00024990348 1.278127999999992e-005 7.4
98798913309288e-033 6.123233995736766e-017 -1 17 672 0 711 693 629 673 669 670 0
 681 +18 673 133 0 672 655 676 674 ?475 29 674 134 0 673 677 656 -0.000499936499
9999997 -0.00024990348 1.278127999999992e-005 17 675 0 668 681 663 676 680 678 0
 684 +18 676 135 0 697 673 0 677 ?475 29 677 136 0 676 0 674 -0.0004999364999999
996 0.00025009652 1.278127999999995e-005 16 678 137 0 ?675 670 682 679 0 0 475 3
0 679 138 0 678 683 671 0 +-0.0004999364999999996 0.00025009652 1.27812799999999
5e-005 7.498798913309288e-033 6.123233995736766e-017 -1 17 680 0 702 659 697 655
 675 678 0 0 -17 681 0 668 669 675 673 684 682 0 690 +16 682 139 0 ?681 678 691
 683 0 0 475 30 683 140 0 682 692 679 0 +-0.0004999364999999996 0.00025009652 1.
278127999999995e-005 -1.224646799147353e-016 -1 -6.123233995736766e-017 17 684 0
 689 694 690 676 681 682 0 0 -14 685 141 687 1e-008 698 664 689 483 686 -0 0 698
 664 481 50 686 142 0 685 699 665 0 +-0.0002499364999999996 0.00025009652 1.2781
28000000002e-005 -2.449293598294704e-016 -6.123233995736764e-017 1 -1 1.22464679
9147354e-016 -2.449293598294704e-016 81 1 687 143 6 685 0 0 700 666 688 83 3 688
 0.7921568751335144 0.8196078538894653 0.9333333373069763 15 689 144 0 690 685 0
 17 690 0 689 684 500 673 693 691 0 0 -16 691 145 0 ?693 682 695 692 0 0 475 30
 692 146 0 691 696 683 0 +-0.0002499364999999997 -0.00024990348 1.27812799999999
8e-005 1 -1.224646799147354e-016 2.449293598294704e-016 17 693 0 711 492 672 488
 690 691 0 0 +17 694 0 689 500 684 496 697 695 0 506 +16 695 147 0 ?694 691 704
 696 0 0 475 30 696 148 0 695 705 692 0 +-0.0002499364999999996 0.00025009652 1.
278128000000002e-005 1 -1.224646799147354e-016 2.449293598294704e-016 17 697 0 7
02 680 506 676 694 695 0 675 -14 698 149 700 1e-008 707 685 702 483 699 -0 0 707
 685 481 50 699 150 0 698 708 686 0 +6.350000000003062e-008 0.00025009652 1.2781
28000000002e-005 -1.224646799147353e-016 -1 -6.123233995736766e-017 -1 1.2246467
99147353e-016 0 81 1 700 151 6 698 0 0 709 687 701 83 3 701 0.7921568751335144 0
.8196078538894653 0.9333333373069763 15 702 152 0 659 698 0 17 703 0 702 581 659
 577 706 704 0 0 -16 704 153 0 ?706 695 713 705 0 0 475 30 705 154 0 704 714 696
 0 +-0.0003499364999999998 0.0002500965199999999 0.0003927812799999998 -9.856383
386231861e-017 -6.123233995736765e-017 1 17 706 0 743 653 587 649 703 704 0 0 +1
4 707 155 709 1e-008 716 698 711 483 708 +0 0 716 698 481 50 708 156 0 707 717 6
99 0 +6.349999999996938e-008 -0.00024990348 1.278127999999998e-005 -1.2246467991
47353e-016 -1 -6.123233995736766e-017 -1 1.224646799147353e-016 0 81 1 709 157 6
 707 0 0 718 700 710 83 3 710 0.7921568751335144 0.8196078538894653 0.9333333373
069763 15 711 158 0 712 707 0 17 712 0 711 629 575 625 715 713 0 624 +16 713 159
 0 ?712 704 722 714 0 0 475 30 714 160 0 713 723 705 0 +-0.0003499364999999999 -
0.00024990348 0.0003927812799999998 -9.856383386231861e-017 -6.123233995736765e-
017 1 17 715 0 720 571 637 567 712 713 0 575 -14 716 161 718 1e-008 725 707 720
 483 717 -0 0 725 707 481 50 717 162 0 716 726 708 0 +-0.0003499364999999999 -0.
00024990348 0.0003927812799999998 -1 1.224646799147353e-016 -9.85638338623186e-0
17 -9.856383386231861e-017 -6.123233995736765e-017 1 81 1 718 163 6 716 0 0 727
 709 719 83 3 719 0.7921568751335144 0.8196078538894653 0.9333333373069763 15 72
0 164 0 637 716 0 17 721 0 720 637 571 633 724 722 0 632 +16 722 165 0 ?721 713
 736 723 0 0 475 30 723 166 0 722 737 714 0 +-0.0003499364999999998 -0.000166570
1466666666 0.0003927812799999998 -9.856383386231861e-017 -6.123233995736765e-017
 1 17 724 0 729 563 641 559 721 722 0 571 -14 725 167 727 1e-008 730 716 729 483
 726 -0 0 730 716 481 50 726 168 0 725 731 717 0 +-0.0002499364999999998 -0.0001
665701466666666 0.0003927812799999999 1.224646799147353e-016 1 6.123233995736766
e-017 -1 1.224646799147353e-016 0 81 1 727 169 6 725 0 0 732 718 728 83 3 728 0.
7921568751335144 0.8196078538894653 0.9333333373069763 15 729 170 0 641 725 0 14
 730 171 732 1e-008 739 725 734 483 731 -0 0 739 725 481 50 731 172 0 730 740 72
6 0 +-0.0002499364999999997 0.0001667631866666665 0.0003927812799999999 4.196364
063280167e-016 -1 -6.123233995736761e-017 1 4.196364063280167e-016 3.31941180040
7448e-032 81 1 732 173 6 730 0 0 741 727 733 83 3 733 0.7921568751335144 0.81960
78538894653 0.9333333373069763 15 734 174 0 647 730 0 17 735 0 734 647 593 643 7
38 736 0 0 +16 736 175 0 ?735 722 0 737 0 0 475 30 737 176 0 736 0 723 0 +-0.000
3499364999999998 0.0001667631866666665 0.0003927812799999998 -9.856383386231861e
-017 -6.123233995736765e-017 1 17 738 0 743 587 653 583 735 736 0 0 -14 739 177
 741 1e-008 0 730 743 483 740 -0 0 0 730 481 50 740 178 0 739 0 731 0 +-0.000349
9364999999998 0.0002500965199999999 0.0003927812799999998 -1 1.224646799147353e-
016 -9.85638338623186e-017 -9.856383386231861e-017 -6.123233995736765e-017 1 81
 1 741 179 6 739 0 0 0 732 742 83 3 742 0.7921568751335144 0.8196078538894653 0.
9333333373069763 15 743 180 0 653 739 0 1 0 
