**ABCDEFGHIJKLMNOPQRSTUVWXYZabcdefghijklmnopqrstuvwxyz**************************
**PARASOLID !"#$%&'()*+,-./:;<=>?@[\]^_`{|}~0123456789**************************
**PART1;
MC=AMD64;
MC_MODEL=Intel64 Family 6 Model 165 Stepping 5, GenuineIntel;
MC_ID=unknown;
OS=Windows_NT;
OS_RELEASE=unknown;
FRU=CAD Exchanger 3.9.0 (cadexchanger.com);
APPL=unknown;
SITE=unknown;
USER=unknown;
FORMAT=text;
GUISE=transmit;
KEY=500R_Resistor_TNPU0603500RAWEN00;
FILE=500R_Resistor_TNPU0603500RAWEN00.x_t;
DATE=Mon Aug 09 23:43:09 2021;
**PART2;
SCH=SCH_1200000_12006;
USFLD_SIZE=0;
**PART3;
**END_OF_HEADER*****************************************************************
T51 : TRANSMIT FILE created by modeller version 120000017 SCH_1200000_120060 12
 1 572 0 2 0 0 0 0 1000 1e-008 0 0 0 1 0 1 1 11 13 19 17 8 18 16 70 2 0 1 0 0 4
 1 20 0 3 3 1 T74 20 3 1 0 4 0 0 0 0 0 0 0 0 0 0 0 0 0 0 0 0 0 0 0 81 1 4 7 5 12
 0 0 65 0 7 80 1 5 0 6 8001 0 0 0 0 3 5 0 0 FFFFTFTFFFFFFF2 79 15 6 SDL/TYSA_COL
OUR83 3 7 0.1568627506494522 0.1568627506494522 0.1568627506494522 19 8 1 0 1 10
 0 9 V13 9 2 0 1 0 0 0 0 8 12 19 10 3 0 1 0 8 11 S13 11 4 0 1 0 12 0 0 10 0 14 1
2 5 4 1e-008 63 0 14 11 13 +0 0 63 0 9 50 13 6 0 12 64 0 0 +0.000500060959999999
8 -0.0003998839600000002 0.0004477812799999891 -1 3.673899952117089e-016 3.70074
341541718e-015 3.70074341541718e-015 6.123233995736629e-017 1 15 14 8 0 15 12 0
 17 15 0 14 23 59 16 20 18 0 0 +18 16 9 0 470 0 21 17 ?1 29 17 10 0 16 22 0 0.00
05000609600000001 0.0003951160399999998 0.000457781280000003 16 18 11 0 ?15 0 26
 19 0 0 1 30 19 12 0 18 27 0 0 +0.000500060960000028 0.0003951160399999998 0.000
442781280000007 -1.89478062869411e-012 6.123233995783175e-017 1 17 20 0 421 305
 470 21 15 18 0 0 -18 21 13 0 302 16 24 22 ?1 29 22 14 0 21 25 17 0.000500060960
0000001 0.0003951160399999998 0.000432781279999989 17 23 0 14 29 15 24 28 26 0 3
4 +18 24 15 0 23 21 30 25 ?1 29 25 16 0 24 31 22 0.0005000609599999998 -0.000394
8839600000002 0.000457781280000003 16 26 17 0 ?23 18 32 27 0 0 1 30 27 18 0 26 3
3 19 0 +0.0005000609600000001 0.0003951160399999998 0.000457781280000003 -2.4492
93598294706e-016 -1 6.123233995736766e-017 17 28 0 854 473 845 16 23 26 0 15 -17
 29 0 14 35 23 30 34 32 0 0 -18 30 19 0 73 24 36 31 ?1 29 31 20 0 30 37 25 0.000
5000609599999998 -0.0003948839600000002 0.000432781279999989 16 32 21 0 ?34 26 3
8 33 0 0 1 30 33 22 0 32 39 27 0 +0.0005000609599999998 -0.0003948839600000002 0
.0003427812799999901 3.70074341541718e-015 6.123233995736675e-017 1 17 34 0 841
 842 73 24 29 32 0 845 +17 35 0 14 41 29 36 40 38 0 46 -18 36 23 0 35 30 42 37 ?
1 29 37 24 0 36 43 31 0.0005000609599999998 -0.0003998839600000002 0.00043278127
9999989 16 38 25 0 ?40 32 44 39 0 0 1 30 39 26 0 38 45 33 0 +0.00050006095999999
98 -0.0003998839600000002 0.000432781279999989 3.673899952117086e-016 1 -6.12323
3995736766e-017 17 40 0 67 68 80 30 35 38 0 29 +17 41 0 14 47 35 42 46 44 0 52 -
18 42 27 0 296 36 48 43 ?1 29 43 28 0 42 49 37 0.0005000609599999998 -0.00039988
39600000002 0.0004627812799999891 16 44 29 0 ?46 38 50 45 0 0 1 30 45 30 0 44 51
 39 0 +0.0005000609599999998 -0.0003998839600000002 0.0004627812799999891 -3.700
74341541718e-015 -6.123233995736629e-017 -1 17 46 0 416 83 296 36 41 44 0 80 +17
 47 0 14 53 41 48 52 50 0 58 +18 48 31 0 289 42 54 49 ?1 29 49 32 0 48 55 43 0.0
005000609600000001 0.0004001160399999997 0.000462781279999989 16 50 33 0 ?47 44
 56 51 0 0 1 30 51 34 0 50 57 45 0 +0.0005000609599999998 -0.0003998839600000002
 0.0004627812799999891 3.673899952117086e-016 1 -6.123233995736766e-017 17 52 0
 288 293 289 42 47 50 0 0 -17 53 0 14 59 47 54 58 56 0 0 +18 54 35 0 313 48 69 5
5 ?1 29 55 36 0 54 70 49 0.0005000609600000001 0.0004001160399999997 0.000432781
279999989 16 56 37 0 ?53 50 60 57 0 0 1 30 57 38 0 56 61 51 0 +0.000500060960000
0001 0.0004001160399999997 0.000462781279999989 -3.70074341541718e-015 -6.123233
995736629e-017 -1 17 58 0 411 292 313 48 53 56 0 0 -17 59 0 14 15 53 21 62 60 0
 20 -16 60 39 0 ?62 56 71 61 0 0 1 30 61 40 0 60 72 57 0 +0.0005000609599999998
 -0.0003998839600000002 0.000432781279999989 3.673899952117086e-016 1 -6.1232339
95736766e-017 17 62 0 301 308 302 54 59 60 0 53 +14 63 41 65 1e-008 84 12 67 11
 64 +0 0 84 12 9 50 64 42 0 63 85 13 0 +0.0006300609599999909 -0.000399883960000
0002 0.000432781279999989 -1.499759782661858e-032 -6.123233995736766e-017 -1 -1
 3.673899952117086e-016 -7.498551257120443e-033 81 1 65 43 5 63 0 0 86 4 66 83 3
 66 0.1568627506494522 0.1568627506494522 0.1568627506494522 15 67 44 0 68 63 0
 17 68 0 67 74 40 69 73 71 0 79 -18 69 45 0 68 54 75 70 ?1 29 70 46 0 69 76 55 0
.0007600609599999828 -0.0003948839600000002 0.000432781279999989 16 71 47 0 ?73
 60 77 72 0 0 1 30 72 48 0 71 78 61 0 +0.0003150609600000078 -0.0003948839600000
001 0.000432781279999989 -1 2.449293598294706e-016 0 17 73 0 841 34 94 30 68 71
 0 40 +17 74 0 67 80 68 75 79 77 0 83 -18 75 49 0 74 69 90 76 ?1 29 76 50 0 75 9
1 70 0.0007600609599999828 -0.0003998839600000002 0.000432781279999989 16 77 51
 0 ?79 71 81 78 0 0 1 30 78 52 0 77 82 72 0 +0.0007600609599999828 -0.0003998839
600000002 0.000432781279999989 3.673899952117086e-016 1 -6.123233995736766e-017
 17 79 0 88 89 101 69 74 77 0 94 +17 80 0 67 40 74 36 83 81 0 0 -16 81 53 0 ?83
 77 92 82 0 0 1 30 82 54 0 81 93 78 0 +0.0005000609599999998 -0.0003998839600000
002 0.000432781279999989 1 -3.673899952117086e-016 7.498551257120443e-033 17 83
 0 416 104 46 75 80 81 0 101 +14 84 55 86 1e-008 105 63 88 11 85 -0 0 105 63 9 5
1 85 56 0 84 106 64 0 +0.0007600609599999828 -0.0003998839600000002 0.0004227812
799999891 3.673899952117086e-016 1 -6.123233995736766e-017 1e-005 -1 3.673899952
117086e-016 -7.498551257120443e-033 81 1 86 57 5 84 0 0 107 65 87 83 3 87 0.1568
627506494522 0.1568627506494522 0.1568627506494522 15 88 58 0 89 84 0 17 89 0 88
 95 79 90 94 92 0 100 -18 90 59 0 89 75 96 91 ?1 29 91 60 0 90 97 76 0.000770060
9599999828 -0.0003948839600000002 0.0004227812799999891 16 92 61 0 ?94 81 98 93
 0 0 1 31 93 62 0 92 99 82 0 +0.0007600609599999828 -0.0003948839600000002 0.000
4227812799999891 -2.449293598294706e-016 -1 6.123233995736766e-017 -1 2.44929359
8294706e-016 0 1e-005 17 94 0 841 73 115 69 89 92 0 0 +17 95 0 88 101 89 96 100
 98 0 0 -18 96 63 0 122 90 111 97 ?1 29 97 64 0 96 112 91 0.0007700609599999828
 -0.0003998839600000002 0.0004227812799999891 16 98 65 0 ?100 92 102 99 0 0 1 30
 99 66 0 98 103 93 0 +0.0007700609599999828 -0.0003998839600000002 0.00042278127
99999891 3.673899952117086e-016 1 -6.123233995736766e-017 17 100 0 109 110 122 9
0 95 98 0 115 +17 101 0 88 79 95 75 104 102 0 0 -16 102 67 0 ?104 98 113 103 0 0
 1 31 103 68 0 102 114 99 0 +0.0007600609599999828 -0.0003998839600000002 0.0004
227812799999891 3.673899952117086e-016 1 -6.123233995736766e-017 -1 3.6738999521
17086e-016 -7.498551257120443e-033 1e-005 17 104 0 416 125 83 96 101 102 0 95 +1
4 105 69 107 1e-008 126 84 109 11 106 +0 0 126 84 9 50 106 70 0 105 127 85 0 +0.
0007700609599999829 -0.0003998839600000003 0.0002377812799999941 -1 3.6738999521
17086e-016 -7.498551257120443e-033 1.499759782661858e-032 6.123233995736766e-017
 1 81 1 107 71 5 105 0 0 128 86 108 83 3 108 0.1568627506494522 0.15686275064945
22 0.1568627506494522 15 109 72 0 110 105 0 17 110 0 109 116 100 111 115 113 0 0
 -18 111 73 0 121 96 117 112 ?1 29 112 74 0 111 118 97 0.0007700609599999828 -0.
0003948839600000003 5.278128000000005e-005 16 113 75 0 ?115 102 119 114 0 0 1 30
 114 76 0 113 120 103 0 +0.0007700609599999828 -0.0003948839600000003 0.00023778
12799999941 1.499759782661858e-032 6.123233995736766e-017 1 17 115 0 841 94 136
 90 110 113 0 0 +17 116 0 109 122 110 117 121 119 0 125 -18 117 77 0 116 111 132
 118 ?1 29 118 78 0 117 133 112 0.0007700609599999828 -0.0003998839600000003 5.2
78128000000005e-005 16 119 79 0 ?121 113 123 120 0 0 1 30 120 80 0 119 124 114 0
 +0.0007700609599999828 -0.0003998839600000003 5.278128000000005e-005 3.67389995
2117086e-016 1 -6.123233995736766e-017 17 121 0 130 131 143 111 116 119 0 136 +1
7 122 0 109 100 116 96 125 123 0 104 -16 123 81 0 ?125 119 134 124 0 0 1 30 124
 82 0 123 135 120 0 +0.0007700609599999828 -0.0003998839600000002 0.000422781279
9999891 -1.499759782661858e-032 -6.123233995736766e-017 -1 17 125 0 416 146 104
 117 122 123 0 143 +14 126 83 128 1e-008 147 105 130 11 127 -0 0 147 105 9 51 12
7 84 0 126 148 106 0 +0.0007600609599999828 -0.0003998839600000003 5.27812800000
0005e-005 3.673899952117086e-016 1 -6.123233995736766e-017 1e-005 -1 3.673899952
117086e-016 -7.498551257120443e-033 81 1 128 85 5 126 0 0 149 107 129 83 3 129 0
.1568627506494522 0.1568627506494522 0.1568627506494522 15 130 86 0 131 126 0 17
 131 0 130 137 121 132 136 134 0 0 -18 132 87 0 142 117 138 133 ?1 29 133 88 0 1
32 139 118 0.0007600609599999828 -0.0003948839600000003 4.278128000000005e-005 1
6 134 89 0 ?136 123 140 135 0 0 1 31 135 90 0 134 141 124 0 +0.00076006095999998
28 -0.0003948839600000004 5.278128000000005e-005 -2.449293598294706e-016 -1 6.12
3233995736766e-017 -1 2.449293598294706e-016 0 1e-005 17 136 0 841 115 208 111 1
31 134 0 110 +17 137 0 130 143 131 138 142 140 0 209 -18 138 91 0 146 132 153 13
9 ?1 29 139 92 0 138 154 133 0.0007600609599999828 -0.0003998839600000003 4.2781
28000000005e-005 16 140 93 0 ?142 134 144 141 0 0 1 30 141 94 0 140 145 135 0 +0
.0007600609599999828 -0.0003998839600000003 4.278128000000005e-005 3.67389995211
7086e-016 1 -6.123233995736766e-017 17 142 0 204 205 209 132 137 140 0 208 +17 1
43 0 130 121 137 117 146 144 0 0 -16 144 95 0 ?146 140 155 145 0 0 1 31 145 96 0
 144 156 141 0 +0.0007600609599999828 -0.0003998839600000003 5.278128000000005e-
005 3.673899952117086e-016 1 -6.123233995736766e-017 -1 3.673899952117086e-016 -
7.498551257120443e-033 1e-005 17 146 0 416 212 125 138 143 144 0 137 +14 147 97
 149 1e-008 200 126 151 11 148 +0 0 200 126 9 50 148 98 0 147 201 127 0 +0.00050
00609599999998 -0.0003998839600000002 2.778128000000005e-005 -1 3.67389995211708
6e-016 -7.498551257120443e-033 1.499759782661858e-032 6.123233995736766e-017 1 8
1 1 149 99 5 147 0 0 202 128 150 83 3 150 0.1568627506494522 0.1568627506494522
 0.1568627506494522 15 151 100 0 152 147 0 17 152 0 151 160 196 153 157 155 0 16
5 -18 153 101 0 389 138 158 154 ?1 29 154 102 0 153 159 139 0.000500060960000000
1 0.0003951160399999998 4.278128e-005 16 155 103 0 ?157 144 163 156 0 0 1 30 156
 104 0 155 164 145 0 +0.0005000609600000001 0.0003951160399999998 0.000132781279
999997 -1.499759782661858e-032 -6.123233995736766e-017 -1 17 157 0 421 422 389 1
58 152 155 0 0 +18 158 105 0 427 153 161 159 ?1 29 159 106 0 158 162 154 0.00050
0060959999993 0.0003951160399999998 1.778128e-005 17 160 0 151 166 152 161 165 1
63 0 0 +18 161 107 0 171 158 167 162 ?1 29 162 108 0 161 168 159 0.0005000609600
000001 0.0004001160399999997 4.278128e-005 16 163 109 0 ?160 155 169 164 0 0 1 3
0 164 110 0 163 170 156 0 +0.0005000609599999998 -0.0003998839600000002 4.278128
000000005e-005 3.673899952117086e-016 1 -6.123233995736766e-017 17 165 0 385 386
 390 153 160 163 0 0 -17 166 0 151 172 160 167 171 169 0 177 +18 167 111 0 166 1
61 173 168 ?1 29 168 112 0 167 174 162 0.0005000609600000001 0.00040011603999999
97 1.278128e-005 16 169 113 0 ?166 163 175 170 0 0 1 30 170 114 0 169 176 164 0
 +0.0005000609600000001 0.0004001160399999997 4.278128e-005 -1.499759782661858e-
032 -6.123233995736766e-017 -1 17 171 0 411 393 402 161 166 169 0 390 -17 172 0
 151 178 166 173 177 175 0 183 -18 173 115 0 172 167 179 174 ?1 29 174 116 0 173
 180 168 0.0005000609599999998 -0.0003998839600000002 1.278128000000005e-005 16
 175 117 0 ?177 169 181 176 0 0 1 30 176 118 0 175 182 170 0 +0.0005000609599999
998 -0.0003998839600000002 1.278128000000005e-005 3.673899952117086e-016 1 -6.12
3233995736766e-017 17 177 0 398 399 403 167 172 175 0 402 +17 178 0 151 184 172
 179 183 181 0 189 -18 179 119 0 178 173 185 180 ?1 29 180 120 0 179 186 174 0.0
005000609599999998 -0.0003998839600000002 4.278128000000005e-005 16 181 121 0 ?1
83 175 187 182 0 0 1 30 182 122 0 181 188 176 0 +0.0005000609599999998 -0.000399
8839600000002 4.278128000000005e-005 -1.499759782661858e-032 -6.123233995736766e
-017 -1 17 183 0 416 406 212 173 178 181 0 403 +17 184 0 151 190 178 185 189 187
 0 195 +18 185 123 0 184 179 191 186 ?1 29 186 124 0 185 192 180 0.0005000609599
999998 -0.0003948839600000002 4.278128000000005e-005 16 187 125 0 ?184 181 193 1
88 0 0 1 30 188 126 0 187 194 182 0 +0.0005000609599999998 -0.000399883960000000
2 4.278128000000005e-005 3.673899952117086e-016 1 -6.123233995736766e-017 17 189
 0 204 209 205 179 184 187 0 212 -17 190 0 151 196 184 191 195 193 0 199 -18 191
 127 0 190 185 219 192 ?1 29 192 128 0 191 220 186 0.0005000609599999928 -0.0003
948839600000002 1.778128000000005e-005 16 193 129 0 ?195 187 197 194 0 0 1 30 19
4 130 0 193 198 188 0 +0.0005000609599999998 -0.0003948839600000002 0.0001327812
799999971 1.499759782661858e-032 6.123233995736766e-017 1 17 195 0 841 208 846 1
85 190 193 0 205 +17 196 0 151 152 190 158 199 197 0 157 -16 197 131 0 ?199 193
 206 198 0 0 1 30 198 132 0 197 207 194 0 +0.000500060959999993 0.00039511603999
99998 1.778128e-005 -2.449293598294706e-016 -1 6.123233995736766e-017 17 199 0 8
59 849 427 191 196 197 0 846 +14 200 133 202 1e-008 213 147 204 11 201 +0 0 213
 147 9 50 201 134 0 200 214 148 0 +0.0006300609599999909 -0.0003998839600000002
 4.278128000000005e-005 1.499759782661858e-032 6.123233995736766e-017 1 1 -3.673
899952117086e-016 7.498551257120443e-033 81 1 202 135 5 200 0 0 215 149 203 83 3
 203 0.1568627506494522 0.1568627506494522 0.1568627506494522 15 204 136 0 205 2
00 0 17 205 0 204 189 142 185 208 206 0 0 -16 206 137 0 ?208 197 210 207 0 0 1 3
0 207 138 0 206 211 198 0 +0.0003150609600000078 -0.0003948839600000002 4.278128
000000005e-005 1 -2.449293598294706e-016 0 17 208 0 841 136 195 132 205 206 0 13
1 +17 209 0 204 142 189 138 212 210 0 0 -16 210 139 0 ?212 206 221 211 0 0 1 30
 211 140 0 210 222 207 0 +0.0007600609599999828 -0.0003998839600000003 4.2781280
00000005e-005 -1 3.673899952117086e-016 -7.498551257120443e-033 17 212 0 416 183
 146 179 209 210 0 0 +14 213 141 215 1e-008 242 200 217 11 214 +0 0 242 200 9 51
 214 142 0 213 243 201 0 +0.0007700609599999818 -0.0003998839600000003 4.2781280
00000115e-005 3.673899952117086e-016 1 -6.123233995736766e-017 3e-005 -1 3.67389
9952117086e-016 -7.498551257120443e-033 81 1 215 143 5 213 0 0 244 202 216 83 3
 216 0.1568627506494522 0.1568627506494522 0.1568627506494522 15 217 144 0 218 2
13 0 17 218 0 217 226 238 219 223 221 0 252 +18 219 145 0 231 191 224 220 ?1 29
 220 146 0 219 225 192 0.0008000609599999829 0.0004001160399999997 4.27812800000
011e-005 16 221 147 0 ?218 210 229 222 0 0 1 31 222 148 0 221 230 211 0 +0.00077
0060959999982 0.0004001160399999997 4.27812800000011e-005 -3.673899952117086e-01
6 -1 6.123233995736766e-017 -1 3.673899952117086e-016 -7.498551257120443e-033 3e
-005 17 223 0 411 402 252 224 218 221 0 399 -18 224 149 0 238 219 227 225 ?1 29
 225 150 0 224 228 220 0.000770060959999982 0.0004001160399999997 1.278128e-005
 17 226 0 217 232 218 227 231 229 0 237 -18 227 151 0 226 224 233 228 ?1 29 228
 152 0 227 234 225 0.0008000609599999827 -0.0003998839600000003 4.27812800000011
4e-005 16 229 153 0 ?231 221 235 230 0 0 1 30 230 154 0 229 236 222 0 +0.0008000
609599999827 -0.0003998839600000003 4.278128000000114e-005 3.673899952117086e-01
6 1 -6.123233995736766e-017 17 231 0 246 247 259 219 226 229 0 218 +17 232 0 217
 238 226 233 237 235 0 406 +18 233 155 0 241 227 248 234 ?1 29 234 156 0 233 249
 228 0.0007700609599999818 -0.0003998839600000003 1.278128000000005e-005 16 235
 157 0 ?232 229 239 236 0 0 1 31 236 158 0 235 240 230 0 +0.0007700609599999818
 -0.0003998839600000003 4.278128000000115e-005 3.673899952117086e-016 1 -6.12323
3995736766e-017 -1 3.673899952117086e-016 -7.498551257120443e-033 3e-005 17 237
 0 416 262 406 227 232 235 0 259 -17 238 0 217 218 232 224 241 239 0 223 +16 239
 159 0 ?238 235 250 240 0 0 1 30 240 160 0 239 251 236 0 +0.0007700609599999818
 -0.0003998839600000003 1.278128000000005e-005 3.673899952117086e-016 1 -6.12323
3995736766e-017 17 241 0 398 403 399 233 238 239 0 232 -14 242 161 244 1e-008 26
3 213 246 11 243 +0 0 263 213 9 50 243 162 0 242 264 214 0 +0.000800060959999982
7 -0.0003998839600000003 0.0002377812799999941 1 -3.673899952117086e-016 7.49855
1257120443e-033 -1.499759782661858e-032 -6.123233995736766e-017 -1 81 1 244 163
 5 242 0 0 265 215 245 83 3 245 0.1568627506494522 0.1568627506494522 0.15686275
06494522 15 246 164 0 247 242 0 17 247 0 246 253 231 248 252 250 0 258 +18 248 1
65 0 273 233 254 249 ?1 29 249 166 0 248 255 234 0.000800060959999982 0.00040011
60399999997 0.000432781279999987 16 250 167 0 ?247 239 256 251 0 0 1 30 251 168
 0 250 257 240 0 +0.0008000609599999829 0.0004001160399999997 0.0004327812799999
87 1.499759782661858e-032 6.123233995736766e-017 1 17 252 0 411 223 273 219 247
 250 0 0 -17 253 0 246 259 247 254 258 256 0 262 -18 254 169 0 253 248 269 255 ?
1 29 255 170 0 254 270 249 0.0008000609599999818 -0.0003998839600000003 0.000432
781279999987 16 256 171 0 ?258 250 260 257 0 0 1 30 257 172 0 256 261 251 0 +0.0
008000609599999818 -0.0003998839600000003 0.000432781279999987 3.673899952117086
e-016 1 -6.123233995736766e-017 17 258 0 267 268 280 248 253 256 0 0 +17 259 0 2
46 231 253 227 262 260 0 0 +16 260 173 0 ?259 256 271 261 0 0 1 30 261 174 0 260
 272 257 0 +0.0008000609599999827 -0.0003998839600000003 0.000432781279999987 -1
.499759782661858e-032 -6.123233995736766e-017 -1 17 262 0 416 283 237 254 259 26
0 0 280 -14 263 175 265 1e-008 284 242 267 11 264 +0 0 284 242 9 51 264 176 0 26
3 285 243 0 +0.0007700609599999818 -0.0003998839600000002 0.000432781279999987 3
.673899952117086e-016 1 -6.123233995736766e-017 3e-005 -1 3.673899952117086e-016
 -7.498551257120443e-033 81 1 265 177 5 263 0 0 286 244 266 83 3 266 0.156862750
6494522 0.1568627506494522 0.1568627506494522 15 267 178 0 268 263 0 17 268 0 26
7 274 258 269 273 271 0 279 +18 269 179 0 268 254 275 270 ?1 29 270 180 0 269 27
6 255 0.000770060959999982 0.0004001160399999997 0.000462781279999989 16 271 181
 0 ?268 260 277 272 0 0 1 31 272 182 0 271 278 261 0 +0.000770060959999982 0.000
4001160399999997 0.000432781279999987 -3.673899952117086e-016 -1 6.1232339957367
66e-017 -1 3.673899952117086e-016 -7.498551257120443e-033 3e-005 17 273 0 411 25
2 292 248 268 271 0 247 -17 274 0 267 280 268 275 279 277 0 283 -18 275 183 0 29
3 269 306 276 ?1 29 276 184 0 275 307 270 0.0007700609599999818 -0.0003998839600
000002 0.0004627812799999891 16 277 185 0 ?279 271 281 278 0 0 1 30 278 186 0 27
7 282 272 0 +0.0007700609599999818 -0.0003998839600000002 0.0004627812799999891
 3.673899952117086e-016 1 -6.123233995736766e-017 17 279 0 288 289 293 269 274 2
77 0 292 +17 280 0 267 258 274 254 283 281 0 0 +16 281 187 0 ?280 277 290 282 0
 0 1 31 282 188 0 281 291 278 0 +0.0007700609599999818 -0.0003998839600000002 0.
000432781279999987 3.673899952117086e-016 1 -6.123233995736766e-017 -1 3.6738999
52117086e-016 -7.498551257120443e-033 3e-005 17 283 0 416 296 262 275 280 281 0
 0 -14 284 189 286 1e-008 297 263 288 11 285 +0 0 297 263 9 50 285 190 0 284 298
 264 0 +0.0006350609599999909 -0.0003998839600000002 0.0004627812799999891 1.499
759782661858e-032 6.123233995736766e-017 1 1 -3.673899952117086e-016 7.498551257
120443e-033 81 1 286 191 5 284 0 0 299 265 287 83 3 287 0.1568627506494522 0.156
8627506494522 0.1568627506494522 15 288 192 0 289 284 0 17 289 0 288 52 279 48 2
92 290 0 47 +16 290 193 0 ?289 281 294 291 0 0 1 30 291 194 0 290 295 282 0 +0.0
005000609600000001 0.0004001160399999997 0.000462781279999989 -1 3.6738999521170
86e-016 -7.498551257120443e-033 17 292 0 411 273 58 269 289 290 0 0 -17 293 0 28
8 279 52 275 296 294 0 274 +16 294 195 0 ?293 290 303 295 0 0 1 30 295 196 0 294
 304 291 0 +0.0005000609599999998 -0.0003998839600000002 0.0004627812799999891 1
 -3.673899952117086e-016 7.498551257120443e-033 17 296 0 416 46 283 42 293 294 0
 41 -14 297 197 299 1e-008 318 284 301 11 298 +0 0 318 284 9 50 298 198 0 297 31
9 285 0 +0.0006300609599999909 -0.0003998839600000002 0.000432781279999989 -1.49
9759782661858e-032 -6.123233995736766e-017 -1 -1 3.673899952117086e-016 -7.49855
1257120443e-033 81 1 299 199 5 297 0 0 320 286 300 83 3 300 0.1568627506494522 0
.1568627506494522 0.1568627506494522 15 301 200 0 302 297 0 17 302 0 301 62 314
 21 305 303 0 59 -16 303 201 0 ?305 294 311 304 0 0 1 30 304 202 0 303 312 295 0
 +0.000315060960000008 0.0003951160399999999 0.000432781279999989 1 -2.449293598
294706e-016 0 17 305 0 421 326 20 306 302 303 0 323 +18 306 203 0 305 275 309 30
7 ?1 29 307 204 0 306 310 276 0.0007600609599999831 0.0003951160399999998 0.0004
32781279999989 17 308 0 301 314 62 309 313 311 0 317 +18 309 205 0 334 306 327 3
10 ?1 29 310 206 0 309 328 307 0.0007600609599999831 0.0004001160399999997 0.000
432781279999989 16 311 207 0 ?308 303 315 312 0 0 1 30 312 208 0 311 316 304 0 +
0.0005000609600000001 0.0004001160399999997 0.000432781279999989 1 -3.6738999521
17086e-016 7.498551257120443e-033 17 313 0 411 58 334 54 308 311 0 62 -17 314 0
 301 302 308 306 317 315 0 0 -16 315 209 0 ?317 311 324 316 0 0 1 30 316 210 0 3
15 325 312 0 +0.0007600609599999828 -0.0003998839600000002 0.000432781279999989
 3.673899952117086e-016 1 -6.123233995736766e-017 17 317 0 322 329 323 309 314 3
15 0 0 +14 318 211 320 1e-008 339 297 322 11 319 -0 0 339 297 9 51 319 212 0 318
 340 298 0 +0.0007600609599999828 -0.0003998839600000002 0.0004227812799999891 3
.673899952117086e-016 1 -6.123233995736766e-017 1e-005 -1 3.673899952117086e-016
 -7.498551257120443e-033 81 1 320 213 5 318 0 0 341 299 321 83 3 321 0.156862750
6494522 0.1568627506494522 0.1568627506494522 15 322 214 0 323 318 0 17 323 0 32
2 317 335 306 326 324 0 314 -16 324 215 0 ?326 315 332 325 0 0 1 31 325 216 0 32
4 333 316 0 +0.0007600609599999831 0.0003951160399999997 0.000422781279999989 2.
449293598294706e-016 1 -6.123233995736766e-017 -1 2.449293598294706e-016 0 1e-00
5 17 326 0 421 347 305 327 323 324 0 344 +18 327 217 0 335 309 330 328 ?1 29 328
 218 0 327 331 310 0.0007700609599999831 0.0003951160399999998 0.000422781279999
989 17 329 0 322 335 317 330 334 332 0 355 +18 330 219 0 338 327 348 331 ?1 29 3
31 220 0 330 349 328 0.0007700609599999831 0.0004001160399999997 0.0004227812799
99989 16 332 221 0 ?329 324 336 333 0 0 1 31 333 222 0 332 337 325 0 +0.00076006
09599999831 0.0004001160399999997 0.000422781279999989 3.673899952117086e-016 1
 -6.123233995736766e-017 -1 3.673899952117086e-016 -7.498551257120443e-033 1e-00
5 17 334 0 411 313 355 309 329 332 0 308 -17 335 0 322 323 329 327 338 336 0 326
 -16 336 223 0 ?338 332 345 337 0 0 1 30 337 224 0 336 346 333 0 +0.000770060959
9999828 -0.0003998839600000002 0.0004227812799999891 3.673899952117086e-016 1 -6
.123233995736766e-017 17 338 0 343 350 344 330 335 336 0 329 +14 339 225 341 1e-
008 360 318 343 11 340 +0 0 360 318 9 50 340 226 0 339 361 319 0 +0.000770060959
9999829 -0.0003998839600000003 0.0002377812799999941 -1 3.673899952117086e-016 -
7.498551257120443e-033 1.499759782661858e-032 6.123233995736766e-017 1 81 1 341
 227 5 339 0 0 362 320 342 83 3 342 0.1568627506494522 0.1568627506494522 0.1568
627506494522 15 343 228 0 344 339 0 17 344 0 343 338 356 327 347 345 0 0 -16 345
 229 0 ?347 336 353 346 0 0 1 30 346 230 0 345 354 337 0 +0.0007700609599999831
 0.0003951160399999998 0.000237781279999994 -1.499759782661858e-032 -6.123233995
736766e-017 -1 17 347 0 421 368 326 348 344 345 0 0 +18 348 231 0 365 330 351 34
9 ?1 29 349 232 0 348 352 331 0.0007700609599999831 0.0003951160399999998 5.2781
28e-005 17 350 0 343 356 338 351 355 353 0 0 +18 351 233 0 376 348 369 352 ?1 29
 352 234 0 351 370 349 0.0007700609599999831 0.0004001160399999997 5.278128e-005
 16 353 235 0 ?350 345 357 354 0 0 1 30 354 236 0 353 358 346 0 +0.0007700609599
999831 0.0004001160399999997 0.000422781279999989 -1.499759782661858e-032 -6.123
233995736766e-017 -1 17 355 0 411 334 376 330 350 353 0 0 -17 356 0 343 344 350
 348 359 357 0 347 -16 357 237 0 ?359 353 366 358 0 0 1 30 358 238 0 357 367 354
 0 +0.0007700609599999828 -0.0003998839600000003 5.278128000000005e-005 3.673899
952117086e-016 1 -6.123233995736766e-017 17 359 0 364 371 365 351 356 357 0 350
 +14 360 239 362 1e-008 381 339 364 11 361 -0 0 381 339 9 51 361 240 0 360 382 3
40 0 +0.0007600609599999828 -0.0003998839600000003 5.278128000000005e-005 3.6738
99952117086e-016 1 -6.123233995736766e-017 1e-005 -1 3.673899952117086e-016 -7.4
98551257120443e-033 81 1 362 241 5 360 0 0 383 341 363 83 3 363 0.15686275064945
22 0.1568627506494522 0.1568627506494522 15 364 242 0 365 360 0 17 365 0 364 359
 377 348 368 366 0 356 -16 366 243 0 ?368 357 374 367 0 0 1 31 367 244 0 366 375
 358 0 +0.0007600609599999831 0.0003951160399999997 5.278128e-005 2.449293598294
706e-016 1 -6.123233995736766e-017 -1 2.449293598294706e-016 0 1e-005 17 368 0 4
21 389 347 369 365 366 0 386 +18 369 245 0 368 351 372 370 ?1 29 370 246 0 369 3
73 352 0.0007600609599999831 0.0003951160399999998 4.278128e-005 17 371 0 364 37
7 359 372 376 374 0 393 +18 372 247 0 371 369 423 373 ?1 29 373 248 0 372 424 37
0 0.0007600609599999831 0.0004001160399999997 4.278128e-005 16 374 249 0 ?371 36
6 378 375 0 0 1 31 375 250 0 374 379 367 0 +0.0007600609599999831 0.000400116039
9999997 5.278128e-005 3.673899952117086e-016 1 -6.123233995736766e-017 -1 3.6738
99952117086e-016 -7.498551257120443e-033 1e-005 17 376 0 411 355 393 351 371 374
 0 359 -17 377 0 364 365 371 369 380 378 0 0 -16 378 251 0 ?380 374 387 379 0 0
 1 30 379 252 0 378 388 375 0 +0.0007600609599999828 -0.0003998839600000003 4.27
8128000000005e-005 3.673899952117086e-016 1 -6.123233995736766e-017 17 380 0 385
 390 386 372 377 378 0 0 +14 381 253 383 1e-008 394 360 385 11 382 +0 0 394 360
 9 50 382 254 0 381 395 361 0 +0.0006300609599999909 -0.0003998839600000002 4.27
8128000000005e-005 1.499759782661858e-032 6.123233995736766e-017 1 1 -3.67389995
2117086e-016 7.498551257120443e-033 81 1 383 255 5 381 0 0 396 362 384 83 3 384
 0.1568627506494522 0.1568627506494522 0.1568627506494522 15 385 256 0 386 381 0
 17 386 0 385 380 165 369 389 387 0 377 -16 387 257 0 ?389 378 391 388 0 0 1 30
 388 258 0 387 392 379 0 +0.000315060960000008 0.0003951160399999999 4.278128e-0
05 -1 2.449293598294706e-016 0 17 389 0 421 157 368 153 386 387 0 152 +17 390 0
 385 165 380 161 393 391 0 160 +16 391 259 0 ?390 387 400 392 0 0 1 30 392 260 0
 391 401 388 0 +0.0007600609599999831 0.0004001160399999997 4.278128e-005 -1 3.6
73899952117086e-016 -7.498551257120443e-033 17 393 0 411 376 171 372 390 391 0 3
80 -14 394 261 396 1e-008 407 381 398 11 395 +0 0 407 381 9 50 395 262 0 394 408
 382 0 +0.0006350609599999909 -0.0003998839600000002 1.278128000000005e-005 -1.4
99759782661858e-032 -6.123233995736766e-017 -1 -1 3.673899952117086e-016 -7.4985
51257120443e-033 81 1 396 263 5 394 0 0 409 383 397 83 3 397 0.1568627506494522
 0.1568627506494522 0.1568627506494522 15 398 264 0 399 394 0 17 399 0 398 241 1
77 224 402 400 0 0 +16 400 265 0 ?399 391 404 401 0 0 1 30 401 266 0 400 405 392
 0 +0.000770060959999982 0.0004001160399999997 1.278128e-005 1 -3.67389995211708
6e-016 7.498551257120443e-033 17 402 0 411 171 223 167 399 400 0 0 -17 403 0 398
 177 241 173 406 404 0 0 +16 404 267 0 ?403 400 425 405 0 0 1 30 405 268 0 404 4
26 401 0 +0.0007700609599999818 -0.0003998839600000003 1.278128000000005e-005 -1
 3.673899952117086e-016 -7.498551257120443e-033 17 406 0 416 237 183 233 403 404
 0 0 -14 407 269 409 1e-008 412 394 411 11 408 +0 0 412 394 9 50 408 270 0 407 4
13 395 0 +0.000695992252793059 0.0004001160399999997 0.000237781279999994 3.6738
99952117086e-016 1 -6.123233995736766e-017 -1 3.673899952117086e-016 -7.49855125
7120443e-033 81 1 409 271 5 407 0 0 414 396 410 83 3 410 0.1568627506494522 0.15
68627506494522 0.1568627506494522 15 411 272 0 223 407 0 14 412 273 414 1e-008 4
17 407 416 11 413 -0 0 417 407 9 50 413 274 0 412 418 408 0 +0.00069599225279305
88 -0.0003998839600000002 0.0002377812799999941 3.673899952117086e-016 1 -6.1232
33995736766e-017 -1 3.673899952117086e-016 -7.498551257120443e-033 81 1 414 275
 5 412 0 0 419 409 415 83 3 415 0.1568627506494522 0.1568627506494522 0.15686275
06494522 15 416 276 0 406 412 0 14 417 277 419 1e-008 474 412 421 11 418 -0 0 47
4 412 9 50 418 278 0 417 475 413 0 +6.096000002545063e-008 0.0003951160399999999
 0.000237781279999994 -2.449293598294706e-016 -1 6.123233995736766e-017 1 -2.449
293598294706e-016 0 81 1 419 279 5 417 0 0 476 414 420 83 3 420 0.35294118523597
72 0.3529411852359772 0.3529411852359772 15 421 280 0 20 417 0 17 422 0 421 428
 157 423 427 425 0 433 -18 423 281 0 422 372 429 424 ?1 29 424 282 0 423 430 373
 -0.000499939039999972 0.0003951160400000001 1.778128e-005 16 425 283 0 ?427 404
 431 426 0 0 1 30 426 284 0 425 432 405 0 +-0.000499939039999972 0.0003951160400
000001 1.778128e-005 1 -2.449293598294706e-016 0 17 427 0 859 199 709 158 422 42
5 0 196 +17 428 0 421 434 422 429 433 431 0 694 -18 429 285 0 439 423 435 430 ?1
 29 430 286 0 429 436 424 -0.00049993904 0.0003951160400000001 4.278128e-005 16
 431 287 0 ?433 425 437 432 0 0 1 30 432 288 0 431 438 426 0 +-0.000499939039999
972 0.0003951160400000001 3.2781279999996e-005 -1.499759782661858e-032 -6.123233
995736766e-017 -1 17 433 0 703 704 694 423 428 431 0 709 +17 434 0 421 440 428 4
35 439 437 0 445 +18 435 289 0 434 429 441 436 ?1 29 436 290 0 435 442 430 -0.00
0759939039999983 0.0003951160400000001 4.278128e-005 16 437 291 0 ?434 431 443 4
38 0 0 1 30 438 292 0 437 444 432 0 +-0.000314939039999983 0.00039511604 4.27812
8e-005 -1 2.449293598294706e-016 0 17 439 0 688 689 658 429 434 437 0 428 -17 44
0 0 421 446 434 441 445 443 0 622 +18 441 293 0 440 435 447 442 ?1 29 442 294 0
 441 448 436 -0.000769939039999983 0.0003951160400000002 5.278128e-005 16 443 29
5 0 ?440 437 449 444 0 0 1 31 444 296 0 443 450 438 0 +-0.0007599390399999831 0.
0003951160400000001 5.278128e-005 2.449293598294706e-016 1 -6.123233995736766e-0
17 1 -2.449293598294706e-016 0 1e-005 17 445 0 652 653 622 435 440 443 0 658 -17
 446 0 421 452 440 447 451 449 0 0 +18 447 297 0 457 441 453 448 ?1 29 448 298 0
 447 454 442 -0.000769939039999983 0.0003951160400000002 0.000422781279999989 16
 449 299 0 ?446 443 455 450 0 0 1 30 450 300 0 449 456 444 0 +-0.000769939039999
983 0.0003951160400000002 0.000237781279999994 1.499759782661858e-032 6.12323399
5736766e-017 1 17 451 0 616 617 586 441 446 449 0 0 -17 452 0 421 458 446 453 45
7 455 0 463 +18 453 301 0 452 447 459 454 ?1 29 454 302 0 453 460 448 -0.0007599
39039999983 0.0003951160400000002 0.000432781279999989 16 455 303 0 ?452 449 461
 456 0 0 1 31 456 304 0 455 462 450 0 +-0.0007599390399999831 0.0003951160400000
002 0.000422781279999989 2.449293598294706e-016 1 -6.123233995736766e-017 1 -2.4
49293598294706e-016 0 1e-005 17 457 0 580 581 550 447 452 455 0 586 -17 458 0 42
1 464 452 459 463 461 0 469 +18 459 305 0 484 453 465 460 ?1 29 460 306 0 459 46
6 454 -0.00049993904 0.0003951160400000001 0.000432781279999989 16 461 307 0 ?45
8 455 467 462 0 0 1 30 462 308 0 461 468 456 0 +-0.000314939039999983 0.00039511
60400000001 0.000432781279999989 1 -2.449293598294706e-016 0 17 463 0 544 545 48
4 453 458 461 0 550 -17 464 0 421 470 458 465 469 467 0 473 -18 465 309 0 464 45
9 480 466 ?1 29 466 310 0 465 481 460 -0.00049993904 0.0003951160400000001 0.000
457781279999989 16 467 311 0 ?469 461 471 468 0 0 1 30 468 312 0 467 472 462 0 +
-0.00049993904 0.0003951160400000001 0.000457781279999989 -1.499759782661858e-03
2 -6.123233995736766e-017 -1 17 469 0 478 479 515 459 464 467 0 0 +17 470 0 421
 20 464 16 473 471 0 28 -16 471 313 0 ?473 467 482 472 0 0 1 30 472 314 0 471 48
3 468 0 +0.0005000609600000001 0.0003951160399999998 0.000457781280000003 -1 2.4
49293598294698e-016 -1.42663658664333e-014 17 473 0 854 518 28 465 470 471 0 515
 +14 474 315 476 1e-008 519 417 478 11 475 +0 0 519 417 9 50 475 316 0 474 520 4
18 0 +-0.00049993904 0.0004001160400000001 0.000447781279999989 1 -2.44929359829
4704e-016 3.70074341541718e-015 -3.70074341541718e-015 6.123233995736857e-017 1
 81 1 476 317 5 474 0 0 521 419 477 83 3 477 0.1568627506494522 0.15686275064945
22 0.1568627506494522 15 478 318 0 469 474 0 17 479 0 478 485 469 480 484 482 0
 490 -18 480 319 0 479 465 486 481 ?1 29 481 320 0 480 487 466 -0.00049993904 0.
0004001160400000001 0.000432781279999989 16 482 321 0 ?484 471 488 483 0 0 1 30
 483 322 0 482 489 472 0 +-0.00049993904 0.0004001160400000001 0.000432781279999
989 -2.449293598294706e-016 -1 6.123233995736766e-017 17 484 0 544 463 551 459 4
79 482 0 458 +17 485 0 478 491 479 486 490 488 0 496 -18 486 323 0 485 480 492 4
87 ?1 29 487 324 0 486 493 481 -0.00049993904 0.0004001160400000001 0.0004627812
79999989 16 488 325 0 ?490 482 494 489 0 0 1 30 489 326 0 488 495 483 0 +-0.0004
9993904 0.0004001160400000001 0.000462781279999989 3.70074341541718e-015 -6.1232
33995736857e-017 -1 17 490 0 836 554 813 480 485 488 0 551 +17 491 0 478 497 485
 492 496 494 0 502 +18 492 327 0 491 486 498 493 ?1 29 493 328 0 492 499 487 -0.
0004999390400000002 -0.00039988396 0.0004627812799999891 16 494 329 0 ?491 488 5
00 495 0 0 1 30 495 330 0 494 501 489 0 +-0.00049993904 0.0004001160400000001 0.
000462781279999989 -2.449293598294706e-016 -1 6.123233995736766e-017 17 496 0 80
5 810 806 486 491 494 0 813 -17 497 0 478 503 491 498 502 500 0 508 +18 498 331
 0 535 492 504 499 ?1 29 499 332 0 498 505 493 -0.0004999390400000002 -0.0003998
8396 0.000432781279999989 16 500 333 0 ?497 494 506 501 0 0 1 30 501 334 0 500 5
07 495 0 +-0.0004999390400000002 -0.00039988396 0.0004627812799999891 3.70074341
541718e-015 -6.123233995736857e-017 -1 17 502 0 831 809 535 492 497 500 0 806 -1
7 503 0 478 509 497 504 508 506 0 514 -18 504 335 0 503 498 510 505 ?1 29 505 33
6 0 504 511 499 -0.0004999390400000002 -0.00039488396 0.000432781279999989 16 50
6 337 0 ?508 500 512 507 0 0 1 30 507 338 0 506 513 501 0 +-0.00049993904 0.0004
001160400000001 0.000432781279999989 -2.449293598294706e-016 -1 6.12323399573676
6e-017 17 508 0 523 530 524 498 503 506 0 0 +17 509 0 478 515 503 510 514 512 0
 518 -18 510 339 0 509 504 528 511 ?1 29 511 340 0 510 529 505 -0.00049993904000
00002 -0.00039488396 0.0004577812799999891 16 512 341 0 ?514 506 516 513 0 0 1 3
0 513 342 0 512 517 507 0 +-0.0004999390400000002 -0.00039488396 0.0003427812799
999901 3.70074341541718e-015 -6.123233995736857e-017 -1 17 514 0 841 527 842 504
 509 512 0 524 +17 515 0 478 469 509 465 518 516 0 0 -16 516 343 0 ?518 512 525
 517 0 0 1 30 517 344 0 516 526 513 0 +-0.00049993904 0.0003951160400000001 0.00
0457781279999989 -2.449293598294706e-016 -1 6.123233995736766e-017 17 518 0 854
 845 473 510 515 516 0 842 +14 519 345 521 1e-008 540 474 523 11 520 +0 0 540 47
4 9 50 520 346 0 519 541 475 0 +-0.000629939039999991 0.0004001160400000001 0.00
0432781279999989 -1.499759782661858e-032 -6.123233995736766e-017 -1 1 -2.4492935
98294706e-016 0 81 1 521 347 5 519 0 0 542 476 522 83 3 522 0.1568627506494522 0
.1568627506494522 0.1568627506494522 15 523 348 0 524 519 0 17 524 0 523 508 536
 504 527 525 0 0 -16 525 349 0 ?527 516 533 526 0 0 1 30 526 350 0 525 534 517 0
 +-0.0003149390399999832 -0.00039488396 0.000432781279999989 -1 2.44929359829470
6e-016 0 17 527 0 841 563 514 528 524 525 0 0 +18 528 351 0 536 510 531 529 ?1 2
9 529 352 0 528 532 511 -0.0007599390399999832 -0.0003948839599999999 0.00043278
1279999989 17 530 0 523 536 508 531 535 533 0 539 +18 531 353 0 530 528 546 532
 ?1 29 532 354 0 531 547 529 -0.0007599390399999832 -0.0003998839599999999 0.000
432781279999989 16 533 355 0 ?530 525 537 534 0 0 1 30 534 356 0 533 538 526 0 +
-0.0004999390400000002 -0.00039988396 0.000432781279999989 -1 2.449293598294706e
-016 0 17 535 0 831 502 571 498 530 533 0 497 -17 536 0 523 524 530 528 539 537
 0 560 -16 537 357 0 ?539 533 548 538 0 0 1 30 538 358 0 537 549 534 0 +-0.00075
9939039999983 0.0004001160400000002 0.000432781279999989 -2.449293598294706e-016
 -1 6.123233995736766e-017 17 539 0 559 566 560 531 536 537 0 571 +14 540 359 54
2 1e-008 555 519 544 11 541 +0 0 555 519 9 50 541 360 0 540 556 520 0 +-0.000629
939039999991 0.0004001160400000001 0.000432781279999989 -1.499759782661858e-032
 -6.123233995736766e-017 -1 1 -2.449293598294706e-016 0 81 1 542 361 5 540 0 0 5
57 521 543 83 3 543 0.1568627506494522 0.1568627506494522 0.1568627506494522 15
 544 362 0 463 540 0 17 545 0 544 551 463 546 550 548 0 0 -18 546 363 0 587 531
 564 547 ?1 29 547 364 0 546 565 532 -0.000759939039999983 0.0004001160400000002
 0.000432781279999989 16 548 365 0 ?550 537 552 549 0 0 1 30 549 366 0 548 553 5
38 0 +-0.000759939039999983 0.0004001160400000002 0.000432781279999989 -2.449293
598294706e-016 -1 6.123233995736766e-017 17 550 0 580 457 587 453 545 548 0 0 +1
7 551 0 544 484 545 480 554 552 0 0 -16 552 367 0 ?554 548 561 553 0 0 1 30 553
 368 0 552 562 549 0 +-0.00049993904 0.0004001160400000001 0.000432781279999989
 -1 2.449293598294706e-016 0 17 554 0 836 590 490 546 551 552 0 545 +14 555 369
 557 1e-008 576 540 559 11 556 -0 0 576 540 9 51 556 370 0 555 577 541 0 +-0.000
7599390399999831 0.0004001160400000002 0.000422781279999989 -2.449293598294706e-
016 -1 6.123233995736766e-017 1e-005 1 -2.449293598294706e-016 0 81 1 557 371 5
 555 0 0 578 542 558 83 3 558 0.1568627506494522 0.1568627506494522 0.1568627506
494522 15 559 372 0 560 555 0 17 560 0 559 539 572 528 563 561 0 527 -16 561 373
 0 ?563 552 569 562 0 0 1 31 562 374 0 561 570 553 0 +-0.0007599390399999833 -0.
0003948839599999999 0.0004227812799999891 -2.449293598294706e-016 -1 6.123233995
736766e-017 1 -2.449293598294706e-016 0 1e-005 17 563 0 841 599 527 564 560 561
 0 0 +18 564 375 0 596 546 567 565 ?1 29 565 376 0 564 568 547 -0.00076993903999
99832 -0.0003948839599999999 0.0004227812799999891 17 566 0 559 572 539 567 571
 569 0 0 +18 567 377 0 607 564 582 568 ?1 29 568 378 0 567 583 565 -0.0007699390
399999832 -0.0003998839599999999 0.0004227812799999891 16 569 379 0 ?566 561 573
 570 0 0 1 31 570 380 0 569 574 562 0 +-0.0007599390399999833 -0.000399883959999
9999 0.0004227812799999891 -2.449293598294706e-016 -1 6.123233995736766e-017 1 -
2.449293598294706e-016 0 1e-005 17 571 0 831 535 607 531 566 569 0 0 -17 572 0 5
59 560 566 564 575 573 0 563 -16 573 381 0 ?575 569 584 574 0 0 1 30 574 382 0 5
73 585 570 0 +-0.000769939039999983 0.0004001160400000002 0.000422781279999989 -
2.449293598294706e-016 -1 6.123233995736766e-017 17 575 0 595 602 596 567 572 57
3 0 566 +14 576 383 578 1e-008 591 555 580 11 577 -0 0 591 555 9 51 577 384 0 57
6 592 556 0 +-0.0007599390399999831 0.0004001160400000002 0.000422781279999989 -
2.449293598294706e-016 -1 6.123233995736766e-017 1e-005 1 -2.449293598294706e-01
6 0 81 1 578 385 5 576 0 0 593 557 579 83 3 579 0.1568627506494522 0.15686275064
94522 0.1568627506494522 15 580 386 0 457 576 0 17 581 0 580 587 457 582 586 584
 0 623 -18 582 387 0 590 567 600 583 ?1 29 583 388 0 582 601 568 -0.000769939039
999983 0.0004001160400000002 0.000422781279999989 16 584 389 0 ?586 573 588 585
 0 0 1 30 585 390 0 584 589 574 0 +-0.000769939039999983 0.0004001160400000002 0
.000422781279999989 -2.449293598294706e-016 -1 6.123233995736766e-017 17 586 0 6
16 451 623 447 581 584 0 446 +17 587 0 580 550 581 546 590 588 0 554 -16 588 391
 0 ?590 584 597 589 0 0 1 31 589 392 0 588 598 585 0 +-0.0007599390399999831 0.0
004001160400000002 0.000422781279999989 -2.449293598294706e-016 -1 6.12323399573
6766e-017 1 -2.449293598294706e-016 0 1e-005 17 590 0 836 626 554 582 587 588 0
 581 +14 591 393 593 1e-008 612 576 595 11 592 +0 0 612 576 9 50 592 394 0 591 6
13 577 0 +-0.000769939039999983 0.0004001160400000002 0.000237781279999994 1 -2.
449293598294706e-016 0 1.499759782661858e-032 6.123233995736766e-017 1 81 1 593
 395 5 591 0 0 614 578 594 83 3 594 0.1568627506494522 0.1568627506494522 0.1568
627506494522 15 595 396 0 596 591 0 17 596 0 595 575 608 564 599 597 0 572 -16 5
97 397 0 ?599 588 605 598 0 0 1 30 598 398 0 597 606 589 0 +-0.00076993903999998
32 -0.0003948839599999999 0.0002377812799999941 -1.499759782661858e-032 -6.12323
3995736766e-017 -1 17 599 0 841 635 563 600 596 597 0 0 +18 600 399 0 608 582 60
3 601 ?1 29 601 400 0 600 604 583 -0.0007699390399999832 -0.0003948839599999999
 5.278128000000005e-005 17 602 0 595 608 575 603 607 605 0 0 +18 603 401 0 643 6
00 618 604 ?1 29 604 402 0 603 619 601 -0.0007699390399999832 -0.000399883959999
9999 5.278128000000005e-005 16 605 403 0 ?602 597 609 606 0 0 1 30 606 404 0 605
 610 598 0 +-0.0007699390399999832 -0.0003998839599999999 0.0004227812799999891
 -1.499759782661858e-032 -6.123233995736766e-017 -1 17 607 0 831 571 643 567 602
 605 0 575 -17 608 0 595 596 602 600 611 609 0 632 -16 609 405 0 ?611 605 620 61
0 0 0 1 30 610 406 0 609 621 606 0 +-0.000769939039999983 0.0004001160400000001
 5.278128e-005 -2.449293598294706e-016 -1 6.123233995736766e-017 17 611 0 631 63
8 632 603 608 609 0 602 +14 612 407 614 1e-008 627 591 616 11 613 +0 0 627 591 9
 50 613 408 0 612 628 592 0 +-0.000769939039999983 0.0004001160400000002 0.00023
7781279999994 1 -2.449293598294706e-016 0 1.499759782661858e-032 6.1232339957367
66e-017 1 81 1 614 409 5 612 0 0 629 593 615 83 3 615 0.1568627506494522 0.15686
27506494522 0.1568627506494522 15 616 410 0 451 612 0 17 617 0 616 623 451 618 6
22 620 0 659 -18 618 411 0 617 603 636 619 ?1 29 619 412 0 618 637 604 -0.000769
939039999983 0.0004001160400000001 5.278128e-005 16 620 413 0 ?622 609 624 621 0
 0 1 30 621 414 0 620 625 610 0 +-0.000769939039999983 0.0004001160400000001 5.2
78128e-005 -2.449293598294706e-016 -1 6.123233995736766e-017 17 622 0 652 445 65
9 441 617 620 0 451 +17 623 0 616 586 617 582 626 624 0 0 -16 624 415 0 ?626 620
 633 625 0 0 1 30 625 416 0 624 634 621 0 +-0.000769939039999983 0.0004001160400
000002 0.000422781279999989 -1.499759782661858e-032 -6.123233995736766e-017 -1 1
7 626 0 836 662 590 618 623 624 0 0 +14 627 417 629 1e-008 648 612 631 11 628 -0
 0 648 612 9 51 628 418 0 627 649 613 0 +-0.0007599390399999831 0.00040011604000
00001 5.278128e-005 -2.449293598294706e-016 -1 6.123233995736766e-017 1e-005 1 -
2.449293598294706e-016 0 81 1 629 419 5 627 0 0 650 614 630 83 3 630 0.156862750
6494522 0.1568627506494522 0.1568627506494522 15 631 420 0 632 627 0 17 632 0 63
1 611 644 600 635 633 0 599 -16 633 421 0 ?635 624 641 634 0 0 1 31 634 422 0 63
3 642 625 0 +-0.0007599390399999833 -0.0003948839599999999 5.278128000000005e-00
5 -2.449293598294706e-016 -1 6.123233995736766e-017 1 -2.449293598294706e-016 0
 1e-005 17 635 0 841 671 599 636 632 633 0 668 +18 636 423 0 635 618 639 637 ?1
 29 637 424 0 636 640 619 -0.0007599390399999832 -0.0003948839599999999 4.278128
000000005e-005 17 638 0 631 644 611 639 643 641 0 647 +18 639 425 0 638 636 654
 640 ?1 29 640 426 0 639 655 637 -0.0007599390399999832 -0.0003998839599999999 4
.278128000000005e-005 16 641 427 0 ?638 633 645 642 0 0 1 31 642 428 0 641 646 6
34 0 +-0.0007599390399999833 -0.0003998839599999999 5.278128000000005e-005 -2.44
9293598294706e-016 -1 6.123233995736766e-017 1 -2.449293598294706e-016 0 1e-005
 17 643 0 831 607 679 603 638 641 0 611 -17 644 0 631 632 638 636 647 645 0 0 -1
6 645 429 0 ?647 641 656 646 0 0 1 30 646 430 0 645 657 642 0 +-0.00075993903999
9983 0.0004001160400000001 4.278128e-005 -2.449293598294706e-016 -1 6.1232339957
36766e-017 17 647 0 667 674 668 639 644 645 0 679 +14 648 431 650 1e-008 663 627
 652 11 649 -0 0 663 627 9 51 649 432 0 648 664 628 0 +-0.0007599390399999831 0.
0004001160400000001 5.278128e-005 -2.449293598294706e-016 -1 6.123233995736766e-
017 1e-005 1 -2.449293598294706e-016 0 81 1 650 433 5 648 0 0 665 629 651 83 3 6
51 0.1568627506494522 0.1568627506494522 0.1568627506494522 15 652 434 0 445 648
 0 17 653 0 652 659 445 654 658 656 0 695 -18 654 435 0 662 639 672 655 ?1 29 65
5 436 0 654 673 640 -0.000759939039999983 0.0004001160400000001 4.278128e-005 16
 656 437 0 ?658 645 660 657 0 0 1 30 657 438 0 656 661 646 0 +-0.000759939039999
983 0.0004001160400000001 4.278128e-005 -2.449293598294706e-016 -1 6.12323399573
6766e-017 17 658 0 688 439 695 435 653 656 0 0 +17 659 0 652 622 653 618 662 660
 0 626 -16 660 439 0 ?662 656 669 661 0 0 1 31 661 440 0 660 670 657 0 +-0.00075
99390399999831 0.0004001160400000001 5.278128e-005 -2.449293598294706e-016 -1 6.
123233995736766e-017 1 -2.449293598294706e-016 0 1e-005 17 662 0 836 698 626 654
 659 660 0 653 +14 663 441 665 1e-008 684 648 667 11 664 +0 0 684 648 9 50 664 4
42 0 663 685 649 0 +-0.000629939039999991 0.0004001160400000001 4.278128e-005 1.
499759782661858e-032 6.123233995736766e-017 1 -1 2.449293598294706e-016 0 81 1 6
65 443 5 663 0 0 686 650 666 83 3 666 0.1568627506494522 0.1568627506494522 0.15
68627506494522 15 667 444 0 668 663 0 17 668 0 667 647 680 636 671 669 0 644 -16
 669 445 0 ?671 660 677 670 0 0 1 30 670 446 0 669 678 661 0 +-0.000314939039999
9832 -0.00039488396 4.278128000000005e-005 1 -2.449293598294706e-016 0 17 671 0
 841 713 635 672 668 669 0 680 +18 672 447 0 671 654 675 673 ?1 29 673 448 0 672
 676 655 -0.0004999390400000002 -0.00039488396 4.278128000000005e-005 17 674 0 6
67 680 647 675 679 677 0 683 +18 675 449 0 674 672 690 676 ?1 29 676 450 0 675 6
91 673 -0.0004999390400000002 -0.00039988396 4.278128000000005e-005 16 677 451 0
 ?674 669 681 678 0 0 1 30 678 452 0 677 682 670 0 +-0.0007599390399999832 -0.00
03998839599999999 4.278128000000005e-005 1 -2.449293598294706e-016 0 17 679 0 83
1 643 719 639 674 677 0 0 -17 680 0 667 668 674 672 683 681 0 710 -16 681 453 0
 ?683 677 692 682 0 0 1 30 682 454 0 681 693 678 0 +-0.00049993904 0.00040011604
00000001 4.278128e-005 -2.449293598294706e-016 -1 6.123233995736766e-017 17 683
 0 703 714 710 675 680 681 0 719 +14 684 455 686 1e-008 699 663 688 11 685 +0 0
 699 663 9 50 685 456 0 684 700 664 0 +-0.000629939039999991 0.00040011604000000
01 4.278128e-005 1.499759782661858e-032 6.123233995736766e-017 1 -1 2.4492935982
94706e-016 0 81 1 686 457 5 684 0 0 701 665 687 83 3 687 0.1568627506494522 0.15
68627506494522 0.1568627506494522 15 688 458 0 439 684 0 17 689 0 688 695 439 69
0 694 692 0 726 -18 690 459 0 689 675 705 691 ?1 29 691 460 0 690 706 676 -0.000
49993904 0.0004001160400000001 4.278128e-005 16 692 461 0 ?694 681 696 693 0 0 1
 30 693 462 0 692 697 682 0 +-0.00049993904 0.0004001160400000001 4.278128e-005
 -2.449293598294706e-016 -1 6.123233995736766e-017 17 694 0 703 433 726 429 689
 692 0 0 +17 695 0 688 658 689 654 698 696 0 0 -16 696 463 0 ?698 692 707 697 0
 0 1 30 697 464 0 696 708 693 0 +-0.000759939039999983 0.0004001160400000001 4.2
78128e-005 1 -2.449293598294706e-016 0 17 698 0 836 729 662 690 695 696 0 0 +14
 699 465 701 1e-008 730 684 703 11 700 +0 0 730 684 9 50 700 466 0 699 731 685 0
 +-0.00049993904 0.0004001160400000001 2.778128e-005 1 -2.449293598294706e-016 0
 1.499759782661858e-032 6.123233995736766e-017 1 81 1 701 467 5 699 0 0 732 686
 702 83 3 702 0.1568627506494522 0.1568627506494522 0.1568627506494522 15 703 46
8 0 433 699 0 17 704 0 703 710 433 705 709 707 0 849 +18 705 469 0 704 690 715 7
06 ?1 29 706 470 0 705 716 691 -0.0004999390399999722 -0.00039488396 1.778128000
000005e-005 16 707 471 0 ?704 696 711 708 0 0 1 30 708 472 0 707 712 697 0 +-0.0
00499939039999972 0.0003951160400000001 1.778128e-005 -2.449293598294706e-016 -1
 6.123233995736766e-017 17 709 0 859 427 849 423 704 707 0 0 -17 710 0 703 683 7
04 672 713 711 0 0 -16 711 473 0 ?713 707 717 712 0 0 1 30 712 474 0 711 718 708
 0 +-0.0004999390400000002 -0.00039488396 0.0001327812799999971 -1.4997597826618
58e-032 -6.123233995736766e-017 -1 17 713 0 841 846 671 705 710 711 0 0 +17 714
 0 703 720 683 715 719 717 0 822 +18 715 475 0 714 705 721 716 ?1 29 716 476 0 7
15 722 706 -0.0004999390400000002 -0.00039988396 1.278128000000005e-005 16 717 4
77 0 ?714 711 723 718 0 0 1 30 718 478 0 717 724 712 0 +-0.0004999390400000002 -
0.00039988396 4.278128000000005e-005 -1.499759782661858e-032 -6.123233995736766e
-017 -1 17 719 0 831 679 822 675 714 717 0 0 -17 720 0 703 726 714 721 725 723 0
 823 -18 721 479 0 729 715 736 722 ?1 29 722 480 0 721 737 716 -0.00049993904 0.
0004001160400000001 1.278128e-005 16 723 481 0 ?725 717 727 724 0 0 1 30 724 482
 0 723 728 718 0 +-0.00049993904 0.0004001160400000001 1.278128e-005 -2.44929359
8294706e-016 -1 6.123233995736766e-017 17 725 0 818 819 823 715 720 723 0 0 +17
 726 0 703 694 720 690 729 727 0 698 -16 727 483 0 ?729 723 738 728 0 0 1 30 728
 484 0 727 739 724 0 +-0.00049993904 0.0004001160400000001 4.278128e-005 -1.4997
59782661858e-032 -6.123233995736766e-017 -1 17 729 0 836 826 698 721 726 727 0 7
20 +14 730 485 732 1e-008 759 699 734 11 731 +0 0 759 699 9 51 731 486 0 730 760
 700 0 +-0.000769939039999982 0.0004001160400000001 4.27812800000011e-005 -2.449
293598294706e-016 -1 6.123233995736766e-017 3e-005 1 -2.449293598294706e-016 0 8
1 1 732 487 5 730 0 0 761 701 733 83 3 733 0.1568627506494522 0.1568627506494522
 0.1568627506494522 15 734 488 0 735 730 0 17 735 0 734 743 755 736 740 738 0 76
9 +18 736 489 0 748 721 741 737 ?1 29 737 490 0 736 742 722 -0.00079993903999998
32 -0.0003998839599999999 4.278128000000114e-005 16 738 491 0 ?735 727 746 739 0
 0 1 31 739 492 0 738 747 728 0 +-0.0007699390399999823 -0.0003998839599999999 4
.278128000000115e-005 2.449293598294706e-016 1 -6.123233995736766e-017 1 -2.4492
93598294706e-016 0 3e-005 17 740 0 831 822 769 741 735 738 0 755 -18 741 493 0 8
19 736 744 742 ?1 29 742 494 0 741 745 737 -0.0007699390399999823 -0.00039988395
99999999 1.278128000000005e-005 17 743 0 734 749 735 744 748 746 0 754 -18 744 4
95 0 743 741 750 745 ?1 29 745 496 0 744 751 742 -0.000799939039999983 0.0004001
160400000002 4.27812800000011e-005 16 746 497 0 ?748 738 752 747 0 0 1 30 747 49
8 0 746 753 739 0 +-0.000799939039999983 0.0004001160400000002 4.27812800000011e
-005 -2.449293598294706e-016 -1 6.123233995736766e-017 17 748 0 763 764 776 736
 743 746 0 735 +17 749 0 734 755 743 750 754 752 0 758 +18 750 499 0 749 744 765
 751 ?1 29 751 500 0 750 766 745 -0.000769939039999982 0.0004001160400000001 1.2
78128e-005 16 752 501 0 ?749 746 756 753 0 0 1 31 753 502 0 752 757 747 0 +-0.00
0769939039999982 0.0004001160400000001 4.27812800000011e-005 -2.449293598294706e
-016 -1 6.123233995736766e-017 1 -2.449293598294706e-016 0 3e-005 17 754 0 836 7
79 826 744 749 752 0 776 -17 755 0 734 735 749 741 758 756 0 0 +16 756 503 0 ?75
5 752 767 757 0 0 1 30 757 504 0 756 768 753 0 +-0.000769939039999982 0.00040011
60400000001 1.278128e-005 -2.449293598294706e-016 -1 6.123233995736766e-017 17 7
58 0 818 823 819 750 755 756 0 826 -14 759 505 761 1e-008 780 730 763 11 760 +0
 0 780 730 9 50 760 506 0 759 781 731 0 +-0.000799939039999983 0.000400116040000
0002 0.000237781279999994 -1 2.449293598294706e-016 0 -1.499759782661858e-032 -6
.123233995736766e-017 -1 81 1 761 507 5 759 0 0 782 732 762 83 3 762 0.156862750
6494522 0.1568627506494522 0.1568627506494522 15 763 508 0 764 759 0 17 764 0 76
3 770 748 765 769 767 0 775 +18 765 509 0 764 750 771 766 ?1 29 766 510 0 765 77
2 751 -0.0007999390399999822 -0.0003998839599999999 0.000432781279999987 16 767
 511 0 ?764 756 773 768 0 0 1 30 768 512 0 767 774 757 0 +-0.0007999390399999832
 -0.0003998839599999999 0.000432781279999987 1.499759782661858e-032 6.1232339957
36766e-017 1 17 769 0 831 740 790 736 764 767 0 0 -17 770 0 763 776 764 771 775
 773 0 0 -18 771 513 0 797 765 786 772 ?1 29 772 514 0 771 787 766 -0.0007999390
399999819 0.0004001160400000002 0.000432781279999987 16 773 515 0 ?775 767 777 7
74 0 0 1 30 774 516 0 773 778 768 0 +-0.0007999390399999819 0.000400116040000000
2 0.000432781279999987 -2.449293598294706e-016 -1 6.123233995736766e-017 17 775
 0 784 785 797 765 770 773 0 790 +17 776 0 763 748 770 744 779 777 0 0 +16 777 5
17 0 ?776 773 788 778 0 0 1 30 778 518 0 777 789 774 0 +-0.000799939039999983 0.
0004001160400000002 0.000432781279999987 -1.499759782661858e-032 -6.123233995736
766e-017 -1 17 779 0 836 800 754 771 776 777 0 770 -14 780 519 782 1e-008 801 75
9 784 11 781 +0 0 801 759 9 51 781 520 0 780 802 760 0 +-0.000769939039999982 0.
0004001160400000002 0.000432781279999987 -2.449293598294706e-016 -1 6.1232339957
36766e-017 3e-005 1 -2.449293598294706e-016 0 81 1 782 521 5 780 0 0 803 761 783
 83 3 783 0.1568627506494522 0.1568627506494522 0.1568627506494522 15 784 522 0
 785 780 0 17 785 0 784 791 775 786 790 788 0 0 +18 786 523 0 796 771 792 787 ?1
 29 787 524 0 786 793 772 -0.0007699390399999823 -0.0003998839599999999 0.000462
7812799999891 16 788 525 0 ?785 777 794 789 0 0 1 31 789 526 0 788 795 778 0 +-0
.0007699390399999823 -0.0003998839599999999 0.000432781279999987 2.4492935982947
06e-016 1 -6.123233995736766e-017 1 -2.449293598294706e-016 0 3e-005 17 790 0 83
1 769 809 765 785 788 0 0 -17 791 0 784 797 785 792 796 794 0 800 -18 792 527 0
 791 786 0 793 ?1 29 793 528 0 792 0 787 -0.000769939039999982 0.000400116040000
0002 0.000462781279999989 16 794 529 0 ?796 788 798 795 0 0 1 30 795 530 0 794 7
99 789 0 +-0.000769939039999982 0.0004001160400000002 0.000462781279999989 -2.44
9293598294706e-016 -1 6.123233995736766e-017 17 796 0 805 806 810 786 791 794 0
 809 +17 797 0 784 775 791 771 800 798 0 779 +16 798 531 0 ?797 794 807 799 0 0
 1 31 799 532 0 798 808 795 0 +-0.000769939039999982 0.0004001160400000002 0.000
432781279999987 -2.449293598294706e-016 -1 6.123233995736766e-017 1 -2.449293598
294706e-016 0 3e-005 17 800 0 836 813 779 792 797 798 0 810 -14 801 533 803 1e-0
08 814 780 805 11 802 +0 0 814 780 9 50 802 534 0 801 815 781 0 +-0.000634939039
999991 0.0004001160400000001 0.000462781279999989 1.499759782661858e-032 6.12323
3995736766e-017 1 -1 2.449293598294706e-016 0 81 1 803 535 5 801 0 0 816 782 804
 83 3 804 0.1568627506494522 0.1568627506494522 0.1568627506494522 15 805 536 0
 806 801 0 17 806 0 805 496 796 492 809 807 0 0 +16 807 537 0 ?806 798 811 808 0
 0 1 30 808 538 0 807 812 799 0 +-0.0004999390400000002 -0.00039988396 0.0004627
812799999891 1 -2.449293598294706e-016 0 17 809 0 831 790 502 786 806 807 0 785
 -17 810 0 805 796 496 792 813 811 0 0 +16 811 539 0 ?810 807 820 812 0 0 1 30 8
12 540 0 811 821 808 0 +-0.00049993904 0.0004001160400000001 0.00046278127999998
9 -1 2.449293598294706e-016 0 17 813 0 836 490 800 486 810 811 0 0 -14 814 541 8
16 1e-008 827 801 818 11 815 +0 0 827 801 9 50 815 542 0 814 828 802 0 +-0.00063
4939039999991 0.0004001160400000001 1.278128e-005 -1.499759782661858e-032 -6.123
233995736766e-017 -1 1 -2.449293598294706e-016 0 81 1 816 543 5 814 0 0 829 803
 817 83 3 817 0.1568627506494522 0.1568627506494522 0.1568627506494522 15 818 54
4 0 819 814 0 17 819 0 818 758 725 741 822 820 0 740 +16 820 545 0 ?819 811 824
 821 0 0 1 30 821 546 0 820 825 812 0 +-0.0007699390399999823 -0.000399883959999
9999 1.278128000000005e-005 -1 2.449293598294706e-016 -0 17 822 0 831 719 740 71
5 819 820 0 725 -17 823 0 818 725 758 721 826 824 0 0 +16 824 547 0 ?823 820 843
 825 0 0 1 30 825 548 0 824 844 821 0 +-0.000769939039999982 0.00040011604000000
01 1.278128e-005 1 -2.449293598294706e-016 0 17 826 0 836 754 729 750 823 824 0
 0 -14 827 549 829 1e-008 832 814 831 11 828 +0 0 832 814 9 50 828 550 0 827 833
 815 0 +-0.0006958703327930592 -0.0003998839599999999 0.0002377812799999941 -2.4
49293598294706e-016 -1 6.123233995736766e-017 1 -2.449293598294706e-016 0 81 1 8
29 551 5 827 0 0 834 816 830 83 3 830 0.1568627506494522 0.1568627506494522 0.15
68627506494522 15 831 552 0 740 827 0 14 832 553 834 1e-008 837 827 836 11 833 -
0 0 837 827 9 50 833 554 0 832 838 828 0 +-0.000695870332793059 0.00040011604000
00001 0.000237781279999994 -2.449293598294706e-016 -1 6.123233995736766e-017 1 -
2.449293598294706e-016 0 81 1 834 555 5 832 0 0 839 829 835 83 3 835 0.156862750
6494522 0.1568627506494522 0.1568627506494522 15 836 556 0 826 832 0 14 837 557
 839 1e-008 850 832 841 11 838 +0 0 850 832 9 50 838 558 0 837 851 833 0 +6.0960
00002525714e-008 -0.0003948839600000001 0.0002377812799999941 -2.449293598294706
e-016 -1 6.123233995736766e-017 1 -2.449293598294706e-016 0 81 1 839 559 5 837 0
 0 852 834 840 83 3 840 0.3529411852359772 0.3529411852359772 0.3529411852359772
 15 841 560 0 34 837 0 17 842 0 841 514 34 510 845 843 0 0 -16 843 561 0 ?845 82
4 847 844 0 0 1 30 844 562 0 843 848 825 0 +0.0005000609599999998 -0.00039488396
00000002 0.000457781280000003 1 -2.449293598294698e-016 1.42663658664333e-014 17
 845 0 854 28 518 24 842 843 0 0 +17 846 0 841 195 713 191 849 847 0 0 -16 847 5
63 0 ?849 843 0 848 0 0 1 30 848 564 0 847 0 844 0 +-0.0004999390399999722 -0.00
039488396 1.778128000000005e-005 -1 2.449293598294706e-016 -0 17 849 0 859 709 1
99 705 846 847 0 713 +14 850 565 852 1e-008 855 837 854 11 851 +0 0 855 837 9 50
 851 566 0 850 856 838 0 +6.095999999999877e-008 0.00039511604 0.000457781279999
9961 -1.42663658664333e-014 6.123233995737115e-017 1 -1 2.449293598294698e-016 -
1.42663658664333e-014 81 1 852 567 5 850 0 0 857 839 853 83 3 853 0.352941185235
9772 0.3529411852359772 0.3529411852359772 15 854 568 0 845 850 0 14 855 569 857
 1e-008 0 850 859 11 856 +0 0 0 850 9 50 856 570 0 855 0 851 0 +6.09600000106569
e-008 0.0003951160399999999 1.778128e-005 -1.499759782661858e-032 -6.12323399573
6766e-017 -1 1 -2.449293598294706e-016 0 81 1 857 571 5 855 0 0 0 852 858 83 3 8
58 0.3529411852359772 0.3529411852359772 0.3529411852359772 15 859 572 0 849 855
 0 1 0 
