<svg width="162.15000082mm" height="122.24338518mm" viewBox="0 0 63838583 48127317"  version="1.1" xmlns="http://www.w3.org/2000/svg" xmlns:xlink="http://www.w3.org/1999/xlink">
<desc>
Origin 0 0 Bound 5000 3895032 63838583 48127317
</desc>
<g fill-rule="evenodd" fill="rgb(255, 0, 255)" stroke="black" stroke-width="1" transform="translate(0, 48127317) scale(1, -1) translate(-5000, -3895032)">
<path id="N" d="M 60384056.00 51219578.00 L 60418349.00 51136557.00 A 1181129.21 1181129.21 0 0 1 61492057.00 50447546.00 L 63843583.00 50447546.00 L 63843583.00 19817625.00 L 54650669.00 3895032.00 L 41664798.00 11392428.00 L 5000.00 11392428.00 L 5000.00 50447546.00 L 54746289.00 50447546.00 L 54836049.00 50450961.00 A 1181075.76 1181075.76 0 0 1 55854289.00 51219579.00 L 56150669.00 52022349.00 L 60087677.00 52022349.00 L 60384056.00 51219578.00  zM 3147558.49 11850404.70 m -241485.30 0 a 241485.30 241485.30 0 1 1 482970.60 0a 241485.30 241485.30 0 1 1 -482970.60 0M 3147561.99 13301773.85 m -516869.15 0 a 516869.15 516869.15 0 1 1 1033738.30 0a 516869.15 516869.15 0 1 1 -1033738.30 0M 5116058.49 11850404.70 m -241485.30 0 a 241485.30 241485.30 0 1 1 482970.60 0a 241485.30 241485.30 0 1 1 -482970.60 0M 5647561.99 14301773.85 m -516869.15 0 a 516869.15 516869.15 0 1 1 1033738.30 0a 516869.15 516869.15 0 1 1 -1033738.30 0M 2147551.50 15301806.96 m -336246.32 0 a 336246.32 336246.32 0 1 1 672492.64 0a 336246.32 336246.32 0 1 1 -672492.64 0M 4147551.50 15301804.47 m -791195.52 0 a 791195.52 791195.52 0 1 1 1582391.05 0a 791195.52 791195.52 0 1 1 -1582391.05 0M 6147551.50 15301806.96 m -336246.32 0 a 336246.32 336246.32 0 1 1 672492.64 0a 336246.32 336246.32 0 1 1 -672492.64 0M 5624550.00 17432337.00 L 4835890.00 17432337.00 L 4835890.00 17029503.00 L 5624550.00 17029503.00 L 5624550.00 17432337.00  zM 3459210.00 17432337.00 L 2670550.00 17432337.00 L 2670550.00 17029503.00 L 3459210.00 17029503.00 L 3459210.00 17432337.00  zM 3459210.00 17983517.00 L 2670550.00 17983517.00 L 2670550.00 17580683.00 L 3459210.00 17580683.00 L 3459210.00 17983517.00  zM 4777473.00 18057694.00 L 3517631.00 18057694.00 L 3517631.00 16955331.00 L 4777473.00 16955331.00 L 4777473.00 18057694.00  zM 5624550.00 17983517.00 L 4835890.00 17983517.00 L 4835890.00 17580683.00 L 5624550.00 17580683.00 L 5624550.00 17983517.00  zM 3147558.49 19370084.70 m -241485.30 0 a 241485.30 241485.30 0 1 1 482970.60 0a 241485.30 241485.30 0 1 1 -482970.60 0M 3147561.99 20801773.85 m -516869.15 0 a 516869.15 516869.15 0 1 1 1033738.30 0a 516869.15 516869.15 0 1 1 -1033738.30 0M 5116058.49 19370084.70 m -241485.30 0 a 241485.30 241485.30 0 1 1 482970.60 0a 241485.30 241485.30 0 1 1 -482970.60 0M 5647561.99 21801773.85 m -516869.15 0 a 516869.15 516869.15 0 1 1 1033738.30 0a 516869.15 516869.15 0 1 1 -1033738.30 0M 8366141.50 13188996.72 m -988993.77 0 a 988993.77 988993.77 0 1 1 1977987.53 0a 988993.77 988993.77 0 1 1 -1977987.53 0M 11529438.49 11850404.70 m -241485.30 0 a 241485.30 241485.30 0 1 1 482970.60 0a 241485.30 241485.30 0 1 1 -482970.60 0M 10612118.50 15301806.96 m -336246.32 0 a 336246.32 336246.32 0 1 1 672492.64 0a 336246.32 336246.32 0 1 1 -672492.64 0M 11923770.00 17432337.00 L 11135110.00 17432337.00 L 11135110.00 17029503.00 L 11923770.00 17029503.00 L 11923770.00 17432337.00  zM 11612121.99 13301773.85 m -516869.15 0 a 516869.15 516869.15 0 1 1 1033738.30 0a 516869.15 516869.15 0 1 1 -1033738.30 0M 13497938.49 11850404.70 m -241485.30 0 a 241485.30 241485.30 0 1 1 482970.60 0a 241485.30 241485.30 0 1 1 -482970.60 0M 12612118.50 15301804.47 m -791195.52 0 a 791195.52 791195.52 0 1 1 1582391.05 0a 791195.52 791195.52 0 1 1 -1582391.05 0M 14089130.00 17432337.00 L 13300470.00 17432337.00 L 13300470.00 17029503.00 L 14089130.00 17029503.00 L 14089130.00 17432337.00  zM 6147551.50 22801806.96 m -336246.32 0 a 336246.32 336246.32 0 1 1 672492.64 0a 336246.32 336246.32 0 1 1 -672492.64 0M 11923770.00 17983517.00 L 11135110.00 17983517.00 L 11135110.00 17580683.00 L 11923770.00 17580683.00 L 11923770.00 17983517.00  zM 11612118.49 19370084.70 m -241485.30 0 a 241485.30 241485.30 0 1 1 482970.60 0a 241485.30 241485.30 0 1 1 -482970.60 0M 11612121.99 20801773.85 m -516869.15 0 a 516869.15 516869.15 0 1 1 1033738.30 0a 516869.15 516869.15 0 1 1 -1033738.30 0M 13242040.00 18057694.00 L 11982198.00 18057694.00 L 11982198.00 16955331.00 L 13242040.00 16955331.00 L 13242040.00 18057694.00  zM 14089130.00 17983517.00 L 13300470.00 17983517.00 L 13300470.00 17580683.00 L 14089130.00 17580683.00 L 14089130.00 17983517.00  zM 13580618.49 19370084.70 m -241485.30 0 a 241485.30 241485.30 0 1 1 482970.60 0a 241485.30 241485.30 0 1 1 -482970.60 0M 2147551.50 22801806.96 m -336246.32 0 a 336246.32 336246.32 0 1 1 672492.64 0a 336246.32 336246.32 0 1 1 -672492.64 0M 3459210.00 24932337.00 L 2670550.00 24932337.00 L 2670550.00 24529503.00 L 3459210.00 24529503.00 L 3459210.00 24932337.00  zM 4147551.50 22801804.47 m -791195.52 0 a 791195.52 791195.52 0 1 1 1582391.05 0a 791195.52 791195.52 0 1 1 -1582391.05 0M 5624550.00 24932337.00 L 4835890.00 24932337.00 L 4835890.00 24529503.00 L 5624550.00 24529503.00 L 5624550.00 24932337.00  zM 3459210.00 25483517.00 L 2670550.00 25483517.00 L 2670550.00 25080683.00 L 3459210.00 25080683.00 L 3459210.00 25483517.00  zM 3064878.49 26850404.70 m -241485.30 0 a 241485.30 241485.30 0 1 1 482970.60 0a 241485.30 241485.30 0 1 1 -482970.60 0M 4777473.00 25557694.00 L 3517631.00 25557694.00 L 3517631.00 24455331.00 L 4777473.00 24455331.00 L 4777473.00 25557694.00  zM 5624550.00 25483517.00 L 4835890.00 25483517.00 L 4835890.00 25080683.00 L 5624550.00 25080683.00 L 5624550.00 25483517.00  zM 3147561.99 28301773.85 m -516869.15 0 a 516869.15 516869.15 0 1 1 1033738.30 0a 516869.15 516869.15 0 1 1 -1033738.30 0M 5033378.49 26850404.70 m -241485.30 0 a 241485.30 241485.30 0 1 1 482970.60 0a 241485.30 241485.30 0 1 1 -482970.60 0M 4147551.50 30301804.47 m -791195.52 0 a 791195.52 791195.52 0 1 1 1582391.05 0a 791195.52 791195.52 0 1 1 -1582391.05 0M 5647561.99 29301773.85 m -516869.15 0 a 516869.15 516869.15 0 1 1 1033738.30 0a 516869.15 516869.15 0 1 1 -1033738.30 0M 2147551.50 30301806.96 m -336246.32 0 a 336246.32 336246.32 0 1 1 672492.64 0a 336246.32 336246.32 0 1 1 -672492.64 0M 3459210.00 32432337.00 L 2670550.00 32432337.00 L 2670550.00 32029503.00 L 3459210.00 32029503.00 L 3459210.00 32432337.00  zM 5624550.00 32432337.00 L 4835890.00 32432337.00 L 4835890.00 32029503.00 L 5624550.00 32029503.00 L 5624550.00 32432337.00  zM 10612118.50 22801806.96 m -336246.32 0 a 336246.32 336246.32 0 1 1 672492.64 0a 336246.32 336246.32 0 1 1 -672492.64 0M 9107901.63 25282094.96 m -292507.04 0 a 292507.04 292507.04 0 1 1 585014.09 0a 292507.04 292507.04 0 1 1 -585014.09 0M 11923770.00 24932337.00 L 11135110.00 24932337.00 L 11135110.00 24529503.00 L 11923770.00 24529503.00 L 11923770.00 24932337.00  zM 11923770.00 25483517.00 L 11135110.00 25483517.00 L 11135110.00 25080683.00 L 11923770.00 25080683.00 L 11923770.00 25483517.00  zM 12612118.50 22801804.47 m -791195.52 0 a 791195.52 791195.52 0 1 1 1582391.05 0a 791195.52 791195.52 0 1 1 -1582391.05 0M 14089130.00 24932337.00 L 13300470.00 24932337.00 L 13300470.00 24529503.00 L 14089130.00 24529503.00 L 14089130.00 24932337.00  zM 13242040.00 25557694.00 L 11982198.00 25557694.00 L 11982198.00 24455331.00 L 13242040.00 24455331.00 L 13242040.00 25557694.00  zM 14089130.00 25483517.00 L 13300470.00 25483517.00 L 13300470.00 25080683.00 L 14089130.00 25080683.00 L 14089130.00 25483517.00  zM 6147551.50 30301806.96 m -336246.32 0 a 336246.32 336246.32 0 1 1 672492.64 0a 336246.32 336246.32 0 1 1 -672492.64 0M 10612118.50 30301806.96 m -336246.32 0 a 336246.32 336246.32 0 1 1 672492.64 0a 336246.32 336246.32 0 1 1 -672492.64 0M 11612118.49 26850404.70 m -241485.30 0 a 241485.30 241485.30 0 1 1 482970.60 0a 241485.30 241485.30 0 1 1 -482970.60 0M 11612121.99 28301773.85 m -516869.15 0 a 516869.15 516869.15 0 1 1 1033738.30 0a 516869.15 516869.15 0 1 1 -1033738.30 0M 13580618.49 26850404.70 m -241485.30 0 a 241485.30 241485.30 0 1 1 482970.60 0a 241485.30 241485.30 0 1 1 -482970.60 0M 14112121.99 29301773.85 m -516869.15 0 a 516869.15 516869.15 0 1 1 1033738.30 0a 516869.15 516869.15 0 1 1 -1033738.30 0M 12612118.50 30301804.47 m -791195.52 0 a 791195.52 791195.52 0 1 1 1582391.05 0a 791195.52 791195.52 0 1 1 -1582391.05 0M 14112121.99 14301773.85 m -516869.15 0 a 516869.15 516869.15 0 1 1 1033738.30 0a 516869.15 516869.15 0 1 1 -1033738.30 0M 14612118.50 15301806.96 m -336246.32 0 a 336246.32 336246.32 0 1 1 672492.64 0a 336246.32 336246.32 0 1 1 -672492.64 0M 19029438.49 12834644.70 m -241485.30 0 a 241485.30 241485.30 0 1 1 482970.60 0a 241485.30 241485.30 0 1 1 -482970.60 0M 18112118.50 16289199.96 m -336246.32 0 a 336246.32 336246.32 0 1 1 672492.64 0a 336246.32 336246.32 0 1 1 -672492.64 0M 19112121.99 14289173.85 m -516869.15 0 a 516869.15 516869.15 0 1 1 1033738.30 0a 516869.15 516869.15 0 1 1 -1033738.30 0M 20997938.49 12834644.70 m -241485.30 0 a 241485.30 241485.30 0 1 1 482970.60 0a 241485.30 241485.30 0 1 1 -482970.60 0M 20112118.50 16289197.47 m -791195.52 0 a 791195.52 791195.52 0 1 1 1582391.05 0a 791195.52 791195.52 0 1 1 -1582391.05 0M 19423770.00 18419737.00 L 18635110.00 18419737.00 L 18635110.00 18016903.00 L 19423770.00 18016903.00 L 19423770.00 18419737.00  zM 19423770.00 18970917.00 L 18635110.00 18970917.00 L 18635110.00 18568083.00 L 19423770.00 18568083.00 L 19423770.00 18970917.00  zM 20742040.00 19045087.00 L 19482198.00 19045087.00 L 19482198.00 17942724.00 L 20742040.00 17942724.00 L 20742040.00 19045087.00  zM 21589130.00 18419737.00 L 20800470.00 18419737.00 L 20800470.00 18016903.00 L 21589130.00 18016903.00 L 21589130.00 18419737.00  zM 21589130.00 18970917.00 L 20800470.00 18970917.00 L 20800470.00 18568083.00 L 21589130.00 18568083.00 L 21589130.00 18970917.00  zM 19111298.49 20314964.70 m -241485.30 0 a 241485.30 241485.30 0 1 1 482970.60 0a 241485.30 241485.30 0 1 1 -482970.60 0M 19112121.99 21789173.85 m -516869.15 0 a 516869.15 516869.15 0 1 1 1033738.30 0a 516869.15 516869.15 0 1 1 -1033738.30 0M 21079798.49 20314964.70 m -241485.30 0 a 241485.30 241485.30 0 1 1 482970.60 0a 241485.30 241485.30 0 1 1 -482970.60 0M 14112121.99 21801773.85 m -516869.15 0 a 516869.15 516869.15 0 1 1 1033738.30 0a 516869.15 516869.15 0 1 1 -1033738.30 0M 14612118.50 22801806.96 m -336246.32 0 a 336246.32 336246.32 0 1 1 672492.64 0a 336246.32 336246.32 0 1 1 -672492.64 0M 18112118.50 23789199.96 m -336246.32 0 a 336246.32 336246.32 0 1 1 672492.64 0a 336246.32 336246.32 0 1 1 -672492.64 0M 19423770.00 26470917.00 L 18635110.00 26470917.00 L 18635110.00 26068083.00 L 19423770.00 26068083.00 L 19423770.00 26470917.00  zM 20112118.50 23789197.47 m -791195.52 0 a 791195.52 791195.52 0 1 1 1582391.05 0a 791195.52 791195.52 0 1 1 -1582391.05 0M 21589130.00 25919737.00 L 20800470.00 25919737.00 L 20800470.00 25516903.00 L 21589130.00 25516903.00 L 21589130.00 25919737.00  zM 19423770.00 25919737.00 L 18635110.00 25919737.00 L 18635110.00 25516903.00 L 19423770.00 25516903.00 L 19423770.00 25919737.00  zM 20742040.00 26545087.00 L 19482198.00 26545087.00 L 19482198.00 25442724.00 L 20742040.00 25442724.00 L 20742040.00 26545087.00  zM 14612118.50 30301806.96 m -336246.32 0 a 336246.32 336246.32 0 1 1 672492.64 0a 336246.32 336246.32 0 1 1 -672492.64 0M 18112118.50 31289199.96 m -336246.32 0 a 336246.32 336246.32 0 1 1 672492.64 0a 336246.32 336246.32 0 1 1 -672492.64 0M 19111298.49 27834644.70 m -241485.30 0 a 241485.30 241485.30 0 1 1 482970.60 0a 241485.30 241485.30 0 1 1 -482970.60 0M 19112121.99 29289173.85 m -516869.15 0 a 516869.15 516869.15 0 1 1 1033738.30 0a 516869.15 516869.15 0 1 1 -1033738.30 0M 21589130.00 26470917.00 L 20800470.00 26470917.00 L 20800470.00 26068083.00 L 21589130.00 26068083.00 L 21589130.00 26470917.00  zM 21079798.49 27834644.70 m -241485.30 0 a 241485.30 241485.30 0 1 1 482970.60 0a 241485.30 241485.30 0 1 1 -482970.60 0M 20112118.50 31289197.47 m -791195.52 0 a 791195.52 791195.52 0 1 1 1582391.05 0a 791195.52 791195.52 0 1 1 -1582391.05 0M 21612121.99 15289173.85 m -516869.15 0 a 516869.15 516869.15 0 1 1 1033738.30 0a 516869.15 516869.15 0 1 1 -1033738.30 0M 22112118.50 16289199.96 m -336246.32 0 a 336246.32 336246.32 0 1 1 672492.64 0a 336246.32 336246.32 0 1 1 -672492.64 0M 26612118.49 20314964.70 m -241485.30 0 a 241485.30 241485.30 0 1 1 482970.60 0a 241485.30 241485.30 0 1 1 -482970.60 0M 26612121.99 21789173.85 m -516869.15 0 a 516869.15 516869.15 0 1 1 1033738.30 0a 516869.15 516869.15 0 1 1 -1033738.30 0M 21612121.99 22789173.85 m -516869.15 0 a 516869.15 516869.15 0 1 1 1033738.30 0a 516869.15 516869.15 0 1 1 -1033738.30 0M 22112118.50 23789199.96 m -336246.32 0 a 336246.32 336246.32 0 1 1 672492.64 0a 336246.32 336246.32 0 1 1 -672492.64 0M 25612118.50 23789199.96 m -336246.32 0 a 336246.32 336246.32 0 1 1 672492.64 0a 336246.32 336246.32 0 1 1 -672492.64 0M 27612118.50 23789197.47 m -791195.52 0 a 791195.52 791195.52 0 1 1 1582391.05 0a 791195.52 791195.52 0 1 1 -1582391.05 0M 30422469.50 13058388.12 m -751635.34 0 a 751635.34 751635.34 0 1 1 1503270.69 0a 751635.34 751635.34 0 1 1 -1503270.69 0M 33112118.50 16289199.96 m -336246.32 0 a 336246.32 336246.32 0 1 1 672492.64 0a 336246.32 336246.32 0 1 1 -672492.64 0M 28580618.49 20314964.70 m -241485.30 0 a 241485.30 241485.30 0 1 1 482970.60 0a 241485.30 241485.30 0 1 1 -482970.60 0M 30431299.50 19067701.23 m -593397.28 0 a 593397.28 593397.28 0 1 1 1186794.56 0a 593397.28 593397.28 0 1 1 -1186794.56 0M 29112121.99 22789173.85 m -516869.15 0 a 516869.15 516869.15 0 1 1 1033738.30 0a 516869.15 516869.15 0 1 1 -1033738.30 0M 29612118.50 23789199.96 m -336246.32 0 a 336246.32 336246.32 0 1 1 672492.64 0a 336246.32 336246.32 0 1 1 -672492.64 0M 33112118.50 23789199.96 m -336246.32 0 a 336246.32 336246.32 0 1 1 672492.64 0a 336246.32 336246.32 0 1 1 -672492.64 0M 21612121.99 30289173.85 m -516869.15 0 a 516869.15 516869.15 0 1 1 1033738.30 0a 516869.15 516869.15 0 1 1 -1033738.30 0M 22112118.50 31289199.96 m -336246.32 0 a 336246.32 336246.32 0 1 1 672492.64 0a 336246.32 336246.32 0 1 1 -672492.64 0M 26923770.00 26470917.00 L 26135110.00 26470917.00 L 26135110.00 26068083.00 L 26923770.00 26068083.00 L 26923770.00 26470917.00  zM 25612118.50 31289199.96 m -336246.32 0 a 336246.32 336246.32 0 1 1 672492.64 0a 336246.32 336246.32 0 1 1 -672492.64 0M 26923770.00 25919737.00 L 26135110.00 25919737.00 L 26135110.00 25516903.00 L 26923770.00 25516903.00 L 26923770.00 25919737.00  zM 26529438.49 27834644.70 m -241485.30 0 a 241485.30 241485.30 0 1 1 482970.60 0a 241485.30 241485.30 0 1 1 -482970.60 0M 26612121.99 29289173.85 m -516869.15 0 a 516869.15 516869.15 0 1 1 1033738.30 0a 516869.15 516869.15 0 1 1 -1033738.30 0M 27612118.50 31289197.47 m -791195.52 0 a 791195.52 791195.52 0 1 1 1582391.05 0a 791195.52 791195.52 0 1 1 -1582391.05 0M 28242040.00 26545087.00 L 26982198.00 26545087.00 L 26982198.00 25442724.00 L 28242040.00 25442724.00 L 28242040.00 26545087.00  zM 29089130.00 25919737.00 L 28300470.00 25919737.00 L 28300470.00 25516903.00 L 29089130.00 25516903.00 L 29089130.00 25919737.00  zM 29089130.00 26470917.00 L 28300470.00 26470917.00 L 28300470.00 26068083.00 L 29089130.00 26068083.00 L 29089130.00 26470917.00  zM 28497938.49 27834644.70 m -241485.30 0 a 241485.30 241485.30 0 1 1 482970.60 0a 241485.30 241485.30 0 1 1 -482970.60 0M 29112121.99 30289173.85 m -516869.15 0 a 516869.15 516869.15 0 1 1 1033738.30 0a 516869.15 516869.15 0 1 1 -1033738.30 0M 29612118.50 31289199.96 m -336246.32 0 a 336246.32 336246.32 0 1 1 672492.64 0a 336246.32 336246.32 0 1 1 -672492.64 0M 33112118.50 31289199.96 m -336246.32 0 a 336246.32 336246.32 0 1 1 672492.64 0a 336246.32 336246.32 0 1 1 -672492.64 0M 3459210.00 32983517.00 L 2670550.00 32983517.00 L 2670550.00 32580683.00 L 3459210.00 32580683.00 L 3459210.00 32983517.00  zM 4777473.00 33057694.00 L 3517631.00 33057694.00 L 3517631.00 31955331.00 L 4777473.00 31955331.00 L 4777473.00 33057694.00  zM 3084558.49 34370084.70 m -241485.30 0 a 241485.30 241485.30 0 1 1 482970.60 0a 241485.30 241485.30 0 1 1 -482970.60 0M 3147561.99 35801773.85 m -516869.15 0 a 516869.15 516869.15 0 1 1 1033738.30 0a 516869.15 516869.15 0 1 1 -1033738.30 0M 2147551.50 37801806.96 m -336246.32 0 a 336246.32 336246.32 0 1 1 672492.64 0a 336246.32 336246.32 0 1 1 -672492.64 0M 4147551.50 37801804.47 m -791195.52 0 a 791195.52 791195.52 0 1 1 1582391.05 0a 791195.52 791195.52 0 1 1 -1582391.05 0M 3459210.00 39932337.00 L 2670550.00 39932337.00 L 2670550.00 39529503.00 L 3459210.00 39529503.00 L 3459210.00 39932337.00  zM 4777473.00 40557694.00 L 3517631.00 40557694.00 L 3517631.00 39455331.00 L 4777473.00 39455331.00 L 4777473.00 40557694.00  zM 5624550.00 32983517.00 L 4835890.00 32983517.00 L 4835890.00 32580683.00 L 5624550.00 32580683.00 L 5624550.00 32983517.00  zM 9107901.63 32782094.96 m -292507.04 0 a 292507.04 292507.04 0 1 1 585014.09 0a 292507.04 292507.04 0 1 1 -585014.09 0M 5053058.49 34370084.70 m -241485.30 0 a 241485.30 241485.30 0 1 1 482970.60 0a 241485.30 241485.30 0 1 1 -482970.60 0M 5647561.99 36801773.85 m -516869.15 0 a 516869.15 516869.15 0 1 1 1033738.30 0a 516869.15 516869.15 0 1 1 -1033738.30 0M 5624550.00 39932337.00 L 4835890.00 39932337.00 L 4835890.00 39529503.00 L 5624550.00 39529503.00 L 5624550.00 39932337.00  zM 5624550.00 40483517.00 L 4835890.00 40483517.00 L 4835890.00 40080683.00 L 5624550.00 40080683.00 L 5624550.00 40483517.00  zM 6147551.50 37801806.96 m -336246.32 0 a 336246.32 336246.32 0 1 1 672492.64 0a 336246.32 336246.32 0 1 1 -672492.64 0M 10612118.50 37801806.96 m -336246.32 0 a 336246.32 336246.32 0 1 1 672492.64 0a 336246.32 336246.32 0 1 1 -672492.64 0M 3459210.00 40483517.00 L 2670550.00 40483517.00 L 2670550.00 40080683.00 L 3459210.00 40080683.00 L 3459210.00 40483517.00  zM 3083738.49 41850404.70 m -241485.30 0 a 241485.30 241485.30 0 1 1 482970.60 0a 241485.30 241485.30 0 1 1 -482970.60 0M 3146741.99 43301873.85 m -516869.15 0 a 516869.15 516869.15 0 1 1 1033738.30 0a 516869.15 516869.15 0 1 1 -1033738.30 0M 2146731.50 45301895.96 m -336246.32 0 a 336246.32 336246.32 0 1 1 672492.64 0a 336246.32 336246.32 0 1 1 -672492.64 0M 5052238.49 41850404.70 m -241485.30 0 a 241485.30 241485.30 0 1 1 482970.60 0a 241485.30 241485.30 0 1 1 -482970.60 0M 5646741.99 44301873.85 m -516869.15 0 a 516869.15 516869.15 0 1 1 1033738.30 0a 516869.15 516869.15 0 1 1 -1033738.30 0M 6146731.50 45301895.96 m -336246.32 0 a 336246.32 336246.32 0 1 1 672492.64 0a 336246.32 336246.32 0 1 1 -672492.64 0M 10611298.50 45301895.96 m -336246.32 0 a 336246.32 336246.32 0 1 1 672492.64 0a 336246.32 336246.32 0 1 1 -672492.64 0M 4146731.50 45301893.47 m -791195.52 0 a 791195.52 791195.52 0 1 1 1582391.05 0a 791195.52 791195.52 0 1 1 -1582391.05 0M 3458390.00 47432437.00 L 2669730.00 47432437.00 L 2669730.00 47029603.00 L 3458390.00 47029603.00 L 3458390.00 47432437.00  zM 3458390.00 47983617.00 L 2669730.00 47983617.00 L 2669730.00 47580783.00 L 3458390.00 47580783.00 L 3458390.00 47983617.00  zM 4776653.00 48057783.00 L 3516811.00 48057783.00 L 3516811.00 46955420.00 L 4776653.00 46955420.00 L 4776653.00 48057783.00  zM 5623730.00 47432437.00 L 4835070.00 47432437.00 L 4835070.00 47029603.00 L 5623730.00 47029603.00 L 5623730.00 47432437.00  zM 5623730.00 47983617.00 L 4835070.00 47983617.00 L 4835070.00 47580783.00 L 5623730.00 47580783.00 L 5623730.00 47983617.00  zM 8464566.50 48818918.72 m -988993.77 0 a 988993.77 988993.77 0 1 1 1977987.53 0a 988993.77 988993.77 0 1 1 -1977987.53 0M 11923770.00 32432337.00 L 11135110.00 32432337.00 L 11135110.00 32029503.00 L 11923770.00 32029503.00 L 11923770.00 32432337.00  zM 11923770.00 32983517.00 L 11135110.00 32983517.00 L 11135110.00 32580683.00 L 11923770.00 32580683.00 L 11923770.00 32983517.00  zM 13242040.00 33057694.00 L 11982198.00 33057694.00 L 11982198.00 31955331.00 L 13242040.00 31955331.00 L 13242040.00 33057694.00  zM 14089130.00 32432337.00 L 13300470.00 32432337.00 L 13300470.00 32029503.00 L 14089130.00 32029503.00 L 14089130.00 32432337.00  zM 14089130.00 32983517.00 L 13300470.00 32983517.00 L 13300470.00 32580683.00 L 14089130.00 32580683.00 L 14089130.00 32983517.00  zM 13580618.49 34370084.70 m -241485.30 0 a 241485.30 241485.30 0 1 1 482970.60 0a 241485.30 241485.30 0 1 1 -482970.60 0M 11612118.49 34370084.70 m -241485.30 0 a 241485.30 241485.30 0 1 1 482970.60 0a 241485.30 241485.30 0 1 1 -482970.60 0M 11612121.99 35801773.85 m -516869.15 0 a 516869.15 516869.15 0 1 1 1033738.30 0a 516869.15 516869.15 0 1 1 -1033738.30 0M 12612118.50 37801804.47 m -791195.52 0 a 791195.52 791195.52 0 1 1 1582391.05 0a 791195.52 791195.52 0 1 1 -1582391.05 0M 14089130.00 39932337.00 L 13300470.00 39932337.00 L 13300470.00 39529503.00 L 14089130.00 39529503.00 L 14089130.00 39932337.00  zM 11923770.00 39932337.00 L 11135110.00 39932337.00 L 11135110.00 39529503.00 L 11923770.00 39529503.00 L 11923770.00 39932337.00  zM 13242040.00 40557694.00 L 11982198.00 40557694.00 L 11982198.00 39455331.00 L 13242040.00 39455331.00 L 13242040.00 40557694.00  zM 14112121.99 36801773.85 m -516869.15 0 a 516869.15 516869.15 0 1 1 1033738.30 0a 516869.15 516869.15 0 1 1 -1033738.30 0M 14612118.50 37801806.96 m -336246.32 0 a 336246.32 336246.32 0 1 1 672492.64 0a 336246.32 336246.32 0 1 1 -672492.64 0M 18112118.50 38789199.96 m -336246.32 0 a 336246.32 336246.32 0 1 1 672492.64 0a 336246.32 336246.32 0 1 1 -672492.64 0M 11923770.00 40483517.00 L 11135110.00 40483517.00 L 11135110.00 40080683.00 L 11923770.00 40080683.00 L 11923770.00 40483517.00  zM 11611298.49 41850404.70 m -241485.30 0 a 241485.30 241485.30 0 1 1 482970.60 0a 241485.30 241485.30 0 1 1 -482970.60 0M 14089130.00 40483517.00 L 13300470.00 40483517.00 L 13300470.00 40080683.00 L 14089130.00 40080683.00 L 14089130.00 40483517.00  zM 13579798.49 41850404.70 m -241485.30 0 a 241485.30 241485.30 0 1 1 482970.60 0a 241485.30 241485.30 0 1 1 -482970.60 0M 11611301.99 43301873.85 m -516869.15 0 a 516869.15 516869.15 0 1 1 1033738.30 0a 516869.15 516869.15 0 1 1 -1033738.30 0M 12611298.50 45301893.47 m -791195.52 0 a 791195.52 791195.52 0 1 1 1582391.05 0a 791195.52 791195.52 0 1 1 -1582391.05 0M 14111301.99 44301873.85 m -516869.15 0 a 516869.15 516869.15 0 1 1 1033738.30 0a 516869.15 516869.15 0 1 1 -1033738.30 0M 14611298.50 45301895.96 m -336246.32 0 a 336246.32 336246.32 0 1 1 672492.64 0a 336246.32 336246.32 0 1 1 -672492.64 0M 11922950.00 47432437.00 L 11134290.00 47432437.00 L 11134290.00 47029603.00 L 11922950.00 47029603.00 L 11922950.00 47432437.00  zM 11922950.00 47983617.00 L 11134290.00 47983617.00 L 11134290.00 47580783.00 L 11922950.00 47580783.00 L 11922950.00 47983617.00  zM 13241220.00 48057783.00 L 11981378.00 48057783.00 L 11981378.00 46955420.00 L 13241220.00 46955420.00 L 13241220.00 48057783.00  zM 14088310.00 47983617.00 L 13299650.00 47983617.00 L 13299650.00 47580783.00 L 14088310.00 47580783.00 L 14088310.00 47983617.00  zM 14088310.00 47432437.00 L 13299650.00 47432437.00 L 13299650.00 47029603.00 L 14088310.00 47029603.00 L 14088310.00 47432437.00  zM 18111298.50 46289288.96 m -336246.32 0 a 336246.32 336246.32 0 1 1 672492.64 0a 336246.32 336246.32 0 1 1 -672492.64 0M 19422950.00 48419817.00 L 18634290.00 48419817.00 L 18634290.00 48016983.00 L 19422950.00 48016983.00 L 19422950.00 48419817.00  zM 19423770.00 33419737.00 L 18635110.00 33419737.00 L 18635110.00 33016903.00 L 19423770.00 33016903.00 L 19423770.00 33419737.00  zM 19423770.00 33970917.00 L 18635110.00 33970917.00 L 18635110.00 33568083.00 L 19423770.00 33568083.00 L 19423770.00 33970917.00  zM 20742040.00 34045087.00 L 19482198.00 34045087.00 L 19482198.00 32942724.00 L 20742040.00 32942724.00 L 20742040.00 34045087.00  zM 21079798.49 35354344.70 m -241485.30 0 a 241485.30 241485.30 0 1 1 482970.60 0a 241485.30 241485.30 0 1 1 -482970.60 0M 19111298.49 35354344.70 m -241485.30 0 a 241485.30 241485.30 0 1 1 482970.60 0a 241485.30 241485.30 0 1 1 -482970.60 0M 19112121.99 36789173.85 m -516869.15 0 a 516869.15 516869.15 0 1 1 1033738.30 0a 516869.15 516869.15 0 1 1 -1033738.30 0M 20112118.50 38789197.47 m -791195.52 0 a 791195.52 791195.52 0 1 1 1582391.05 0a 791195.52 791195.52 0 1 1 -1582391.05 0M 19423770.00 40919737.00 L 18635110.00 40919737.00 L 18635110.00 40516903.00 L 19423770.00 40516903.00 L 19423770.00 40919737.00  zM 21589130.00 33419737.00 L 20800470.00 33419737.00 L 20800470.00 33016903.00 L 21589130.00 33016903.00 L 21589130.00 33419737.00  zM 21589130.00 33970917.00 L 20800470.00 33970917.00 L 20800470.00 33568083.00 L 21589130.00 33568083.00 L 21589130.00 33970917.00  zM 21612121.99 37789173.85 m -516869.15 0 a 516869.15 516869.15 0 1 1 1033738.30 0a 516869.15 516869.15 0 1 1 -1033738.30 0M 26923770.00 33419737.00 L 26135110.00 33419737.00 L 26135110.00 33016903.00 L 26923770.00 33016903.00 L 26923770.00 33419737.00  zM 22112118.50 38789199.96 m -336246.32 0 a 336246.32 336246.32 0 1 1 672492.64 0a 336246.32 336246.32 0 1 1 -672492.64 0M 21589130.00 40919737.00 L 20800470.00 40919737.00 L 20800470.00 40516903.00 L 21589130.00 40516903.00 L 21589130.00 40919737.00  zM 25612118.50 38789199.96 m -336246.32 0 a 336246.32 336246.32 0 1 1 672492.64 0a 336246.32 336246.32 0 1 1 -672492.64 0M 26923770.00 33970917.00 L 26135110.00 33970917.00 L 26135110.00 33568083.00 L 26923770.00 33568083.00 L 26923770.00 33970917.00  zM 28242040.00 34045087.00 L 26982198.00 34045087.00 L 26982198.00 32942724.00 L 28242040.00 32942724.00 L 28242040.00 34045087.00  zM 26549118.49 35354344.70 m -241485.30 0 a 241485.30 241485.30 0 1 1 482970.60 0a 241485.30 241485.30 0 1 1 -482970.60 0M 26612121.99 36789173.85 m -516869.15 0 a 516869.15 516869.15 0 1 1 1033738.30 0a 516869.15 516869.15 0 1 1 -1033738.30 0M 29089130.00 33970917.00 L 28300470.00 33970917.00 L 28300470.00 33568083.00 L 29089130.00 33568083.00 L 29089130.00 33970917.00  zM 28517638.49 35354344.70 m -241485.30 0 a 241485.30 241485.30 0 1 1 482970.60 0a 241485.30 241485.30 0 1 1 -482970.60 0M 29089130.00 33419737.00 L 28300470.00 33419737.00 L 28300470.00 33016903.00 L 29089130.00 33016903.00 L 29089130.00 33419737.00  zM 31397637.50 34940965.72 m -988993.77 0 a 988993.77 988993.77 0 1 1 1977987.53 0a 988993.77 988993.77 0 1 1 -1977987.53 0M 27612118.50 38789197.47 m -791195.52 0 a 791195.52 791195.52 0 1 1 1582391.05 0a 791195.52 791195.52 0 1 1 -1582391.05 0M 29089130.00 40919737.00 L 28300470.00 40919737.00 L 28300470.00 40516903.00 L 29089130.00 40516903.00 L 29089130.00 40919737.00  zM 26923770.00 40919737.00 L 26135110.00 40919737.00 L 26135110.00 40516903.00 L 26923770.00 40516903.00 L 26923770.00 40919737.00  zM 28242040.00 41545087.00 L 26982198.00 41545087.00 L 26982198.00 40442724.00 L 28242040.00 40442724.00 L 28242040.00 41545087.00  zM 29112121.99 37789173.85 m -516869.15 0 a 516869.15 516869.15 0 1 1 1033738.30 0a 516869.15 516869.15 0 1 1 -1033738.30 0M 29612118.50 38789199.96 m -336246.32 0 a 336246.32 336246.32 0 1 1 672492.64 0a 336246.32 336246.32 0 1 1 -672492.64 0M 33112118.50 38789199.96 m -336246.32 0 a 336246.32 336246.32 0 1 1 672492.64 0a 336246.32 336246.32 0 1 1 -672492.64 0M 19423770.00 41470917.00 L 18635110.00 41470917.00 L 18635110.00 41068083.00 L 19423770.00 41068083.00 L 19423770.00 41470917.00  zM 19048298.49 42834644.70 m -241485.30 0 a 241485.30 241485.30 0 1 1 482970.60 0a 241485.30 241485.30 0 1 1 -482970.60 0M 20742040.00 41545087.00 L 19482198.00 41545087.00 L 19482198.00 40442724.00 L 20742040.00 40442724.00 L 20742040.00 41545087.00  zM 21589130.00 41470917.00 L 20800470.00 41470917.00 L 20800470.00 41068083.00 L 21589130.00 41068083.00 L 21589130.00 41470917.00  zM 19111301.99 44289273.85 m -516869.15 0 a 516869.15 516869.15 0 1 1 1033738.30 0a 516869.15 516869.15 0 1 1 -1033738.30 0M 21016818.49 42834644.70 m -241485.30 0 a 241485.30 241485.30 0 1 1 482970.60 0a 241485.30 241485.30 0 1 1 -482970.60 0M 20111298.50 46289286.47 m -791195.52 0 a 791195.52 791195.52 0 1 1 1582391.05 0a 791195.52 791195.52 0 1 1 -1582391.05 0M 21611301.99 45289273.85 m -516869.15 0 a 516869.15 516869.15 0 1 1 1033738.30 0a 516869.15 516869.15 0 1 1 -1033738.30 0M 19422950.00 48970997.00 L 18634290.00 48970997.00 L 18634290.00 48568163.00 L 19422950.00 48568163.00 L 19422950.00 48970997.00  zM 20741220.00 49045176.00 L 19481378.00 49045176.00 L 19481378.00 47942813.00 L 20741220.00 47942813.00 L 20741220.00 49045176.00  zM 21588310.00 48419817.00 L 20799650.00 48419817.00 L 20799650.00 48016983.00 L 21588310.00 48016983.00 L 21588310.00 48419817.00  zM 21588310.00 48970997.00 L 20799650.00 48970997.00 L 20799650.00 48568163.00 L 21588310.00 48568163.00 L 21588310.00 48970997.00  zM 22111298.50 46289288.96 m -336246.32 0 a 336246.32 336246.32 0 1 1 672492.64 0a 336246.32 336246.32 0 1 1 -672492.64 0M 25611298.50 46289288.96 m -336246.32 0 a 336246.32 336246.32 0 1 1 672492.64 0a 336246.32 336246.32 0 1 1 -672492.64 0M 26922950.00 48419817.00 L 26134290.00 48419817.00 L 26134290.00 48016983.00 L 26922950.00 48016983.00 L 26922950.00 48419817.00  zM 26923770.00 41470917.00 L 26135110.00 41470917.00 L 26135110.00 41068083.00 L 26923770.00 41068083.00 L 26923770.00 41470917.00  zM 26653538.49 42834644.70 m -241485.30 0 a 241485.30 241485.30 0 1 1 482970.60 0a 241485.30 241485.30 0 1 1 -482970.60 0M 26611301.99 44289273.85 m -516869.15 0 a 516869.15 516869.15 0 1 1 1033738.30 0a 516869.15 516869.15 0 1 1 -1033738.30 0M 28622038.49 42834644.70 m -241485.30 0 a 241485.30 241485.30 0 1 1 482970.60 0a 241485.30 241485.30 0 1 1 -482970.60 0M 27611298.50 46289286.47 m -791195.52 0 a 791195.52 791195.52 0 1 1 1582391.05 0a 791195.52 791195.52 0 1 1 -1582391.05 0M 28241220.00 49045176.00 L 26981378.00 49045176.00 L 26981378.00 47942813.00 L 28241220.00 47942813.00 L 28241220.00 49045176.00  zM 26922950.00 48970997.00 L 26134290.00 48970997.00 L 26134290.00 48568163.00 L 26922950.00 48568163.00 L 26922950.00 48970997.00  zM 29088310.00 48970997.00 L 28299650.00 48970997.00 L 28299650.00 48568163.00 L 29088310.00 48568163.00 L 29088310.00 48970997.00  zM 29089130.00 41470917.00 L 28300470.00 41470917.00 L 28300470.00 41068083.00 L 29089130.00 41068083.00 L 29089130.00 41470917.00  zM 29111301.99 45289273.85 m -516869.15 0 a 516869.15 516869.15 0 1 1 1033738.30 0a 516869.15 516869.15 0 1 1 -1033738.30 0M 29611298.50 46289288.96 m -336246.32 0 a 336246.32 336246.32 0 1 1 672492.64 0a 336246.32 336246.32 0 1 1 -672492.64 0M 33111298.50 46289288.96 m -336246.32 0 a 336246.32 336246.32 0 1 1 672492.64 0a 336246.32 336246.32 0 1 1 -672492.64 0M 29088310.00 48419817.00 L 28299650.00 48419817.00 L 28299650.00 48016983.00 L 29088310.00 48016983.00 L 29088310.00 48419817.00  zM 34422950.00 48970997.00 L 33634290.00 48970997.00 L 33634290.00 48568163.00 L 34422950.00 48568163.00 L 34422950.00 48970997.00  zM 34422950.00 48419817.00 L 33634290.00 48419817.00 L 33634290.00 48016983.00 L 34422950.00 48016983.00 L 34422950.00 48419817.00  zM 34029438.49 12874024.70 m -241485.30 0 a 241485.30 241485.30 0 1 1 482970.60 0a 241485.30 241485.30 0 1 1 -482970.60 0M 34112121.99 14289173.85 m -516869.15 0 a 516869.15 516869.15 0 1 1 1033738.30 0a 516869.15 516869.15 0 1 1 -1033738.30 0M 35112118.50 16289197.47 m -791195.52 0 a 791195.52 791195.52 0 1 1 1582391.05 0a 791195.52 791195.52 0 1 1 -1582391.05 0M 34423770.00 18419737.00 L 33635110.00 18419737.00 L 33635110.00 18016903.00 L 34423770.00 18016903.00 L 34423770.00 18419737.00  zM 35997938.49 12874024.70 m -241485.30 0 a 241485.30 241485.30 0 1 1 482970.60 0a 241485.30 241485.30 0 1 1 -482970.60 0M 36612121.99 15289173.85 m -516869.15 0 a 516869.15 516869.15 0 1 1 1033738.30 0a 516869.15 516869.15 0 1 1 -1033738.30 0M 39823707.50 13066269.47 m -791195.52 0 a 791195.52 791195.52 0 1 1 1582391.05 0a 791195.52 791195.52 0 1 1 -1582391.05 0M 37112118.50 16289199.96 m -336246.32 0 a 336246.32 336246.32 0 1 1 672492.64 0a 336246.32 336246.32 0 1 1 -672492.64 0M 34423770.00 18970917.00 L 33635110.00 18970917.00 L 33635110.00 18568083.00 L 34423770.00 18568083.00 L 34423770.00 18970917.00  zM 35742040.00 19045087.00 L 34482198.00 19045087.00 L 34482198.00 17942724.00 L 35742040.00 17942724.00 L 35742040.00 19045087.00  zM 34112118.49 20314964.70 m -241485.30 0 a 241485.30 241485.30 0 1 1 482970.60 0a 241485.30 241485.30 0 1 1 -482970.60 0M 34112121.99 21789173.85 m -516869.15 0 a 516869.15 516869.15 0 1 1 1033738.30 0a 516869.15 516869.15 0 1 1 -1033738.30 0M 36589130.00 18970917.00 L 35800470.00 18970917.00 L 35800470.00 18568083.00 L 36589130.00 18568083.00 L 36589130.00 18970917.00  zM 36080618.49 20314964.70 m -241485.30 0 a 241485.30 241485.30 0 1 1 482970.60 0a 241485.30 241485.30 0 1 1 -482970.60 0M 36589130.00 18419737.00 L 35800470.00 18419737.00 L 35800470.00 18016903.00 L 36589130.00 18016903.00 L 36589130.00 18419737.00  zM 39827959.50 19060649.23 m -593397.28 0 a 593397.28 593397.28 0 1 1 1186794.56 0a 593397.28 593397.28 0 1 1 -1186794.56 0M 43990141.71 10807073.64 m -241497.09 0 a 241497.09 241497.09 0 1 1 482994.18 0a 241497.09 241497.09 0 1 1 -482994.18 0M 45694901.71 9822832.64 m -241497.09 0 a 241497.09 241497.09 0 1 1 482994.18 0a 241497.09 241497.09 0 1 1 -482994.18 0M 44846676.04 12015422.15 m -516859.85 0 a 516859.85 516859.85 0 1 1 1033719.69 0a 516859.85 516859.85 0 1 1 -1033719.69 0M 44980657.81 14247444.84 m -336285.06 0 a 336285.06 336285.06 0 1 1 672570.12 0a 336285.06 336285.06 0 1 1 -672570.12 0M 47511742.70 11631428.48 m -516874.52 0 a 516874.52 516874.52 0 1 1 1033749.04 0a 516874.52 516874.52 0 1 1 -1033749.04 0M 48444759.81 12247444.84 m -336285.06 0 a 336285.06 336285.06 0 1 1 672570.12 0a 336285.06 336285.06 0 1 1 -672570.12 0M 46712709.55 13247442.91 m -791233.53 0 a 791233.53 791233.53 0 1 1 1582467.06 0a 791233.53 791233.53 0 1 1 -1582467.06 0M 48374109.00 14748397.00 L 48172692.00 14399533.00 L 48855691.00 14005203.00 L 49057108.00 14354067.00 L 48374109.00 14748397.00  zM 41614178.49 19527564.70 m -241485.30 0 a 241485.30 241485.30 0 1 1 482970.60 0a 241485.30 241485.30 0 1 1 -482970.60 0M 46498849.00 15831077.00 L 46297432.00 15482213.00 L 46980431.00 15087883.00 L 47181848.00 15436747.00 L 46498849.00 15831077.00  zM 46774448.00 16308417.00 L 46573031.00 15959553.00 L 47256030.00 15565223.00 L 47457447.00 15914087.00 L 46774448.00 16308417.00  zM 47545130.00 15949110.00 L 46993949.00 14994436.00 L 48085004.00 14364515.00 L 48636186.00 15319189.00 L 47545130.00 15949110.00  zM 41612121.99 20974413.85 m -516869.15 0 a 516869.15 516869.15 0 1 1 1033738.30 0a 516869.15 516869.15 0 1 1 -1033738.30 0M 43582678.49 19527564.70 m -241485.30 0 a 241485.30 241485.30 0 1 1 482970.60 0a 241485.30 241485.30 0 1 1 -482970.60 0M 44112121.99 21974413.85 m -516869.15 0 a 516869.15 516869.15 0 1 1 1033738.30 0a 516869.15 516869.15 0 1 1 -1033738.30 0M 35112118.50 23789197.47 m -791195.52 0 a 791195.52 791195.52 0 1 1 1582391.05 0a 791195.52 791195.52 0 1 1 -1582391.05 0M 34423770.00 25919737.00 L 33635110.00 25919737.00 L 33635110.00 25516903.00 L 34423770.00 25516903.00 L 34423770.00 25919737.00  zM 35742040.00 26545087.00 L 34482198.00 26545087.00 L 34482198.00 25442724.00 L 35742040.00 25442724.00 L 35742040.00 26545087.00  zM 36589130.00 25919737.00 L 35800470.00 25919737.00 L 35800470.00 25516903.00 L 36589130.00 25516903.00 L 36589130.00 25919737.00  zM 36612121.99 22789173.85 m -516869.15 0 a 516869.15 516869.15 0 1 1 1033738.30 0a 516869.15 516869.15 0 1 1 -1033738.30 0M 36589130.00 26470917.00 L 35800470.00 26470917.00 L 35800470.00 26068083.00 L 36589130.00 26068083.00 L 36589130.00 26470917.00  zM 37112118.50 23789199.96 m -336246.32 0 a 336246.32 336246.32 0 1 1 672492.64 0a 336246.32 336246.32 0 1 1 -672492.64 0M 40612118.50 22974439.96 m -336246.32 0 a 336246.32 336246.32 0 1 1 672492.64 0a 336246.32 336246.32 0 1 1 -672492.64 0M 34423770.00 26470917.00 L 33635110.00 26470917.00 L 33635110.00 26068083.00 L 34423770.00 26068083.00 L 34423770.00 26470917.00  zM 34029438.49 27834644.70 m -241485.30 0 a 241485.30 241485.30 0 1 1 482970.60 0a 241485.30 241485.30 0 1 1 -482970.60 0M 34112121.99 29289173.85 m -516869.15 0 a 516869.15 516869.15 0 1 1 1033738.30 0a 516869.15 516869.15 0 1 1 -1033738.30 0M 35997938.49 27834644.70 m -241485.30 0 a 241485.30 241485.30 0 1 1 482970.60 0a 241485.30 241485.30 0 1 1 -482970.60 0M 35112118.50 31289197.47 m -791195.52 0 a 791195.52 791195.52 0 1 1 1582391.05 0a 791195.52 791195.52 0 1 1 -1582391.05 0M 36612121.99 30289173.85 m -516869.15 0 a 516869.15 516869.15 0 1 1 1033738.30 0a 516869.15 516869.15 0 1 1 -1033738.30 0M 37112118.50 31289199.96 m -336246.32 0 a 336246.32 336246.32 0 1 1 672492.64 0a 336246.32 336246.32 0 1 1 -672492.64 0M 42612118.50 22974437.47 m -791195.52 0 a 791195.52 791195.52 0 1 1 1582391.05 0a 791195.52 791195.52 0 1 1 -1582391.05 0M 41923770.00 25104977.00 L 41135110.00 25104977.00 L 41135110.00 24702143.00 L 41923770.00 24702143.00 L 41923770.00 25104977.00  zM 44612118.50 22974439.96 m -336246.32 0 a 336246.32 336246.32 0 1 1 672492.64 0a 336246.32 336246.32 0 1 1 -672492.64 0M 44089130.00 25104977.00 L 43300470.00 25104977.00 L 43300470.00 24702143.00 L 44089130.00 24702143.00 L 44089130.00 25104977.00  zM 41923770.00 25656157.00 L 41135110.00 25656157.00 L 41135110.00 25253323.00 L 41923770.00 25253323.00 L 41923770.00 25656157.00  zM 43242040.00 25730327.00 L 41982198.00 25730327.00 L 41982198.00 24627964.00 L 43242040.00 24627964.00 L 43242040.00 25730327.00  zM 44089130.00 25656157.00 L 43300470.00 25656157.00 L 43300470.00 25253323.00 L 44089130.00 25253323.00 L 44089130.00 25656157.00  zM 43582678.49 27007884.70 m -241485.30 0 a 241485.30 241485.30 0 1 1 482970.60 0a 241485.30 241485.30 0 1 1 -482970.60 0M 41614178.49 27007884.70 m -241485.30 0 a 241485.30 241485.30 0 1 1 482970.60 0a 241485.30 241485.30 0 1 1 -482970.60 0M 41612121.99 28474413.85 m -516869.15 0 a 516869.15 516869.15 0 1 1 1033738.30 0a 516869.15 516869.15 0 1 1 -1033738.30 0M 40612118.50 30474439.96 m -336246.32 0 a 336246.32 336246.32 0 1 1 672492.64 0a 336246.32 336246.32 0 1 1 -672492.64 0M 42612118.50 30474437.47 m -791195.52 0 a 791195.52 791195.52 0 1 1 1582391.05 0a 791195.52 791195.52 0 1 1 -1582391.05 0M 44112121.99 29474413.85 m -516869.15 0 a 516869.15 516869.15 0 1 1 1033738.30 0a 516869.15 516869.15 0 1 1 -1033738.30 0M 44612118.50 30474439.96 m -336246.32 0 a 336246.32 336246.32 0 1 1 672492.64 0a 336246.32 336246.32 0 1 1 -672492.64 0M 48112118.50 30474439.96 m -336246.32 0 a 336246.32 336246.32 0 1 1 672492.64 0a 336246.32 336246.32 0 1 1 -672492.64 0M 50486201.71 7066912.64 m -241497.09 0 a 241497.09 241497.09 0 1 1 482994.18 0a 241497.09 241497.09 0 1 1 -482994.18 0M 52190981.71 6082671.64 m -241497.09 0 a 241497.09 241497.09 0 1 1 482994.18 0a 241497.09 241497.09 0 1 1 -482994.18 0M 51362762.70 8256468.48 m -516874.52 0 a 516874.52 516874.52 0 1 1 1033749.04 0a 516874.52 516874.52 0 1 1 -1033749.04 0M 51496742.81 10488501.84 m -336285.06 0 a 336285.06 336285.06 0 1 1 672570.12 0a 336285.06 336285.06 0 1 1 -672570.12 0M 54027822.70 7872488.48 m -516874.52 0 a 516874.52 516874.52 0 1 1 1033749.04 0a 516874.52 516874.52 0 1 1 -1033749.04 0M 54960844.81 8488501.84 m -336285.06 0 a 336285.06 336285.06 0 1 1 672570.12 0a 336285.06 336285.06 0 1 1 -672570.12 0M 53228794.55 9488499.91 m -791233.53 0 a 791233.53 791233.53 0 1 1 1582467.06 0a 791233.53 791233.53 0 1 1 -1582467.06 0M 54890189.00 10989457.00 L 54688772.00 10640593.00 L 55371771.00 10246263.00 L 55573188.00 10595127.00 L 54890189.00 10989457.00  zM 48649689.00 15225737.00 L 48448272.00 14876873.00 L 49131271.00 14482543.00 L 49332688.00 14831407.00 L 48649689.00 15225737.00  zM 53014949.00 12072137.00 L 52813532.00 11723273.00 L 53496531.00 11328943.00 L 53697948.00 11677807.00 L 53014949.00 12072137.00  zM 53290529.00 12549477.00 L 53089112.00 12200613.00 L 53772111.00 11806283.00 L 53973528.00 12155147.00 L 53290529.00 12549477.00  zM 54061215.00 12190167.00 L 53510034.00 11235493.00 L 54601089.00 10605572.00 L 55152271.00 11560246.00 L 54061215.00 12190167.00  zM 55165789.00 11466797.00 L 54964372.00 11117933.00 L 55647371.00 10723603.00 L 55848788.00 11072467.00 L 55165789.00 11466797.00  zM 55413385.50 13188996.72 m -988993.77 0 a 988993.77 988993.77 0 1 1 1977987.53 0a 988993.77 988993.77 0 1 1 -1977987.53 0M 57072861.71 14074792.64 m -241497.09 0 a 241497.09 241497.09 0 1 1 482994.18 0a 241497.09 241497.09 0 1 1 -482994.18 0M 48832661.71 18838572.64 m -241497.09 0 a 241497.09 241497.09 0 1 1 482994.18 0a 241497.09 241497.09 0 1 1 -482994.18 0M 50537422.71 17854332.64 m -241497.09 0 a 241497.09 241497.09 0 1 1 482994.18 0a 241497.09 241497.09 0 1 1 -482994.18 0M 55368081.71 15059052.64 m -241497.09 0 a 241497.09 241497.09 0 1 1 482994.18 0a 241497.09 241497.09 0 1 1 -482994.18 0M 52182818.04 19729502.15 m -516859.85 0 a 516859.85 516859.85 0 1 1 1033719.69 0a 516859.85 516859.85 0 1 1 -1033719.69 0M 56033842.70 16354428.48 m -516874.52 0 a 516874.52 516874.52 0 1 1 1033749.04 0a 516874.52 516874.52 0 1 1 -1033749.04 0M 57899861.55 17586469.91 m -791233.53 0 a 791233.53 791233.53 0 1 1 1582467.06 0a 791233.53 791233.53 0 1 1 -1582467.06 0M 56167809.81 18586471.84 m -336285.06 0 a 336285.06 336285.06 0 1 1 672570.12 0a 336285.06 336285.06 0 1 1 -672570.12 0M 57686009.00 20170117.00 L 57484592.00 19821253.00 L 58167591.00 19426923.00 L 58369008.00 19775787.00 L 57686009.00 20170117.00  zM 58698898.04 15970462.15 m -516859.85 0 a 516859.85 516859.85 0 1 1 1033719.69 0a 516859.85 516859.85 0 1 1 -1033719.69 0M 59631911.81 16586471.84 m -336285.06 0 a 336285.06 336285.06 0 1 1 672570.12 0a 336285.06 336285.06 0 1 1 -672570.12 0M 59561269.00 19087437.00 L 59359852.00 18738573.00 L 60042851.00 18344243.00 L 60244268.00 18693107.00 L 59561269.00 19087437.00  zM 59836849.00 19564757.00 L 59635432.00 19215893.00 L 60318431.00 18821563.00 L 60519848.00 19170427.00 L 59836849.00 19564757.00  zM 58732282.00 20288137.00 L 58181101.00 19333463.00 L 59272156.00 18703542.00 L 59823338.00 19658216.00 L 58732282.00 20288137.00  zM 60250001.63 19709994.96 m -292507.04 0 a 292507.04 292507.04 0 1 1 585014.09 0a 292507.04 292507.04 0 1 1 -585014.09 0M 61525601.63 19785594.96 m -292507.04 0 a 292507.04 292507.04 0 1 1 585014.09 0a 292507.04 292507.04 0 1 1 -585014.09 0M 49517742.70 20113468.48 m -516874.52 0 a 516874.52 516874.52 0 1 1 1033749.04 0a 516874.52 516874.52 0 1 1 -1033749.04 0M 49651725.81 22345502.84 m -336285.06 0 a 336285.06 336285.06 0 1 1 672570.12 0a 336285.06 336285.06 0 1 1 -672570.12 0M 51383777.55 21345500.91 m -791233.53 0 a 791233.53 791233.53 0 1 1 1582467.06 0a 791233.53 791233.53 0 1 1 -1582467.06 0M 53115827.81 20345502.84 m -336285.06 0 a 336285.06 336285.06 0 1 1 672570.12 0a 336285.06 336285.06 0 1 1 -672570.12 0M 51169929.00 23929137.00 L 50968512.00 23580273.00 L 51651511.00 23185943.00 L 51852928.00 23534807.00 L 51169929.00 23929137.00  zM 52216198.00 24047168.00 L 51665017.00 23092494.00 L 52756072.00 22462573.00 L 53307254.00 23417247.00 L 52216198.00 24047168.00  zM 51445509.00 24406477.00 L 51244092.00 24057613.00 L 51927091.00 23663283.00 L 52128508.00 24012147.00 L 51445509.00 24406477.00  zM 51260001.63 26279994.96 m -292507.04 0 a 292507.04 292507.04 0 1 1 585014.09 0a 292507.04 292507.04 0 1 1 -585014.09 0M 49048298.49 27007884.70 m -241485.30 0 a 241485.30 241485.30 0 1 1 482970.60 0a 241485.30 241485.30 0 1 1 -482970.60 0M 49112121.99 28474413.85 m -516869.15 0 a 516869.15 516869.15 0 1 1 1033738.30 0a 516869.15 516869.15 0 1 1 -1033738.30 0M 51016818.49 27007884.70 m -241485.30 0 a 241485.30 241485.30 0 1 1 482970.60 0a 241485.30 241485.30 0 1 1 -482970.60 0M 52000001.63 27639994.96 m -292507.04 0 a 292507.04 292507.04 0 1 1 585014.09 0a 292507.04 292507.04 0 1 1 -585014.09 0M 50112118.50 30474437.47 m -791195.52 0 a 791195.52 791195.52 0 1 1 1582391.05 0a 791195.52 791195.52 0 1 1 -1582391.05 0M 51612121.99 29474413.85 m -516869.15 0 a 516869.15 516869.15 0 1 1 1033738.30 0a 516869.15 516869.15 0 1 1 -1033738.30 0M 52112118.50 30474439.96 m -336246.32 0 a 336246.32 336246.32 0 1 1 672492.64 0a 336246.32 336246.32 0 1 1 -672492.64 0M 53045169.00 22846457.00 L 52843752.00 22497593.00 L 53526751.00 22103263.00 L 53728168.00 22452127.00 L 53045169.00 22846457.00  zM 53320769.00 23323798.00 L 53119352.00 22974934.00 L 53802351.00 22580604.00 L 54003768.00 22929468.00 L 53320769.00 23323798.00  zM 57961589.00 20647437.00 L 57760172.00 20298573.00 L 58443171.00 19904243.00 L 58644588.00 20253107.00 L 57961589.00 20647437.00  zM 62321891.63 22539364.96 m -292507.04 0 a 292507.04 292507.04 0 1 1 585014.09 0a 292507.04 292507.04 0 1 1 -585014.09 0M 56260001.63 26348414.96 m -292507.04 0 a 292507.04 292507.04 0 1 1 585014.09 0a 292507.04 292507.04 0 1 1 -585014.09 0M 55511812.63 29384984.96 m -292507.04 0 a 292507.04 292507.04 0 1 1 585014.09 0a 292507.04 292507.04 0 1 1 -585014.09 0M 59420001.63 28359994.96 m -292507.04 0 a 292507.04 292507.04 0 1 1 585014.09 0a 292507.04 292507.04 0 1 1 -585014.09 0M 61450001.63 29384994.96 m -292507.04 0 a 292507.04 292507.04 0 1 1 585014.09 0a 292507.04 292507.04 0 1 1 -585014.09 0M 55110001.63 30124474.96 m -292507.04 0 a 292507.04 292507.04 0 1 1 585014.09 0a 292507.04 292507.04 0 1 1 -585014.09 0M 57185040.63 30606284.96 m -292507.04 0 a 292507.04 292507.04 0 1 1 585014.09 0a 292507.04 292507.04 0 1 1 -585014.09 0M 57594125.63 30004294.96 m -292507.04 0 a 292507.04 292507.04 0 1 1 585014.09 0a 292507.04 292507.04 0 1 1 -585014.09 0M 58421271.63 30019679.96 m -292507.04 0 a 292507.04 292507.04 0 1 1 585014.09 0a 292507.04 292507.04 0 1 1 -585014.09 0M 58789381.63 31171234.96 m -292507.04 0 a 292507.04 292507.04 0 1 1 585014.09 0a 292507.04 292507.04 0 1 1 -585014.09 0M 62500001.63 30794994.96 m -292507.04 0 a 292507.04 292507.04 0 1 1 585014.09 0a 292507.04 292507.04 0 1 1 -585014.09 0M 63195001.63 30049994.96 m -292507.04 0 a 292507.04 292507.04 0 1 1 585014.09 0a 292507.04 292507.04 0 1 1 -585014.09 0M 34423770.00 33419737.00 L 33635110.00 33419737.00 L 33635110.00 33016903.00 L 34423770.00 33016903.00 L 34423770.00 33419737.00  zM 35742040.00 34045087.00 L 34482198.00 34045087.00 L 34482198.00 32942724.00 L 35742040.00 32942724.00 L 35742040.00 34045087.00  zM 34423770.00 33970917.00 L 33635110.00 33970917.00 L 33635110.00 33568083.00 L 34423770.00 33568083.00 L 34423770.00 33970917.00  zM 34111298.49 35354344.70 m -241485.30 0 a 241485.30 241485.30 0 1 1 482970.60 0a 241485.30 241485.30 0 1 1 -482970.60 0M 36589130.00 33419737.00 L 35800470.00 33419737.00 L 35800470.00 33016903.00 L 36589130.00 33016903.00 L 36589130.00 33419737.00  zM 36589130.00 33970917.00 L 35800470.00 33970917.00 L 35800470.00 33568083.00 L 36589130.00 33568083.00 L 36589130.00 33970917.00  zM 38480001.63 33929994.96 m -292507.04 0 a 292507.04 292507.04 0 1 1 585014.09 0a 292507.04 292507.04 0 1 1 -585014.09 0M 41923770.00 32604977.00 L 41135110.00 32604977.00 L 41135110.00 32202143.00 L 41923770.00 32202143.00 L 41923770.00 32604977.00  zM 34112121.99 36789173.85 m -516869.15 0 a 516869.15 516869.15 0 1 1 1033738.30 0a 516869.15 516869.15 0 1 1 -1033738.30 0M 36079798.49 35354344.70 m -241485.30 0 a 241485.30 241485.30 0 1 1 482970.60 0a 241485.30 241485.30 0 1 1 -482970.60 0M 35112118.50 38789197.47 m -791195.52 0 a 791195.52 791195.52 0 1 1 1582391.05 0a 791195.52 791195.52 0 1 1 -1582391.05 0M 36612121.99 37789173.85 m -516869.15 0 a 516869.15 516869.15 0 1 1 1033738.30 0a 516869.15 516869.15 0 1 1 -1033738.30 0M 37112118.50 38789199.96 m -336246.32 0 a 336246.32 336246.32 0 1 1 672492.64 0a 336246.32 336246.32 0 1 1 -672492.64 0M 40611298.50 37974528.96 m -336246.32 0 a 336246.32 336246.32 0 1 1 672492.64 0a 336246.32 336246.32 0 1 1 -672492.64 0M 41922950.00 40105057.00 L 41134290.00 40105057.00 L 41134290.00 39702223.00 L 41922950.00 39702223.00 L 41922950.00 40105057.00  zM 41922950.00 40656237.00 L 41134290.00 40656237.00 L 41134290.00 40253403.00 L 41922950.00 40253403.00 L 41922950.00 40656237.00  zM 41923770.00 33156157.00 L 41135110.00 33156157.00 L 41135110.00 32753323.00 L 41923770.00 32753323.00 L 41923770.00 33156157.00  zM 43242040.00 33230327.00 L 41982198.00 33230327.00 L 41982198.00 32127964.00 L 43242040.00 32127964.00 L 43242040.00 33230327.00  zM 44089130.00 32604977.00 L 43300470.00 32604977.00 L 43300470.00 32202143.00 L 44089130.00 32202143.00 L 44089130.00 32604977.00  zM 44089130.00 33156157.00 L 43300470.00 33156157.00 L 43300470.00 32753323.00 L 44089130.00 32753323.00 L 44089130.00 33156157.00  zM 41614178.49 34527564.70 m -241485.30 0 a 241485.30 241485.30 0 1 1 482970.60 0a 241485.30 241485.30 0 1 1 -482970.60 0M 41611301.99 35974513.85 m -516869.15 0 a 516869.15 516869.15 0 1 1 1033738.30 0a 516869.15 516869.15 0 1 1 -1033738.30 0M 43582678.49 34527564.70 m -241485.30 0 a 241485.30 241485.30 0 1 1 482970.60 0a 241485.30 241485.30 0 1 1 -482970.60 0M 44111301.99 36974513.85 m -516869.15 0 a 516869.15 516869.15 0 1 1 1033738.30 0a 516869.15 516869.15 0 1 1 -1033738.30 0M 42611298.50 37974526.47 m -791195.52 0 a 791195.52 791195.52 0 1 1 1582391.05 0a 791195.52 791195.52 0 1 1 -1582391.05 0M 44088310.00 40105057.00 L 43299650.00 40105057.00 L 43299650.00 39702223.00 L 44088310.00 39702223.00 L 44088310.00 40105057.00  zM 43241220.00 40730416.00 L 41981378.00 40730416.00 L 41981378.00 39628053.00 L 43241220.00 39628053.00 L 43241220.00 40730416.00  zM 44088310.00 40656237.00 L 43299650.00 40656237.00 L 43299650.00 40253403.00 L 44088310.00 40253403.00 L 44088310.00 40656237.00  zM 44611298.50 37974528.96 m -336246.32 0 a 336246.32 336246.32 0 1 1 672492.64 0a 336246.32 336246.32 0 1 1 -672492.64 0M 48111298.50 37974528.96 m -336246.32 0 a 336246.32 336246.32 0 1 1 672492.64 0a 336246.32 336246.32 0 1 1 -672492.64 0M 49422950.00 40105057.00 L 48634290.00 40105057.00 L 48634290.00 39702223.00 L 49422950.00 39702223.00 L 49422950.00 40105057.00  zM 34423770.00 40919737.00 L 33635110.00 40919737.00 L 33635110.00 40516903.00 L 34423770.00 40516903.00 L 34423770.00 40919737.00  zM 34423770.00 41470917.00 L 33635110.00 41470917.00 L 33635110.00 41068083.00 L 34423770.00 41068083.00 L 34423770.00 41470917.00  zM 35742040.00 41545087.00 L 34482198.00 41545087.00 L 34482198.00 40442724.00 L 35742040.00 40442724.00 L 35742040.00 41545087.00  zM 36589130.00 40919737.00 L 35800470.00 40919737.00 L 35800470.00 40516903.00 L 36589130.00 40516903.00 L 36589130.00 40919737.00  zM 36589130.00 41470917.00 L 35800470.00 41470917.00 L 35800470.00 41068083.00 L 36589130.00 41068083.00 L 36589130.00 41470917.00  zM 36016818.49 42834644.70 m -241485.30 0 a 241485.30 241485.30 0 1 1 482970.60 0a 241485.30 241485.30 0 1 1 -482970.60 0M 34048298.49 42834644.70 m -241485.30 0 a 241485.30 241485.30 0 1 1 482970.60 0a 241485.30 241485.30 0 1 1 -482970.60 0M 34111301.99 44289273.85 m -516869.15 0 a 516869.15 516869.15 0 1 1 1033738.30 0a 516869.15 516869.15 0 1 1 -1033738.30 0M 35111298.50 46289286.47 m -791195.52 0 a 791195.52 791195.52 0 1 1 1582391.05 0a 791195.52 791195.52 0 1 1 -1582391.05 0M 36588310.00 48419817.00 L 35799650.00 48419817.00 L 35799650.00 48016983.00 L 36588310.00 48016983.00 L 36588310.00 48419817.00  zM 35741220.00 49045176.00 L 34481378.00 49045176.00 L 34481378.00 47942813.00 L 35741220.00 47942813.00 L 35741220.00 49045176.00  zM 36588310.00 48970997.00 L 35799650.00 48970997.00 L 35799650.00 48568163.00 L 36588310.00 48568163.00 L 36588310.00 48970997.00  zM 36611301.99 45289273.85 m -516869.15 0 a 516869.15 516869.15 0 1 1 1033738.30 0a 516869.15 516869.15 0 1 1 -1033738.30 0M 37111298.50 46289288.96 m -336246.32 0 a 336246.32 336246.32 0 1 1 672492.64 0a 336246.32 336246.32 0 1 1 -672492.64 0M 40611298.50 45474528.96 m -336246.32 0 a 336246.32 336246.32 0 1 1 672492.64 0a 336246.32 336246.32 0 1 1 -672492.64 0M 41705778.49 42007884.70 m -241485.30 0 a 241485.30 241485.30 0 1 1 482970.60 0a 241485.30 241485.30 0 1 1 -482970.60 0M 41611301.99 43474513.85 m -516869.15 0 a 516869.15 516869.15 0 1 1 1033738.30 0a 516869.15 516869.15 0 1 1 -1033738.30 0M 43674298.49 42007884.70 m -241485.30 0 a 241485.30 241485.30 0 1 1 482970.60 0a 241485.30 241485.30 0 1 1 -482970.60 0M 44111301.99 44474513.85 m -516869.15 0 a 516869.15 516869.15 0 1 1 1033738.30 0a 516869.15 516869.15 0 1 1 -1033738.30 0M 46420001.63 41379994.96 m -292507.04 0 a 292507.04 292507.04 0 1 1 585014.09 0a 292507.04 292507.04 0 1 1 -585014.09 0M 49422950.00 40656237.00 L 48634290.00 40656237.00 L 48634290.00 40253403.00 L 49422950.00 40253403.00 L 49422950.00 40656237.00  zM 44611298.50 45474528.96 m -336246.32 0 a 336246.32 336246.32 0 1 1 672492.64 0a 336246.32 336246.32 0 1 1 -672492.64 0M 48111298.50 45474528.96 m -336246.32 0 a 336246.32 336246.32 0 1 1 672492.64 0a 336246.32 336246.32 0 1 1 -672492.64 0M 42611298.50 45474526.47 m -791195.52 0 a 791195.52 791195.52 0 1 1 1582391.05 0a 791195.52 791195.52 0 1 1 -1582391.05 0M 41922950.00 47605057.00 L 41134290.00 47605057.00 L 41134290.00 47202223.00 L 41922950.00 47202223.00 L 41922950.00 47605057.00  zM 41922950.00 48156237.00 L 41134290.00 48156237.00 L 41134290.00 47753403.00 L 41922950.00 47753403.00 L 41922950.00 48156237.00  zM 43241220.00 48230416.00 L 41981378.00 48230416.00 L 41981378.00 47128053.00 L 43241220.00 47128053.00 L 43241220.00 48230416.00  zM 44088310.00 47605057.00 L 43299650.00 47605057.00 L 43299650.00 47202223.00 L 44088310.00 47202223.00 L 44088310.00 47605057.00  zM 44088310.00 48156237.00 L 43299650.00 48156237.00 L 43299650.00 47753403.00 L 44088310.00 47753403.00 L 44088310.00 48156237.00  zM 46358267.50 48917343.72 m -988993.77 0 a 988993.77 988993.77 0 1 1 1977987.53 0a 988993.77 988993.77 0 1 1 -1977987.53 0M 49423770.00 32604977.00 L 48635110.00 32604977.00 L 48635110.00 32202143.00 L 49423770.00 32202143.00 L 49423770.00 32604977.00  zM 50742040.00 33230327.00 L 49482198.00 33230327.00 L 49482198.00 32127964.00 L 50742040.00 32127964.00 L 50742040.00 33230327.00  zM 49423770.00 33156157.00 L 48635110.00 33156157.00 L 48635110.00 32753323.00 L 49423770.00 32753323.00 L 49423770.00 33156157.00  zM 49048298.49 34527564.70 m -241485.30 0 a 241485.30 241485.30 0 1 1 482970.60 0a 241485.30 241485.30 0 1 1 -482970.60 0M 51589130.00 32604977.00 L 50800470.00 32604977.00 L 50800470.00 32202143.00 L 51589130.00 32202143.00 L 51589130.00 32604977.00  zM 51589130.00 33156157.00 L 50800470.00 33156157.00 L 50800470.00 32753323.00 L 51589130.00 32753323.00 L 51589130.00 33156157.00  zM 51244011.63 33529522.96 m -292507.04 0 a 292507.04 292507.04 0 1 1 585014.09 0a 292507.04 292507.04 0 1 1 -585014.09 0M 51016818.49 34527564.70 m -241485.30 0 a 241485.30 241485.30 0 1 1 482970.60 0a 241485.30 241485.30 0 1 1 -482970.60 0M 49111301.99 35974513.85 m -516869.15 0 a 516869.15 516869.15 0 1 1 1033738.30 0a 516869.15 516869.15 0 1 1 -1033738.30 0M 51611301.99 36974513.85 m -516869.15 0 a 516869.15 516869.15 0 1 1 1033738.30 0a 516869.15 516869.15 0 1 1 -1033738.30 0M 50111298.50 37974526.47 m -791195.52 0 a 791195.52 791195.52 0 1 1 1582391.05 0a 791195.52 791195.52 0 1 1 -1582391.05 0M 52090001.63 39539994.96 m -292507.04 0 a 292507.04 292507.04 0 1 1 585014.09 0a 292507.04 292507.04 0 1 1 -585014.09 0M 50741220.00 40730416.00 L 49481378.00 40730416.00 L 49481378.00 39628053.00 L 50741220.00 39628053.00 L 50741220.00 40730416.00  zM 51588310.00 40105057.00 L 50799650.00 40105057.00 L 50799650.00 39702223.00 L 51588310.00 39702223.00 L 51588310.00 40105057.00  zM 51588310.00 40656237.00 L 50799650.00 40656237.00 L 50799650.00 40253403.00 L 51588310.00 40253403.00 L 51588310.00 40656237.00  zM 52100001.63 31649994.96 m -292507.04 0 a 292507.04 292507.04 0 1 1 585014.09 0a 292507.04 292507.04 0 1 1 -585014.09 0M 55340001.63 34499994.96 m -292507.04 0 a 292507.04 292507.04 0 1 1 585014.09 0a 292507.04 292507.04 0 1 1 -585014.09 0M 58160641.63 31539354.96 m -292507.04 0 a 292507.04 292507.04 0 1 1 585014.09 0a 292507.04 292507.04 0 1 1 -585014.09 0M 57775592.63 32455004.96 m -292507.04 0 a 292507.04 292507.04 0 1 1 585014.09 0a 292507.04 292507.04 0 1 1 -585014.09 0M 53970471.63 34744088.96 m -292507.04 0 a 292507.04 292507.04 0 1 1 585014.09 0a 292507.04 292507.04 0 1 1 -585014.09 0M 52111298.50 37974528.96 m -336246.32 0 a 336246.32 336246.32 0 1 1 672492.64 0a 336246.32 336246.32 0 1 1 -672492.64 0M 54884801.63 35925194.96 m -292507.04 0 a 292507.04 292507.04 0 1 1 585014.09 0a 292507.04 292507.04 0 1 1 -585014.09 0M 57980001.63 37529994.96 m -292507.04 0 a 292507.04 292507.04 0 1 1 585014.09 0a 292507.04 292507.04 0 1 1 -585014.09 0M 58366143.63 32321404.96 m -292507.04 0 a 292507.04 292507.04 0 1 1 585014.09 0a 292507.04 292507.04 0 1 1 -585014.09 0M 59101667.63 32455004.96 m -292507.04 0 a 292507.04 292507.04 0 1 1 585014.09 0a 292507.04 292507.04 0 1 1 -585014.09 0M 59930001.63 31289354.96 m -292507.04 0 a 292507.04 292507.04 0 1 1 585014.09 0a 292507.04 292507.04 0 1 1 -585014.09 0M 59744095.63 32204984.96 m -292507.04 0 a 292507.04 292507.04 0 1 1 585014.09 0a 292507.04 292507.04 0 1 1 -585014.09 0M 61440001.63 37939994.96 m -292507.04 0 a 292507.04 292507.04 0 1 1 585014.09 0a 292507.04 292507.04 0 1 1 -585014.09 0M 62106940.00 40551800.00 L 61711980.00 40551800.00 L 61711980.00 40156840.00 L 62106940.00 40156840.00 L 62106940.00 40551800.00  zM 61122060.43 40354320.13 m -201348.87 0 a 201348.87 201348.87 0 1 1 402697.73 0a 201348.87 201348.87 0 1 1 -402697.73 0M 49111298.49 42007884.70 m -241485.30 0 a 241485.30 241485.30 0 1 1 482970.60 0a 241485.30 241485.30 0 1 1 -482970.60 0M 49111301.99 43474513.85 m -516869.15 0 a 516869.15 516869.15 0 1 1 1033738.30 0a 516869.15 516869.15 0 1 1 -1033738.30 0M 51079798.49 42007884.70 m -241485.30 0 a 241485.30 241485.30 0 1 1 482970.60 0a 241485.30 241485.30 0 1 1 -482970.60 0M 54010001.63 43129994.96 m -292507.04 0 a 292507.04 292507.04 0 1 1 585014.09 0a 292507.04 292507.04 0 1 1 -585014.09 0M 50111298.50 45474526.47 m -791195.52 0 a 791195.52 791195.52 0 1 1 1582391.05 0a 791195.52 791195.52 0 1 1 -1582391.05 0M 49422950.00 47605057.00 L 48634290.00 47605057.00 L 48634290.00 47202223.00 L 49422950.00 47202223.00 L 49422950.00 47605057.00  zM 51611301.99 44474513.85 m -516869.15 0 a 516869.15 516869.15 0 1 1 1033738.30 0a 516869.15 516869.15 0 1 1 -1033738.30 0M 52111298.50 45474528.96 m -336246.32 0 a 336246.32 336246.32 0 1 1 672492.64 0a 336246.32 336246.32 0 1 1 -672492.64 0M 49422950.00 48156237.00 L 48634290.00 48156237.00 L 48634290.00 47753403.00 L 49422950.00 47753403.00 L 49422950.00 48156237.00  zM 49800001.63 49129994.96 m -292507.04 0 a 292507.04 292507.04 0 1 1 585014.09 0a 292507.04 292507.04 0 1 1 -585014.09 0M 50741220.00 48230416.00 L 49481378.00 48230416.00 L 49481378.00 47128053.00 L 50741220.00 47128053.00 L 50741220.00 48230416.00  zM 51588310.00 47605057.00 L 50799650.00 47605057.00 L 50799650.00 47202223.00 L 51588310.00 47202223.00 L 51588310.00 47605057.00  zM 51588310.00 48156237.00 L 50799650.00 48156237.00 L 50799650.00 47753403.00 L 51588310.00 47753403.00 L 51588310.00 48156237.00  zM 56148270.00 48925190.00 L 56148270.00 48688970.00 A 241485.30 241485.30 0 1 1 56631250.00 48688970.00 L 56631250.00 48925190.00 A 241485.30 241485.30 0 1 1 56148270.00 48925190.00  zM 56148270.00 50787410.00 L 56148270.00 50551190.00 A 241485.30 241485.30 0 1 1 56631250.00 50551190.00 L 56631250.00 50787410.00 A 241485.30 241485.30 0 1 1 56148270.00 50787410.00  zM 60835275.00 41969135.00 L 60164725.00 41969135.00 L 60164725.00 41298585.00 L 60835275.00 41298585.00 L 60835275.00 41969135.00  zM 60500002.00 42633853.05 m -338174.95 0 a 338174.95 338174.95 0 1 1 676349.89 0a 338174.95 338174.95 0 1 1 -676349.89 0M 57800001.63 45069994.96 m -292507.04 0 a 292507.04 292507.04 0 1 1 585014.09 0a 292507.04 292507.04 0 1 1 -585014.09 0M 60728347.63 45177159.96 m -292507.04 0 a 292507.04 292507.04 0 1 1 585014.09 0a 292507.04 292507.04 0 1 1 -585014.09 0M 61500002.00 41633853.05 m -338174.95 0 a 338174.95 338174.95 0 1 1 676349.89 0a 338174.95 338174.95 0 1 1 -676349.89 0M 61500002.00 42633853.05 m -338174.95 0 a 338174.95 338174.95 0 1 1 676349.89 0a 338174.95 338174.95 0 1 1 -676349.89 0M 62500002.00 41633853.05 m -338174.95 0 a 338174.95 338174.95 0 1 1 676349.89 0a 338174.95 338174.95 0 1 1 -676349.89 0M 62500002.00 42633853.05 m -338174.95 0 a 338174.95 338174.95 0 1 1 676349.89 0a 338174.95 338174.95 0 1 1 -676349.89 0M 57430001.63 45809994.96 m -292507.04 0 a 292507.04 292507.04 0 1 1 585014.09 0a 292507.04 292507.04 0 1 1 -585014.09 0M 58360001.63 46879994.96 m -292507.04 0 a 292507.04 292507.04 0 1 1 585014.09 0a 292507.04 292507.04 0 1 1 -585014.09 0M 59580001.63 46199994.96 m -292507.04 0 a 292507.04 292507.04 0 1 1 585014.09 0a 292507.04 292507.04 0 1 1 -585014.09 0M 61340001.63 46629994.96 m -292507.04 0 a 292507.04 292507.04 0 1 1 585014.09 0a 292507.04 292507.04 0 1 1 -585014.09 0M 58858260.00 48696541.52 A 169567.50 169567.50 0 0 1 58543300.00 48696541.52 A 169567.50 169567.50 0 0 1 58227612.00 48564388.00 L 58257403.74 48519801.92 L 58228340.00 48525583.00 A 171240.45 171240.45 0 0 1 58070860.00 48420961.52 A 169567.50 169567.50 0 0 1 57913380.00 48525583.00 L 57884316.26 48519801.92 L 57914108.00 48564388.00 A 171244.89 171244.89 0 0 1 57598420.00 48696541.52 A 169567.50 169567.50 0 0 1 57283460.00 48696541.52 A 169567.50 169567.50 0 0 1 56967772.00 48564388.00 L 56997563.74 48519801.92 L 56968500.00 48525583.00 A 171240.45 171240.45 0 1 1 57125980.00 48287718.48 A 169567.50 169567.50 0 0 1 57440940.00 48287718.48 A 169567.50 169567.50 0 0 1 57755900.00 48287718.48 A 169567.50 169567.50 0 0 1 58070860.00 48287718.48 A 169567.50 169567.50 0 0 1 58385820.00 48287718.48 A 169567.50 169567.50 0 0 1 58700780.00 48287718.48 A 169567.50 169567.50 0 0 1 59015740.00 48287718.48 A 169567.50 169567.50 0 1 1 59173220.00 48525583.00 L 59144156.26 48519801.92 L 59173948.00 48564388.00 A 171244.89 171244.89 0 0 1 58858260.00 48696541.52  zM 59510470.00 50787410.00 L 59510470.00 50551190.00 A 241485.30 241485.30 0 1 1 59993450.00 50551190.00 L 59993450.00 50787410.00 A 241485.30 241485.30 0 1 1 59510470.00 50787410.00  zM 59510470.00 48925190.00 L 59510470.00 48688970.00 A 241485.30 241485.30 0 1 1 59993450.00 48688970.00 L 59993450.00 48925190.00 A 241485.30 241485.30 0 1 1 59510470.00 48925190.00  z"/>
<path id="N" d="M 57627483.74 48519801.92 L 57598420.00 48525583.00 L 57569356.26 48519801.92 L 57598420.00 48563298.48 L 57627483.74 48519801.92  z"/>
<path id="N" d="M 58887323.74 48519801.92 L 58858260.00 48525583.00 L 58829196.26 48519801.92 L 58858260.00 48563298.48 L 58887323.74 48519801.92  z"/>
<path id="N" d="M 57312523.74 48519801.92 L 57283460.00 48525583.00 L 57254396.26 48519801.92 L 57283460.00 48563298.48 L 57312523.74 48519801.92  z"/>
<path id="N" d="M 59015740.00 48420961.52 L 58986676.26 48464458.08 L 59015740.00 48458677.00 L 59044803.74 48464458.08 L 59015740.00 48420961.52  z"/>
<path id="N" d="M 58572363.74 48519801.92 L 58543300.00 48525583.00 L 58514236.26 48519801.92 L 58543300.00 48563298.48 L 58572363.74 48519801.92  z"/>
<path id="N" d="M 58700780.00 48420961.52 L 58671716.26 48464458.08 L 58700780.00 48458677.00 L 58729843.74 48464458.08 L 58700780.00 48420961.52  z"/>
<path id="N" d="M 58385820.00 48420961.52 L 58356756.26 48464458.08 L 58385820.00 48458677.00 L 58414883.74 48464458.08 L 58385820.00 48420961.52  z"/>
<path id="N" d="M 57755900.00 48420961.52 L 57726836.26 48464458.08 L 57755900.00 48458677.00 L 57784963.74 48464458.08 L 57755900.00 48420961.52  z"/>
<path id="N" d="M 57440940.00 48420961.52 L 57411876.26 48464458.08 L 57440940.00 48458677.00 L 57470003.74 48464458.08 L 57440940.00 48420961.52  z"/>
<path id="N" d="M 57125980.00 48420961.52 L 57096916.26 48464458.08 L 57125980.00 48458677.00 L 57155043.74 48464458.08 L 57125980.00 48420961.52  z"/>
</g>
</svg>
