<svg width="162.15000082mm" height="122.24338518mm" viewBox="0 0 63838583 48127317"  version="1.1" xmlns="http://www.w3.org/2000/svg" xmlns:xlink="http://www.w3.org/1999/xlink">
<desc>
Origin 0 0 Bound 5000 3895032 63838583 48127317
</desc>
<g fill-rule="evenodd" fill="rgb(128, 0, 128)" stroke="black" stroke-width="1" transform="translate(0, 48127317) scale(1, -1) translate(-5000, -3895032)">
<path id="N" d="M 60384056.00 51219578.00 L 60418349.00 51136557.00 A 1181129.21 1181129.21 0 0 1 61492057.00 50447546.00 L 63843583.00 50447546.00 L 63843583.00 19817625.00 L 54650669.00 3895032.00 L 41664798.00 11392428.00 L 5000.00 11392428.00 L 5000.00 50447546.00 L 54746289.00 50447546.00 L 54836049.00 50450961.00 A 1181075.76 1181075.76 0 0 1 55854289.00 51219579.00 L 56150669.00 52022349.00 L 60087677.00 52022349.00 L 60384056.00 51219578.00  zM 3225619.50 13058388.12 m -751635.34 0 a 751635.34 751635.34 0 1 1 1503270.69 0a 751635.34 751635.34 0 1 1 -1503270.69 0M 5915268.50 16289199.96 m -336246.32 0 a 336246.32 336246.32 0 1 1 672492.64 0a 336246.32 336246.32 0 1 1 -672492.64 0M 7283478.49 12893704.70 m -241485.30 0 a 241485.30 241485.30 0 1 1 482970.60 0a 241485.30 241485.30 0 1 1 -482970.60 0M 6915281.99 14289173.85 m -516869.15 0 a 516869.15 516869.15 0 1 1 1033738.30 0a 516869.15 516869.15 0 1 1 -1033738.30 0M 9251978.49 12893704.70 m -241485.30 0 a 241485.30 241485.30 0 1 1 482970.60 0a 241485.30 241485.30 0 1 1 -482970.60 0M 7915268.50 16289197.47 m -791195.52 0 a 791195.52 791195.52 0 1 1 1582391.05 0a 791195.52 791195.52 0 1 1 -1582391.05 0M 8545190.00 19045087.00 L 7285348.00 19045087.00 L 7285348.00 17942724.00 L 8545190.00 17942724.00 L 8545190.00 19045087.00  zM 3234449.50 19067701.23 m -593397.28 0 a 593397.28 593397.28 0 1 1 1186794.56 0a 593397.28 593397.28 0 1 1 -1186794.56 0M 3225619.50 20558388.12 m -751635.34 0 a 751635.34 751635.34 0 1 1 1503270.69 0a 751635.34 751635.34 0 1 1 -1503270.69 0M 6915281.99 21789173.85 m -516869.15 0 a 516869.15 516869.15 0 1 1 1033738.30 0a 516869.15 516869.15 0 1 1 -1033738.30 0M 7283478.49 20374024.70 m -241485.30 0 a 241485.30 241485.30 0 1 1 482970.60 0a 241485.30 241485.30 0 1 1 -482970.60 0M 9251978.49 20374024.70 m -241485.30 0 a 241485.30 241485.30 0 1 1 482970.60 0a 241485.30 241485.30 0 1 1 -482970.60 0M 9415281.99 22789173.85 m -516869.15 0 a 516869.15 516869.15 0 1 1 1033738.30 0a 516869.15 516869.15 0 1 1 -1033738.30 0M 9415281.99 15289173.85 m -516869.15 0 a 516869.15 516869.15 0 1 1 1033738.30 0a 516869.15 516869.15 0 1 1 -1033738.30 0M 12626857.50 13066269.47 m -791195.52 0 a 791195.52 791195.52 0 1 1 1582391.05 0a 791195.52 791195.52 0 1 1 -1582391.05 0M 15846456.50 12795296.72 m -988993.77 0 a 988993.77 988993.77 0 1 1 1977987.53 0a 988993.77 988993.77 0 1 1 -1977987.53 0M 19094478.49 12893704.70 m -241485.30 0 a 241485.30 241485.30 0 1 1 482970.60 0a 241485.30 241485.30 0 1 1 -482970.60 0M 19112121.99 14289173.85 m -516869.15 0 a 516869.15 516869.15 0 1 1 1033738.30 0a 516869.15 516869.15 0 1 1 -1033738.30 0M 18112118.50 16289199.96 m -336246.32 0 a 336246.32 336246.32 0 1 1 672492.64 0a 336246.32 336246.32 0 1 1 -672492.64 0M 9915268.50 16289199.96 m -336246.32 0 a 336246.32 336246.32 0 1 1 672492.64 0a 336246.32 336246.32 0 1 1 -672492.64 0M 12626857.50 20566269.47 m -791195.52 0 a 791195.52 791195.52 0 1 1 1582391.05 0a 791195.52 791195.52 0 1 1 -1582391.05 0M 9915268.50 23789199.96 m -336246.32 0 a 336246.32 336246.32 0 1 1 672492.64 0a 336246.32 336246.32 0 1 1 -672492.64 0M 12631109.50 19060649.23 m -593397.28 0 a 593397.28 593397.28 0 1 1 1186794.56 0a 593397.28 593397.28 0 1 1 -1186794.56 0M 19094478.49 20374024.70 m -241485.30 0 a 241485.30 241485.30 0 1 1 482970.60 0a 241485.30 241485.30 0 1 1 -482970.60 0M 19112121.99 21789173.85 m -516869.15 0 a 516869.15 516869.15 0 1 1 1033738.30 0a 516869.15 516869.15 0 1 1 -1033738.30 0M 3234449.50 26567701.23 m -593397.28 0 a 593397.28 593397.28 0 1 1 1186794.56 0a 593397.28 593397.28 0 1 1 -1186794.56 0M 3064878.49 27834664.70 m -241485.30 0 a 241485.30 241485.30 0 1 1 482970.60 0a 241485.30 241485.30 0 1 1 -482970.60 0M 5033378.49 27834664.70 m -241485.30 0 a 241485.30 241485.30 0 1 1 482970.60 0a 241485.30 241485.30 0 1 1 -482970.60 0M 3147561.99 29286033.85 m -516869.15 0 a 516869.15 516869.15 0 1 1 1033738.30 0a 516869.15 516869.15 0 1 1 -1033738.30 0M 4147551.50 31286056.47 m -791195.52 0 a 791195.52 791195.52 0 1 1 1582391.05 0a 791195.52 791195.52 0 1 1 -1582391.05 0M 2147551.50 31286058.96 m -336246.32 0 a 336246.32 336246.32 0 1 1 672492.64 0a 336246.32 336246.32 0 1 1 -672492.64 0M 5915268.50 23789199.96 m -336246.32 0 a 336246.32 336246.32 0 1 1 672492.64 0a 336246.32 336246.32 0 1 1 -672492.64 0M 7915268.50 23789197.47 m -791195.52 0 a 791195.52 791195.52 0 1 1 1582391.05 0a 791195.52 791195.52 0 1 1 -1582391.05 0M 8545190.00 26545087.00 L 7285348.00 26545087.00 L 7285348.00 25442724.00 L 8545190.00 25442724.00 L 8545190.00 26545087.00  zM 5647561.99 30286033.85 m -516869.15 0 a 516869.15 516869.15 0 1 1 1033738.30 0a 516869.15 516869.15 0 1 1 -1033738.30 0M 6147551.50 31286058.96 m -336246.32 0 a 336246.32 336246.32 0 1 1 672492.64 0a 336246.32 336246.32 0 1 1 -672492.64 0M 10612118.50 31286058.96 m -336246.32 0 a 336246.32 336246.32 0 1 1 672492.64 0a 336246.32 336246.32 0 1 1 -672492.64 0M 12631109.50 26560649.23 m -593397.28 0 a 593397.28 593397.28 0 1 1 1186794.56 0a 593397.28 593397.28 0 1 1 -1186794.56 0M 11612118.49 27834664.70 m -241485.30 0 a 241485.30 241485.30 0 1 1 482970.60 0a 241485.30 241485.30 0 1 1 -482970.60 0M 13580618.49 27834664.70 m -241485.30 0 a 241485.30 241485.30 0 1 1 482970.60 0a 241485.30 241485.30 0 1 1 -482970.60 0M 11612121.99 29286033.85 m -516869.15 0 a 516869.15 516869.15 0 1 1 1033738.30 0a 516869.15 516869.15 0 1 1 -1033738.30 0M 12612118.50 31286056.47 m -791195.52 0 a 791195.52 791195.52 0 1 1 1582391.05 0a 791195.52 791195.52 0 1 1 -1582391.05 0M 14112121.99 30286033.85 m -516869.15 0 a 516869.15 516869.15 0 1 1 1033738.30 0a 516869.15 516869.15 0 1 1 -1033738.30 0M 18112118.50 23789199.96 m -336246.32 0 a 336246.32 336246.32 0 1 1 672492.64 0a 336246.32 336246.32 0 1 1 -672492.64 0M 20112118.50 23789197.47 m -791195.52 0 a 791195.52 791195.52 0 1 1 1582391.05 0a 791195.52 791195.52 0 1 1 -1582391.05 0M 20742040.00 26545087.00 L 19482198.00 26545087.00 L 19482198.00 25442724.00 L 20742040.00 25442724.00 L 20742040.00 26545087.00  zM 14612118.50 31286058.96 m -336246.32 0 a 336246.32 336246.32 0 1 1 672492.64 0a 336246.32 336246.32 0 1 1 -672492.64 0M 19111298.49 27834644.70 m -241485.30 0 a 241485.30 241485.30 0 1 1 482970.60 0a 241485.30 241485.30 0 1 1 -482970.60 0M 19112121.99 29289173.85 m -516869.15 0 a 516869.15 516869.15 0 1 1 1033738.30 0a 516869.15 516869.15 0 1 1 -1033738.30 0M 21062978.49 12893704.70 m -241485.30 0 a 241485.30 241485.30 0 1 1 482970.60 0a 241485.30 241485.30 0 1 1 -482970.60 0M 21612121.99 15289173.85 m -516869.15 0 a 516869.15 516869.15 0 1 1 1033738.30 0a 516869.15 516869.15 0 1 1 -1033738.30 0M 22112118.50 16289199.96 m -336246.32 0 a 336246.32 336246.32 0 1 1 672492.64 0a 336246.32 336246.32 0 1 1 -672492.64 0M 20112118.50 16289197.47 m -791195.52 0 a 791195.52 791195.52 0 1 1 1582391.05 0a 791195.52 791195.52 0 1 1 -1582391.05 0M 20742040.00 19045087.00 L 19482198.00 19045087.00 L 19482198.00 17942724.00 L 20742040.00 17942724.00 L 20742040.00 19045087.00  zM 21062978.49 20374024.70 m -241485.30 0 a 241485.30 241485.30 0 1 1 482970.60 0a 241485.30 241485.30 0 1 1 -482970.60 0M 30422469.50 13058388.12 m -751635.34 0 a 751635.34 751635.34 0 1 1 1503270.69 0a 751635.34 751635.34 0 1 1 -1503270.69 0M 33112118.50 16289199.96 m -336246.32 0 a 336246.32 336246.32 0 1 1 672492.64 0a 336246.32 336246.32 0 1 1 -672492.64 0M 30431299.50 19067701.23 m -593397.28 0 a 593397.28 593397.28 0 1 1 1186794.56 0a 593397.28 593397.28 0 1 1 -1186794.56 0M 26673218.49 20374024.70 m -241485.30 0 a 241485.30 241485.30 0 1 1 482970.60 0a 241485.30 241485.30 0 1 1 -482970.60 0M 26612121.99 21789173.85 m -516869.15 0 a 516869.15 516869.15 0 1 1 1033738.30 0a 516869.15 516869.15 0 1 1 -1033738.30 0M 28641718.49 20374024.70 m -241485.30 0 a 241485.30 241485.30 0 1 1 482970.60 0a 241485.30 241485.30 0 1 1 -482970.60 0M 34153538.49 12893704.70 m -241485.30 0 a 241485.30 241485.30 0 1 1 482970.60 0a 241485.30 241485.30 0 1 1 -482970.60 0M 34112121.99 14289173.85 m -516869.15 0 a 516869.15 516869.15 0 1 1 1033738.30 0a 516869.15 516869.15 0 1 1 -1033738.30 0M 35112118.50 16289197.47 m -791195.52 0 a 791195.52 791195.52 0 1 1 1582391.05 0a 791195.52 791195.52 0 1 1 -1582391.05 0M 36122038.49 12893704.70 m -241485.30 0 a 241485.30 241485.30 0 1 1 482970.60 0a 241485.30 241485.30 0 1 1 -482970.60 0M 36612121.99 15289173.85 m -516869.15 0 a 516869.15 516869.15 0 1 1 1033738.30 0a 516869.15 516869.15 0 1 1 -1033738.30 0M 39823707.50 13066269.47 m -791195.52 0 a 791195.52 791195.52 0 1 1 1582391.05 0a 791195.52 791195.52 0 1 1 -1582391.05 0M 35742040.00 19045087.00 L 34482198.00 19045087.00 L 34482198.00 17942724.00 L 35742040.00 17942724.00 L 35742040.00 19045087.00  zM 34153538.49 20374024.70 m -241485.30 0 a 241485.30 241485.30 0 1 1 482970.60 0a 241485.30 241485.30 0 1 1 -482970.60 0M 34112121.99 21789173.85 m -516869.15 0 a 516869.15 516869.15 0 1 1 1033738.30 0a 516869.15 516869.15 0 1 1 -1033738.30 0M 37112118.50 16289199.96 m -336246.32 0 a 336246.32 336246.32 0 1 1 672492.64 0a 336246.32 336246.32 0 1 1 -672492.64 0M 39827959.50 19060649.23 m -593397.28 0 a 593397.28 593397.28 0 1 1 1186794.56 0a 593397.28 593397.28 0 1 1 -1186794.56 0M 36122038.49 20374024.70 m -241485.30 0 a 241485.30 241485.30 0 1 1 482970.60 0a 241485.30 241485.30 0 1 1 -482970.60 0M 21612121.99 22789173.85 m -516869.15 0 a 516869.15 516869.15 0 1 1 1033738.30 0a 516869.15 516869.15 0 1 1 -1033738.30 0M 22112118.50 23789199.96 m -336246.32 0 a 336246.32 336246.32 0 1 1 672492.64 0a 336246.32 336246.32 0 1 1 -672492.64 0M 25612118.50 23789199.96 m -336246.32 0 a 336246.32 336246.32 0 1 1 672492.64 0a 336246.32 336246.32 0 1 1 -672492.64 0M 27612118.50 23789197.47 m -791195.52 0 a 791195.52 791195.52 0 1 1 1582391.05 0a 791195.52 791195.52 0 1 1 -1582391.05 0M 29112121.99 22789173.85 m -516869.15 0 a 516869.15 516869.15 0 1 1 1033738.30 0a 516869.15 516869.15 0 1 1 -1033738.30 0M 28242040.00 26545087.00 L 26982198.00 26545087.00 L 26982198.00 25442724.00 L 28242040.00 25442724.00 L 28242040.00 26545087.00  zM 21079798.49 27834644.70 m -241485.30 0 a 241485.30 241485.30 0 1 1 482970.60 0a 241485.30 241485.30 0 1 1 -482970.60 0M 21612121.99 30289173.85 m -516869.15 0 a 516869.15 516869.15 0 1 1 1033738.30 0a 516869.15 516869.15 0 1 1 -1033738.30 0M 26529438.49 27834644.70 m -241485.30 0 a 241485.30 241485.30 0 1 1 482970.60 0a 241485.30 241485.30 0 1 1 -482970.60 0M 26612121.99 29289173.85 m -516869.15 0 a 516869.15 516869.15 0 1 1 1033738.30 0a 516869.15 516869.15 0 1 1 -1033738.30 0M 28497938.49 27834644.70 m -241485.30 0 a 241485.30 241485.30 0 1 1 482970.60 0a 241485.30 241485.30 0 1 1 -482970.60 0M 27612118.50 31289197.47 m -791195.52 0 a 791195.52 791195.52 0 1 1 1582391.05 0a 791195.52 791195.52 0 1 1 -1582391.05 0M 29612118.50 23789199.96 m -336246.32 0 a 336246.32 336246.32 0 1 1 672492.64 0a 336246.32 336246.32 0 1 1 -672492.64 0M 33112118.50 23789199.96 m -336246.32 0 a 336246.32 336246.32 0 1 1 672492.64 0a 336246.32 336246.32 0 1 1 -672492.64 0M 35742040.00 26545087.00 L 34482198.00 26545087.00 L 34482198.00 25442724.00 L 35742040.00 25442724.00 L 35742040.00 26545087.00  zM 35112118.50 23789197.47 m -791195.52 0 a 791195.52 791195.52 0 1 1 1582391.05 0a 791195.52 791195.52 0 1 1 -1582391.05 0M 36612121.99 22789173.85 m -516869.15 0 a 516869.15 516869.15 0 1 1 1033738.30 0a 516869.15 516869.15 0 1 1 -1033738.30 0M 37112118.50 23789199.96 m -336246.32 0 a 336246.32 336246.32 0 1 1 672492.64 0a 336246.32 336246.32 0 1 1 -672492.64 0M 29112121.99 30289173.85 m -516869.15 0 a 516869.15 516869.15 0 1 1 1033738.30 0a 516869.15 516869.15 0 1 1 -1033738.30 0M 34029438.49 27834644.70 m -241485.30 0 a 241485.30 241485.30 0 1 1 482970.60 0a 241485.30 241485.30 0 1 1 -482970.60 0M 34112121.99 29289173.85 m -516869.15 0 a 516869.15 516869.15 0 1 1 1033738.30 0a 516869.15 516869.15 0 1 1 -1033738.30 0M 35997938.49 27834644.70 m -241485.30 0 a 241485.30 241485.30 0 1 1 482970.60 0a 241485.30 241485.30 0 1 1 -482970.60 0M 36612121.99 30289173.85 m -516869.15 0 a 516869.15 516869.15 0 1 1 1033738.30 0a 516869.15 516869.15 0 1 1 -1033738.30 0M 35112118.50 31289197.47 m -791195.52 0 a 791195.52 791195.52 0 1 1 1582391.05 0a 791195.52 791195.52 0 1 1 -1582391.05 0M 4777473.00 34041946.00 L 3517631.00 34041946.00 L 3517631.00 32939583.00 L 4777473.00 32939583.00 L 4777473.00 34041946.00  zM 3084558.49 35354344.70 m -241485.30 0 a 241485.30 241485.30 0 1 1 482970.60 0a 241485.30 241485.30 0 1 1 -482970.60 0M 3147561.99 36786033.85 m -516869.15 0 a 516869.15 516869.15 0 1 1 1033738.30 0a 516869.15 516869.15 0 1 1 -1033738.30 0M 2147551.50 38786058.96 m -336246.32 0 a 336246.32 336246.32 0 1 1 672492.64 0a 336246.32 336246.32 0 1 1 -672492.64 0M 4147551.50 38786056.47 m -791195.52 0 a 791195.52 791195.52 0 1 1 1582391.05 0a 791195.52 791195.52 0 1 1 -1582391.05 0M 4777473.00 41541946.00 L 3517631.00 41541946.00 L 3517631.00 40439583.00 L 4777473.00 40439583.00 L 4777473.00 41541946.00  zM 5053058.49 35354344.70 m -241485.30 0 a 241485.30 241485.30 0 1 1 482970.60 0a 241485.30 241485.30 0 1 1 -482970.60 0M 5647561.99 37786033.85 m -516869.15 0 a 516869.15 516869.15 0 1 1 1033738.30 0a 516869.15 516869.15 0 1 1 -1033738.30 0M 6147551.50 38786058.96 m -336246.32 0 a 336246.32 336246.32 0 1 1 672492.64 0a 336246.32 336246.32 0 1 1 -672492.64 0M 11612118.49 35354344.70 m -241485.30 0 a 241485.30 241485.30 0 1 1 482970.60 0a 241485.30 241485.30 0 1 1 -482970.60 0M 11612121.99 36786033.85 m -516869.15 0 a 516869.15 516869.15 0 1 1 1033738.30 0a 516869.15 516869.15 0 1 1 -1033738.30 0M 10612118.50 38786058.96 m -336246.32 0 a 336246.32 336246.32 0 1 1 672492.64 0a 336246.32 336246.32 0 1 1 -672492.64 0M 3083738.49 42834664.70 m -241485.30 0 a 241485.30 241485.30 0 1 1 482970.60 0a 241485.30 241485.30 0 1 1 -482970.60 0M 3146741.99 44286133.85 m -516869.15 0 a 516869.15 516869.15 0 1 1 1033738.30 0a 516869.15 516869.15 0 1 1 -1033738.30 0M 5052238.49 42834664.70 m -241485.30 0 a 241485.30 241485.30 0 1 1 482970.60 0a 241485.30 241485.30 0 1 1 -482970.60 0M 2146731.50 46286147.96 m -336246.32 0 a 336246.32 336246.32 0 1 1 672492.64 0a 336246.32 336246.32 0 1 1 -672492.64 0M 4146731.50 46286145.47 m -791195.52 0 a 791195.52 791195.52 0 1 1 1582391.05 0a 791195.52 791195.52 0 1 1 -1582391.05 0M 4776653.00 49042035.00 L 3516811.00 49042035.00 L 3516811.00 47939672.00 L 4776653.00 47939672.00 L 4776653.00 49042035.00  zM 5646741.99 45286133.85 m -516869.15 0 a 516869.15 516869.15 0 1 1 1033738.30 0a 516869.15 516869.15 0 1 1 -1033738.30 0M 11611298.49 42834664.70 m -241485.30 0 a 241485.30 241485.30 0 1 1 482970.60 0a 241485.30 241485.30 0 1 1 -482970.60 0M 11611301.99 44286133.85 m -516869.15 0 a 516869.15 516869.15 0 1 1 1033738.30 0a 516869.15 516869.15 0 1 1 -1033738.30 0M 6146731.50 46286147.96 m -336246.32 0 a 336246.32 336246.32 0 1 1 672492.64 0a 336246.32 336246.32 0 1 1 -672492.64 0M 8366141.50 48917343.72 m -988993.77 0 a 988993.77 988993.77 0 1 1 1977987.53 0a 988993.77 988993.77 0 1 1 -1977987.53 0M 10611298.50 46286147.96 m -336246.32 0 a 336246.32 336246.32 0 1 1 672492.64 0a 336246.32 336246.32 0 1 1 -672492.64 0M 13242040.00 34041946.00 L 11982198.00 34041946.00 L 11982198.00 32939583.00 L 13242040.00 32939583.00 L 13242040.00 34041946.00  zM 13580618.49 35354344.70 m -241485.30 0 a 241485.30 241485.30 0 1 1 482970.60 0a 241485.30 241485.30 0 1 1 -482970.60 0M 14112121.99 37786033.85 m -516869.15 0 a 516869.15 516869.15 0 1 1 1033738.30 0a 516869.15 516869.15 0 1 1 -1033738.30 0M 12612118.50 38786056.47 m -791195.52 0 a 791195.52 791195.52 0 1 1 1582391.05 0a 791195.52 791195.52 0 1 1 -1582391.05 0M 14612118.50 38786058.96 m -336246.32 0 a 336246.32 336246.32 0 1 1 672492.64 0a 336246.32 336246.32 0 1 1 -672492.64 0M 18112118.50 38789199.96 m -336246.32 0 a 336246.32 336246.32 0 1 1 672492.64 0a 336246.32 336246.32 0 1 1 -672492.64 0M 18112118.50 31289199.96 m -336246.32 0 a 336246.32 336246.32 0 1 1 672492.64 0a 336246.32 336246.32 0 1 1 -672492.64 0M 20112118.50 31289197.47 m -791195.52 0 a 791195.52 791195.52 0 1 1 1582391.05 0a 791195.52 791195.52 0 1 1 -1582391.05 0M 20742040.00 34045087.00 L 19482198.00 34045087.00 L 19482198.00 32942724.00 L 20742040.00 32942724.00 L 20742040.00 34045087.00  zM 19111298.49 35354344.70 m -241485.30 0 a 241485.30 241485.30 0 1 1 482970.60 0a 241485.30 241485.30 0 1 1 -482970.60 0M 19112121.99 36789173.85 m -516869.15 0 a 516869.15 516869.15 0 1 1 1033738.30 0a 516869.15 516869.15 0 1 1 -1033738.30 0M 20112118.50 38789197.47 m -791195.52 0 a 791195.52 791195.52 0 1 1 1582391.05 0a 791195.52 791195.52 0 1 1 -1582391.05 0M 13242040.00 41541946.00 L 11982198.00 41541946.00 L 11982198.00 40439583.00 L 13242040.00 40439583.00 L 13242040.00 41541946.00  zM 13579798.49 42834664.70 m -241485.30 0 a 241485.30 241485.30 0 1 1 482970.60 0a 241485.30 241485.30 0 1 1 -482970.60 0M 14111301.99 45286133.85 m -516869.15 0 a 516869.15 516869.15 0 1 1 1033738.30 0a 516869.15 516869.15 0 1 1 -1033738.30 0M 12611298.50 46286145.47 m -791195.52 0 a 791195.52 791195.52 0 1 1 1582391.05 0a 791195.52 791195.52 0 1 1 -1582391.05 0M 14611298.50 46286147.96 m -336246.32 0 a 336246.32 336246.32 0 1 1 672492.64 0a 336246.32 336246.32 0 1 1 -672492.64 0M 13241220.00 49042035.00 L 11981378.00 49042035.00 L 11981378.00 47939672.00 L 13241220.00 47939672.00 L 13241220.00 49042035.00  zM 20742040.00 41545087.00 L 19482198.00 41545087.00 L 19482198.00 40442724.00 L 20742040.00 40442724.00 L 20742040.00 41545087.00  zM 19048298.49 42834644.70 m -241485.30 0 a 241485.30 241485.30 0 1 1 482970.60 0a 241485.30 241485.30 0 1 1 -482970.60 0M 19111301.99 44289273.85 m -516869.15 0 a 516869.15 516869.15 0 1 1 1033738.30 0a 516869.15 516869.15 0 1 1 -1033738.30 0M 18111298.50 46289288.96 m -336246.32 0 a 336246.32 336246.32 0 1 1 672492.64 0a 336246.32 336246.32 0 1 1 -672492.64 0M 20111298.50 46289286.47 m -791195.52 0 a 791195.52 791195.52 0 1 1 1582391.05 0a 791195.52 791195.52 0 1 1 -1582391.05 0M 20741220.00 49045176.00 L 19481378.00 49045176.00 L 19481378.00 47942813.00 L 20741220.00 47942813.00 L 20741220.00 49045176.00  zM 22112118.50 31289199.96 m -336246.32 0 a 336246.32 336246.32 0 1 1 672492.64 0a 336246.32 336246.32 0 1 1 -672492.64 0M 21079798.49 35354344.70 m -241485.30 0 a 241485.30 241485.30 0 1 1 482970.60 0a 241485.30 241485.30 0 1 1 -482970.60 0M 25612118.50 31289199.96 m -336246.32 0 a 336246.32 336246.32 0 1 1 672492.64 0a 336246.32 336246.32 0 1 1 -672492.64 0M 21612121.99 37789173.85 m -516869.15 0 a 516869.15 516869.15 0 1 1 1033738.30 0a 516869.15 516869.15 0 1 1 -1033738.30 0M 22112118.50 38789199.96 m -336246.32 0 a 336246.32 336246.32 0 1 1 672492.64 0a 336246.32 336246.32 0 1 1 -672492.64 0M 25612118.50 38789199.96 m -336246.32 0 a 336246.32 336246.32 0 1 1 672492.64 0a 336246.32 336246.32 0 1 1 -672492.64 0M 28242040.00 34045087.00 L 26982198.00 34045087.00 L 26982198.00 32942724.00 L 28242040.00 32942724.00 L 28242040.00 34045087.00  zM 28517638.49 35354344.70 m -241485.30 0 a 241485.30 241485.30 0 1 1 482970.60 0a 241485.30 241485.30 0 1 1 -482970.60 0M 26549118.49 35354344.70 m -241485.30 0 a 241485.30 241485.30 0 1 1 482970.60 0a 241485.30 241485.30 0 1 1 -482970.60 0M 26612121.99 36789173.85 m -516869.15 0 a 516869.15 516869.15 0 1 1 1033738.30 0a 516869.15 516869.15 0 1 1 -1033738.30 0M 27612118.50 38789197.47 m -791195.52 0 a 791195.52 791195.52 0 1 1 1582391.05 0a 791195.52 791195.52 0 1 1 -1582391.05 0M 29112121.99 37789173.85 m -516869.15 0 a 516869.15 516869.15 0 1 1 1033738.30 0a 516869.15 516869.15 0 1 1 -1033738.30 0M 29612118.50 31289199.96 m -336246.32 0 a 336246.32 336246.32 0 1 1 672492.64 0a 336246.32 336246.32 0 1 1 -672492.64 0M 33112118.50 31289199.96 m -336246.32 0 a 336246.32 336246.32 0 1 1 672492.64 0a 336246.32 336246.32 0 1 1 -672492.64 0M 31397637.50 34940965.72 m -988993.77 0 a 988993.77 988993.77 0 1 1 1977987.53 0a 988993.77 988993.77 0 1 1 -1977987.53 0M 37112118.50 31289199.96 m -336246.32 0 a 336246.32 336246.32 0 1 1 672492.64 0a 336246.32 336246.32 0 1 1 -672492.64 0M 35742040.00 34045087.00 L 34482198.00 34045087.00 L 34482198.00 32942724.00 L 35742040.00 32942724.00 L 35742040.00 34045087.00  zM 34111298.49 35354344.70 m -241485.30 0 a 241485.30 241485.30 0 1 1 482970.60 0a 241485.30 241485.30 0 1 1 -482970.60 0M 34112121.99 36789173.85 m -516869.15 0 a 516869.15 516869.15 0 1 1 1033738.30 0a 516869.15 516869.15 0 1 1 -1033738.30 0M 33112118.50 38789199.96 m -336246.32 0 a 336246.32 336246.32 0 1 1 672492.64 0a 336246.32 336246.32 0 1 1 -672492.64 0M 35112118.50 38789197.47 m -791195.52 0 a 791195.52 791195.52 0 1 1 1582391.05 0a 791195.52 791195.52 0 1 1 -1582391.05 0M 36079798.49 35354344.70 m -241485.30 0 a 241485.30 241485.30 0 1 1 482970.60 0a 241485.30 241485.30 0 1 1 -482970.60 0M 36612121.99 37789173.85 m -516869.15 0 a 516869.15 516869.15 0 1 1 1033738.30 0a 516869.15 516869.15 0 1 1 -1033738.30 0M 37112118.50 38789199.96 m -336246.32 0 a 336246.32 336246.32 0 1 1 672492.64 0a 336246.32 336246.32 0 1 1 -672492.64 0M 21016818.49 42834644.70 m -241485.30 0 a 241485.30 241485.30 0 1 1 482970.60 0a 241485.30 241485.30 0 1 1 -482970.60 0M 21611301.99 45289273.85 m -516869.15 0 a 516869.15 516869.15 0 1 1 1033738.30 0a 516869.15 516869.15 0 1 1 -1033738.30 0M 22111298.50 46289288.96 m -336246.32 0 a 336246.32 336246.32 0 1 1 672492.64 0a 336246.32 336246.32 0 1 1 -672492.64 0M 26653538.49 42834644.70 m -241485.30 0 a 241485.30 241485.30 0 1 1 482970.60 0a 241485.30 241485.30 0 1 1 -482970.60 0M 26611301.99 44289273.85 m -516869.15 0 a 516869.15 516869.15 0 1 1 1033738.30 0a 516869.15 516869.15 0 1 1 -1033738.30 0M 25611298.50 46289288.96 m -336246.32 0 a 336246.32 336246.32 0 1 1 672492.64 0a 336246.32 336246.32 0 1 1 -672492.64 0M 28242040.00 41545087.00 L 26982198.00 41545087.00 L 26982198.00 40442724.00 L 28242040.00 40442724.00 L 28242040.00 41545087.00  zM 28622038.49 42834644.70 m -241485.30 0 a 241485.30 241485.30 0 1 1 482970.60 0a 241485.30 241485.30 0 1 1 -482970.60 0M 29111301.99 45289273.85 m -516869.15 0 a 516869.15 516869.15 0 1 1 1033738.30 0a 516869.15 516869.15 0 1 1 -1033738.30 0M 27611298.50 46289286.47 m -791195.52 0 a 791195.52 791195.52 0 1 1 1582391.05 0a 791195.52 791195.52 0 1 1 -1582391.05 0M 29611298.50 46289288.96 m -336246.32 0 a 336246.32 336246.32 0 1 1 672492.64 0a 336246.32 336246.32 0 1 1 -672492.64 0M 28241220.00 49045176.00 L 26981378.00 49045176.00 L 26981378.00 47942813.00 L 28241220.00 47942813.00 L 28241220.00 49045176.00  zM 29612118.50 38789199.96 m -336246.32 0 a 336246.32 336246.32 0 1 1 672492.64 0a 336246.32 336246.32 0 1 1 -672492.64 0M 34048298.49 42834644.70 m -241485.30 0 a 241485.30 241485.30 0 1 1 482970.60 0a 241485.30 241485.30 0 1 1 -482970.60 0M 30920001.63 44179994.96 m -292507.04 0 a 292507.04 292507.04 0 1 1 585014.09 0a 292507.04 292507.04 0 1 1 -585014.09 0M 34111301.99 44289273.85 m -516869.15 0 a 516869.15 516869.15 0 1 1 1033738.30 0a 516869.15 516869.15 0 1 1 -1033738.30 0M 33111298.50 46289288.96 m -336246.32 0 a 336246.32 336246.32 0 1 1 672492.64 0a 336246.32 336246.32 0 1 1 -672492.64 0M 35741220.00 49045176.00 L 34481378.00 49045176.00 L 34481378.00 47942813.00 L 35741220.00 47942813.00 L 35741220.00 49045176.00  zM 35742040.00 41545087.00 L 34482198.00 41545087.00 L 34482198.00 40442724.00 L 35742040.00 40442724.00 L 35742040.00 41545087.00  zM 36016818.49 42834644.70 m -241485.30 0 a 241485.30 241485.30 0 1 1 482970.60 0a 241485.30 241485.30 0 1 1 -482970.60 0M 36611301.99 45289273.85 m -516869.15 0 a 516869.15 516869.15 0 1 1 1033738.30 0a 516869.15 516869.15 0 1 1 -1033738.30 0M 35111298.50 46289286.47 m -791195.52 0 a 791195.52 791195.52 0 1 1 1582391.05 0a 791195.52 791195.52 0 1 1 -1582391.05 0M 37111298.50 46289288.96 m -336246.32 0 a 336246.32 336246.32 0 1 1 672492.64 0a 336246.32 336246.32 0 1 1 -672492.64 0M 40611298.50 45474528.96 m -336246.32 0 a 336246.32 336246.32 0 1 1 672492.64 0a 336246.32 336246.32 0 1 1 -672492.64 0M 44226361.71 10629912.64 m -241497.09 0 a 241497.09 241497.09 0 1 1 482994.18 0a 241497.09 241497.09 0 1 1 -482994.18 0M 45931121.71 9645672.64 m -241497.09 0 a 241497.09 241497.09 0 1 1 482994.18 0a 241497.09 241497.09 0 1 1 -482994.18 0M 47511742.70 11631428.48 m -516874.52 0 a 516874.52 516874.52 0 1 1 1033749.04 0a 516874.52 516874.52 0 1 1 -1033749.04 0M 50624001.71 6988172.64 m -241497.09 0 a 241497.09 241497.09 0 1 1 482994.18 0a 241497.09 241497.09 0 1 1 -482994.18 0M 51362762.70 8256468.48 m -516874.52 0 a 516874.52 516874.52 0 1 1 1033749.04 0a 516874.52 516874.52 0 1 1 -1033749.04 0M 51496742.81 10488501.84 m -336285.06 0 a 336285.06 336285.06 0 1 1 672570.12 0a 336285.06 336285.06 0 1 1 -672570.12 0M 44846682.70 12015408.48 m -516874.52 0 a 516874.52 516874.52 0 1 1 1033749.04 0a 516874.52 516874.52 0 1 1 -1033749.04 0M 46712709.55 13247442.91 m -791233.53 0 a 791233.53 791233.53 0 1 1 1582467.06 0a 791233.53 791233.53 0 1 1 -1582467.06 0M 48444759.81 12247444.84 m -336285.06 0 a 336285.06 336285.06 0 1 1 672570.12 0a 336285.06 336285.06 0 1 1 -672570.12 0M 44980657.81 14247444.84 m -336285.06 0 a 336285.06 336285.06 0 1 1 672570.12 0a 336285.06 336285.06 0 1 1 -672570.12 0M 47545130.00 15949110.00 L 46993949.00 14994436.00 L 48085004.00 14364515.00 L 48636186.00 15319189.00 L 47545130.00 15949110.00  zM 50360261.71 17913372.64 m -241497.09 0 a 241497.09 241497.09 0 1 1 482994.18 0a 241497.09 241497.09 0 1 1 -482994.18 0M 41535438.49 19488204.70 m -241485.30 0 a 241485.30 241485.30 0 1 1 482970.60 0a 241485.30 241485.30 0 1 1 -482970.60 0M 41612121.99 20974413.85 m -516869.15 0 a 516869.15 516869.15 0 1 1 1033738.30 0a 516869.15 516869.15 0 1 1 -1033738.30 0M 43503938.49 19488204.70 m -241485.30 0 a 241485.30 241485.30 0 1 1 482970.60 0a 241485.30 241485.30 0 1 1 -482970.60 0M 40612118.50 22974439.96 m -336246.32 0 a 336246.32 336246.32 0 1 1 672492.64 0a 336246.32 336246.32 0 1 1 -672492.64 0M 42612118.50 22974437.47 m -791195.52 0 a 791195.52 791195.52 0 1 1 1582391.05 0a 791195.52 791195.52 0 1 1 -1582391.05 0M 43242040.00 25730327.00 L 41982198.00 25730327.00 L 41982198.00 24627964.00 L 43242040.00 24627964.00 L 43242040.00 25730327.00  zM 44112121.99 21974413.85 m -516869.15 0 a 516869.15 516869.15 0 1 1 1033738.30 0a 516869.15 516869.15 0 1 1 -1033738.30 0M 44612118.50 22974439.96 m -336246.32 0 a 336246.32 336246.32 0 1 1 672492.64 0a 336246.32 336246.32 0 1 1 -672492.64 0M 48655501.71 18897632.64 m -241497.09 0 a 241497.09 241497.09 0 1 1 482994.18 0a 241497.09 241497.09 0 1 1 -482994.18 0M 49517742.70 20113468.48 m -516874.52 0 a 516874.52 516874.52 0 1 1 1033749.04 0a 516874.52 516874.52 0 1 1 -1033749.04 0M 49651725.81 22345502.84 m -336285.06 0 a 336285.06 336285.06 0 1 1 672570.12 0a 336285.06 336285.06 0 1 1 -672570.12 0M 51383777.55 21345500.91 m -791233.53 0 a 791233.53 791233.53 0 1 1 1582467.06 0a 791233.53 791233.53 0 1 1 -1582467.06 0M 52328761.71 6003932.64 m -241497.09 0 a 241497.09 241497.09 0 1 1 482994.18 0a 241497.09 241497.09 0 1 1 -482994.18 0M 54027822.70 7872488.48 m -516874.52 0 a 516874.52 516874.52 0 1 1 1033749.04 0a 516874.52 516874.52 0 1 1 -1033749.04 0M 54960844.81 8488501.84 m -336285.06 0 a 336285.06 336285.06 0 1 1 672570.12 0a 336285.06 336285.06 0 1 1 -672570.12 0M 53228794.55 9488499.91 m -791233.53 0 a 791233.53 791233.53 0 1 1 1582467.06 0a 791233.53 791233.53 0 1 1 -1582467.06 0M 54061215.00 12190167.00 L 53510034.00 11235493.00 L 54601089.00 10605572.00 L 55152271.00 11560246.00 L 54061215.00 12190167.00  zM 55413385.50 13188996.72 m -988993.77 0 a 988993.77 988993.77 0 1 1 1977987.53 0a 988993.77 988993.77 0 1 1 -1977987.53 0M 55249981.71 15157472.64 m -241497.09 0 a 241497.09 241497.09 0 1 1 482994.18 0a 241497.09 241497.09 0 1 1 -482994.18 0M 56954741.71 14173212.64 m -241497.09 0 a 241497.09 241497.09 0 1 1 482994.18 0a 241497.09 241497.09 0 1 1 -482994.18 0M 56033842.70 16354428.48 m -516874.52 0 a 516874.52 516874.52 0 1 1 1033749.04 0a 516874.52 516874.52 0 1 1 -1033749.04 0M 58698898.04 15970462.15 m -516859.85 0 a 516859.85 516859.85 0 1 1 1033719.69 0a 516859.85 516859.85 0 1 1 -1033719.69 0M 59631911.81 16586471.84 m -336285.06 0 a 336285.06 336285.06 0 1 1 672570.12 0a 336285.06 336285.06 0 1 1 -672570.12 0M 57899861.55 17586469.91 m -791233.53 0 a 791233.53 791233.53 0 1 1 1582467.06 0a 791233.53 791233.53 0 1 1 -1582467.06 0M 52182822.70 19729488.48 m -516874.52 0 a 516874.52 516874.52 0 1 1 1033749.04 0a 516874.52 516874.52 0 1 1 -1033749.04 0M 53115827.81 20345502.84 m -336285.06 0 a 336285.06 336285.06 0 1 1 672570.12 0a 336285.06 336285.06 0 1 1 -672570.12 0M 56167809.81 18586471.84 m -336285.06 0 a 336285.06 336285.06 0 1 1 672570.12 0a 336285.06 336285.06 0 1 1 -672570.12 0M 52216198.00 24047168.00 L 51665017.00 23092494.00 L 52756072.00 22462573.00 L 53307254.00 23417247.00 L 52216198.00 24047168.00  zM 54036065.00 25335285.00 L 53444255.00 25335285.00 L 53444255.00 24900955.00 L 54036065.00 24900955.00 L 54036065.00 25335285.00  zM 54450001.63 25489994.96 m -292507.04 0 a 292507.04 292507.04 0 1 1 585014.09 0a 292507.04 292507.04 0 1 1 -585014.09 0M 58732282.00 20288137.00 L 58181101.00 19333463.00 L 59272156.00 18703542.00 L 59823338.00 19658216.00 L 58732282.00 20288137.00  zM 60710001.63 17969994.96 m -292507.04 0 a 292507.04 292507.04 0 1 1 585014.09 0a 292507.04 292507.04 0 1 1 -585014.09 0M 62273641.63 19804994.96 m -292507.04 0 a 292507.04 292507.04 0 1 1 585014.09 0a 292507.04 292507.04 0 1 1 -585014.09 0M 61742765.00 20768345.00 L 61308435.00 20768345.00 L 61308435.00 20176535.00 L 61742765.00 20176535.00 L 61742765.00 20768345.00  zM 62490805.00 20768345.00 L 62056475.00 20768345.00 L 62056475.00 20176535.00 L 62490805.00 20176535.00 L 62490805.00 20768345.00  zM 62914005.00 25728985.00 L 62479675.00 25728985.00 L 62479675.00 25452135.00 L 62914005.00 25452135.00 L 62914005.00 25728985.00  zM 41614178.49 27007884.70 m -241485.30 0 a 241485.30 241485.30 0 1 1 482970.60 0a 241485.30 241485.30 0 1 1 -482970.60 0M 41612121.99 28474413.85 m -516869.15 0 a 516869.15 516869.15 0 1 1 1033738.30 0a 516869.15 516869.15 0 1 1 -1033738.30 0M 43582678.49 27007884.70 m -241485.30 0 a 241485.30 241485.30 0 1 1 482970.60 0a 241485.30 241485.30 0 1 1 -482970.60 0M 40612118.50 30474439.96 m -336246.32 0 a 336246.32 336246.32 0 1 1 672492.64 0a 336246.32 336246.32 0 1 1 -672492.64 0M 42612118.50 30474437.47 m -791195.52 0 a 791195.52 791195.52 0 1 1 1582391.05 0a 791195.52 791195.52 0 1 1 -1582391.05 0M 43242040.00 33230327.00 L 41982198.00 33230327.00 L 41982198.00 32127964.00 L 43242040.00 32127964.00 L 43242040.00 33230327.00  zM 44112121.99 29474413.85 m -516869.15 0 a 516869.15 516869.15 0 1 1 1033738.30 0a 516869.15 516869.15 0 1 1 -1033738.30 0M 44612118.50 30474439.96 m -336246.32 0 a 336246.32 336246.32 0 1 1 672492.64 0a 336246.32 336246.32 0 1 1 -672492.64 0M 48112118.50 30474439.96 m -336246.32 0 a 336246.32 336246.32 0 1 1 672492.64 0a 336246.32 336246.32 0 1 1 -672492.64 0M 49048298.49 27007884.70 m -241485.30 0 a 241485.30 241485.30 0 1 1 482970.60 0a 241485.30 241485.30 0 1 1 -482970.60 0M 49620001.63 26689994.96 m -292507.04 0 a 292507.04 292507.04 0 1 1 585014.09 0a 292507.04 292507.04 0 1 1 -585014.09 0M 49112121.99 28474413.85 m -516869.15 0 a 516869.15 516869.15 0 1 1 1033738.30 0a 516869.15 516869.15 0 1 1 -1033738.30 0M 51016818.49 27007884.70 m -241485.30 0 a 241485.30 241485.30 0 1 1 482970.60 0a 241485.30 241485.30 0 1 1 -482970.60 0M 51612121.99 29474413.85 m -516869.15 0 a 516869.15 516869.15 0 1 1 1033738.30 0a 516869.15 516869.15 0 1 1 -1033738.30 0M 50112118.50 30474437.47 m -791195.52 0 a 791195.52 791195.52 0 1 1 1582391.05 0a 791195.52 791195.52 0 1 1 -1582391.05 0M 54036065.00 26083305.00 L 53444255.00 26083305.00 L 53444255.00 25648975.00 L 54036065.00 25648975.00 L 54036065.00 26083305.00  zM 54880001.63 27889994.96 m -292507.04 0 a 292507.04 292507.04 0 1 1 585014.09 0a 292507.04 292507.04 0 1 1 -585014.09 0M 55399961.63 30034434.96 m -292507.04 0 a 292507.04 292507.04 0 1 1 585014.09 0a 292507.04 292507.04 0 1 1 -585014.09 0M 52112118.50 30474439.96 m -336246.32 0 a 336246.32 336246.32 0 1 1 672492.64 0a 336246.32 336246.32 0 1 1 -672492.64 0M 52130001.63 32403554.96 m -292507.04 0 a 292507.04 292507.04 0 1 1 585014.09 0a 292507.04 292507.04 0 1 1 -585014.09 0M 50742040.00 33230327.00 L 49482198.00 33230327.00 L 49482198.00 32127964.00 L 50742040.00 32127964.00 L 50742040.00 33230327.00  zM 56515753.00 33025368.00 L 55944887.00 33025368.00 A 161201.22 161201.22 0 0 1 55883195.00 32715223.00 L 55926144.62 32706680.00 L 55883195.00 32698137.00 A 161217.26 161217.26 0 0 1 55883195.00 32400263.00 L 55926144.62 32391720.00 L 55883195.00 32383177.00 A 161217.26 161217.26 0 0 1 55883195.00 32085303.00 L 55926144.62 32076760.00 L 55883195.00 32068217.00 A 161217.26 161217.26 0 0 1 55883195.00 31770343.00 L 55926144.62 31761800.00 L 55883195.00 31753257.00 A 161217.26 161217.26 0 0 1 55883195.00 31455383.00 L 55926144.62 31446840.00 L 55883195.00 31438297.00 A 161217.26 161217.26 0 0 1 55883195.00 31140423.00 L 55926144.62 31131880.00 L 55883195.00 31123337.00 A 161217.26 161217.26 0 0 1 55883195.00 30825463.00 L 55926144.62 30816920.00 L 55883195.00 30808377.00 A 161217.26 161217.26 0 0 1 55883195.00 30510503.00 L 55926144.62 30501960.00 L 55883195.00 30493417.00 A 161217.26 161217.26 0 0 1 55883195.00 30195543.00 L 55926144.62 30187000.00 L 55883195.00 30178457.00 A 161217.26 161217.26 0 0 1 55883195.00 29880583.00 L 55926144.62 29872040.00 L 55883195.00 29863497.00 A 161217.26 161217.26 0 0 1 55944887.00 29553352.00 L 56515753.00 29553352.00 A 161201.22 161201.22 0 0 1 56577445.00 29863497.00 L 56534495.38 29872040.00 L 56577445.00 29880583.00 A 161217.26 161217.26 0 0 1 56577445.00 30178457.00 L 56534495.38 30187000.00 L 56577445.00 30195543.00 A 161217.26 161217.26 0 0 1 56577445.00 30493417.00 L 56534495.38 30501960.00 L 56577445.00 30510503.00 A 161217.26 161217.26 0 0 1 56577445.00 30808377.00 L 56534495.38 30816920.00 L 56577445.00 30825463.00 A 161217.26 161217.26 0 0 1 56577445.00 31123337.00 L 56534495.38 31131880.00 L 56577445.00 31140423.00 A 161217.26 161217.26 0 0 1 56577445.00 31438297.00 L 56534495.38 31446840.00 L 56577445.00 31455383.00 A 161217.26 161217.26 0 0 1 56577445.00 31753257.00 L 56534495.38 31761800.00 L 56577445.00 31770343.00 A 161217.26 161217.26 0 0 1 56577445.00 32068217.00 L 56534495.38 32076760.00 L 56577445.00 32085303.00 A 161217.26 161217.26 0 0 1 56577445.00 32383177.00 L 56534495.38 32391720.00 L 56577445.00 32400263.00 A 161217.26 161217.26 0 0 1 56577445.00 32698137.00 L 56534495.38 32706680.00 L 56577445.00 32715223.00 A 161217.26 161217.26 0 0 1 56515753.00 33025368.00  zM 54429765.00 32323465.00 L 53837955.00 32323465.00 L 53837955.00 31889135.00 L 54429765.00 31889135.00 L 54429765.00 32323465.00  zM 54429765.00 33071485.00 L 53837955.00 33071485.00 L 53837955.00 32637155.00 L 54429765.00 32637155.00 L 54429765.00 33071485.00  zM 57045904.00 26463238.00 L 56713936.00 26463238.00 L 56713936.00 25769062.00 L 57045904.00 25769062.00 L 57045904.00 26463238.00  zM 58425050.00 25925825.00 L 57951350.00 25925825.00 L 57951350.00 25334015.00 L 58425050.00 25334015.00 L 58425050.00 25925825.00  zM 59035270.00 25925825.00 L 58561570.00 25925825.00 L 58561570.00 25334015.00 L 59035270.00 25334015.00 L 59035270.00 25925825.00  zM 56420001.63 28069994.96 m -292507.04 0 a 292507.04 292507.04 0 1 1 585014.09 0a 292507.04 292507.04 0 1 1 -585014.09 0M 58425050.00 26811645.00 L 57951350.00 26811645.00 L 57951350.00 26219835.00 L 58425050.00 26219835.00 L 58425050.00 26811645.00  zM 59035270.00 26811645.00 L 58561570.00 26811645.00 L 58561570.00 26219835.00 L 59035270.00 26219835.00 L 59035270.00 26811645.00  zM 60106924.00 26429758.00 L 59774956.00 26429758.00 L 59774956.00 25735602.00 L 60106924.00 25735602.00 L 60106924.00 26429758.00  zM 59360001.63 28234994.96 m -292507.04 0 a 292507.04 292507.04 0 1 1 585014.09 0a 292507.04 292507.04 0 1 1 -585014.09 0M 62185665.00 28898275.00 L 61436375.00 28898275.00 L 61436375.00 28385205.00 L 62185665.00 28385205.00 L 62185665.00 28898275.00  zM 62914005.00 26319525.00 L 62479675.00 26319525.00 L 62479675.00 26042675.00 L 62914005.00 26042675.00 L 62914005.00 26319525.00  zM 62185665.00 27874655.00 L 61436375.00 27874655.00 L 61436375.00 27361585.00 L 62185665.00 27361585.00 L 62185665.00 27874655.00  zM 63260001.63 28603114.96 m -292507.04 0 a 292507.04 292507.04 0 1 1 585014.09 0a 292507.04 292507.04 0 1 1 -585014.09 0M 58212611.63 29921254.96 m -292507.04 0 a 292507.04 292507.04 0 1 1 585014.09 0a 292507.04 292507.04 0 1 1 -585014.09 0M 58464568.63 31102356.96 m -292507.04 0 a 292507.04 292507.04 0 1 1 585014.09 0a 292507.04 292507.04 0 1 1 -585014.09 0M 59900283.00 29392385.00 L 59891740.00 29349435.38 L 59883197.00 29392385.00 A 161217.26 161217.26 0 0 1 59585323.00 29392385.00 L 59576780.00 29349435.38 L 59568237.00 29392385.00 A 161217.26 161217.26 0 0 1 59270363.00 29392385.00 L 59261820.00 29349435.38 L 59253277.00 29392385.00 A 161217.26 161217.26 0 0 1 58955403.00 29392385.00 L 58946860.00 29349435.38 L 58938317.00 29392385.00 A 161217.26 161217.26 0 0 1 58640443.00 29392385.00 L 58631900.00 29349435.38 L 58623357.00 29392385.00 A 161217.26 161217.26 0 0 1 58325483.00 29392385.00 L 58316940.00 29349435.38 L 58308397.00 29392385.00 A 161217.26 161217.26 0 0 1 58010523.00 29392385.00 L 58001980.00 29349435.38 L 57993437.00 29392385.00 A 161217.26 161217.26 0 0 1 57695563.00 29392385.00 L 57687020.00 29349435.38 L 57678477.00 29392385.00 A 161217.26 161217.26 0 0 1 57380603.00 29392385.00 L 57372060.00 29349435.38 L 57363517.00 29392385.00 A 161217.26 161217.26 0 0 1 57065643.00 29392385.00 L 57057100.00 29349435.38 L 57048557.00 29392385.00 A 161217.26 161217.26 0 0 1 56738412.00 29330693.00 L 56738412.00 28759827.00 A 161201.22 161201.22 0 0 1 57048557.00 28698135.00 L 57057100.00 28741084.62 L 57065643.00 28698135.00 A 161217.26 161217.26 0 0 1 57363517.00 28698135.00 L 57372060.00 28741084.62 L 57380603.00 28698135.00 A 161217.26 161217.26 0 0 1 57678477.00 28698135.00 L 57687020.00 28741084.62 L 57695563.00 28698135.00 A 161217.26 161217.26 0 0 1 57993437.00 28698135.00 L 58001980.00 28741084.62 L 58010523.00 28698135.00 A 161217.26 161217.26 0 0 1 58308397.00 28698135.00 L 58316940.00 28741084.62 L 58325483.00 28698135.00 A 161217.26 161217.26 0 0 1 58623357.00 28698135.00 L 58631900.00 28741084.62 L 58640443.00 28698135.00 A 161217.26 161217.26 0 0 1 58938317.00 28698135.00 L 58946860.00 28741084.62 L 58955403.00 28698135.00 A 161217.26 161217.26 0 0 1 59253277.00 28698135.00 L 59261820.00 28741084.62 L 59270363.00 28698135.00 A 161217.26 161217.26 0 0 1 59568237.00 28698135.00 L 59576780.00 28741084.62 L 59585323.00 28698135.00 A 161217.26 161217.26 0 0 1 59883197.00 28698135.00 L 59891740.00 28741084.62 L 59900283.00 28698135.00 A 161217.26 161217.26 0 0 1 60210428.00 28759827.00 L 60210428.00 29330693.00 A 161201.22 161201.22 0 0 1 59900283.00 29392385.00  zM 57169341.63 31111294.96 m -292507.04 0 a 292507.04 292507.04 0 1 1 585014.09 0a 292507.04 292507.04 0 1 1 -585014.09 0M 57677166.63 32287384.96 m -292507.04 0 a 292507.04 292507.04 0 1 1 585014.09 0a 292507.04 292507.04 0 1 1 -585014.09 0M 58366143.63 32283459.96 m -292507.04 0 a 292507.04 292507.04 0 1 1 585014.09 0a 292507.04 292507.04 0 1 1 -585014.09 0M 58956694.63 30118104.96 m -292507.04 0 a 292507.04 292507.04 0 1 1 585014.09 0a 292507.04 292507.04 0 1 1 -585014.09 0M 59130001.63 31499994.96 m -292507.04 0 a 292507.04 292507.04 0 1 1 585014.09 0a 292507.04 292507.04 0 1 1 -585014.09 0M 59272465.63 32236224.96 m -292507.04 0 a 292507.04 292507.04 0 1 1 585014.09 0a 292507.04 292507.04 0 1 1 -585014.09 0M 59648540.63 30734246.96 m -292507.04 0 a 292507.04 292507.04 0 1 1 585014.09 0a 292507.04 292507.04 0 1 1 -585014.09 0M 62020001.63 29794994.96 m -292507.04 0 a 292507.04 292507.04 0 1 1 585014.09 0a 292507.04 292507.04 0 1 1 -585014.09 0M 61003953.00 33025368.00 L 60433087.00 33025368.00 A 161201.22 161201.22 0 0 1 60371395.00 32715223.00 L 60414344.62 32706680.00 L 60371395.00 32698137.00 A 161217.26 161217.26 0 0 1 60371395.00 32400263.00 L 60414344.62 32391720.00 L 60371395.00 32383177.00 A 161217.26 161217.26 0 0 1 60371395.00 32085303.00 L 60414344.62 32076760.00 L 60371395.00 32068217.00 A 161217.26 161217.26 0 0 1 60371395.00 31770343.00 L 60414344.62 31761800.00 L 60371395.00 31753257.00 A 161217.26 161217.26 0 0 1 60371395.00 31455383.00 L 60414344.62 31446840.00 L 60371395.00 31438297.00 A 161217.26 161217.26 0 0 1 60371395.00 31140423.00 L 60414344.62 31131880.00 L 60371395.00 31123337.00 A 161217.26 161217.26 0 0 1 60371395.00 30825463.00 L 60414344.62 30816920.00 L 60371395.00 30808377.00 A 161217.26 161217.26 0 0 1 60371395.00 30510503.00 L 60414344.62 30501960.00 L 60371395.00 30493417.00 A 161217.26 161217.26 0 0 1 60371395.00 30195543.00 L 60414344.62 30187000.00 L 60371395.00 30178457.00 A 161217.26 161217.26 0 0 1 60371395.00 29880583.00 L 60414344.62 29872040.00 L 60371395.00 29863497.00 A 161217.26 161217.26 0 0 1 60433087.00 29553352.00 L 61003953.00 29553352.00 A 161201.22 161201.22 0 0 1 61065645.00 29863497.00 L 61022695.38 29872040.00 L 61065645.00 29880583.00 A 161217.26 161217.26 0 0 1 61065645.00 30178457.00 L 61022695.38 30187000.00 L 61065645.00 30195543.00 A 161217.26 161217.26 0 0 1 61065645.00 30493417.00 L 61022695.38 30501960.00 L 61065645.00 30510503.00 A 161217.26 161217.26 0 0 1 61065645.00 30808377.00 L 61022695.38 30816920.00 L 61065645.00 30825463.00 A 161217.26 161217.26 0 0 1 61065645.00 31123337.00 L 61022695.38 31131880.00 L 61065645.00 31140423.00 A 161217.26 161217.26 0 0 1 61065645.00 31438297.00 L 61022695.38 31446840.00 L 61065645.00 31455383.00 A 161217.26 161217.26 0 0 1 61065645.00 31753257.00 L 61022695.38 31761800.00 L 61065645.00 31770343.00 A 161217.26 161217.26 0 0 1 61065645.00 32068217.00 L 61022695.38 32076760.00 L 61065645.00 32085303.00 A 161217.26 161217.26 0 0 1 61065645.00 32383177.00 L 61022695.38 32391720.00 L 61065645.00 32400263.00 A 161217.26 161217.26 0 0 1 61065645.00 32698137.00 L 61022695.38 32706680.00 L 61065645.00 32715223.00 A 161217.26 161217.26 0 0 1 61003953.00 33025368.00  zM 41614178.49 34527564.70 m -241485.30 0 a 241485.30 241485.30 0 1 1 482970.60 0a 241485.30 241485.30 0 1 1 -482970.60 0M 41611301.99 35974513.85 m -516869.15 0 a 516869.15 516869.15 0 1 1 1033738.30 0a 516869.15 516869.15 0 1 1 -1033738.30 0M 43582678.49 34527564.70 m -241485.30 0 a 241485.30 241485.30 0 1 1 482970.60 0a 241485.30 241485.30 0 1 1 -482970.60 0M 40611298.50 37974528.96 m -336246.32 0 a 336246.32 336246.32 0 1 1 672492.64 0a 336246.32 336246.32 0 1 1 -672492.64 0M 42611298.50 37974526.47 m -791195.52 0 a 791195.52 791195.52 0 1 1 1582391.05 0a 791195.52 791195.52 0 1 1 -1582391.05 0M 43241220.00 40730416.00 L 41981378.00 40730416.00 L 41981378.00 39628053.00 L 43241220.00 39628053.00 L 43241220.00 40730416.00  zM 44111301.99 36974513.85 m -516869.15 0 a 516869.15 516869.15 0 1 1 1033738.30 0a 516869.15 516869.15 0 1 1 -1033738.30 0M 44611298.50 37974528.96 m -336246.32 0 a 336246.32 336246.32 0 1 1 672492.64 0a 336246.32 336246.32 0 1 1 -672492.64 0M 48111298.50 37974528.96 m -336246.32 0 a 336246.32 336246.32 0 1 1 672492.64 0a 336246.32 336246.32 0 1 1 -672492.64 0M 49048298.49 34527564.70 m -241485.30 0 a 241485.30 241485.30 0 1 1 482970.60 0a 241485.30 241485.30 0 1 1 -482970.60 0M 49111301.99 35974513.85 m -516869.15 0 a 516869.15 516869.15 0 1 1 1033738.30 0a 516869.15 516869.15 0 1 1 -1033738.30 0M 50111298.50 37974526.47 m -791195.52 0 a 791195.52 791195.52 0 1 1 1582391.05 0a 791195.52 791195.52 0 1 1 -1582391.05 0M 51240001.63 33399994.96 m -292507.04 0 a 292507.04 292507.04 0 1 1 585014.09 0a 292507.04 292507.04 0 1 1 -585014.09 0M 51980001.63 33779994.96 m -292507.04 0 a 292507.04 292507.04 0 1 1 585014.09 0a 292507.04 292507.04 0 1 1 -585014.09 0M 53300001.63 32999994.96 m -292507.04 0 a 292507.04 292507.04 0 1 1 585014.09 0a 292507.04 292507.04 0 1 1 -585014.09 0M 51016818.49 34527564.70 m -241485.30 0 a 241485.30 241485.30 0 1 1 482970.60 0a 241485.30 241485.30 0 1 1 -482970.60 0M 54242763.00 36102995.00 L 53828117.00 36102995.00 L 53828117.00 35747405.00 L 54242763.00 35747405.00 L 54242763.00 36102995.00  zM 54242763.00 36575435.00 L 53828117.00 36575435.00 L 53828117.00 36219845.00 L 54242763.00 36219845.00 L 54242763.00 36575435.00  zM 51611301.99 36974513.85 m -516869.15 0 a 516869.15 516869.15 0 1 1 1033738.30 0a 516869.15 516869.15 0 1 1 -1033738.30 0M 52111298.50 37974528.96 m -336246.32 0 a 336246.32 336246.32 0 1 1 672492.64 0a 336246.32 336246.32 0 1 1 -672492.64 0M 50741220.00 40730416.00 L 49481378.00 40730416.00 L 49481378.00 39628053.00 L 50741220.00 39628053.00 L 50741220.00 40730416.00  zM 52570001.63 41732274.96 m -292507.04 0 a 292507.04 292507.04 0 1 1 585014.09 0a 292507.04 292507.04 0 1 1 -585014.09 0M 54331345.00 41201425.00 L 53739535.00 41201425.00 L 53739535.00 40767095.00 L 54331345.00 40767095.00 L 54331345.00 41201425.00  zM 54331345.00 41949445.00 L 53739535.00 41949445.00 L 53739535.00 41515115.00 L 54331345.00 41515115.00 L 54331345.00 41949445.00  zM 41705778.49 42007884.70 m -241485.30 0 a 241485.30 241485.30 0 1 1 482970.60 0a 241485.30 241485.30 0 1 1 -482970.60 0M 41611301.99 43474513.85 m -516869.15 0 a 516869.15 516869.15 0 1 1 1033738.30 0a 516869.15 516869.15 0 1 1 -1033738.30 0M 43674298.49 42007884.70 m -241485.30 0 a 241485.30 241485.30 0 1 1 482970.60 0a 241485.30 241485.30 0 1 1 -482970.60 0M 42611298.50 45474526.47 m -791195.52 0 a 791195.52 791195.52 0 1 1 1582391.05 0a 791195.52 791195.52 0 1 1 -1582391.05 0M 44111301.99 44474513.85 m -516869.15 0 a 516869.15 516869.15 0 1 1 1033738.30 0a 516869.15 516869.15 0 1 1 -1033738.30 0M 43241220.00 48230416.00 L 41981378.00 48230416.00 L 41981378.00 47128053.00 L 43241220.00 47128053.00 L 43241220.00 48230416.00  zM 44611298.50 45474528.96 m -336246.32 0 a 336246.32 336246.32 0 1 1 672492.64 0a 336246.32 336246.32 0 1 1 -672492.64 0M 49111301.99 43474513.85 m -516869.15 0 a 516869.15 516869.15 0 1 1 1033738.30 0a 516869.15 516869.15 0 1 1 -1033738.30 0M 49111298.49 42007884.70 m -241485.30 0 a 241485.30 241485.30 0 1 1 482970.60 0a 241485.30 241485.30 0 1 1 -482970.60 0M 48111298.50 45474528.96 m -336246.32 0 a 336246.32 336246.32 0 1 1 672492.64 0a 336246.32 336246.32 0 1 1 -672492.64 0M 48300001.63 46969994.96 m -292507.04 0 a 292507.04 292507.04 0 1 1 585014.09 0a 292507.04 292507.04 0 1 1 -585014.09 0M 46358267.50 48917343.72 m -988993.77 0 a 988993.77 988993.77 0 1 1 1977987.53 0a 988993.77 988993.77 0 1 1 -1977987.53 0M 51079798.49 42007884.70 m -241485.30 0 a 241485.30 241485.30 0 1 1 482970.60 0a 241485.30 241485.30 0 1 1 -482970.60 0M 51611301.99 44474513.85 m -516869.15 0 a 516869.15 516869.15 0 1 1 1033738.30 0a 516869.15 516869.15 0 1 1 -1033738.30 0M 50111298.50 45474526.47 m -791195.52 0 a 791195.52 791195.52 0 1 1 1582391.05 0a 791195.52 791195.52 0 1 1 -1582391.05 0M 52111298.50 45474528.96 m -336246.32 0 a 336246.32 336246.32 0 1 1 672492.64 0a 336246.32 336246.32 0 1 1 -672492.64 0M 50741220.00 48230416.00 L 49481378.00 48230416.00 L 49481378.00 47128053.00 L 50741220.00 47128053.00 L 50741220.00 48230416.00  zM 54331345.00 47933685.00 L 53739535.00 47933685.00 L 53739535.00 47499355.00 L 54331345.00 47499355.00 L 54331345.00 47933685.00  zM 54440001.63 43049994.96 m -292507.04 0 a 292507.04 292507.04 0 1 1 585014.09 0a 292507.04 292507.04 0 1 1 -585014.09 0M 54951425.00 44577390.00 L 54674575.00 44577390.00 L 54674575.00 44261170.00 L 54951425.00 44261170.00 L 54951425.00 44577390.00  zM 56161185.00 43858890.00 L 55884335.00 43858890.00 L 55884335.00 43542670.00 L 56161185.00 43542670.00 L 56161185.00 43858890.00  zM 54230001.63 44939994.96 m -292507.04 0 a 292507.04 292507.04 0 1 1 585014.09 0a 292507.04 292507.04 0 1 1 -585014.09 0M 55345125.00 44577390.00 L 55068275.00 44577390.00 L 55068275.00 44261170.00 L 55345125.00 44261170.00 L 55345125.00 44577390.00  zM 54331345.00 47185665.00 L 53739535.00 47185665.00 L 53739535.00 46751335.00 L 54331345.00 46751335.00 L 54331345.00 47185665.00  zM 56574805.00 36092518.00 L 56220475.00 36092518.00 L 56220475.00 35797242.00 L 56574805.00 35797242.00 L 56574805.00 36092518.00  zM 56574805.00 36564958.00 L 56220475.00 36564958.00 L 56220475.00 36269682.00 L 56574805.00 36269682.00 L 56574805.00 36564958.00  zM 57559065.00 36092518.00 L 57204735.00 36092518.00 L 57204735.00 35797242.00 L 57559065.00 35797242.00 L 57559065.00 36092518.00  zM 58543305.00 36092518.00 L 58188975.00 36092518.00 L 58188975.00 35797242.00 L 58543305.00 35797242.00 L 58543305.00 36092518.00  zM 59900283.00 33880585.00 L 59891740.00 33837635.38 L 59883197.00 33880585.00 A 161217.26 161217.26 0 0 1 59585323.00 33880585.00 L 59576780.00 33837635.38 L 59568237.00 33880585.00 A 161217.26 161217.26 0 0 1 59270363.00 33880585.00 L 59261820.00 33837635.38 L 59253277.00 33880585.00 A 161217.26 161217.26 0 0 1 58955403.00 33880585.00 L 58946860.00 33837635.38 L 58938317.00 33880585.00 A 161217.26 161217.26 0 0 1 58640443.00 33880585.00 L 58631900.00 33837635.38 L 58623357.00 33880585.00 A 161217.26 161217.26 0 0 1 58325483.00 33880585.00 L 58316940.00 33837635.38 L 58308397.00 33880585.00 A 161217.26 161217.26 0 0 1 58010523.00 33880585.00 L 58001980.00 33837635.38 L 57993437.00 33880585.00 A 161217.26 161217.26 0 0 1 57695563.00 33880585.00 L 57687020.00 33837635.38 L 57678477.00 33880585.00 A 161217.26 161217.26 0 0 1 57380603.00 33880585.00 L 57372060.00 33837635.38 L 57363517.00 33880585.00 A 161217.26 161217.26 0 0 1 57065643.00 33880585.00 L 57057100.00 33837635.38 L 57048557.00 33880585.00 A 161217.26 161217.26 0 0 1 56738412.00 33818893.00 L 56738412.00 33248027.00 A 161201.22 161201.22 0 0 1 57048557.00 33186335.00 L 57057100.00 33229284.62 L 57065643.00 33186335.00 A 161217.26 161217.26 0 0 1 57363517.00 33186335.00 L 57372060.00 33229284.62 L 57380603.00 33186335.00 A 161217.26 161217.26 0 0 1 57678477.00 33186335.00 L 57687020.00 33229284.62 L 57695563.00 33186335.00 A 161217.26 161217.26 0 0 1 57993437.00 33186335.00 L 58001980.00 33229284.62 L 58010523.00 33186335.00 A 161217.26 161217.26 0 0 1 58308397.00 33186335.00 L 58316940.00 33229284.62 L 58325483.00 33186335.00 A 161217.26 161217.26 0 0 1 58623357.00 33186335.00 L 58631900.00 33229284.62 L 58640443.00 33186335.00 A 161217.26 161217.26 0 0 1 58938317.00 33186335.00 L 58946860.00 33229284.62 L 58955403.00 33186335.00 A 161217.26 161217.26 0 0 1 59253277.00 33186335.00 L 59261820.00 33229284.62 L 59270363.00 33186335.00 A 161217.26 161217.26 0 0 1 59568237.00 33186335.00 L 59576780.00 33229284.62 L 59585323.00 33186335.00 A 161217.26 161217.26 0 0 1 59883197.00 33186335.00 L 59891740.00 33229284.62 L 59900283.00 33186335.00 A 161217.26 161217.26 0 0 1 60210428.00 33248027.00 L 60210428.00 33818893.00 A 161201.22 161201.22 0 0 1 59900283.00 33880585.00  zM 59527565.00 36564958.00 L 59173235.00 36564958.00 L 59173235.00 36269682.00 L 59527565.00 36269682.00 L 59527565.00 36564958.00  zM 59500001.63 34599994.96 m -292507.04 0 a 292507.04 292507.04 0 1 1 585014.09 0a 292507.04 292507.04 0 1 1 -585014.09 0M 59527565.00 36092518.00 L 59173235.00 36092518.00 L 59173235.00 35797242.00 L 59527565.00 35797242.00 L 59527565.00 36092518.00  zM 60511805.00 36092518.00 L 60157475.00 36092518.00 L 60157475.00 35797242.00 L 60511805.00 35797242.00 L 60511805.00 36092518.00  zM 60630001.63 34689994.96 m -292507.04 0 a 292507.04 292507.04 0 1 1 585014.09 0a 292507.04 292507.04 0 1 1 -585014.09 0M 60511805.00 36564958.00 L 60157475.00 36564958.00 L 60157475.00 36269682.00 L 60511805.00 36269682.00 L 60511805.00 36564958.00  zM 62260001.63 35409994.96 m -292507.04 0 a 292507.04 292507.04 0 1 1 585014.09 0a 292507.04 292507.04 0 1 1 -585014.09 0M 57559065.00 36564958.00 L 57204735.00 36564958.00 L 57204735.00 36269682.00 L 57559065.00 36269682.00 L 57559065.00 36564958.00  zM 58543305.00 36564958.00 L 58188975.00 36564958.00 L 58188975.00 36269682.00 L 58543305.00 36269682.00 L 58543305.00 36564958.00  zM 57980001.63 40149994.96 m -292507.04 0 a 292507.04 292507.04 0 1 1 585014.09 0a 292507.04 292507.04 0 1 1 -585014.09 0M 61122060.43 40354320.13 m -201348.87 0 a 201348.87 201348.87 0 1 1 402697.73 0a 201348.87 201348.87 0 1 1 -402697.73 0M 62106940.00 40551800.00 L 61711980.00 40551800.00 L 61711980.00 40156840.00 L 62106940.00 40156840.00 L 62106940.00 40551800.00  zM 61500002.00 41633853.05 m -338174.95 0 a 338174.95 338174.95 0 1 1 676349.89 0a 338174.95 338174.95 0 1 1 -676349.89 0M 58612827.00 43288035.00 L 58316293.00 43288035.00 L 58316293.00 43089925.00 L 58612827.00 43089925.00 L 58612827.00 43288035.00  zM 60835275.00 41969135.00 L 60164725.00 41969135.00 L 60164725.00 41298585.00 L 60835275.00 41298585.00 L 60835275.00 41969135.00  zM 60500002.00 42633853.05 m -338174.95 0 a 338174.95 338174.95 0 1 1 676349.89 0a 338174.95 338174.95 0 1 1 -676349.89 0M 61500002.00 42633853.05 m -338174.95 0 a 338174.95 338174.95 0 1 1 676349.89 0a 338174.95 338174.95 0 1 1 -676349.89 0M 62500002.00 42633853.05 m -338174.95 0 a 338174.95 338174.95 0 1 1 676349.89 0a 338174.95 338174.95 0 1 1 -676349.89 0M 62500002.00 41633853.05 m -338174.95 0 a 338174.95 338174.95 0 1 1 676349.89 0a 338174.95 338174.95 0 1 1 -676349.89 0M 57727007.00 43288035.00 L 57430473.00 43288035.00 L 57430473.00 43089925.00 L 57727007.00 43089925.00 L 57727007.00 43288035.00  zM 57727007.00 43602995.00 L 57430473.00 43602995.00 L 57430473.00 43404885.00 L 57727007.00 43404885.00 L 57727007.00 43602995.00  zM 58612827.00 43602995.00 L 58316293.00 43602995.00 L 58316293.00 43404885.00 L 58612827.00 43404885.00 L 58612827.00 43602995.00  zM 56554885.00 43858890.00 L 56278035.00 43858890.00 L 56278035.00 43542670.00 L 56554885.00 43542670.00 L 56554885.00 43858890.00  zM 56350001.63 46269994.96 m -292507.04 0 a 292507.04 292507.04 0 1 1 585014.09 0a 292507.04 292507.04 0 1 1 -585014.09 0M 59060001.63 46899994.96 m -292507.04 0 a 292507.04 292507.04 0 1 1 585014.09 0a 292507.04 292507.04 0 1 1 -585014.09 0M 60194561.63 43948494.96 m -292507.04 0 a 292507.04 292507.04 0 1 1 585014.09 0a 292507.04 292507.04 0 1 1 -585014.09 0M 61988835.00 45315590.00 L 61633245.00 45315590.00 L 61633245.00 44999370.00 L 61988835.00 44999370.00 L 61988835.00 45315590.00  zM 61988835.00 44567550.00 L 61633245.00 44567550.00 L 61633245.00 44251330.00 L 61988835.00 44251330.00 L 61988835.00 44567550.00  zM 61920001.63 43799994.96 m -292507.04 0 a 292507.04 292507.04 0 1 1 585014.09 0a 292507.04 292507.04 0 1 1 -585014.09 0M 62776235.00 44725030.00 L 62420645.00 44725030.00 L 62420645.00 44251330.00 L 62776235.00 44251330.00 L 62776235.00 44725030.00  zM 62776235.00 45315590.00 L 62420645.00 45315590.00 L 62420645.00 44999370.00 L 62776235.00 44999370.00 L 62776235.00 45315590.00  zM 56148270.00 48925190.00 L 56148270.00 48688970.00 A 241485.30 241485.30 0 1 1 56631250.00 48688970.00 L 56631250.00 48925190.00 A 241485.30 241485.30 0 1 1 56148270.00 48925190.00  zM 59252595.00 48138420.00 L 56889125.00 48138420.00 L 56889125.00 47585980.00 L 59252595.00 47585980.00 L 59252595.00 48138420.00  zM 58858260.00 48696541.52 A 169567.50 169567.50 0 0 1 58543300.00 48696541.52 A 169567.50 169567.50 0 0 1 58227612.00 48564388.00 L 58257403.74 48519801.92 L 58228340.00 48525583.00 A 171240.45 171240.45 0 0 1 58070860.00 48420961.52 A 169567.50 169567.50 0 0 1 57913380.00 48525583.00 L 57884316.26 48519801.92 L 57914108.00 48564388.00 A 171244.89 171244.89 0 0 1 57598420.00 48696541.52 A 169567.50 169567.50 0 0 1 57283460.00 48696541.52 A 169567.50 169567.50 0 0 1 56967772.00 48564388.00 L 56997563.74 48519801.92 L 56968500.00 48525583.00 A 171240.45 171240.45 0 1 1 57125980.00 48287718.48 A 169567.50 169567.50 0 0 1 57440940.00 48287718.48 A 169567.50 169567.50 0 0 1 57755900.00 48287718.48 A 169567.50 169567.50 0 0 1 58070860.00 48287718.48 A 169567.50 169567.50 0 0 1 58385820.00 48287718.48 A 169567.50 169567.50 0 0 1 58700780.00 48287718.48 A 169567.50 169567.50 0 0 1 59015740.00 48287718.48 A 169567.50 169567.50 0 1 1 59173220.00 48525583.00 L 59144156.26 48519801.92 L 59173948.00 48564388.00 A 171244.89 171244.89 0 0 1 58858260.00 48696541.52  zM 56740001.63 49449994.96 m -292507.04 0 a 292507.04 292507.04 0 1 1 585014.09 0a 292507.04 292507.04 0 1 1 -585014.09 0M 56148270.00 50787410.00 L 56148270.00 50551190.00 A 241485.30 241485.30 0 1 1 56631250.00 50551190.00 L 56631250.00 50787410.00 A 241485.30 241485.30 0 1 1 56148270.00 50787410.00  zM 58150230.00 49902210.00 L 57991490.00 49902210.00 L 57991490.00 49428510.00 L 58150230.00 49428510.00 L 58150230.00 49902210.00  zM 58100001.63 46949994.96 m -292507.04 0 a 292507.04 292507.04 0 1 1 585014.09 0a 292507.04 292507.04 0 1 1 -585014.09 0M 59510470.00 48925190.00 L 59510470.00 48688970.00 A 241485.30 241485.30 0 1 1 59993450.00 48688970.00 L 59993450.00 48925190.00 A 241485.30 241485.30 0 1 1 59510470.00 48925190.00  zM 58150230.00 51122670.00 L 57991490.00 51122670.00 L 57991490.00 50648970.00 L 58150230.00 50648970.00 L 58150230.00 51122670.00  zM 62703140.00 47140940.00 L 61903140.00 47140940.00 L 61903140.00 46690940.00 L 62703140.00 46690940.00 L 62703140.00 47140940.00  zM 62703140.00 48190940.00 L 61903140.00 48190940.00 L 61903140.00 47740940.00 L 62703140.00 47740940.00 L 62703140.00 48190940.00  zM 59510470.00 50787410.00 L 59510470.00 50551190.00 A 241485.30 241485.30 0 1 1 59993450.00 50551190.00 L 59993450.00 50787410.00 A 241485.30 241485.30 0 1 1 59510470.00 50787410.00  z"/>
<path id="N" d="M 57627483.74 48519801.92 L 57598420.00 48525583.00 L 57569356.26 48519801.92 L 57598420.00 48563298.48 L 57627483.74 48519801.92  z"/>
<path id="N" d="M 58887323.74 48519801.92 L 58858260.00 48525583.00 L 58829196.26 48519801.92 L 58858260.00 48563298.48 L 58887323.74 48519801.92  z"/>
<path id="N" d="M 57312523.74 48519801.92 L 57283460.00 48525583.00 L 57254396.26 48519801.92 L 57283460.00 48563298.48 L 57312523.74 48519801.92  z"/>
<path id="N" d="M 59015740.00 48420961.52 L 58986676.26 48464458.08 L 59015740.00 48458677.00 L 59044803.74 48464458.08 L 59015740.00 48420961.52  z"/>
<path id="N" d="M 58572363.74 48519801.92 L 58543300.00 48525583.00 L 58514236.26 48519801.92 L 58543300.00 48563298.48 L 58572363.74 48519801.92  z"/>
<path id="N" d="M 58700780.00 48420961.52 L 58671716.26 48464458.08 L 58700780.00 48458677.00 L 58729843.74 48464458.08 L 58700780.00 48420961.52  z"/>
<path id="N" d="M 58385820.00 48420961.52 L 58356756.26 48464458.08 L 58385820.00 48458677.00 L 58414883.74 48464458.08 L 58385820.00 48420961.52  z"/>
<path id="N" d="M 57755900.00 48420961.52 L 57726836.26 48464458.08 L 57755900.00 48458677.00 L 57784963.74 48464458.08 L 57755900.00 48420961.52  z"/>
<path id="N" d="M 57440940.00 48420961.52 L 57411876.26 48464458.08 L 57440940.00 48458677.00 L 57470003.74 48464458.08 L 57440940.00 48420961.52  z"/>
<path id="N" d="M 57125980.00 48420961.52 L 57096916.26 48464458.08 L 57125980.00 48458677.00 L 57155043.74 48464458.08 L 57125980.00 48420961.52  z"/>
</g>
</svg>
