<svg width="162.15000082mm" height="122.24338518mm" viewBox="0 0 63838583 48127317"  version="1.1" xmlns="http://www.w3.org/2000/svg" xmlns:xlink="http://www.w3.org/1999/xlink">
<desc>
Origin 0 0 Bound 5000 3895032 63838583 48127317
</desc>
<g fill-rule="evenodd" fill="rgb(255, 0, 0)" stroke="black" stroke-width="1" transform="translate(0, 48127317) scale(1, -1) translate(-5000, -3895032)">
<path id="N" d="M 59224764.00 29330693.00 L 59224764.00 28759827.00 A 120431.73 120431.73 0 0 0 59150424.00 28648570.00 L 59146846.63 28647858.39 L 59144494.00 28642178.86 L 59144494.00 28074411.92 L 59267651.08 27951254.00 L 59441360.00 27951254.00 L 59471493.00 27938773.00 L 59595886.59 27814379.00 L 59642455.00 27845495.00 A 254896.24 254896.24 0 1 0 59504505.00 27707545.00 L 59535621.00 27754113.41 L 59423708.04 27866026.00 L 59250000.00 27866026.00 L 59219866.29 27878508.71 L 59071747.00 28026627.00 L 59059266.00 28056760.00 L 59059266.00 28645660.00 L 59060302.68 28648162.88 A 118053.35 118053.35 0 0 0 58983916.00 28759827.00 L 58983916.00 29330693.00 A 120431.73 120431.73 0 0 0 59224764.00 29330693.00  z"/>
<path id="N" d="M 21079797.94 35354337.94 m -200709.51 0 a 200709.51 200709.51 0 1 1 401419.02 0a 200709.51 200709.51 0 1 1 -401419.02 0M 21079802.46 35354332.27 m -120431.73 0 a 120431.73 120431.73 0 1 1 240863.46 0a 120431.73 120431.73 0 1 1 -240863.46 0"/>
<path id="N" d="M 51016817.94 34527557.94 m -200709.51 0 a 200709.51 200709.51 0 1 1 401419.02 0a 200709.51 200709.51 0 1 1 -401419.02 0M 51016822.46 34527552.27 m -120431.73 0 a 120431.73 120431.73 0 1 1 240863.46 0a 120431.73 120431.73 0 1 1 -240863.46 0"/>
<path id="N" d="M 5053057.94 35354337.94 m -200709.51 0 a 200709.51 200709.51 0 1 1 401419.02 0a 200709.51 200709.51 0 1 1 -401419.02 0M 5053062.46 35354332.27 m -120431.73 0 a 120431.73 120431.73 0 1 1 240863.46 0a 120431.73 120431.73 0 1 1 -240863.46 0"/>
<path id="N" d="M 43582677.94 34527557.94 m -200709.51 0 a 200709.51 200709.51 0 1 1 401419.02 0a 200709.51 200709.51 0 1 1 -401419.02 0M 43582682.46 34527552.27 m -120431.73 0 a 120431.73 120431.73 0 1 1 240863.46 0a 120431.73 120431.73 0 1 1 -240863.46 0"/>
<path id="N" d="M 28517637.94 35354337.94 m -200709.51 0 a 200709.51 200709.51 0 1 1 401419.02 0a 200709.51 200709.51 0 1 1 -401419.02 0M 28517642.46 35354332.27 m -120431.73 0 a 120431.73 120431.73 0 1 1 240863.46 0a 120431.73 120431.73 0 1 1 -240863.46 0"/>
<path id="N" d="M 36079797.94 35354337.94 m -200709.51 0 a 200709.51 200709.51 0 1 1 401419.02 0a 200709.51 200709.51 0 1 1 -401419.02 0M 36079802.46 35354332.27 m -120431.73 0 a 120431.73 120431.73 0 1 1 240863.46 0a 120431.73 120431.73 0 1 1 -240863.46 0"/>
<path id="N" d="M 13580617.94 35354337.94 m -200709.51 0 a 200709.51 200709.51 0 1 1 401419.02 0a 200709.51 200709.51 0 1 1 -401419.02 0M 13580622.46 35354332.27 m -120431.73 0 a 120431.73 120431.73 0 1 1 240863.46 0a 120431.73 120431.73 0 1 1 -240863.46 0"/>
<path id="N" d="M 51486092.00 7796199.00 L 51405374.00 7785572.25 L 51405374.00 7726940.00 L 51392891.29 7696806.29 L 50790899.28 7094813.46 L 50817868.00 7040127.00 A 200704.79 200704.79 0 1 0 50724354.00 7161997.00 L 50731385.07 7155830.89 L 51320146.00 7744591.02 L 51320146.00 7785572.25 L 51239428.00 7796199.00 A 476507.85 476507.85 0 1 0 51486092.00 7796199.00  zM 50624002.46 6988172.27 m -120431.73 0 a 120431.73 120431.73 0 1 1 240863.46 0a 120431.73 120431.73 0 1 1 -240863.46 0M 51362760.00 8256479.99 m -297823.01 0 a 297823.01 297823.01 0 1 1 595646.03 0a 297823.01 297823.01 0 1 1 -595646.03 0"/>
<path id="N" d="M 49234632.00 43014239.00 L 49153914.00 43003612.25 L 49153914.00 42200110.47 L 49188107.00 42193309.00 A 200709.51 200709.51 0 1 0 49034493.00 42193309.00 L 49068686.00 42200110.47 L 49068686.00 43003612.25 L 48987968.00 43014239.00 A 476507.85 476507.85 0 1 0 49234632.00 43014239.00  zM 49111302.46 42007872.27 m -120431.73 0 a 120431.73 120431.73 0 1 1 240863.46 0a 120431.73 120431.73 0 1 1 -240863.46 0M 49111300.00 43474519.99 m -297823.01 0 a 297823.01 297823.01 0 1 1 595646.03 0a 297823.01 297823.01 0 1 1 -595646.03 0"/>
<path id="N" d="M 57090133.00 51140133.00 L 58415953.00 49814313.00 L 58428434.00 49784177.59 L 58428434.00 48751903.29 L 58435745.00 48750449.00 A 130459.26 130459.26 0 1 0 58335895.00 48750449.00 L 58343206.00 48751903.29 L 58343206.00 49766528.99 L 57042348.01 51067386.00 L 56267651.07 51067386.00 L 56112614.00 50912348.07 L 56112615.00 44614280.00 L 56100131.29 44584146.29 L 55905133.00 44389147.00 L 55875000.00 44376666.00 L 55305125.00 44376666.00 L 55305125.00 44301170.00 L 55108275.00 44301170.00 L 55108275.00 44537390.00 L 55305125.00 44537390.00 L 55305125.00 44461894.00 L 55857348.06 44461894.00 L 56027386.00 44631931.06 L 56027386.00 50930000.00 L 56039867.00 50960133.00 L 56219867.00 51140133.00 L 56250000.00 51152614.00 L 57060000.00 51152614.00 L 57090133.00 51140133.00  zM 58385819.76 48629918.92 m -80284.08 0 a 80284.08 80284.08 0 1 1 160568.17 0a 80284.08 80284.08 0 1 1 -160568.17 0"/>
<path id="N" d="M 60072455.00 34204505.00 L 60025886.57 34235621.01 L 59885133.00 34094867.00 L 59855000.00 34082386.00 L 59561951.10 34082386.00 L 59461914.00 33982348.10 L 59461914.00 33930840.25 L 59465384.00 33930150.00 A 120412.98 120412.98 0 0 0 59539724.00 33818893.00 L 59539724.00 33248027.00 A 120431.73 120431.73 0 0 0 59298876.00 33248027.00 L 59298876.00 33818893.00 A 120431.73 120431.73 0 0 0 59373216.00 33930150.00 L 59376686.00 33930840.25 L 59376686.00 34000000.00 L 59389167.00 34030133.00 L 59514167.00 34155133.00 L 59544302.41 34167614.00 L 59837348.04 34167614.00 L 59965621.01 34295886.57 L 59934505.00 34342455.00 A 254896.24 254896.24 0 1 0 60072455.00 34204505.00  z"/>
<path id="N" d="M 61915495.00 34342455.00 L 61884379.17 34295886.83 L 62670133.00 33510133.00 L 62682614.00 33480000.00 L 62682614.00 27070000.00 L 62670133.00 27039867.00 L 62602614.00 26972348.00 L 62602614.00 26279525.00 L 62874005.00 26279525.00 L 62874005.00 26082675.00 L 62519675.00 26082675.00 L 62519675.00 26175573.64 L 62517386.00 26181100.00 L 62517386.00 26990000.00 L 62529867.00 27020133.00 L 62597386.00 27087652.00 L 62597386.00 33462348.00 L 61824113.17 34235620.83 L 61777545.00 34204505.00 A 254896.24 254896.24 0 1 0 61915495.00 34342455.00  z"/>
<path id="N" d="M 55795581.00 15941763.00 L 55730990.66 15991325.24 L 55292594.00 15552928.02 L 55292594.00 15350897.42 L 55350334.00 15331297.00 A 200709.58 200709.58 0 1 0 55198033.00 15351348.00 L 55207366.00 15351959.73 L 55207366.00 15570580.00 L 55219847.00 15600713.00 L 55670725.24 16051590.66 L 55621163.00 16116181.00 A 476522.59 476522.59 0 1 0 55795581.00 15941763.00  zM 55249982.46 15157472.27 m -120431.73 0 a 120431.73 120431.73 0 1 1 240863.46 0a 120431.73 120431.73 0 1 1 -240863.46 0M 56033840.00 16354439.99 m -297823.01 0 a 297823.01 297823.01 0 1 1 595646.03 0a 297823.01 297823.01 0 1 1 -595646.03 0"/>
<path id="N" d="M 34235452.00 36328899.00 L 34154734.00 36318272.25 L 34153914.00 35546570.47 L 34188107.00 35539769.00 A 200709.51 200709.51 0 1 0 34034493.00 35539769.00 L 34068686.00 35546570.47 L 34069506.00 36318272.25 L 33988788.00 36328899.00 A 476507.85 476507.85 0 1 0 34235452.00 36328899.00  zM 34111302.46 35354332.27 m -120431.73 0 a 120431.73 120431.73 0 1 1 240863.46 0a 120431.73 120431.73 0 1 1 -240863.46 0M 34112120.00 36789179.99 m -297823.01 0 a 297823.01 297823.01 0 1 1 595646.03 0a 297823.01 297823.01 0 1 1 -595646.03 0"/>
<path id="N" d="M 44234632.00 44014239.00 L 44153914.00 44003612.25 L 44153914.00 37445427.75 L 44234632.00 37434801.00 A 476507.85 476507.85 0 0 0 44234632.00 36514239.00 L 44153914.00 36503612.25 L 44154734.00 29945327.75 L 44235452.00 29934701.00 A 476507.85 476507.85 0 0 0 44524797.00 29236161.00 L 44475234.97 29171570.93 L 47230133.00 26416673.00 L 47242614.00 26386537.59 L 47242614.00 23437652.00 L 50908152.00 19772114.00 L 51711912.25 19772114.00 L 51722539.00 19852832.00 A 476507.85 476507.85 0 1 0 51722539.00 19606168.00 L 51711912.25 19686886.00 L 50890500.00 19686886.00 L 50860367.00 19699367.00 L 47169867.00 23389867.00 L 47157386.00 23420000.00 L 47157386.00 26368889.00 L 44414969.07 29111305.03 L 44350379.00 29061743.00 A 476522.59 476522.59 0 1 0 43988788.00 29934701.00 L 44069506.00 29945327.75 L 44068686.00 36503612.25 L 43987968.00 36514239.00 A 476507.85 476507.85 0 0 0 43987968.00 37434801.00 L 44068686.00 37445427.75 L 44068686.00 44003612.25 L 43987968.00 44014239.00 A 476507.85 476507.85 0 1 0 44234632.00 44014239.00  zM 52182820.00 19729499.99 m -297823.01 0 a 297823.01 297823.01 0 1 1 595646.03 0a 297823.01 297823.01 0 1 1 -595646.03 0M 44112120.00 29474419.99 m -297823.01 0 a 297823.01 297823.01 0 1 1 595646.03 0a 297823.01 297823.01 0 1 1 -595646.03 0M 44111300.00 36974519.99 m -297823.01 0 a 297823.01 297823.01 0 1 1 595646.03 0a 297823.01 297823.01 0 1 1 -595646.03 0M 44111300.00 44474519.99 m -297823.01 0 a 297823.01 297823.01 0 1 1 595646.03 0a 297823.01 297823.01 0 1 1 -595646.03 0"/>
<path id="N" d="M 58700062.00 31625365.00 L 58668946.01 31578796.61 L 58945128.03 31302614.00 L 59728028.00 31302614.00 L 60059867.00 31634453.00 L 60090000.00 31646934.00 L 60321139.75 31646934.00 L 60321830.00 31650404.00 A 120412.98 120412.98 0 0 0 60433087.00 31724744.00 L 61003953.00 31724744.00 A 120431.73 120431.73 0 0 0 61003953.00 31483896.00 L 60433087.00 31483896.00 A 120431.73 120431.73 0 0 0 60321830.00 31558236.00 L 60321139.75 31561706.00 L 60107652.00 31561706.00 L 59775813.00 31229867.00 L 59745680.00 31217386.00 L 58927477.00 31217385.00 L 58897343.29 31229868.71 L 58608680.39 31518530.99 L 58562112.00 31487415.00 A 254896.24 254896.24 0 1 0 58700062.00 31625365.00  z"/>
<path id="N" d="M 26735452.00 28828899.00 L 26654734.00 28818272.25 L 26654734.00 28602680.00 L 26642253.00 28572547.00 L 26572054.00 28502348.00 L 26572054.00 28026870.47 L 26606247.00 28020069.00 A 200709.51 200709.51 0 1 0 26452633.00 28020069.00 L 26486826.00 28026870.47 L 26486826.00 28520000.00 L 26499307.00 28550133.00 L 26569506.00 28620332.00 L 26569506.00 28818272.25 L 26488788.00 28828899.00 A 476507.85 476507.85 0 1 0 26735452.00 28828899.00  zM 26529442.46 27834632.27 m -120431.73 0 a 120431.73 120431.73 0 1 1 240863.46 0a 120431.73 120431.73 0 1 1 -240863.46 0M 26612120.00 29289179.99 m -297823.01 0 a 297823.01 297823.01 0 1 1 595646.03 0a 297823.01 297823.01 0 1 1 -595646.03 0"/>
<path id="N" d="M 41735452.00 28014139.00 L 41654734.00 28003512.25 L 41654734.00 27744973.48 L 41656794.00 27740000.00 L 41656794.00 27200110.47 L 41690987.00 27193309.00 A 200709.51 200709.51 0 1 0 41537373.00 27193309.00 L 41571566.00 27200110.47 L 41571566.00 27737086.52 L 41569506.00 27742060.00 L 41569506.00 28003512.25 L 41488788.00 28014139.00 A 476507.85 476507.85 0 1 0 41735452.00 28014139.00  zM 41614182.46 27007872.27 m -120431.73 0 a 120431.73 120431.73 0 1 1 240863.46 0a 120431.73 120431.73 0 1 1 -240863.46 0M 41612120.00 28474419.99 m -297823.01 0 a 297823.01 297823.01 0 1 1 595646.03 0a 297823.01 297823.01 0 1 1 -595646.03 0"/>
<path id="N" d="M 14234632.00 44825859.00 L 14153914.00 44815232.25 L 14154734.00 38256947.75 L 14235452.00 38246321.00 A 476507.85 476507.85 0 0 0 14235452.00 37325759.00 L 14154734.00 37315132.25 L 14154734.00 30756947.75 L 14235452.00 30746321.00 A 476507.85 476507.85 0 0 0 14235452.00 29825759.00 L 14154734.00 29815132.25 L 14154734.00 29185532.00 L 16655133.00 26685133.00 L 16667614.00 26654997.59 L 16667614.00 22931831.90 L 16767651.10 22831794.00 L 21141212.25 22831794.00 L 21151839.00 22912512.00 A 476507.85 476507.85 0 1 0 21735452.00 22328899.00 L 21654734.00 22318272.25 L 21654734.00 15760087.75 L 21735452.00 15749461.00 A 476507.85 476507.85 0 1 0 21488788.00 15749461.00 L 21569506.00 15760087.75 L 21569506.00 22318272.25 L 21488788.00 22328899.00 A 476507.85 476507.85 0 0 0 21151839.00 22665848.00 L 21141212.25 22746566.00 L 16750000.00 22746565.00 L 16719866.29 22759048.71 L 16594867.00 22884047.00 L 16582386.00 22914180.00 L 16582386.00 26637348.00 L 14081987.00 29137747.00 L 14069506.00 29167880.00 L 14069506.00 29815132.25 L 13988788.00 29825759.00 A 476507.85 476507.85 0 0 0 13988788.00 30746321.00 L 14069506.00 30756947.75 L 14069506.00 37315132.25 L 13988788.00 37325759.00 A 476507.85 476507.85 0 0 0 13988788.00 38246321.00 L 14069506.00 38256947.75 L 14068686.00 44815232.25 L 13987968.00 44825859.00 A 476507.85 476507.85 0 1 0 14234632.00 44825859.00  zM 14112120.00 30286039.99 m -297823.01 0 a 297823.01 297823.01 0 1 1 595646.03 0a 297823.01 297823.01 0 1 1 -595646.03 0M 14112120.00 37786039.99 m -297823.01 0 a 297823.01 297823.01 0 1 1 595646.03 0a 297823.01 297823.01 0 1 1 -595646.03 0M 14111300.00 45286139.99 m -297823.01 0 a 297823.01 297823.01 0 1 1 595646.03 0a 297823.01 297823.01 0 1 1 -595646.03 0M 21612120.00 15289179.99 m -297823.01 0 a 297823.01 297823.01 0 1 1 595646.03 0a 297823.01 297823.01 0 1 1 -595646.03 0M 21612120.00 22789179.99 m -297823.01 0 a 297823.01 297823.01 0 1 1 595646.03 0a 297823.01 297823.01 0 1 1 -595646.03 0"/>
<path id="N" d="M 61499997.35 41633853.57 m -297829.90 0 a 297829.90 297829.90 0 1 1 595659.80 0a 297829.90 297829.90 0 1 1 -595659.80 0M 61500000.44 41633858.65 m -180637.35 0 a 180637.35 180637.35 0 1 1 361274.69 0a 180637.35 180637.35 0 1 1 -361274.69 0"/>
<path id="N" d="M 56627010.00 30390564.00 L 56627700.25 30387094.00 L 56836635.00 30387094.00 L 56866768.00 30374613.00 L 57017316.56 30224063.98 L 57063885.00 30255180.00 A 254896.24 254896.24 0 1 0 56925935.00 30117230.00 L 56957051.02 30163798.44 L 56818983.04 30301866.00 L 56627700.25 30301866.00 L 56627010.00 30298396.00 A 120412.98 120412.98 0 0 0 56515753.00 30224056.00 L 55944887.00 30224056.00 A 120431.73 120431.73 0 1 0 55944887.00 30464904.00 L 56515753.00 30464904.00 A 120412.98 120412.98 0 0 0 56627010.00 30390564.00  z"/>
<path id="N" d="M 34235452.00 21328899.00 L 34154734.00 21318272.25 L 34154734.00 21119071.70 L 34183673.00 21090133.00 L 34196154.00 21059997.59 L 34196154.00 20566250.47 L 34230347.00 20559449.00 A 200709.51 200709.51 0 1 0 34076733.00 20559449.00 L 34110926.00 20566250.47 L 34110926.00 21042348.70 L 34081987.00 21071287.00 L 34069506.00 21101420.00 L 34069506.00 21318272.25 L 33988788.00 21328899.00 A 476507.85 476507.85 0 1 0 34235452.00 21328899.00  zM 34153542.46 20374012.27 m -120431.73 0 a 120431.73 120431.73 0 1 1 240863.46 0a 120431.73 120431.73 0 1 1 -240863.46 0M 34112120.00 21789179.99 m -297823.01 0 a 297823.01 297823.01 0 1 1 595646.03 0a 297823.01 297823.01 0 1 1 -595646.03 0"/>
<path id="N" d="M 57233535.00 48233811.00 L 57227337.82 48237951.82 L 57032614.00 48043228.00 L 57032614.00 45220000.00 L 57020133.00 45189867.00 L 55980133.00 44149867.00 L 55950000.00 44137386.00 L 54855614.00 44137386.00 L 54855614.00 43877651.97 L 55315651.03 43417614.00 L 56273808.10 43417614.00 L 56373846.00 43517651.10 L 56373846.00 43582670.00 L 56318035.00 43582670.00 L 56318035.00 43818890.00 L 56514885.00 43818890.00 L 56514885.00 43582670.00 L 56459074.00 43582670.00 L 56459075.00 43500000.00 L 56446591.29 43469866.29 L 56321593.00 43344867.00 L 56291460.00 43332386.00 L 55298000.00 43332385.00 L 55267866.29 43344868.71 L 54855614.00 43757120.15 L 54855614.00 41125000.00 L 54843131.29 41094866.29 L 54702393.00 40954127.00 L 54672260.00 40941646.00 L 54291345.00 40941646.00 L 54291345.00 40807095.00 L 54078054.00 40807095.00 L 54078054.00 36535435.00 L 54202763.00 36535435.00 L 54202763.00 36440254.00 L 54990000.00 36440254.00 L 55020133.00 36427773.00 L 55460411.03 35987494.00 L 56220475.00 35987494.00 L 56220475.00 36092518.00 L 56574805.00 36092518.00 L 56574805.00 35987494.00 L 57204735.00 35987494.00 L 57204735.00 36092518.00 L 57559065.00 36092518.00 L 57559065.00 35987494.00 L 58188975.00 35987494.00 L 58188975.00 36092518.00 L 58543305.00 36092518.00 L 58543305.00 35987494.00 L 59173235.00 35987494.00 L 59173235.00 36092518.00 L 59527565.00 36092518.00 L 59527565.00 35987494.00 L 60157475.00 35987494.00 L 60157475.00 36092518.00 L 60511805.00 36092518.00 L 60511805.00 35987494.00 L 60924288.00 35987494.00 L 61079446.00 36142652.00 L 61079446.00 40202231.20 L 61060614.00 40205977.00 A 160563.76 160563.76 0 1 0 61183506.00 40502663.00 L 61199470.20 40491996.09 L 62037386.00 41329911.01 L 62037386.00 42213860.00 L 62049867.00 42243993.00 L 62263241.46 42457366.95 L 62242078.00 42484948.00 A 297823.01 297823.01 0 0 0 62422918.00 42921535.00 L 62457386.00 42926072.78 L 62457386.00 43510000.00 L 62469867.00 43540133.00 L 62555826.00 43626092.00 L 62555826.00 44291330.00 L 62460645.00 44291330.00 L 62460645.00 44685030.00 L 62736235.00 44685030.00 L 62736235.00 44291330.00 L 62641054.00 44291330.00 L 62641054.00 43608440.00 L 62628573.00 43578307.00 L 62542614.00 43492348.00 L 62542614.00 42926072.78 L 62577082.00 42921535.00 A 297829.90 297829.90 0 0 0 62757922.00 42484948.00 L 62736758.68 42457367.13 L 63590133.00 41603993.00 L 63602614.00 41573860.00 L 63602614.00 26125000.00 L 63590131.29 26094866.29 L 63425133.00 25929867.00 L 63395000.00 25917386.00 L 62350000.00 25917386.00 L 62319867.00 25929867.00 L 62309867.00 25939867.00 L 62297386.00 25970000.00 L 62297386.00 27570468.58 L 62292348.42 27575506.00 L 62145665.00 27575506.00 L 62145665.00 27401585.00 L 62122614.00 27401585.00 L 62122614.00 22357651.97 L 62600133.00 21880133.00 L 62612614.00 21849997.59 L 62612614.00 20100000.00 L 62600133.00 20069867.00 L 62590133.00 20059867.00 L 62560000.00 20047386.00 L 61568214.00 20047386.00 L 61568214.00 19767652.00 L 61813686.83 19522179.17 L 61860255.00 19553295.00 A 254896.24 254896.24 0 1 0 61722305.00 19415345.00 L 61753420.83 19461913.17 L 61495467.00 19719867.00 L 61482986.00 19750000.00 L 61482986.00 20216535.00 L 61348435.00 20216535.00 L 61348435.00 20728345.00 L 61702765.00 20728345.00 L 61702765.00 20216535.00 L 61568214.00 20216535.00 L 61568214.00 20132614.00 L 62527386.00 20132614.00 L 62527386.00 21832348.97 L 62049867.00 22309867.00 L 62037386.00 22340000.00 L 62037386.00 27401585.00 L 61476375.00 27401585.00 L 61476375.00 27834655.00 L 62145665.00 27834655.00 L 62145665.00 27660734.00 L 62310000.00 27660734.00 L 62340133.00 27648253.00 L 62370133.00 27618253.00 L 62382614.00 27588120.00 L 62382614.00 26002614.00 L 63377348.08 26002614.00 L 63517386.00 26142651.08 L 63517386.00 41556208.99 L 62676492.87 42397101.32 L 62648912.00 42375938.00 A 297823.01 297823.01 0 0 0 62351088.00 42375938.00 L 62323506.95 42397101.46 L 62122614.00 42196208.03 L 62122615.00 41312260.00 L 62110131.29 41282126.29 L 61259736.09 40431730.20 L 61270403.00 40415766.00 A 160570.62 160570.62 0 0 0 61183506.00 40205977.00 L 61164674.00 40202231.20 L 61164674.00 36125000.00 L 61152193.00 36094867.00 L 60972073.00 35914747.00 L 60941940.00 35902266.00 L 60511805.00 35902266.00 L 60511805.00 35797242.00 L 60157475.00 35797242.00 L 60157475.00 35902266.00 L 59527565.00 35902266.00 L 59527565.00 35797242.00 L 59173235.00 35797242.00 L 59173235.00 35902266.00 L 58543305.00 35902266.00 L 58543305.00 35797242.00 L 58188975.00 35797242.00 L 58188975.00 35902266.00 L 57559065.00 35902266.00 L 57559065.00 35797242.00 L 57204735.00 35797242.00 L 57204735.00 35902266.00 L 56574805.00 35902266.00 L 56574805.00 35797242.00 L 56220475.00 35797242.00 L 56220475.00 35902266.00 L 55442760.00 35902266.00 L 55412626.29 35914748.71 L 54972348.03 36355026.00 L 54202763.00 36355026.00 L 54202763.00 36259845.00 L 53868117.00 36259845.00 L 53868117.00 36355026.00 L 53792614.00 36355026.00 L 53792614.00 34042879.39 L 53839867.00 34090133.00 L 53870002.41 34102614.00 L 57204580.00 34102614.00 L 57234713.00 34090133.00 L 57244713.00 34080133.00 L 57257194.00 34050000.00 L 57257194.00 33930840.25 L 57260664.00 33930150.00 A 120412.98 120412.98 0 0 0 57335004.00 33818893.00 L 57335004.00 33576074.00 L 57409116.00 33576074.00 L 57409116.00 33818893.00 A 120431.73 120431.73 0 1 0 57649964.00 33818893.00 L 57649964.00 33248027.00 A 120431.73 120431.73 0 0 0 57575624.00 33136770.00 L 57572154.00 33136079.75 L 57572154.00 33052614.00 L 59691646.00 33052614.00 L 59691646.00 33136079.75 L 59688176.00 33136770.00 A 120412.98 120412.98 0 0 0 59613836.00 33248027.00 L 59613836.00 33818893.00 A 120431.73 120431.73 0 1 0 59854684.00 33818893.00 L 59854684.00 33248027.00 A 120431.73 120431.73 0 0 0 59780344.00 33136770.00 L 59776874.00 33136079.75 L 59776874.00 33020000.00 L 59764393.00 32989867.00 L 59754393.00 32979867.00 L 59724260.00 32967386.00 L 57539540.00 32967386.00 L 57509407.00 32979867.00 L 57499407.00 32989867.00 L 57486926.00 33020000.00 L 57486926.00 33136079.75 L 57483456.00 33136770.00 A 120412.98 120412.98 0 0 0 57409116.00 33248027.00 L 57409116.00 33490846.00 L 57335004.00 33490846.00 L 57335004.00 33248027.00 A 120431.73 120431.73 0 1 0 57094156.00 33248027.00 L 57094156.00 33818893.00 A 120431.73 120431.73 0 0 0 57168496.00 33930150.00 L 57171966.00 33930840.25 L 57171966.00 34017386.00 L 53887651.10 34017386.00 L 53792614.00 33922348.10 L 53792614.00 32859191.90 L 53877955.00 32773850.22 L 53877955.00 32893705.00 L 54389765.00 32893705.00 L 54389765.00 32539375.00 L 53877955.00 32539375.00 L 53877955.00 32673926.00 L 53875000.00 32673925.00 L 53844866.29 32686408.71 L 53719867.00 32811407.00 L 53707386.00 32841540.00 L 53707386.00 36387640.00 L 53719867.00 36417773.00 L 53729867.00 36427773.00 L 53760000.00 36440254.00 L 53868117.00 36440254.00 L 53868117.00 36535435.00 L 53992826.00 36535435.00 L 53992826.00 40807095.00 L 53779535.00 40807095.00 L 53779535.00 41161425.00 L 54291345.00 41161425.00 L 54291345.00 41026874.00 L 54654608.09 41026874.00 L 54770386.00 41142651.09 L 54770386.00 44301170.00 L 54714575.00 44301170.00 L 54714575.00 44537390.00 L 54770386.00 44537390.00 L 54770386.00 47510868.00 L 54607348.00 47673906.00 L 54291345.00 47673906.00 L 54291345.00 47539355.00 L 53779535.00 47539355.00 L 53779535.00 47893685.00 L 54291345.00 47893685.00 L 54291345.00 47759134.00 L 54625000.00 47759134.00 L 54655133.00 47746653.00 L 54843133.00 47558653.00 L 54855614.00 47528520.00 L 54855614.00 44537390.00 L 54911425.00 44537390.00 L 54911425.00 44301170.00 L 54855614.00 44301170.00 L 54855614.00 44222614.00 L 55932348.00 44222614.00 L 56947386.00 45237652.00 L 56947386.00 48060880.00 L 56959867.00 48091013.00 L 57167071.82 48298217.82 L 57162931.00 48304415.00 A 130456.67 130456.67 0 1 0 57233535.00 48233811.00  zM 61122062.46 40354312.27 m -120431.73 0 a 120431.73 120431.73 0 1 1 240863.46 0a 120431.73 120431.73 0 1 1 -240863.46 0M 62500000.44 42633858.65 m -180637.35 0 a 180637.35 180637.35 0 1 1 361274.69 0a 180637.35 180637.35 0 1 1 -361274.69 0M 57283459.76 48354338.92 m -80284.08 0 a 80284.08 80284.08 0 1 1 160568.17 0a 80284.08 80284.08 0 1 1 -160568.17 0"/>
<path id="N" d="M 56636177.00 31604320.00 L 56629365.77 31570078.82 L 56709990.08 31489454.00 L 57285713.00 31489454.00 L 57315846.00 31476973.00 L 57352567.00 31440252.00 L 57677165.00 31440252.00 L 57707298.00 31427771.00 L 58396275.00 30738794.00 L 58408756.00 30708658.59 L 58408756.00 30049902.00 L 58396275.00 30019769.00 L 58133680.00 29757174.00 L 60321139.75 29757174.00 L 60321830.00 29760644.00 A 120412.98 120412.98 0 0 0 60433087.00 29834984.00 L 61003953.00 29834984.00 A 120431.73 120431.73 0 0 0 61003953.00 29594136.00 L 60433087.00 29594136.00 A 120431.73 120431.73 0 0 0 60321830.00 29668476.00 L 60321139.75 29671946.00 L 58048452.00 29671946.00 L 57887114.00 29510608.00 L 57887114.00 29442640.25 L 57890584.00 29441950.00 A 120412.98 120412.98 0 0 0 57964924.00 29330693.00 L 57964924.00 28759827.00 A 120431.73 120431.73 0 0 0 57890584.00 28648570.00 L 57887114.00 28647879.75 L 57887114.00 27984500.00 L 57874631.29 27954366.29 L 56672614.00 26752348.01 L 56672614.00 25985534.00 L 56753936.00 25985534.00 L 56753936.00 26076778.00 L 57005904.00 26076778.00 L 57005904.00 25985534.00 L 57370000.00 25985534.00 L 57400133.00 25973053.00 L 57700652.00 25672534.00 L 57991350.00 25672534.00 L 57991350.00 25885825.00 L 58253759.16 25885825.00 L 58627769.77 26259835.00 L 58601570.00 26259835.00 L 58601570.00 26771645.00 L 58995270.00 26771645.00 L 58995270.00 26379155.36 L 59075911.05 26298514.00 L 59814956.00 26298514.00 L 59814956.00 26389758.00 L 60066924.00 26389758.00 L 60066924.00 26122042.00 L 59814956.00 26122042.00 L 59814956.00 26213286.00 L 59058260.00 26213286.00 L 59028126.29 26225768.71 L 58994059.87 26259835.00 L 58748300.13 26259835.00 L 58374290.74 25885825.00 L 58385050.00 25885825.00 L 58385050.00 25374015.00 L 58230814.00 25374015.00 L 58230814.00 21048200.00 L 58218333.00 21018067.00 L 56874379.17 19674113.17 L 56905495.00 19627545.00 A 254896.24 254896.24 0 1 0 56767545.00 19765495.00 L 56814113.17 19734379.17 L 58145586.00 21065852.00 L 58145586.00 25374015.00 L 57991350.00 25374015.00 L 57991350.00 25587306.00 L 57683000.00 25587305.00 L 57652867.00 25599787.00 L 57352348.00 25900306.00 L 57005904.00 25900306.00 L 57005904.00 25809062.00 L 56753936.00 25809062.00 L 56753936.00 25900306.00 L 55450171.04 25900306.00 L 55120133.00 25570267.00 L 55090000.00 25557786.00 L 53917325.00 25557786.00 L 53917325.00 25423235.00 L 53405515.00 25423235.00 L 53405515.00 25557786.00 L 52865050.00 25557786.00 L 52834917.00 25570267.00 L 52751767.53 25653416.47 L 52739295.00 25634750.00 A 254898.66 254898.66 0 1 0 52813953.00 25814990.00 L 52796826.47 25728889.53 L 52882702.00 25643014.00 L 53405515.00 25643014.00 L 53405515.00 25777565.00 L 53917325.00 25777565.00 L 53917325.00 25643014.00 L 55072348.04 25643014.00 L 55402387.00 25973053.00 L 55432520.00 25985534.00 L 56587386.00 25985534.00 L 56587386.00 26770000.00 L 56599867.00 26800133.00 L 57801886.00 28002151.01 L 57801886.00 28647879.75 L 57798416.00 28648570.00 A 120412.98 120412.98 0 0 0 57724076.00 28759827.00 L 57724076.00 29330693.00 A 120431.73 120431.73 0 0 0 57798416.00 29441950.00 L 57801886.00 29442640.25 L 57801886.00 29528260.00 L 57814367.00 29558393.00 L 58323528.00 30067554.00 L 58323528.00 30691009.98 L 57659513.02 31355024.00 L 57334915.00 31355024.00 L 57304782.00 31367505.00 L 57268061.00 31404226.00 L 56692339.00 31404226.00 L 56662205.29 31416708.71 L 56576232.25 31502681.20 L 56561837.00 31493063.00 L 56515753.00 31483896.00 L 55944887.00 31483896.00 A 120431.73 120431.73 0 1 0 55944887.00 31724744.00 L 56515753.00 31724744.00 A 120412.98 120412.98 0 0 0 56636177.00 31604320.00  z"/>
<path id="N" d="M 36117545.00 32514505.00 L 36062614.00 32503578.49 L 36062614.00 28457652.00 L 37600133.00 26920133.00 L 37612614.00 26890000.00 L 37612614.00 18962879.89 L 38207386.00 19557651.02 L 38207386.00 24763578.49 L 38152455.00 24774505.00 A 254898.03 254898.03 0 1 0 38347545.00 24774505.00 L 38292614.00 24763578.49 L 38292614.00 19540000.00 L 38280131.29 19509866.29 L 37612614.00 18842348.02 L 37612615.00 18321680.00 L 37600131.29 18291546.29 L 37132699.06 17824113.33 L 37163815.00 17777545.00 A 254896.24 254896.24 0 1 0 37025865.00 17915495.00 L 37072433.33 17884379.06 L 37527386.00 18339331.02 L 37527386.00 18757120.00 L 36594379.17 17824113.17 L 36625495.00 17777545.00 A 254896.24 254896.24 0 1 0 36487545.00 17915495.00 L 36534113.17 17884379.17 L 37527386.00 18877652.00 L 37527386.00 26872348.00 L 35989867.00 28409867.00 L 35977386.00 28440000.00 L 35977386.00 32503578.49 L 35922455.00 32514505.00 A 254898.03 254898.03 0 1 0 36117545.00 32514505.00  z"/>
<path id="N" d="M 56590467.00 50787410.00 L 56590467.00 50551190.00 A 200706.53 200706.53 0 0 0 56466567.00 50365761.00 L 56432374.00 50358959.53 L 56432374.00 50277892.00 L 56820133.00 49890133.00 L 56832614.00 49859997.59 L 56832614.00 48550492.00 L 56912377.82 48470728.18 L 56918575.00 48474869.00 A 130456.67 130456.67 0 1 0 56847971.00 48404265.00 L 56852111.82 48410462.18 L 56759867.00 48502707.00 L 56747386.00 48532840.00 L 56747386.00 49842348.00 L 56359627.00 50230107.00 L 56347146.00 50260240.00 L 56347146.00 50358959.53 L 56312953.00 50365761.00 A 200709.51 200709.51 0 0 0 56189053.00 50551190.00 L 56189053.00 50787410.00 A 200706.53 200706.53 0 0 0 56590467.00 50787410.00  zM 56968499.76 48354338.92 m -80284.08 0 a 80284.08 80284.08 0 1 1 160568.17 0a 80284.08 80284.08 0 1 1 -160568.17 0M 56269336.00 50787410.00 L 56269336.00 50551190.00 A 120431.73 120431.73 0 0 1 56510184.00 50551190.00 L 56510184.00 50787410.00 A 120431.73 120431.73 0 0 1 56269336.00 50787410.00  z"/>
<path id="N" d="M 59173220.38 48354340.38 m -130459.26 0 a 130459.26 130459.26 0 1 1 260918.51 0a 130459.26 130459.26 0 1 1 -260918.51 0M 59173219.76 48354338.92 m -80284.08 0 a 80284.08 80284.08 0 1 1 160568.17 0a 80284.08 80284.08 0 1 1 -160568.17 0"/>
<path id="N" d="M 58858260.38 48354340.38 m -130459.26 0 a 130459.26 130459.26 0 1 1 260918.51 0a 130459.26 130459.26 0 1 1 -260918.51 0M 58858259.76 48354338.92 m -80284.08 0 a 80284.08 80284.08 0 1 1 160568.17 0a 80284.08 80284.08 0 1 1 -160568.17 0"/>
<path id="N" d="M 29234632.00 44828999.00 L 29153914.00 44818372.25 L 29154734.00 38260087.75 L 29235452.00 38249461.00 A 476507.85 476507.85 0 0 0 29235452.00 37328899.00 L 29154734.00 37318272.25 L 29154734.00 30760087.75 L 29235452.00 30749461.00 A 476507.85 476507.85 0 0 0 29235452.00 29828899.00 L 29154734.00 29818272.25 L 29154734.00 25945532.00 L 32268472.00 22831794.00 L 36141212.25 22831794.00 L 36151839.00 22912512.00 A 476507.85 476507.85 0 1 0 36151839.00 22665848.00 L 36141212.25 22746566.00 L 32250820.00 22746566.00 L 32220687.00 22759047.00 L 29081987.00 25897747.00 L 29069506.00 25927880.00 L 29069506.00 29818272.25 L 28988788.00 29828899.00 A 476507.85 476507.85 0 0 0 28988788.00 30749461.00 L 29069506.00 30760087.75 L 29069506.00 37318272.25 L 28988788.00 37328899.00 A 476507.85 476507.85 0 0 0 28988788.00 38249461.00 L 29069506.00 38260087.75 L 29068686.00 44818372.25 L 28987968.00 44828999.00 A 476507.85 476507.85 0 1 0 29234632.00 44828999.00  zM 36612120.00 22789179.99 m -297823.01 0 a 297823.01 297823.01 0 1 1 595646.03 0a 297823.01 297823.01 0 1 1 -595646.03 0M 29112120.00 30289179.99 m -297823.01 0 a 297823.01 297823.01 0 1 1 595646.03 0a 297823.01 297823.01 0 1 1 -595646.03 0M 29112120.00 37789179.99 m -297823.01 0 a 297823.01 297823.01 0 1 1 595646.03 0a 297823.01 297823.01 0 1 1 -595646.03 0M 29111300.00 45289279.99 m -297823.01 0 a 297823.01 297823.01 0 1 1 595646.03 0a 297823.01 297823.01 0 1 1 -595646.03 0"/>
<path id="N" d="M 46425495.00 24012455.00 L 46394379.10 23965886.73 L 47230133.00 23130133.00 L 47242614.00 23099997.59 L 47242614.00 18197651.99 L 48970133.00 16470133.00 L 48982614.00 16439997.59 L 48982615.00 11950000.00 L 48970133.00 11919867.00 L 48651573.00 11601307.00 L 48621440.00 11588826.00 L 47982647.75 11588826.00 L 47972021.00 11508108.00 A 476507.85 476507.85 0 1 0 47972021.00 11754772.00 L 47982647.75 11674054.00 L 48603788.00 11674054.00 L 48897386.00 11967652.00 L 48897386.00 16422348.99 L 47169867.00 18149867.00 L 47157386.00 18180000.00 L 47157386.00 23082348.99 L 46334113.27 23905620.90 L 46287545.00 23874505.00 A 254896.24 254896.24 0 1 0 46425495.00 24012455.00  zM 47511740.00 11631439.99 m -297823.01 0 a 297823.01 297823.01 0 1 1 595646.03 0a 297823.01 297823.01 0 1 1 -595646.03 0"/>
<path id="N" d="M 56515753.00 29594136.00 L 55944887.00 29594136.00 A 120431.73 120431.73 0 0 0 55833630.00 29668476.00 L 55832939.75 29671946.00 L 55726317.01 29671946.00 L 53918958.00 27864586.01 L 53918958.00 27751169.95 L 53926735.00 27749623.00 A 254898.03 254898.03 0 1 0 53829190.00 27769026.00 L 53833730.00 27768122.93 L 53833730.00 27882238.00 L 53846211.00 27912371.00 L 55678533.00 29744693.00 L 55708668.41 29757174.00 L 55832939.75 29757174.00 L 55833630.00 29760644.00 A 120412.98 120412.98 0 0 0 55944887.00 29834984.00 L 56515753.00 29834984.00 A 120412.98 120412.98 0 0 0 56515753.00 29594136.00  z"/>
<path id="N" d="M 60795275.00 41338585.00 L 60204725.00 41338585.00 L 60204725.00 41929135.00 L 60795275.00 41929135.00 L 60795275.00 41338585.00  zM 60500000.44 41633858.65 m -180637.35 0 a 180637.35 180637.35 0 1 1 361274.69 0a 180637.35 180637.35 0 1 1 -361274.69 0"/>
<path id="N" d="M 44970012.00 11555139.00 L 44889294.00 11544512.25 L 44889295.00 11250240.00 L 44876813.00 11220107.00 L 44393259.34 10736553.34 L 44420228.00 10681867.00 A 200704.79 200704.79 0 1 0 44326714.00 10803737.00 L 44333744.97 10797570.97 L 44804066.00 11267892.00 L 44804066.00 11544512.25 L 44723348.00 11555139.00 A 476507.85 476507.85 0 1 0 44970012.00 11555139.00  zM 44226362.46 10629912.27 m -120431.73 0 a 120431.73 120431.73 0 1 1 240863.46 0a 120431.73 120431.73 0 1 1 -240863.46 0M 44846680.00 12015419.99 m -297823.01 0 a 297823.01 297823.01 0 1 1 595646.03 0a 297823.01 297823.01 0 1 1 -595646.03 0"/>
<path id="N" d="M 56627010.00 31335444.00 L 56627700.25 31331974.00 L 57220483.00 31331974.00 L 57250616.00 31319493.00 L 57853918.37 30716189.85 L 57900487.00 30747306.00 A 254896.24 254896.24 0 1 0 57762537.00 30609356.00 L 57793653.15 30655924.63 L 57202831.02 31246746.00 L 56627700.25 31246746.00 L 56627010.00 31243276.00 A 120412.98 120412.98 0 0 0 56515753.00 31168936.00 L 55944887.00 31168936.00 A 120431.73 120431.73 0 1 0 55944887.00 31409784.00 L 56515753.00 31409784.00 A 120412.98 120412.98 0 0 0 56627010.00 31335444.00  z"/>
<path id="N" d="M 62367545.00 29654505.00 L 62312614.00 29643578.49 L 62312614.00 28651740.00 L 62300133.00 28621607.00 L 62270928.00 28609136.00 L 62145665.00 28606406.84 L 62145665.00 28425205.00 L 61476375.00 28425205.00 L 61476375.00 28858275.00 L 62145665.00 28858275.00 L 62145665.00 28691655.28 L 62227386.00 28693435.77 L 62227386.00 29643578.49 L 62172455.00 29654505.00 A 254898.03 254898.03 0 1 0 62367545.00 29654505.00  z"/>
<path id="N" d="M 34235452.00 13828899.00 L 34154734.00 13818272.25 L 34154734.00 13629071.70 L 34183673.00 13600133.00 L 34196154.00 13569997.59 L 34196154.00 13085930.47 L 34230347.00 13079129.00 A 200709.51 200709.51 0 1 0 34076733.00 13079129.00 L 34110926.00 13085930.47 L 34110926.00 13552348.70 L 34081987.00 13581287.00 L 34069506.00 13611420.00 L 34069506.00 13818272.25 L 33988788.00 13828899.00 A 476507.85 476507.85 0 1 0 34235452.00 13828899.00  zM 34153542.46 12893692.27 m -120431.73 0 a 120431.73 120431.73 0 1 1 240863.46 0a 120431.73 120431.73 0 1 1 -240863.46 0M 34112120.00 14289179.99 m -297823.01 0 a 297823.01 297823.01 0 1 1 595646.03 0a 297823.01 297823.01 0 1 1 -595646.03 0"/>
<path id="N" d="M 9014135.00 28454505.00 L 8967566.83 28485620.83 L 6344379.17 25862433.17 L 6375495.00 25815865.00 A 254896.24 254896.24 0 1 0 6237545.00 25953815.00 L 6284113.17 25922699.17 L 8907300.83 28545886.83 L 8876185.00 28592455.00 A 254896.24 254896.24 0 1 0 9014135.00 28454505.00  z"/>
<path id="N" d="M 19235452.00 28828899.00 L 19154734.00 28818272.25 L 19153914.00 28026870.47 L 19188107.00 28020069.00 A 200709.51 200709.51 0 1 0 19034493.00 28020069.00 L 19068686.00 28026870.47 L 19069506.00 28818272.25 L 18988788.00 28828899.00 A 476507.85 476507.85 0 1 0 19235452.00 28828899.00  zM 19111302.46 27834632.27 m -120431.73 0 a 120431.73 120431.73 0 1 1 240863.46 0a 120431.73 120431.73 0 1 1 -240863.46 0M 19112120.00 29289179.99 m -297823.01 0 a 297823.01 297823.01 0 1 1 595646.03 0a 297823.01 297823.01 0 1 1 -595646.03 0"/>
<path id="N" d="M 58278265.00 48233811.00 L 58270954.00 48232356.71 L 58270954.00 48183652.00 L 58606593.00 47848013.00 L 58619074.00 47817880.00 L 58619074.00 46561000.00 L 58606591.29 46530866.29 L 58272614.00 46196888.04 L 58272614.00 45932880.00 L 59809867.00 47470133.00 L 59840002.41 47482614.00 L 62875000.00 47482614.00 L 62905133.00 47470133.00 L 63070133.00 47305133.00 L 63082614.00 47275000.00 L 63082614.00 45971560.00 L 63070133.00 45941427.00 L 62641054.00 45512348.00 L 62641054.00 45275590.00 L 62736235.00 45275590.00 L 62736235.00 45039370.00 L 62460645.00 45039370.00 L 62460645.00 45275590.00 L 62555826.00 45275590.00 L 62555826.00 45530000.00 L 62568307.00 45560133.00 L 62997386.00 45989212.00 L 62997386.00 47257348.92 L 62857348.08 47397386.00 L 59857652.00 47397386.00 L 58305272.55 45845006.55 L 58355000.00 45854898.00 A 254898.66 254898.66 0 0 0 58355000.00 45345102.00 L 58272614.00 45361489.67 L 58272614.00 43231594.00 L 58356293.00 43231594.00 L 58356293.00 43248035.00 L 58572827.00 43248035.00 L 58572827.00 43129925.00 L 58356293.00 43129925.00 L 58356293.00 43146366.00 L 58240000.00 43146366.00 L 58209867.00 43158847.00 L 58199867.00 43168847.00 L 58187386.00 43198980.00 L 58187386.00 45411323.58 L 58174760.00 45419760.00 A 254898.66 254898.66 0 0 0 58174760.00 45780240.00 L 58187386.00 45788676.42 L 58187386.00 46214540.00 L 58199867.00 46244673.00 L 58533846.00 46578651.04 L 58533846.00 47800228.00 L 58198207.00 48135867.00 L 58185726.00 48166000.00 L 58185726.00 48232356.71 L 58178415.00 48233811.00 A 130459.26 130459.26 0 1 0 58278265.00 48233811.00  zM 58228339.76 48354338.92 m -80284.08 0 a 80284.08 80284.08 0 1 1 160568.17 0a 80284.08 80284.08 0 1 1 -160568.17 0"/>
<path id="N" d="M 49235452.00 28014139.00 L 49154734.00 28003512.25 L 49154734.00 27763820.00 L 49142253.00 27733687.00 L 49090914.00 27682348.00 L 49090914.00 27200110.47 L 49125107.00 27193309.00 A 200709.51 200709.51 0 1 0 48971493.00 27193309.00 L 49005686.00 27200110.47 L 49005686.00 27700000.00 L 49018167.00 27730133.00 L 49069506.00 27781472.00 L 49069506.00 28003512.25 L 48988788.00 28014139.00 A 476507.85 476507.85 0 1 0 49235452.00 28014139.00  zM 49048302.46 27007872.27 m -120431.73 0 a 120431.73 120431.73 0 1 1 240863.46 0a 120431.73 120431.73 0 1 1 -240863.46 0M 49112120.00 28474419.99 m -297823.01 0 a 297823.01 297823.01 0 1 1 595646.03 0a 297823.01 297823.01 0 1 1 -595646.03 0"/>
<path id="N" d="M 21734632.00 44828999.00 L 21653914.00 44818372.25 L 21654734.00 38260087.75 L 21735452.00 38249461.00 A 476507.85 476507.85 0 0 0 21735452.00 37328899.00 L 21654734.00 37318272.25 L 21654734.00 30760087.75 L 21735452.00 30749461.00 A 476507.85 476507.85 0 0 0 21735452.00 29828899.00 L 21654734.00 29818272.25 L 21654734.00 26595532.00 L 25418472.00 22831794.00 L 28641212.25 22831794.00 L 28651839.00 22912512.00 A 476507.85 476507.85 0 1 0 29524797.00 22550921.00 L 29475234.98 22486330.95 L 34150953.00 17810613.00 L 34163434.00 17780480.00 L 34163434.00 15436012.00 L 34267652.00 15331794.00 L 36141212.25 15331794.00 L 36151839.00 15412512.00 A 476507.85 476507.85 0 1 0 36151839.00 15165848.00 L 36141212.25 15246566.00 L 34250000.00 15246566.00 L 34219867.00 15259047.00 L 34090687.00 15388227.00 L 34078206.00 15418360.00 L 34078206.00 17762829.00 L 29414969.05 22426065.02 L 29350379.00 22376503.00 A 476522.59 476522.59 0 0 0 28651839.00 22665848.00 L 28641212.25 22746566.00 L 25400820.00 22746565.00 L 25370687.00 22759047.00 L 21581987.00 26547747.00 L 21569506.00 26577880.00 L 21569506.00 29818272.25 L 21488788.00 29828899.00 A 476507.85 476507.85 0 0 0 21488788.00 30749461.00 L 21569506.00 30760087.75 L 21569506.00 37318272.25 L 21488788.00 37328899.00 A 476507.85 476507.85 0 0 0 21488788.00 38249461.00 L 21569506.00 38260087.75 L 21568686.00 44818372.25 L 21487968.00 44828999.00 A 476507.85 476507.85 0 1 0 21734632.00 44828999.00  zM 21612120.00 30289179.99 m -297823.01 0 a 297823.01 297823.01 0 1 1 595646.03 0a 297823.01 297823.01 0 1 1 -595646.03 0M 21612120.00 37789179.99 m -297823.01 0 a 297823.01 297823.01 0 1 1 595646.03 0a 297823.01 297823.01 0 1 1 -595646.03 0M 21611300.00 45289279.99 m -297823.01 0 a 297823.01 297823.01 0 1 1 595646.03 0a 297823.01 297823.01 0 1 1 -595646.03 0M 29112120.00 22789179.99 m -297823.01 0 a 297823.01 297823.01 0 1 1 595646.03 0a 297823.01 297823.01 0 1 1 -595646.03 0M 36612120.00 15289179.99 m -297823.01 0 a 297823.01 297823.01 0 1 1 595646.03 0a 297823.01 297823.01 0 1 1 -595646.03 0"/>
<path id="N" d="M 52777545.00 43154505.00 L 52722614.00 43143578.49 L 52722615.00 27580000.00 L 52710133.00 27549867.00 L 52169494.00 27009228.00 L 52169494.00 26642652.00 L 52332652.00 26479494.00 L 53029228.00 26479494.00 L 53267386.00 26717652.00 L 53267386.00 27869520.00 L 53279867.00 27899653.00 L 55439867.00 30059653.00 L 55470000.00 30072134.00 L 55832939.75 30072134.00 L 55833630.00 30075604.00 A 120412.98 120412.98 0 0 0 55944887.00 30149944.00 L 56515753.00 30149944.00 A 120431.73 120431.73 0 0 0 56515753.00 29909096.00 L 55944887.00 29909096.00 A 120431.73 120431.73 0 0 0 55833630.00 29983436.00 L 55832939.75 29986906.00 L 55487651.01 29986906.00 L 53352614.00 27851868.01 L 53352615.00 26700000.00 L 53340133.00 26669867.00 L 53077013.00 26406747.00 L 53046880.00 26394266.00 L 52315000.00 26394265.00 L 52284867.00 26406747.00 L 52096747.00 26594867.00 L 52084266.00 26625000.00 L 52084266.00 27026880.00 L 52096747.00 27057013.00 L 52637386.00 27597652.00 L 52637386.00 43143578.49 L 52582455.00 43154505.00 A 254898.03 254898.03 0 1 0 52777545.00 43154505.00  z"/>
<path id="N" d="M 61499997.35 42633853.57 m -297829.90 0 a 297829.90 297829.90 0 1 1 595659.80 0a 297829.90 297829.90 0 1 1 -595659.80 0M 61500000.44 42633858.65 m -180637.35 0 a 180637.35 180637.35 0 1 1 361274.69 0a 180637.35 180637.35 0 1 1 -361274.69 0"/>
<path id="N" d="M 3270892.00 36325759.00 L 3190174.00 36315132.25 L 3190174.00 36093000.00 L 3177691.29 36062866.29 L 3127174.00 36012348.20 L 3127174.00 35546570.47 L 3161367.00 35539769.00 A 200709.51 200709.51 0 1 0 3007753.00 35539769.00 L 3041946.00 35546570.47 L 3041946.00 36030000.00 L 3054427.00 36060133.00 L 3104946.00 36110651.20 L 3104946.00 36315132.25 L 3024228.00 36325759.00 A 476507.85 476507.85 0 1 0 3270892.00 36325759.00  zM 3084562.46 35354332.27 m -120431.73 0 a 120431.73 120431.73 0 1 1 240863.46 0a 120431.73 120431.73 0 1 1 -240863.46 0M 3147560.00 36786039.99 m -297823.01 0 a 297823.01 297823.01 0 1 1 595646.03 0a 297823.01 297823.01 0 1 1 -595646.03 0"/>
<path id="N" d="M 58655093.00 32121153.00 L 58923631.04 31852614.00 L 59528578.49 31852614.00 L 59539505.00 31907545.00 A 254898.03 254898.03 0 1 0 59539505.00 31712455.00 L 59528578.49 31767386.00 L 58905980.00 31767386.00 L 58875846.29 31779868.71 L 58607308.04 32048406.00 L 58289773.03 32048406.00 L 57904148.00 31662780.00 L 57874015.00 31650299.00 L 56976367.00 31650299.00 L 56946233.29 31662781.71 L 56732348.06 31876666.00 L 56627700.25 31876666.00 L 56627010.00 31873196.00 A 120412.98 120412.98 0 0 0 56515753.00 31798856.00 L 55944887.00 31798856.00 A 120431.73 120431.73 0 1 0 55944887.00 32039704.00 L 56515753.00 32039704.00 A 120431.73 120431.73 0 0 0 56627010.00 31965364.00 L 56627700.25 31961894.00 L 56750000.00 31961894.00 L 56780133.00 31949413.00 L 56994018.06 31735527.00 L 57856363.03 31735527.00 L 58241989.00 32121153.00 L 58272122.00 32133634.00 L 58624960.00 32133634.00 L 58655093.00 32121153.00  z"/>
<path id="N" d="M 58502614.00 43764473.37 L 58502614.00 43562995.00 L 58572827.00 43562995.00 L 58572827.00 43444885.00 L 58356293.00 43444885.00 L 58356293.00 43562995.00 L 58417386.00 43562995.00 L 58417386.00 43823312.94 L 58364505.00 43902455.00 A 254896.24 254896.24 0 1 0 58502614.00 43764473.37  z"/>
<path id="N" d="M 49279481.00 19700803.00 L 49214890.64 19750365.25 L 48698114.00 19233588.01 L 48698114.00 19091057.42 L 48755854.00 19071457.00 A 200709.58 200709.58 0 1 0 48603553.00 19091508.00 L 48612886.00 19092119.73 L 48612886.00 19251240.00 L 48625367.00 19281373.00 L 49154625.25 19810630.64 L 49105063.00 19875221.00 A 476522.59 476522.59 0 1 0 49279481.00 19700803.00  zM 48655502.46 18897632.27 m -120431.73 0 a 120431.73 120431.73 0 1 1 240863.46 0a 120431.73 120431.73 0 1 1 -240863.46 0M 49517740.00 20113479.99 m -297823.01 0 a 297823.01 297823.01 0 1 1 595646.03 0a 297823.01 297823.01 0 1 1 -595646.03 0"/>
<path id="N" d="M 59854684.00 29330693.00 L 59854684.00 28759827.00 A 120431.73 120431.73 0 0 0 59782665.13 28650120.87 L 60380133.00 28052653.00 L 60392614.00 28022517.59 L 60392615.00 22470640.00 L 60380131.29 22440506.29 L 56997354.00 19057728.00 L 56997354.00 14366637.42 L 57055094.00 14347037.00 A 200709.58 200709.58 0 1 0 56902793.00 14367088.00 L 56912126.00 14367699.73 L 56912126.00 19075380.00 L 56924607.00 19105513.00 L 60307386.00 22488291.00 L 60307386.00 28004868.00 L 59704127.00 28608127.00 L 59691646.00 28638260.00 L 59691646.00 28647879.75 L 59688176.00 28648570.00 A 120412.98 120412.98 0 0 0 59613836.00 28759827.00 L 59613836.00 29330693.00 A 120431.73 120431.73 0 0 0 59854684.00 29330693.00  zM 56954742.46 14173212.27 m -120431.73 0 a 120431.73 120431.73 0 1 1 240863.46 0a 120431.73 120431.73 0 1 1 -240863.46 0"/>
<path id="N" d="M 9251977.94 20374017.94 m -200709.51 0 a 200709.51 200709.51 0 1 1 401419.02 0a 200709.51 200709.51 0 1 1 -401419.02 0M 9251982.46 20374012.27 m -120431.73 0 a 120431.73 120431.73 0 1 1 240863.46 0a 120431.73 120431.73 0 1 1 -240863.46 0"/>
<path id="N" d="M 36122037.94 20374017.94 m -200709.51 0 a 200709.51 200709.51 0 1 1 401419.02 0a 200709.51 200709.51 0 1 1 -401419.02 0M 36122042.46 20374012.27 m -120431.73 0 a 120431.73 120431.73 0 1 1 240863.46 0a 120431.73 120431.73 0 1 1 -240863.46 0"/>
<path id="N" d="M 21062977.94 20374017.94 m -200709.51 0 a 200709.51 200709.51 0 1 1 401419.02 0a 200709.51 200709.51 0 1 1 -401419.02 0M 21062982.46 20374012.27 m -120431.73 0 a 120431.73 120431.73 0 1 1 240863.46 0a 120431.73 120431.73 0 1 1 -240863.46 0"/>
<path id="N" d="M 43503937.94 19488197.94 m -200709.51 0 a 200709.51 200709.51 0 1 1 401419.02 0a 200709.51 200709.51 0 1 1 -401419.02 0M 43503942.46 19488192.27 m -120431.73 0 a 120431.73 120431.73 0 1 1 240863.46 0a 120431.73 120431.73 0 1 1 -240863.46 0"/>
<path id="N" d="M 50360257.78 17913378.23 m -200709.58 0 a 200709.58 200709.58 0 1 1 401419.16 0a 200709.58 200709.58 0 1 1 -401419.16 0M 50360262.46 17913372.27 m -120431.73 0 a 120431.73 120431.73 0 1 1 240863.46 0a 120431.73 120431.73 0 1 1 -240863.46 0"/>
<path id="N" d="M 28641717.94 20374017.94 m -200709.51 0 a 200709.51 200709.51 0 1 1 401419.02 0a 200709.51 200709.51 0 1 1 -401419.02 0M 28641722.46 20374012.27 m -120431.73 0 a 120431.73 120431.73 0 1 1 240863.46 0a 120431.73 120431.73 0 1 1 -240863.46 0"/>
<path id="N" d="M 56627010.00 32280324.00 L 56627700.25 32276854.00 L 57389956.00 32276854.00 L 57420089.00 32264373.00 L 57475405.39 32209056.61 L 57496925.00 32241263.00 A 254898.66 254898.66 0 1 0 57422267.00 32061023.00 L 57435646.09 32128283.91 L 57372304.00 32191626.00 L 56627700.25 32191626.00 L 56627010.00 32188156.00 A 120412.98 120412.98 0 0 0 56515753.00 32113816.00 L 55944887.00 32113816.00 A 120431.73 120431.73 0 1 0 55944887.00 32354664.00 L 56515753.00 32354664.00 A 120412.98 120412.98 0 0 0 56627010.00 32280324.00  z"/>
<path id="N" d="M 57687007.00 43129925.00 L 57572614.00 43129925.00 L 57572615.00 38070000.00 L 57560133.00 38039867.00 L 57154379.17 37634113.17 L 57185495.00 37587545.00 A 254896.24 254896.24 0 1 0 57047545.00 37725495.00 L 57094113.17 37694379.17 L 57487386.00 38087652.00 L 57487386.00 43129925.00 L 57470473.00 43129925.00 L 57470473.00 43248035.00 L 57687007.00 43248035.00 L 57687007.00 43129925.00  z"/>
<path id="N" d="M 19235452.00 13828899.00 L 19154734.00 13818272.25 L 19154735.00 13597640.00 L 19142251.29 13567506.29 L 19137094.00 13562348.71 L 19137094.00 13085930.47 L 19171287.00 13079129.00 A 200709.51 200709.51 0 1 0 19017673.00 13079129.00 L 19051866.00 13085930.47 L 19051866.00 13580000.00 L 19064347.00 13610133.00 L 19069506.00 13615291.71 L 19069506.00 13818272.25 L 18988788.00 13828899.00 A 476507.85 476507.85 0 1 0 19235452.00 13828899.00  zM 19094482.46 12893692.27 m -120431.73 0 a 120431.73 120431.73 0 1 1 240863.46 0a 120431.73 120431.73 0 1 1 -240863.46 0M 19112120.00 14289179.99 m -297823.01 0 a 297823.01 297823.01 0 1 1 595646.03 0a 297823.01 297823.01 0 1 1 -595646.03 0"/>
<path id="N" d="M 5770072.00 44825859.00 L 5689354.00 44815232.25 L 5690174.00 38256947.75 L 5770892.00 38246321.00 A 476507.85 476507.85 0 0 0 5770892.00 37325759.00 L 5690174.00 37315132.25 L 5690174.00 30756947.75 L 5770892.00 30746321.00 A 476507.85 476507.85 0 0 0 5770892.00 29825759.00 L 5690174.00 29815132.25 L 5690174.00 23079271.95 L 5937651.05 22831794.00 L 9408932.25 22831794.00 L 9419559.00 22912512.00 A 476507.85 476507.85 0 0 0 10340121.00 22912512.00 L 10350747.75 22831794.00 L 12461528.00 22831794.00 L 14607386.00 24977652.00 L 14607386.00 26873578.49 L 14552455.00 26884505.00 A 254898.03 254898.03 0 1 0 14747545.00 26884505.00 L 14692614.00 26873578.49 L 14692614.00 24960000.00 L 14680133.00 24929867.00 L 12509313.00 22759047.00 L 12479180.00 22746566.00 L 10350747.75 22746566.00 L 10340121.00 22665848.00 A 476507.85 476507.85 0 0 0 10003172.00 22328899.00 L 9922454.00 22318272.25 L 9922454.00 15760087.75 L 10003172.00 15749461.00 A 476507.85 476507.85 0 1 0 9756508.00 15749461.00 L 9837226.00 15760087.75 L 9837226.00 22318272.25 L 9756508.00 22328899.00 A 476507.85 476507.85 0 0 0 9419559.00 22665848.00 L 9408932.25 22746566.00 L 5920000.00 22746566.00 L 5889866.29 22759048.71 L 5617427.00 23031487.00 L 5604946.00 23061620.00 L 5604946.00 29815132.25 L 5524228.00 29825759.00 A 476507.85 476507.85 0 0 0 5524228.00 30746321.00 L 5604946.00 30756947.75 L 5604946.00 37315132.25 L 5524228.00 37325759.00 A 476507.85 476507.85 0 0 0 5524228.00 38246321.00 L 5604946.00 38256947.75 L 5604126.00 44815232.25 L 5523408.00 44825859.00 A 476507.85 476507.85 0 1 0 5770072.00 44825859.00  zM 9879840.00 15289179.99 m -297823.01 0 a 297823.01 297823.01 0 1 1 595646.03 0a 297823.01 297823.01 0 1 1 -595646.03 0M 9879840.00 22789179.99 m -297823.01 0 a 297823.01 297823.01 0 1 1 595646.03 0a 297823.01 297823.01 0 1 1 -595646.03 0M 5647560.00 30286039.99 m -297823.01 0 a 297823.01 297823.01 0 1 1 595646.03 0a 297823.01 297823.01 0 1 1 -595646.03 0M 5647560.00 37786039.99 m -297823.01 0 a 297823.01 297823.01 0 1 1 595646.03 0a 297823.01 297823.01 0 1 1 -595646.03 0M 5646740.00 45286139.99 m -297823.01 0 a 297823.01 297823.01 0 1 1 595646.03 0a 297823.01 297823.01 0 1 1 -595646.03 0"/>
<path id="N" d="M 56515753.00 30539016.00 L 55944887.00 30539016.00 A 120431.73 120431.73 0 0 0 55833630.00 30613356.00 L 55832939.75 30616826.00 L 55587651.00 30616826.00 L 52912614.00 27941788.00 L 52912614.00 27180000.00 L 52900133.00 27149867.00 L 52699379.17 26949113.17 L 52730495.00 26902545.00 A 254896.24 254896.24 0 1 0 52592545.00 27040495.00 L 52639113.17 27009379.17 L 52827386.00 27197652.00 L 52827386.00 27959440.00 L 52839867.00 27989573.00 L 55539867.00 30689573.00 L 55570002.41 30702054.00 L 55832939.75 30702054.00 L 55833630.00 30705524.00 A 120412.98 120412.98 0 0 0 55944887.00 30779864.00 L 56515753.00 30779864.00 A 120412.98 120412.98 0 0 0 56515753.00 30539016.00  z"/>
<path id="N" d="M 3270072.00 43825859.00 L 3189354.00 43815232.25 L 3189354.00 43583000.00 L 3176871.29 43552866.29 L 3126354.00 43502348.20 L 3126354.00 43026890.47 L 3160547.00 43020089.00 A 200709.51 200709.51 0 1 0 3006933.00 43020089.00 L 3041126.00 43026890.47 L 3041126.00 43520000.00 L 3053607.00 43550133.00 L 3104126.00 43600651.20 L 3104126.00 43815232.25 L 3023408.00 43825859.00 A 476507.85 476507.85 0 1 0 3270072.00 43825859.00  zM 3083742.46 42834652.27 m -120431.73 0 a 120431.73 120431.73 0 1 1 240863.46 0a 120431.73 120431.73 0 1 1 -240863.46 0M 3146740.00 44286139.99 m -297823.01 0 a 297823.01 297823.01 0 1 1 595646.03 0a 297823.01 297823.01 0 1 1 -595646.03 0"/>
<path id="N" d="M 11735452.00 28825759.00 L 11654734.00 28815132.25 L 11654734.00 28026890.47 L 11688927.00 28020089.00 A 200709.51 200709.51 0 1 0 11535313.00 28020089.00 L 11569506.00 28026890.47 L 11569506.00 28815132.25 L 11488788.00 28825759.00 A 476507.85 476507.85 0 1 0 11735452.00 28825759.00  zM 11612122.46 27834652.27 m -120431.73 0 a 120431.73 120431.73 0 1 1 240863.46 0a 120431.73 120431.73 0 1 1 -240863.46 0M 11612120.00 29286039.99 m -297823.01 0 a 297823.01 297823.01 0 1 1 595646.03 0a 297823.01 297823.01 0 1 1 -595646.03 0"/>
<path id="N" d="M 41734632.00 43014239.00 L 41653914.00 43003612.25 L 41653914.00 42802132.00 L 41735913.00 42720133.00 L 41748394.00 42689997.59 L 41748394.00 42200110.47 L 41782587.00 42193309.00 A 200709.51 200709.51 0 1 0 41628973.00 42193309.00 L 41663166.00 42200110.47 L 41663166.00 42672348.00 L 41581167.00 42754347.00 L 41568686.00 42784480.00 L 41568686.00 43003612.25 L 41487968.00 43014239.00 A 476507.85 476507.85 0 1 0 41734632.00 43014239.00  zM 41705782.46 42007872.27 m -120431.73 0 a 120431.73 120431.73 0 1 1 240863.46 0a 120431.73 120431.73 0 1 1 -240863.46 0M 41611300.00 43474519.99 m -297823.01 0 a 297823.01 297823.01 0 1 1 595646.03 0a 297823.01 297823.01 0 1 1 -595646.03 0"/>
<path id="N" d="M 9607545.00 18994505.00 L 9552614.00 18983578.49 L 9552614.00 16080000.00 L 9540133.00 16049867.00 L 9322614.00 15832348.00 L 9322614.00 14892651.93 L 9482651.07 14732614.00 L 10602348.00 14732614.00 L 14501654.90 18631919.92 L 14490102.00 18690000.00 A 254898.66 254898.66 0 1 0 14564760.00 18509760.00 L 14538830.82 18548565.79 L 10650133.00 14659867.00 L 10620000.00 14647386.00 L 9465000.00 14647385.00 L 9434866.29 14659868.71 L 9249867.00 14844867.00 L 9237386.00 14875000.00 L 9237386.00 15850000.00 L 9249867.00 15880133.00 L 9467386.00 16097652.00 L 9467386.00 18983578.49 L 9412455.00 18994505.00 A 254898.03 254898.03 0 1 0 9607545.00 18994505.00  z"/>
<path id="N" d="M 56590467.00 48925190.00 L 56590467.00 48688970.00 A 200706.53 200706.53 0 0 0 56189053.00 48688970.00 L 56189053.00 48925190.00 A 200706.53 200706.53 0 0 0 56590467.00 48925190.00  zM 56269336.00 48925190.00 L 56269336.00 48688970.00 A 120431.73 120431.73 0 0 1 56510184.00 48688970.00 L 56510184.00 48925190.00 A 120431.73 120431.73 0 0 1 56269336.00 48925190.00  z"/>
<path id="N" d="M 59952667.00 48925190.00 L 59952667.00 48688970.00 A 200706.53 200706.53 0 0 0 59551253.00 48688970.00 L 59551253.00 48925190.00 A 200706.53 200706.53 0 0 0 59952667.00 48925190.00  zM 59631536.00 48925190.00 L 59631536.00 48688970.00 A 120431.73 120431.73 0 0 1 59872384.00 48688970.00 L 59872384.00 48925190.00 A 120431.73 120431.73 0 0 1 59631536.00 48925190.00  z"/>
<path id="N" d="M 59952667.00 50787410.00 L 59952667.00 50551190.00 A 200706.53 200706.53 0 0 0 59551253.00 50551190.00 L 59551253.00 50787410.00 A 200706.53 200706.53 0 0 0 59952667.00 50787410.00  zM 59631536.00 50787410.00 L 59631536.00 50551190.00 A 120431.73 120431.73 0 0 1 59872384.00 50551190.00 L 59872384.00 50787410.00 A 120431.73 120431.73 0 0 1 59631536.00 50787410.00  z"/>
<path id="N" d="M 59015740.38 48629920.38 m -130459.26 0 a 130459.26 130459.26 0 1 1 260918.51 0a 130459.26 130459.26 0 1 1 -260918.51 0M 59015739.76 48629918.92 m -80284.08 0 a 80284.08 80284.08 0 1 1 160568.17 0a 80284.08 80284.08 0 1 1 -160568.17 0"/>
<path id="N" d="M 58700780.38 48629920.38 m -130459.26 0 a 130459.26 130459.26 0 1 1 260918.51 0a 130459.26 130459.26 0 1 1 -260918.51 0M 58700779.76 48629918.92 m -80284.08 0 a 80284.08 80284.08 0 1 1 160568.17 0a 80284.08 80284.08 0 1 1 -160568.17 0"/>
<path id="N" d="M 57440940.38 48629920.38 m -130459.26 0 a 130459.26 130459.26 0 1 1 260918.51 0a 130459.26 130459.26 0 1 1 -260918.51 0M 57440939.76 48629918.92 m -80284.08 0 a 80284.08 80284.08 0 1 1 160568.17 0a 80284.08 80284.08 0 1 1 -160568.17 0"/>
<path id="N" d="M 57125980.38 48629920.38 m -130459.26 0 a 130459.26 130459.26 0 1 1 260918.51 0a 130459.26 130459.26 0 1 1 -260918.51 0M 57125979.76 48629918.92 m -80284.08 0 a 80284.08 80284.08 0 1 1 160568.17 0a 80284.08 80284.08 0 1 1 -160568.17 0"/>
<path id="N" d="M 57755900.38 48629920.38 m -130459.26 0 a 130459.26 130459.26 0 1 1 260918.51 0a 130459.26 130459.26 0 1 1 -260918.51 0M 57755899.76 48629918.92 m -80284.08 0 a 80284.08 80284.08 0 1 1 160568.17 0a 80284.08 80284.08 0 1 1 -160568.17 0"/>
<path id="N" d="M 61003953.00 30853976.00 L 60433087.00 30853976.00 A 120431.73 120431.73 0 0 0 60433087.00 31094824.00 L 61003953.00 31094824.00 A 120412.98 120412.98 0 0 0 61003953.00 30853976.00  z"/>
<path id="N" d="M 57020044.00 29330693.00 L 57020044.00 28759827.00 A 120431.73 120431.73 0 0 0 56779196.00 28759827.00 L 56779196.00 29330693.00 A 120431.73 120431.73 0 0 0 57020044.00 29330693.00  z"/>
<path id="N" d="M 60169644.00 29330693.00 L 60169644.00 28759827.00 A 120431.73 120431.73 0 1 0 59928796.00 28759827.00 L 59928796.00 29330693.00 A 120431.73 120431.73 0 1 0 60169644.00 29330693.00  z"/>
<path id="N" d="M 61003953.00 32113816.00 L 60433087.00 32113816.00 A 120431.73 120431.73 0 0 0 60433087.00 32354664.00 L 61003953.00 32354664.00 A 120412.98 120412.98 0 0 0 61003953.00 32113816.00  z"/>
<path id="N" d="M 61003953.00 32428776.00 L 60433087.00 32428776.00 A 120431.73 120431.73 0 0 0 60433087.00 32669624.00 L 61003953.00 32669624.00 A 120412.98 120412.98 0 0 0 61003953.00 32428776.00  z"/>
<path id="N" d="M 56515753.00 32743736.00 L 55944887.00 32743736.00 A 120431.73 120431.73 0 1 0 55944887.00 32984584.00 L 56515753.00 32984584.00 A 120412.98 120412.98 0 0 0 56515753.00 32743736.00  z"/>
<path id="N" d="M 59224764.00 33818893.00 L 59224764.00 33248027.00 A 120431.73 120431.73 0 0 0 58983916.00 33248027.00 L 58983916.00 33818893.00 A 120431.73 120431.73 0 1 0 59224764.00 33818893.00  z"/>
<path id="N" d="M 58279884.00 33818893.00 L 58279884.00 33248027.00 A 120431.73 120431.73 0 1 0 58039036.00 33248027.00 L 58039036.00 33818893.00 A 120431.73 120431.73 0 1 0 58279884.00 33818893.00  z"/>
<path id="N" d="M 58594844.00 33818893.00 L 58594844.00 33248027.00 A 120431.73 120431.73 0 0 0 58353996.00 33248027.00 L 58353996.00 33818893.00 A 120431.73 120431.73 0 1 0 58594844.00 33818893.00  z"/>
<path id="N" d="M 61003953.00 30539016.00 L 60433087.00 30539016.00 A 120431.73 120431.73 0 0 0 60433087.00 30779864.00 L 61003953.00 30779864.00 A 120412.98 120412.98 0 0 0 61003953.00 30539016.00  z"/>
<path id="N" d="M 57964924.00 33818893.00 L 57964924.00 33248027.00 A 120431.73 120431.73 0 1 0 57724076.00 33248027.00 L 57724076.00 33818893.00 A 120431.73 120431.73 0 1 0 57964924.00 33818893.00  z"/>
<path id="N" d="M 58909804.00 33818893.00 L 58909804.00 33248027.00 A 120431.73 120431.73 0 0 0 58668956.00 33248027.00 L 58668956.00 33818893.00 A 120431.73 120431.73 0 1 0 58909804.00 33818893.00  z"/>
<path id="N" d="M 41734632.00 35514239.00 L 41653914.00 35503612.25 L 41653914.00 35246955.07 L 41656794.00 35239997.59 L 41656794.00 34719790.47 L 41690987.00 34712989.00 A 200709.51 200709.51 0 1 0 41537373.00 34712989.00 L 41571566.00 34719790.47 L 41571566.00 35235926.79 L 41568686.00 35242880.00 L 41568686.00 35503612.25 L 41487968.00 35514239.00 A 476507.85 476507.85 0 1 0 41734632.00 35514239.00  zM 41614182.46 34527552.27 m -120431.73 0 a 120431.73 120431.73 0 1 1 240863.46 0a 120431.73 120431.73 0 1 1 -240863.46 0M 41611300.00 35974519.99 m -297823.01 0 a 297823.01 297823.01 0 1 1 595646.03 0a 297823.01 297823.01 0 1 1 -595646.03 0"/>
<path id="N" d="M 19234632.00 43828999.00 L 19153914.00 43818372.25 L 19153914.00 43593000.00 L 19141431.29 43562866.29 L 19090914.00 43512348.20 L 19090914.00 43026870.47 L 19125107.00 43020069.00 A 200709.51 200709.51 0 1 0 18971493.00 43020069.00 L 19005686.00 43026870.47 L 19005686.00 43530000.00 L 19018167.00 43560133.00 L 19068686.00 43610651.20 L 19068686.00 43818372.25 L 18987968.00 43828999.00 A 476507.85 476507.85 0 1 0 19234632.00 43828999.00  zM 19048302.46 42834632.27 m -120431.73 0 a 120431.73 120431.73 0 1 1 240863.46 0a 120431.73 120431.73 0 1 1 -240863.46 0M 19111300.00 44289279.99 m -297823.01 0 a 297823.01 297823.01 0 1 1 595646.03 0a 297823.01 297823.01 0 1 1 -595646.03 0"/>
<path id="N" d="M 58593225.00 48233811.00 L 58585914.00 48232356.71 L 58585914.00 48142652.00 L 58720012.00 48008554.00 L 61903140.00 48008554.00 L 61903140.00 48190940.00 L 62703140.00 48190940.00 L 62703140.00 47740940.00 L 61903140.00 47740940.00 L 61903140.00 47923326.00 L 58702360.00 47923325.00 L 58672227.00 47935807.00 L 58513167.00 48094867.00 L 58500686.00 48125000.00 L 58500686.00 48232356.71 L 58493375.00 48233811.00 A 130459.26 130459.26 0 1 0 58593225.00 48233811.00  zM 58543299.76 48354338.92 m -80284.08 0 a 80284.08 80284.08 0 1 1 160568.17 0a 80284.08 80284.08 0 1 1 -160568.17 0"/>
<path id="N" d="M 57598420.38 48354340.38 m -130459.26 0 a 130459.26 130459.26 0 1 1 260918.51 0a 130459.26 130459.26 0 1 1 -260918.51 0M 57598419.76 48354338.92 m -80284.08 0 a 80284.08 80284.08 0 1 1 160568.17 0a 80284.08 80284.08 0 1 1 -160568.17 0"/>
<path id="N" d="M 54202763.00 35787405.00 L 54078054.00 35787405.00 L 54078054.00 35412734.00 L 60625000.00 35412734.00 L 60655133.00 35400253.00 L 60740133.00 35315253.00 L 60752614.00 35285120.00 L 60752614.00 32984584.00 L 61003953.00 32984584.00 A 120431.73 120431.73 0 0 0 61003953.00 32743736.00 L 60433087.00 32743736.00 A 120431.73 120431.73 0 0 0 60433087.00 32984584.00 L 60667386.00 32984584.00 L 60667386.00 35267468.00 L 60607348.00 35327506.00 L 54040320.00 35327506.00 L 54010186.29 35339988.71 L 54005307.00 35344867.00 L 53992826.00 35375000.00 L 53992826.00 35787405.00 L 53868117.00 35787405.00 L 53868117.00 36062995.00 L 54202763.00 36062995.00 L 54202763.00 35787405.00  z"/>
<path id="N" d="M 19235452.00 36328899.00 L 19154734.00 36318272.25 L 19153914.00 35546570.47 L 19188107.00 35539769.00 A 200709.51 200709.51 0 1 0 19034493.00 35539769.00 L 19068686.00 35546570.47 L 19069506.00 36318272.25 L 18988788.00 36328899.00 A 476507.85 476507.85 0 1 0 19235452.00 36328899.00  zM 19111302.46 35354332.27 m -120431.73 0 a 120431.73 120431.73 0 1 1 240863.46 0a 120431.73 120431.73 0 1 1 -240863.46 0M 19112120.00 36789179.99 m -297823.01 0 a 297823.01 297823.01 0 1 1 595646.03 0a 297823.01 297823.01 0 1 1 -595646.03 0"/>
<path id="N" d="M 57963305.00 48233811.00 L 57955994.00 48232356.71 L 57955994.00 47234272.00 L 58055886.83 47134379.17 L 58102455.00 47165495.00 A 254896.24 254896.24 0 1 0 58102455.00 46694505.00 L 58055886.83 46725620.83 L 57952614.00 46622348.00 L 57952615.00 43643940.00 L 57940133.00 43613807.00 L 57800133.00 43473807.00 L 57770000.00 43461326.00 L 57687007.00 43461326.00 L 57687007.00 43444885.00 L 57470473.00 43444885.00 L 57470473.00 43562995.00 L 57687007.00 43562995.00 L 57687007.00 43546554.00 L 57752348.00 43546554.00 L 57867386.00 43661592.00 L 57867386.00 46640084.00 L 57870525.43 48232404.56 L 57863455.00 48233811.00 A 130459.26 130459.26 0 1 0 57963305.00 48233811.00  zM 57953106.59 46889758.40 L 57952817.41 46743083.41 L 57995620.83 46785886.83 L 57964505.00 46832455.00 L 57953106.59 46889758.40  zM 57953553.01 47116180.99 L 57953266.86 46971047.33 L 57964505.00 47027545.00 L 57995620.83 47074113.17 L 57953553.01 47116180.99  zM 57913379.76 48354338.92 m -80284.08 0 a 80284.08 80284.08 0 1 1 160568.17 0a 80284.08 80284.08 0 1 1 -160568.17 0"/>
<path id="N" d="M 60208015.00 45255025.00 L 60218941.51 45200094.00 L 61673245.00 45200094.00 L 61673245.00 45275590.00 L 61948835.00 45275590.00 L 61948835.00 45039370.00 L 61673245.00 45039370.00 L 61673245.00 45114866.00 L 60218941.51 45114866.00 L 60208015.00 45059935.00 A 254898.03 254898.03 0 1 0 60208015.00 45255025.00  z"/>
<path id="N" d="M 51734632.00 44014239.00 L 51653914.00 44003612.25 L 51653914.00 37445427.75 L 51734632.00 37434801.00 A 476507.85 476507.85 0 0 0 51734632.00 36514239.00 L 51653914.00 36503612.25 L 51654734.00 29945327.75 L 51735452.00 29934701.00 A 476507.85 476507.85 0 0 0 51735452.00 29014139.00 L 51654734.00 29003512.25 L 51654734.00 25655532.00 L 56329173.00 20981093.00 L 56341654.00 20950957.59 L 56341654.00 19176412.00 L 56660133.00 18857933.00 L 56672614.00 18827800.00 L 56672614.00 14017652.00 L 56797652.00 13892614.00 L 57107348.01 13892614.00 L 58656286.00 15441551.01 L 58656286.00 15499552.25 L 58575568.00 15510179.00 A 476507.85 476507.85 0 1 0 58822232.00 15510179.00 L 58741514.00 15499552.25 L 58741515.00 15423900.00 L 58729031.29 15393766.29 L 57155133.00 13819867.00 L 57125000.00 13807386.00 L 56780000.00 13807386.00 L 56749867.00 13819867.00 L 56599867.00 13969867.00 L 56587386.00 14000000.00 L 56587386.00 18810148.00 L 56268907.00 19128627.00 L 56256426.00 19158760.00 L 56256426.00 20933308.00 L 51581987.00 25607747.00 L 51569506.00 25637880.00 L 51569506.00 29003512.25 L 51488788.00 29014139.00 A 476507.85 476507.85 0 0 0 51488788.00 29934701.00 L 51569506.00 29945327.75 L 51568686.00 36503612.25 L 51487968.00 36514239.00 A 476507.85 476507.85 0 0 0 51487968.00 37434801.00 L 51568686.00 37445427.75 L 51568686.00 44003612.25 L 51487968.00 44014239.00 A 476507.85 476507.85 0 1 0 51734632.00 44014239.00  zM 58698900.00 15970459.99 m -297823.01 0 a 297823.01 297823.01 0 1 1 595646.03 0a 297823.01 297823.01 0 1 1 -595646.03 0M 51612120.00 29474419.99 m -297823.01 0 a 297823.01 297823.01 0 1 1 595646.03 0a 297823.01 297823.01 0 1 1 -595646.03 0M 51611300.00 36974519.99 m -297823.01 0 a 297823.01 297823.01 0 1 1 595646.03 0a 297823.01 297823.01 0 1 1 -595646.03 0M 51611300.00 44474519.99 m -297823.01 0 a 297823.01 297823.01 0 1 1 595646.03 0a 297823.01 297823.01 0 1 1 -595646.03 0"/>
<path id="N" d="M 59175495.00 32532545.00 L 59186421.51 32477614.00 L 59674280.00 32477614.00 L 59704413.00 32465133.00 L 60207651.02 31961894.00 L 60321139.75 31961894.00 L 60321830.00 31965364.00 A 120412.98 120412.98 0 0 0 60433087.00 32039704.00 L 61003953.00 32039704.00 A 120431.73 120431.73 0 0 0 61003953.00 31798856.00 L 60433087.00 31798856.00 A 120431.73 120431.73 0 0 0 60321830.00 31873196.00 L 60321139.75 31876666.00 L 60190000.00 31876666.00 L 60159866.29 31889148.71 L 59656628.02 32392386.00 L 59186421.51 32392386.00 L 59175495.00 32337455.00 A 254898.03 254898.03 0 1 0 59175495.00 32532545.00  z"/>
<path id="N" d="M 51156607.00 41822451.00 L 51122414.00 41815649.53 L 51122415.00 37489800.00 L 51109933.00 37459667.00 L 51062614.00 37412348.00 L 51062614.00 35407651.96 L 51370133.00 35100133.00 L 51382614.00 35070000.00 L 51382614.00 30715380.87 L 51420240.00 30690240.00 A 254898.66 254898.66 0 1 0 51240000.00 30764898.00 L 51297386.00 30753483.16 L 51297386.00 35052348.96 L 50989867.00 35359867.00 L 50977386.00 35390000.00 L 50977386.00 37430000.00 L 50989867.00 37460133.00 L 51037186.00 37507452.00 L 51037186.00 41815649.53 L 51002993.00 41822451.00 A 200709.51 200709.51 0 1 0 51156607.00 41822451.00  zM 51079802.46 42007872.27 m -120431.73 0 a 120431.73 120431.73 0 1 1 240863.46 0a 120431.73 120431.73 0 1 1 -240863.46 0"/>
<path id="N" d="M 58909804.00 29330693.00 L 58909804.00 28759827.00 A 120431.73 120431.73 0 0 0 58835464.00 28648570.00 L 58831994.00 28647879.75 L 58831994.00 27747651.94 L 58840886.77 27738759.12 L 58887455.00 27769875.00 A 254896.24 254896.24 0 1 0 58749505.00 27631925.00 L 58780620.88 27678493.23 L 58759247.00 27699867.00 L 58746766.00 27730000.00 L 58746766.00 28647879.75 L 58743296.00 28648570.00 A 120412.98 120412.98 0 0 0 58668956.00 28759827.00 L 58668956.00 29330693.00 A 120431.73 120431.73 0 0 0 58909804.00 29330693.00  z"/>
<path id="N" d="M 13579797.94 42834657.94 m -200709.51 0 a 200709.51 200709.51 0 1 1 401419.02 0a 200709.51 200709.51 0 1 1 -401419.02 0M 13579802.46 42834652.27 m -120431.73 0 a 120431.73 120431.73 0 1 1 240863.46 0a 120431.73 120431.73 0 1 1 -240863.46 0"/>
<path id="N" d="M 36016817.94 42834637.94 m -200709.51 0 a 200709.51 200709.51 0 1 1 401419.02 0a 200709.51 200709.51 0 1 1 -401419.02 0M 36016822.46 42834632.27 m -120431.73 0 a 120431.73 120431.73 0 1 1 240863.46 0a 120431.73 120431.73 0 1 1 -240863.46 0"/>
<path id="N" d="M 5052237.94 42834657.94 m -200709.51 0 a 200709.51 200709.51 0 1 1 401419.02 0a 200709.51 200709.51 0 1 1 -401419.02 0M 5052242.46 42834652.27 m -120431.73 0 a 120431.73 120431.73 0 1 1 240863.46 0a 120431.73 120431.73 0 1 1 -240863.46 0"/>
<path id="N" d="M 21016817.94 42834637.94 m -200709.51 0 a 200709.51 200709.51 0 1 1 401419.02 0a 200709.51 200709.51 0 1 1 -401419.02 0M 21016822.46 42834632.27 m -120431.73 0 a 120431.73 120431.73 0 1 1 240863.46 0a 120431.73 120431.73 0 1 1 -240863.46 0"/>
<path id="N" d="M 43674297.94 42007877.94 m -200709.51 0 a 200709.51 200709.51 0 1 1 401419.02 0a 200709.51 200709.51 0 1 1 -401419.02 0M 43674302.46 42007872.27 m -120431.73 0 a 120431.73 120431.73 0 1 1 240863.46 0a 120431.73 120431.73 0 1 1 -240863.46 0"/>
<path id="N" d="M 28622037.94 42834637.94 m -200709.51 0 a 200709.51 200709.51 0 1 1 401419.02 0a 200709.51 200709.51 0 1 1 -401419.02 0M 28622042.46 42834632.27 m -120431.73 0 a 120431.73 120431.73 0 1 1 240863.46 0a 120431.73 120431.73 0 1 1 -240863.46 0"/>
<path id="N" d="M 7503172.00 13828899.00 L 7422454.00 13818272.25 L 7422455.00 13636360.00 L 7409971.29 13606226.29 L 7326094.00 13522348.13 L 7326094.00 13085930.47 L 7360287.00 13079129.00 A 200709.51 200709.51 0 1 0 7206673.00 13079129.00 L 7240866.00 13085930.47 L 7240866.00 13540000.00 L 7253347.00 13570133.00 L 7337226.00 13654011.13 L 7337226.00 13818272.25 L 7256508.00 13828899.00 A 476507.85 476507.85 0 1 0 7503172.00 13828899.00  zM 7283482.46 12893692.27 m -120431.73 0 a 120431.73 120431.73 0 1 1 240863.46 0a 120431.73 120431.73 0 1 1 -240863.46 0M 7379840.00 14289179.99 m -297823.01 0 a 297823.01 297823.01 0 1 1 595646.03 0a 297823.01 297823.01 0 1 1 -595646.03 0"/>
<path id="N" d="M 3270892.00 28825759.00 L 3190174.00 28815132.25 L 3190174.00 28592680.00 L 3177693.00 28562547.00 L 3107494.00 28492348.00 L 3107494.00 28026890.47 L 3141687.00 28020089.00 A 200709.51 200709.51 0 1 0 2988073.00 28020089.00 L 3022266.00 28026890.47 L 3022266.00 28510000.00 L 3034747.00 28540133.00 L 3104946.00 28610332.00 L 3104946.00 28815132.25 L 3024228.00 28825759.00 A 476507.85 476507.85 0 1 0 3270892.00 28825759.00  zM 3064882.46 27834652.27 m -120431.73 0 a 120431.73 120431.73 0 1 1 240863.46 0a 120431.73 120431.73 0 1 1 -240863.46 0M 3147560.00 29286039.99 m -297823.01 0 a 297823.01 297823.01 0 1 1 595646.03 0a 297823.01 297823.01 0 1 1 -595646.03 0"/>
<path id="N" d="M 62874005.00 25492135.00 L 62742614.00 25492135.00 L 62742614.00 23417651.95 L 62980133.00 23180133.00 L 62992614.00 23150000.00 L 62992614.00 19650000.00 L 62980131.29 19619866.29 L 61642614.00 18282348.01 L 61642614.00 17196421.51 L 61697545.00 17185495.00 A 254898.03 254898.03 0 1 0 61502455.00 17185495.00 L 61557386.00 17196421.51 L 61557386.00 18300000.00 L 61569867.00 18330133.00 L 62907386.00 19667651.01 L 62907386.00 23132348.95 L 62669867.00 23369867.00 L 62657386.00 23400000.00 L 62657386.00 25492135.00 L 62519675.00 25492135.00 L 62519675.00 25688985.00 L 62874005.00 25688985.00 L 62874005.00 25492135.00  z"/>
<path id="N" d="M 34235452.00 28828899.00 L 34154734.00 28818272.25 L 34154734.00 28602680.00 L 34142253.00 28572547.00 L 34072054.00 28502348.00 L 34072054.00 28026870.47 L 34106247.00 28020069.00 A 200709.51 200709.51 0 1 0 33952633.00 28020069.00 L 33986826.00 28026870.47 L 33986826.00 28520000.00 L 33999307.00 28550133.00 L 34069506.00 28620332.00 L 34069506.00 28818272.25 L 33988788.00 28828899.00 A 476507.85 476507.85 0 1 0 34235452.00 28828899.00  zM 34029442.46 27834632.27 m -120431.73 0 a 120431.73 120431.73 0 1 1 240863.46 0a 120431.73 120431.73 0 1 1 -240863.46 0M 34112120.00 29289179.99 m -297823.01 0 a 297823.01 297823.01 0 1 1 595646.03 0a 297823.01 297823.01 0 1 1 -595646.03 0"/>
<path id="N" d="M 11735452.00 36325759.00 L 11654734.00 36315132.25 L 11654734.00 35546570.47 L 11688927.00 35539769.00 A 200709.51 200709.51 0 1 0 11535313.00 35539769.00 L 11569506.00 35546570.47 L 11569506.00 36315132.25 L 11488788.00 36325759.00 A 476507.85 476507.85 0 1 0 11735452.00 36325759.00  zM 11612122.46 35354332.27 m -120431.73 0 a 120431.73 120431.73 0 1 1 240863.46 0a 120431.73 120431.73 0 1 1 -240863.46 0M 11612120.00 36786039.99 m -297823.01 0 a 297823.01 297823.01 0 1 1 595646.03 0a 297823.01 297823.01 0 1 1 -595646.03 0"/>
<path id="N" d="M 61115210.00 30390564.00 L 61115900.25 30387094.00 L 61143780.00 30387094.00 L 61173913.00 30374613.00 L 61427813.00 30120713.00 L 61440294.00 30090577.59 L 61440294.00 29338520.00 L 61427813.00 29308387.00 L 60842614.00 28723188.00 L 60842614.00 15770000.00 L 60830131.29 15739866.29 L 52371374.00 7281108.00 L 52371374.00 6197357.42 L 52429114.00 6177757.00 A 200709.58 200709.58 0 1 0 52276813.00 6197808.00 L 52286146.00 6198419.73 L 52286146.00 7298760.00 L 52298627.00 7328893.00 L 60757386.00 15787651.00 L 60757386.00 28740840.00 L 60769867.00 28770973.00 L 61355066.00 29356172.00 L 61355066.00 30072928.00 L 61126128.00 30301866.00 L 61115900.25 30301866.00 L 61115210.00 30298396.00 A 120412.98 120412.98 0 0 0 61003953.00 30224056.00 L 60433087.00 30224056.00 A 120431.73 120431.73 0 0 0 60433087.00 30464904.00 L 61003953.00 30464904.00 A 120412.98 120412.98 0 0 0 61115210.00 30390564.00  zM 52328762.46 6003932.27 m -120431.73 0 a 120431.73 120431.73 0 1 1 240863.46 0a 120431.73 120431.73 0 1 1 -240863.46 0"/>
<path id="N" d="M 21062977.94 12893697.94 m -200709.51 0 a 200709.51 200709.51 0 1 1 401419.02 0a 200709.51 200709.51 0 1 1 -401419.02 0M 21062982.46 12893692.27 m -120431.73 0 a 120431.73 120431.73 0 1 1 240863.46 0a 120431.73 120431.73 0 1 1 -240863.46 0"/>
<path id="N" d="M 9251977.94 12893697.94 m -200709.51 0 a 200709.51 200709.51 0 1 1 401419.02 0a 200709.51 200709.51 0 1 1 -401419.02 0M 9251982.46 12893692.27 m -120431.73 0 a 120431.73 120431.73 0 1 1 240863.46 0a 120431.73 120431.73 0 1 1 -240863.46 0"/>
<path id="N" d="M 45931117.78 9645678.23 m -200709.58 0 a 200709.58 200709.58 0 1 1 401419.16 0a 200709.58 200709.58 0 1 1 -401419.16 0M 45931122.46 9645672.27 m -120431.73 0 a 120431.73 120431.73 0 1 1 240863.46 0a 120431.73 120431.73 0 1 1 -240863.46 0"/>
<path id="N" d="M 36122037.94 12893697.94 m -200709.51 0 a 200709.51 200709.51 0 1 1 401419.02 0a 200709.51 200709.51 0 1 1 -401419.02 0M 36122042.46 12893692.27 m -120431.73 0 a 120431.73 120431.73 0 1 1 240863.46 0a 120431.73 120431.73 0 1 1 -240863.46 0"/>
<path id="N" d="M 57547545.00 45434505.00 L 57492614.00 45423578.49 L 57492614.00 45357240.00 L 57480133.00 45327107.00 L 56065374.00 43912348.00 L 56065374.00 43818890.00 L 56121185.00 43818890.00 L 56121185.00 43582670.00 L 55924335.00 43582670.00 L 55924335.00 43818890.00 L 55980146.00 43818890.00 L 55980146.00 43930000.00 L 55992627.00 43960133.00 L 57407386.00 45374892.00 L 57407386.00 45423578.49 L 57352455.00 45434505.00 A 254898.03 254898.03 0 1 0 57547545.00 45434505.00  z"/>
<path id="N" d="M 36734632.00 44828999.00 L 36653914.00 44818372.25 L 36654734.00 38260087.75 L 36735452.00 38249461.00 A 476507.85 476507.85 0 0 0 36735452.00 37328899.00 L 36654734.00 37318272.25 L 36654734.00 30760087.75 L 36735452.00 30749461.00 A 476507.85 476507.85 0 0 0 37024797.00 30050921.00 L 36975234.97 29986330.93 L 39876293.00 27085273.00 L 39888774.00 27055140.00 L 39888774.00 22142651.92 L 40014391.08 22017034.00 L 43641212.25 22017034.00 L 43651839.00 22097752.00 A 476507.85 476507.85 0 1 0 44524797.00 21736161.00 L 44475235.01 21671570.99 L 46795133.00 19351673.00 L 46807614.00 19321537.59 L 46807614.00 14392652.00 L 46942652.00 14257614.00 L 47625000.00 14257614.00 L 47655133.00 14245133.00 L 47800133.00 14100133.00 L 47812614.00 14069997.59 L 47812614.00 12866421.51 L 47867545.00 12855495.00 A 254898.03 254898.03 0 1 0 47672455.00 12855495.00 L 47727386.00 12866421.51 L 47727386.00 14052348.00 L 47607348.00 14172386.00 L 46925000.00 14172386.00 L 46894867.00 14184867.00 L 46734867.00 14344867.00 L 46722386.00 14375000.00 L 46722386.00 19303888.00 L 44414969.01 21611304.99 L 44350379.00 21561743.00 A 476522.59 476522.59 0 0 0 43651839.00 21851088.00 L 43641212.25 21931806.00 L 39996740.00 21931806.00 L 39966606.29 21944288.71 L 39816027.00 22094867.00 L 39803546.00 22125000.00 L 39803546.00 27037489.00 L 36914969.07 29926065.03 L 36850379.00 29876503.00 A 476522.59 476522.59 0 1 0 36488788.00 30749461.00 L 36569506.00 30760087.75 L 36569506.00 37318272.25 L 36488788.00 37328899.00 A 476507.85 476507.85 0 0 0 36488788.00 38249461.00 L 36569506.00 38260087.75 L 36568686.00 44818372.25 L 36487968.00 44828999.00 A 476507.85 476507.85 0 1 0 36734632.00 44828999.00  zM 44112120.00 21974419.99 m -297823.01 0 a 297823.01 297823.01 0 1 1 595646.03 0a 297823.01 297823.01 0 1 1 -595646.03 0M 36612120.00 30289179.99 m -297823.01 0 a 297823.01 297823.01 0 1 1 595646.03 0a 297823.01 297823.01 0 1 1 -595646.03 0M 36612120.00 37789179.99 m -297823.01 0 a 297823.01 297823.01 0 1 1 595646.03 0a 297823.01 297823.01 0 1 1 -595646.03 0M 36611300.00 45289279.99 m -297823.01 0 a 297823.01 297823.01 0 1 1 595646.03 0a 297823.01 297823.01 0 1 1 -595646.03 0"/>
<path id="N" d="M 61115210.00 31335444.00 L 61115900.25 31331974.00 L 61125000.00 31331974.00 L 61155133.00 31319493.00 L 61585293.00 30889333.00 L 61597774.00 30859200.00 L 61597775.00 29145180.00 L 61585291.29 29115046.29 L 61272614.00 28802368.04 L 61272615.00 15950000.00 L 61260131.29 15919866.29 L 54070434.00 8730168.00 L 54070434.00 8343407.75 L 54151152.00 8332781.00 A 476507.85 476507.85 0 1 0 53904488.00 8332781.00 L 53985206.00 8343407.75 L 53985206.00 8747820.00 L 53997687.00 8777953.00 L 61187386.00 15967651.00 L 61187386.00 28820020.00 L 61199867.00 28850153.00 L 61512546.00 29162831.04 L 61512546.00 30841548.00 L 61113450.85 31240643.15 A 116358.47 116358.47 0 0 0 61003953.00 31168936.00 L 60433087.00 31168936.00 A 120431.73 120431.73 0 0 0 60433087.00 31409784.00 L 61003953.00 31409784.00 A 120412.98 120412.98 0 0 0 61115210.00 31335444.00  zM 54027820.00 7872499.99 m -297823.01 0 a 297823.01 297823.01 0 1 1 595646.03 0a 297823.01 297823.01 0 1 1 -595646.03 0"/>
<path id="N" d="M 41735452.00 20514139.00 L 41654734.00 20503512.25 L 41654735.00 20266680.00 L 41642253.00 20236547.00 L 41578054.00 20172348.00 L 41578054.00 19680430.47 L 41612247.00 19673629.00 A 200709.51 200709.51 0 1 0 41458633.00 19673629.00 L 41492826.00 19680430.47 L 41492826.00 20190000.00 L 41505307.00 20220133.00 L 41569506.00 20284332.00 L 41569506.00 20503512.25 L 41488788.00 20514139.00 A 476507.85 476507.85 0 1 0 41735452.00 20514139.00  zM 41535442.46 19488192.27 m -120431.73 0 a 120431.73 120431.73 0 1 1 240863.46 0a 120431.73 120431.73 0 1 1 -240863.46 0M 41612120.00 20974419.99 m -297823.01 0 a 297823.01 297823.01 0 1 1 595646.03 0a 297823.01 297823.01 0 1 1 -595646.03 0"/>
<path id="N" d="M 7503172.00 21328899.00 L 7422454.00 21318272.25 L 7422455.00 21126360.00 L 7409971.29 21096226.29 L 7326094.00 21012348.13 L 7326094.00 20566250.47 L 7360287.00 20559449.00 A 200709.51 200709.51 0 1 0 7206673.00 20559449.00 L 7240866.00 20566250.47 L 7240866.00 21030000.00 L 7253347.00 21060133.00 L 7337226.00 21144011.13 L 7337226.00 21318272.25 L 7256508.00 21328899.00 A 476507.85 476507.85 0 1 0 7503172.00 21328899.00  zM 7283482.46 20374012.27 m -120431.73 0 a 120431.73 120431.73 0 1 1 240863.46 0a 120431.73 120431.73 0 1 1 -240863.46 0M 7379840.00 21789179.99 m -297823.01 0 a 297823.01 297823.01 0 1 1 595646.03 0a 297823.01 297823.01 0 1 1 -595646.03 0"/>
<path id="N" d="M 58279884.00 29330693.00 L 58279884.00 28759827.00 A 120431.73 120431.73 0 0 0 58205544.00 28648570.00 L 58202074.00 28647879.75 L 58202074.00 27806391.57 L 58218333.00 27790133.00 L 58230814.00 27760000.00 L 58230814.00 26771645.00 L 58385050.00 26771645.00 L 58385050.00 26259835.00 L 57991350.00 26259835.00 L 57991350.00 26473126.00 L 57664011.06 26473126.00 L 57450133.00 26259247.00 L 57420000.00 26246766.00 L 57005904.00 26246766.00 L 57005904.00 26155522.00 L 56753936.00 26155522.00 L 56753936.00 26423238.00 L 57005904.00 26423238.00 L 57005904.00 26331994.00 L 57402348.06 26331994.00 L 57616227.00 26545873.00 L 57646360.00 26558354.00 L 57991350.00 26558354.00 L 57991350.00 26771645.00 L 58145586.00 26771645.00 L 58145586.00 27742348.57 L 58129327.00 27758607.00 L 58116846.00 27788740.00 L 58116846.00 28647879.75 L 58113376.00 28648570.00 A 120412.98 120412.98 0 0 0 58039036.00 28759827.00 L 58039036.00 29330693.00 A 120431.73 120431.73 0 1 0 58279884.00 29330693.00  z"/>
<path id="N" d="M 34234632.00 43828999.00 L 34153914.00 43818372.25 L 34153914.00 43593000.00 L 34141431.29 43562866.29 L 34090914.00 43512348.20 L 34090914.00 43026870.47 L 34125107.00 43020069.00 A 200709.51 200709.51 0 1 0 33971493.00 43020069.00 L 34005686.00 43026870.47 L 34005686.00 43530000.00 L 34018167.00 43560133.00 L 34068686.00 43610651.20 L 34068686.00 43818372.25 L 33987968.00 43828999.00 A 476507.85 476507.85 0 1 0 34234632.00 43828999.00  zM 34048302.46 42834632.27 m -120431.73 0 a 120431.73 120431.73 0 1 1 240863.46 0a 120431.73 120431.73 0 1 1 -240863.46 0M 34111300.00 44289279.99 m -297823.01 0 a 297823.01 297823.01 0 1 1 595646.03 0a 297823.01 297823.01 0 1 1 -595646.03 0"/>
<path id="N" d="M 62757922.00 41484948.00 L 62736758.63 41457367.07 L 63222023.00 40972103.00 L 63234504.00 40941970.00 L 63234504.00 27018075.51 L 63289435.00 27007149.00 A 254898.03 254898.03 0 1 0 63094345.00 27007149.00 L 63149276.00 27018075.51 L 63149276.00 40924318.98 L 62676492.93 41397101.37 L 62648912.00 41375938.00 L 62577082.00 41346185.00 L 62542614.00 41341647.22 L 62542615.00 40944860.00 L 62530131.29 40914726.29 L 62066940.00 40451534.22 L 62066940.00 40196840.00 L 61751980.00 40196840.00 L 61751980.00 40511800.00 L 62006674.22 40511800.00 L 62457386.00 40962511.02 L 62457386.00 41341647.22 L 62422918.00 41346185.00 A 297829.90 297829.90 0 1 0 62757922.00 41484948.00  zM 61909462.46 40354312.27 m -120431.73 0 a 120431.73 120431.73 0 1 1 240863.46 0a 120431.73 120431.73 0 1 1 -240863.46 0M 62500000.44 41633858.65 m -180637.35 0 a 180637.35 180637.35 0 1 1 361274.69 0a 180637.35 180637.35 0 1 1 -361274.69 0"/>
<path id="N" d="M 56720002.41 29612614.00 L 57129060.00 29612614.00 L 57159193.00 29600133.00 L 57244713.00 29514613.00 L 57257194.00 29484477.59 L 57257194.00 29442640.25 L 57260664.00 29441950.00 A 120412.98 120412.98 0 0 0 57335004.00 29330693.00 L 57335004.00 28759827.00 A 120431.73 120431.73 0 1 0 57094156.00 28759827.00 L 57094156.00 29330693.00 A 120431.73 120431.73 0 0 0 57168496.00 29441950.00 L 57171966.00 29442640.25 L 57171966.00 29466828.85 L 57111408.15 29527386.00 L 56737651.01 29527386.00 L 55752614.00 28542348.01 L 55752614.00 26866421.51 L 55807545.00 26855495.00 A 254898.03 254898.03 0 1 0 55612455.00 26855495.00 L 55667386.00 26866421.51 L 55667386.00 28560000.00 L 55679867.00 28590133.00 L 56689867.00 29600133.00 L 56698693.21 29603788.79 L 56720002.41 29612614.00  z"/>
<path id="N" d="M 59539724.00 29330693.00 L 59539724.00 28759827.00 A 120431.73 120431.73 0 0 0 59465384.00 28648570.00 L 59461914.00 28647879.75 L 59461914.00 28533289.59 L 59470000.00 28534898.00 A 254898.66 254898.66 0 1 0 59372455.00 28515495.00 L 59376686.00 28516336.60 L 59376686.00 28647879.75 L 59373216.00 28648570.00 A 120412.98 120412.98 0 0 0 59298876.00 28759827.00 L 59298876.00 29330693.00 A 120431.73 120431.73 0 0 0 59539724.00 29330693.00  z"/>
<path id="N" d="M 21079797.94 27834637.94 m -200709.51 0 a 200709.51 200709.51 0 1 1 401419.02 0a 200709.51 200709.51 0 1 1 -401419.02 0M 21079802.46 27834632.27 m -120431.73 0 a 120431.73 120431.73 0 1 1 240863.46 0a 120431.73 120431.73 0 1 1 -240863.46 0"/>
<path id="N" d="M 28497937.94 27834637.94 m -200709.51 0 a 200709.51 200709.51 0 1 1 401419.02 0a 200709.51 200709.51 0 1 1 -401419.02 0M 28497942.46 27834632.27 m -120431.73 0 a 120431.73 120431.73 0 1 1 240863.46 0a 120431.73 120431.73 0 1 1 -240863.46 0"/>
<path id="N" d="M 13580617.94 27834657.94 m -200709.51 0 a 200709.51 200709.51 0 1 1 401419.02 0a 200709.51 200709.51 0 1 1 -401419.02 0M 13580622.46 27834652.27 m -120431.73 0 a 120431.73 120431.73 0 1 1 240863.46 0a 120431.73 120431.73 0 1 1 -240863.46 0"/>
<path id="N" d="M 5033377.94 27834657.94 m -200709.51 0 a 200709.51 200709.51 0 1 1 401419.02 0a 200709.51 200709.51 0 1 1 -401419.02 0M 5033382.46 27834652.27 m -120431.73 0 a 120431.73 120431.73 0 1 1 240863.46 0a 120431.73 120431.73 0 1 1 -240863.46 0"/>
<path id="N" d="M 35997937.94 27834637.94 m -200709.51 0 a 200709.51 200709.51 0 1 1 401419.02 0a 200709.51 200709.51 0 1 1 -401419.02 0M 35997942.46 27834632.27 m -120431.73 0 a 120431.73 120431.73 0 1 1 240863.46 0a 120431.73 120431.73 0 1 1 -240863.46 0"/>
<path id="N" d="M 43582677.94 27007877.94 m -200709.51 0 a 200709.51 200709.51 0 1 1 401419.02 0a 200709.51 200709.51 0 1 1 -401419.02 0M 43582682.46 27007872.27 m -120431.73 0 a 120431.73 120431.73 0 1 1 240863.46 0a 120431.73 120431.73 0 1 1 -240863.46 0"/>
<path id="N" d="M 51016817.94 27007877.94 m -200709.51 0 a 200709.51 200709.51 0 1 1 401419.02 0a 200709.51 200709.51 0 1 1 -401419.02 0M 51016822.46 27007872.27 m -120431.73 0 a 120431.73 120431.73 0 1 1 240863.46 0a 120431.73 120431.73 0 1 1 -240863.46 0"/>
<path id="N" d="M 26734632.00 43828999.00 L 26653914.00 43818372.25 L 26653914.00 43599891.70 L 26683673.00 43570133.00 L 26696154.00 43540000.00 L 26696154.00 43026870.47 L 26730347.00 43020069.00 A 200709.51 200709.51 0 1 0 26576733.00 43020069.00 L 26610926.00 43026870.47 L 26610926.00 43522348.70 L 26581167.00 43552107.00 L 26568686.00 43582240.00 L 26568686.00 43818372.25 L 26487968.00 43828999.00 A 476507.85 476507.85 0 1 0 26734632.00 43828999.00  zM 26653542.46 42834632.27 m -120431.73 0 a 120431.73 120431.73 0 1 1 240863.46 0a 120431.73 120431.73 0 1 1 -240863.46 0M 26611300.00 44289279.99 m -297823.01 0 a 297823.01 297823.01 0 1 1 595646.03 0a 297823.01 297823.01 0 1 1 -595646.03 0"/>
<path id="N" d="M 19235452.00 21328899.00 L 19154734.00 21318272.25 L 19154735.00 21087640.00 L 19142251.29 21057506.29 L 19137094.00 21052348.71 L 19137094.00 20566250.47 L 19171287.00 20559449.00 A 200709.51 200709.51 0 1 0 19017673.00 20559449.00 L 19051866.00 20566250.47 L 19051866.00 21070000.00 L 19064347.00 21100133.00 L 19069506.00 21105291.71 L 19069506.00 21318272.25 L 18988788.00 21328899.00 A 476507.85 476507.85 0 1 0 19235452.00 21328899.00  zM 19094482.46 20374012.27 m -120431.73 0 a 120431.73 120431.73 0 1 1 240863.46 0a 120431.73 120431.73 0 1 1 -240863.46 0M 19112120.00 21789179.99 m -297823.01 0 a 297823.01 297823.01 0 1 1 595646.03 0a 297823.01 297823.01 0 1 1 -595646.03 0"/>
<path id="N" d="M 49234632.00 35514239.00 L 49153914.00 35503612.25 L 49153914.00 35273000.00 L 49141431.29 35242866.29 L 49090914.00 35192348.20 L 49090914.00 34719790.47 L 49125107.00 34712989.00 A 200709.51 200709.51 0 1 0 48971493.00 34712989.00 L 49005686.00 34719790.47 L 49005686.00 35210000.00 L 49018167.00 35240133.00 L 49068686.00 35290651.20 L 49068686.00 35503612.25 L 48987968.00 35514239.00 A 476507.85 476507.85 0 1 0 49234632.00 35514239.00  zM 49048302.46 34527552.27 m -120431.73 0 a 120431.73 120431.73 0 1 1 240863.46 0a 120431.73 120431.73 0 1 1 -240863.46 0M 49111300.00 35974519.99 m -297823.01 0 a 297823.01 297823.01 0 1 1 595646.03 0a 297823.01 297823.01 0 1 1 -595646.03 0"/>
<path id="N" d="M 54291345.00 46791335.00 L 54078054.00 46791335.00 L 54078054.00 42427382.89 L 54087545.00 42425495.00 A 254898.03 254898.03 0 0 0 54087545.00 41954505.00 L 54078054.00 41952617.11 L 54078054.00 41909445.00 L 54291345.00 41909445.00 L 54291345.00 41555115.00 L 53779535.00 41555115.00 L 53779535.00 41689666.00 L 53767652.00 41689666.00 L 53632614.00 41554628.00 L 53632614.00 32597652.00 L 53767652.00 32462614.00 L 54467386.00 32462614.00 L 54467386.00 33421946.00 L 54389765.00 33421946.00 L 54389765.00 33287395.00 L 53877955.00 33287395.00 L 53877955.00 33641725.00 L 54389765.00 33641725.00 L 54389765.00 33507174.00 L 55462348.18 33507174.00 L 55518767.00 33563593.00 L 55548900.00 33576074.00 L 56779196.00 33576074.00 L 56779196.00 33818893.00 A 120431.73 120431.73 0 1 0 57020044.00 33818893.00 L 57020044.00 33248027.00 A 120431.73 120431.73 0 0 0 56945704.00 33136770.00 L 56942234.00 33136079.75 L 56942234.00 33017651.94 L 57114151.06 32845734.00 L 59860468.00 32845734.00 L 60006606.00 32991872.00 L 60006606.00 33136079.75 L 60003136.00 33136770.00 A 120412.98 120412.98 0 0 0 59928796.00 33248027.00 L 59928796.00 33818893.00 A 120431.73 120431.73 0 1 0 60169644.00 33818893.00 L 60169644.00 33248027.00 A 120431.73 120431.73 0 0 0 60095304.00 33136770.00 L 60091834.00 33136079.75 L 60091835.00 32974220.00 L 60079353.00 32944087.00 L 59908253.00 32772987.00 L 59878120.00 32760506.00 L 57096500.00 32760506.00 L 57066366.29 32772988.71 L 56869487.00 32969867.00 L 56857006.00 33000000.00 L 56857006.00 33136079.75 L 56853536.00 33136770.00 A 120412.98 120412.98 0 0 0 56779196.00 33248027.00 L 56779196.00 33490846.00 L 55566551.18 33490846.00 L 55550265.66 33474560.24 L 55730133.00 33294693.00 L 55742614.00 33264557.59 L 55742614.00 32591814.00 L 55832939.75 32591814.00 L 55833630.00 32595284.00 A 120412.98 120412.98 0 0 0 55944887.00 32669624.00 L 56515753.00 32669624.00 A 120431.73 120431.73 0 0 0 56515753.00 32428776.00 L 55944887.00 32428776.00 A 120431.73 120431.73 0 0 0 55833630.00 32503116.00 L 55832939.75 32506586.00 L 55742614.00 32506586.00 L 55742614.00 31017014.00 L 55832939.75 31017014.00 L 55833630.00 31020484.00 A 120412.98 120412.98 0 0 0 55944887.00 31094824.00 L 56515753.00 31094824.00 A 120431.73 120431.73 0 0 0 56627010.00 31020484.00 L 56627700.25 31017014.00 L 56840000.00 31017014.00 L 56870133.00 31004533.00 L 57559673.00 30314993.00 L 57572154.00 30284857.59 L 57572154.00 29442640.25 L 57575624.00 29441950.00 A 120412.98 120412.98 0 0 0 57649964.00 29330693.00 L 57649964.00 28759827.00 A 120431.73 120431.73 0 0 0 57575624.00 28648570.00 L 57572154.00 28647879.75 L 57572154.00 28260000.00 L 57559671.29 28229866.29 L 56121614.00 26791808.01 L 56121615.00 26359120.00 L 56109131.29 26328986.29 L 55905133.00 26124987.00 L 55875000.00 26112506.00 L 55342760.00 26112506.00 L 55312626.29 26124988.71 L 55131808.06 26305806.00 L 54354459.54 26305806.00 L 54426711.08 26233554.00 L 54508938.00 26233554.00 L 54539071.00 26221073.00 L 54623792.28 26136351.72 L 54642595.00 26164492.00 A 254898.66 254898.66 0 1 0 54567937.00 25984252.00 L 54582441.47 26057170.53 L 54491286.00 26148326.00 L 54409060.00 26148326.00 L 54378926.29 26160808.71 L 54233928.08 26305806.00 L 53917325.00 26305806.00 L 53917325.00 26171255.00 L 53405515.00 26171255.00 L 53405515.00 26525585.00 L 53917325.00 26525585.00 L 53917325.00 26391034.00 L 55149460.00 26391034.00 L 55179593.00 26378553.00 L 55360411.06 26197734.00 L 55857348.06 26197734.00 L 56036386.00 26376771.06 L 56036386.00 26809460.00 L 56048867.00 26839593.00 L 57486926.00 28277651.01 L 57486926.00 28647879.75 L 57483456.00 28648570.00 A 120412.98 120412.98 0 0 0 57409116.00 28759827.00 L 57409116.00 29330693.00 A 120431.73 120431.73 0 0 0 57483456.00 29441950.00 L 57486926.00 29442640.25 L 57486926.00 30267208.00 L 56822348.00 30931786.00 L 56627700.25 30931786.00 L 56627010.00 30928316.00 A 120412.98 120412.98 0 0 0 56515753.00 30853976.00 L 55944887.00 30853976.00 A 120431.73 120431.73 0 0 0 55833630.00 30928316.00 L 55832939.75 30931786.00 L 55710000.00 30931786.00 L 55679867.00 30944267.00 L 55669867.00 30954267.00 L 55657386.00 30984400.00 L 55657386.00 33246908.94 L 55482348.06 33421946.00 L 54552614.00 33421946.00 L 54552614.00 32430000.00 L 54540133.00 32399867.00 L 54530133.00 32389867.00 L 54500000.00 32377386.00 L 53401494.03 32377386.00 L 53414898.00 32310000.00 A 254898.66 254898.66 0 1 0 53340240.00 32490240.00 L 53358699.09 32462614.00 L 53647120.00 32462614.00 L 53559867.00 32549867.00 L 53547386.00 32580000.00 L 53547386.00 41572280.00 L 53559867.00 41602413.00 L 53719867.00 41762413.00 L 53750000.00 41774894.00 L 53779535.00 41774894.00 L 53779535.00 41909445.00 L 53947386.00 41909445.00 L 53947386.00 41943578.49 L 53892455.00 41954505.00 A 254898.03 254898.03 0 0 0 53990000.00 42444898.00 L 53992826.00 42444335.87 L 53992826.00 46791335.00 L 53779535.00 46791335.00 L 53779535.00 47145665.00 L 54291345.00 47145665.00 L 54291345.00 46791335.00  z"/>
<path id="N" d="M 62703140.00 46690940.00 L 62345754.00 46690940.00 L 62345754.00 45123140.00 L 62333271.29 45093006.29 L 61853654.00 44613388.03 L 61853654.00 44527550.00 L 61948835.00 44527550.00 L 61948835.00 44291330.00 L 61853654.00 44291330.00 L 61853655.00 43944900.00 L 61841171.29 43914766.29 L 60736758.69 42810352.85 L 60757922.00 42782772.00 A 297823.01 297823.01 0 0 0 60351088.00 42375938.00 L 60323506.95 42397101.46 L 60122614.00 42196208.03 L 60122614.00 40977651.95 L 60364773.00 40735493.00 L 60377254.00 40705360.00 L 60377254.00 36564958.00 L 60511805.00 36564958.00 L 60511805.00 36269682.00 L 60157475.00 36269682.00 L 60157475.00 36374706.00 L 59527565.00 36374706.00 L 59527565.00 36269682.00 L 59173235.00 36269682.00 L 59173235.00 36374706.00 L 58543305.00 36374706.00 L 58543305.00 36269682.00 L 58188975.00 36269682.00 L 58188975.00 36374706.00 L 57559065.00 36374706.00 L 57559065.00 36269682.00 L 57204735.00 36269682.00 L 57204735.00 36374706.00 L 56574805.00 36374706.00 L 56574805.00 36269682.00 L 56220475.00 36269682.00 L 56220475.00 36564958.00 L 56574805.00 36564958.00 L 56574805.00 36459934.00 L 57204735.00 36459934.00 L 57204735.00 36564958.00 L 57559065.00 36564958.00 L 57559065.00 36459934.00 L 58188975.00 36459934.00 L 58188975.00 36564958.00 L 58543305.00 36564958.00 L 58543305.00 36459934.00 L 59173235.00 36459934.00 L 59173235.00 36564958.00 L 59527565.00 36564958.00 L 59527565.00 36459934.00 L 60157475.00 36459934.00 L 60157475.00 36564958.00 L 60292026.00 36564958.00 L 60292026.00 40687708.95 L 59544113.32 41435620.94 L 59497545.00 41404505.00 A 254896.24 254896.24 0 1 0 59635495.00 41542455.00 L 59604379.06 41495886.68 L 60037386.00 41062879.11 L 60037386.00 42213860.00 L 60049867.00 42243993.00 L 60263241.46 42457366.95 L 60242078.00 42484948.00 A 297823.01 297823.01 0 0 0 60648912.00 42891782.00 L 60676492.85 42870618.69 L 61768426.00 43962551.01 L 61768426.00 44291330.00 L 61673245.00 44291330.00 L 61673245.00 44527550.00 L 61768426.00 44527550.00 L 61768426.00 44631040.00 L 61780907.00 44661173.00 L 62260526.00 45140791.03 L 62260526.00 46690940.00 L 61903140.00 46690940.00 L 61903140.00 47140940.00 L 62703140.00 47140940.00 L 62703140.00 46690940.00  zM 60500000.44 42633858.65 m -180637.35 0 a 180637.35 180637.35 0 1 1 361274.69 0a 180637.35 180637.35 0 1 1 -361274.69 0"/>
<path id="N" d="M 61115210.00 30075604.00 L 61115900.25 30072134.00 L 61151260.00 30072134.00 L 61181393.00 30059653.00 L 61270333.00 29970713.00 L 61282814.00 29940580.00 L 61282815.00 29488520.00 L 61270331.29 29458386.29 L 60552614.00 28740668.02 L 60552614.00 22182062.66 L 60600240.00 22150240.00 A 254898.66 254898.66 0 1 0 60420000.00 22224898.00 L 60467386.00 22215472.29 L 60467386.00 28758320.00 L 60479867.00 28788453.00 L 61197586.00 29506171.02 L 61197586.00 29922928.00 L 61133608.00 29986906.00 L 61115900.25 29986906.00 L 61115210.00 29983436.00 A 120412.98 120412.98 0 0 0 61003953.00 29909096.00 L 60433087.00 29909096.00 A 120431.73 120431.73 0 0 0 60433087.00 30149944.00 L 61003953.00 30149944.00 A 120412.98 120412.98 0 0 0 61115210.00 30075604.00  z"/>
<path id="N" d="M 17814080.00 48484977.00 L 17759149.00 48474050.49 L 17759149.00 47369731.00 L 17746668.00 47339598.00 L 17701157.00 47294087.00 L 17701157.00 43066800.11 L 17716535.00 43069859.00 A 254898.66 254898.66 0 1 0 17536295.00 42995201.00 L 17615929.00 43048410.71 L 17615929.00 47311739.00 L 17628410.00 47341872.00 L 17673921.00 47387383.00 L 17673921.00 48474050.49 L 17618990.00 48484977.00 A 254898.03 254898.03 0 1 0 17814080.00 48484977.00  z"/>
<path id="N" d="M 61835495.00 21422455.00 L 61804379.17 21375886.83 L 62303773.00 20876493.00 L 62316254.00 20846357.59 L 62316254.00 20728345.00 L 62450805.00 20728345.00 L 62450805.00 20216535.00 L 62096475.00 20216535.00 L 62096475.00 20728345.00 L 62231026.00 20728345.00 L 62231026.00 20828708.00 L 61744113.17 21315620.83 L 61697545.00 21284505.00 A 254896.24 254896.24 0 1 0 61835495.00 21422455.00  z"/>
<path id="N" d="M 11734632.00 43825859.00 L 11653914.00 43815232.25 L 11653914.00 43026890.47 L 11688107.00 43020089.00 A 200709.51 200709.51 0 1 0 11534493.00 43020089.00 L 11568686.00 43026890.47 L 11568686.00 43815232.25 L 11487968.00 43825859.00 A 476507.85 476507.85 0 1 0 11734632.00 43825859.00  zM 11611302.46 42834652.27 m -120431.73 0 a 120431.73 120431.73 0 1 1 240863.46 0a 120431.73 120431.73 0 1 1 -240863.46 0M 11611300.00 44286139.99 m -297823.01 0 a 297823.01 297823.01 0 1 1 595646.03 0a 297823.01 297823.01 0 1 1 -595646.03 0"/>
<path id="N" d="M 58594844.00 29330693.00 L 58594844.00 28759827.00 A 120431.73 120431.73 0 0 0 58520504.00 28648570.00 L 58517034.00 28647879.75 L 58517034.00 27240051.92 L 58643091.08 27113994.00 L 59628620.00 27113994.00 L 59658753.00 27101513.00 L 60220133.00 26540133.00 L 60232614.00 26510000.00 L 60232615.00 25375000.00 L 60220131.29 25344866.29 L 60095133.00 25219867.00 L 60065000.00 25207386.00 L 58808420.00 25207386.00 L 58778287.00 25219867.00 L 58768287.00 25229867.00 L 58755806.00 25260000.00 L 58755806.00 25374015.00 L 58601570.00 25374015.00 L 58601570.00 25885825.00 L 58994059.81 25885825.00 L 59047827.00 25939593.00 L 59077960.00 25952074.00 L 59814956.00 25952074.00 L 59814956.00 26043318.00 L 60066924.00 26043318.00 L 60066924.00 25775602.00 L 59814956.00 25775602.00 L 59814956.00 25866846.00 L 59095611.04 25866846.00 L 58995270.00 25766504.60 L 58995270.00 25374015.00 L 58841034.00 25374015.00 L 58841034.00 25292614.00 L 60047348.10 25292614.00 L 60147386.00 25392651.10 L 60147386.00 26492348.00 L 59610968.00 27028766.00 L 58625440.00 27028765.00 L 58595306.29 27041248.71 L 58444287.00 27192267.00 L 58431806.00 27222400.00 L 58431806.00 28647879.75 L 58428336.00 28648570.00 A 120412.98 120412.98 0 0 0 58353996.00 28759827.00 L 58353996.00 29330693.00 A 120431.73 120431.73 0 0 0 58594844.00 29330693.00  z"/>
<path id="N" d="M 26735452.00 21328899.00 L 26654734.00 21318272.25 L 26654734.00 21128751.80 L 26703353.00 21080133.00 L 26715834.00 21050000.00 L 26715834.00 20566250.47 L 26750027.00 20559449.00 A 200709.51 200709.51 0 1 0 26596413.00 20559449.00 L 26630606.00 20566250.47 L 26630606.00 21032348.80 L 26581987.00 21080967.00 L 26569506.00 21111100.00 L 26569506.00 21318272.25 L 26488788.00 21328899.00 A 476507.85 476507.85 0 1 0 26735452.00 21328899.00  zM 26673222.46 20374012.27 m -120431.73 0 a 120431.73 120431.73 0 1 1 240863.46 0a 120431.73 120431.73 0 1 1 -240863.46 0M 26612120.00 21789179.99 m -297823.01 0 a 297823.01 297823.01 0 1 1 595646.03 0a 297823.01 297823.01 0 1 1 -595646.03 0"/>
<path id="N" d="M 26735452.00 36328899.00 L 26654734.00 36318272.25 L 26654734.00 36103000.00 L 26642251.29 36072866.29 L 26591734.00 36022348.20 L 26591734.00 35546570.47 L 26625927.00 35539769.00 A 200709.51 200709.51 0 1 0 26472313.00 35539769.00 L 26506506.00 35546570.47 L 26506506.00 36040000.00 L 26518987.00 36070133.00 L 26569506.00 36120651.20 L 26569506.00 36318272.25 L 26488788.00 36328899.00 A 476507.85 476507.85 0 1 0 26735452.00 36328899.00  zM 26549122.46 35354332.27 m -120431.73 0 a 120431.73 120431.73 0 1 1 240863.46 0a 120431.73 120431.73 0 1 1 -240863.46 0M 26612120.00 36789179.99 m -297823.01 0 a 297823.01 297823.01 0 1 1 595646.03 0a 297823.01 297823.01 0 1 1 -595646.03 0"/>
</g>
</svg>
